{
    "asset" : {
        "generator" : "Khronos glTF Blender I/O v1.2.75",
        "version" : "2.0"
    },
    "scene" : 0,
    "scenes" : [
        {
            "name" : "Scene",
            "nodes" : [
                0
            ]
        }
    ],
    "nodes" : [
        {
            "mesh" : 0,
            "name" : "BeachBall",
            "translation" : [
                0.2165786325931549,
                0.3311454951763153,
                0.6387607455253601
            ]
        }
    ],
    "materials" : [
        {
            "doubleSided" : true,
            "emissiveFactor" : [
                0,
                0,
                0
            ],
            "name" : "BeachBallWhite",
            "pbrMetallicRoughness" : {
                "baseColorFactor" : [
                    0.8000000715255737,
                    0.7760764956474304,
                    0.7760764956474304,
                    1
                ],
                "metallicFactor" : 0,
                "roughnessFactor" : 0.5
            }
        },
        {
            "doubleSided" : true,
            "emissiveFactor" : [
                0,
                0,
                0
            ],
            "name" : "BeachBallBlue",
            "pbrMetallicRoughness" : {
                "baseColorFactor" : [
                    0.010997246950864792,
                    0.13017286360263824,
                    0.8000000715255737,
                    1
                ],
                "metallicFactor" : 0,
                "roughnessFactor" : 0.5
            }
        },
        {
            "doubleSided" : true,
            "emissiveFactor" : [
                0,
                0,
                0
            ],
            "name" : "BeachBallYellow",
            "pbrMetallicRoughness" : {
                "baseColorFactor" : [
                    0.8000000715255737,
                    0.7507337331771851,
                    0.007374560926109552,
                    1
                ],
                "metallicFactor" : 0,
                "roughnessFactor" : 0.5
            }
        },
        {
            "doubleSided" : true,
            "emissiveFactor" : [
                0,
                0,
                0
            ],
            "name" : "BeachBallRed",
            "pbrMetallicRoughness" : {
                "baseColorFactor" : [
                    0.8000000715255737,
                    0.007783728651702404,
                    0.009419599547982216,
                    1
                ],
                "metallicFactor" : 0,
                "roughnessFactor" : 0.5
            }
        }
    ],
    "meshes" : [
        {
            "name" : "BeachBall",
            "primitives" : [
                {
                    "attributes" : {
                        "POSITION" : 0,
                        "NORMAL" : 1
                    },
                    "indices" : 2,
                    "material" : 0
                },
                {
                    "attributes" : {
                        "POSITION" : 3,
                        "NORMAL" : 4
                    },
                    "indices" : 5,
                    "material" : 1
                },
                {
                    "attributes" : {
                        "POSITION" : 6,
                        "NORMAL" : 7
                    },
                    "indices" : 8,
                    "material" : 2
                },
                {
                    "attributes" : {
                        "POSITION" : 9,
                        "NORMAL" : 10
                    },
                    "indices" : 11,
                    "material" : 3
                }
            ]
        }
    ],
    "accessors" : [
        {
            "bufferView" : 0,
            "componentType" : 5126,
            "count" : 240,
            "max" : [
                0.3413848280906677,
                0.3297896385192871,
                0.3413848280906677
            ],
            "min" : [
                -0.3413848280906677,
                -0.3297154903411865,
                -0.3413848280906677
            ],
            "type" : "VEC3"
        },
        {
            "bufferView" : 1,
            "componentType" : 5126,
            "count" : 240,
            "type" : "VEC3"
        },
        {
            "bufferView" : 2,
            "componentType" : 5123,
            "count" : 360,
            "type" : "SCALAR"
        },
        {
            "bufferView" : 3,
            "componentType" : 5126,
            "count" : 116,
            "max" : [
                0.3413848280906677,
                0.3297896385192871,
                0.17069238424301147
            ],
            "min" : [
                -0.3413848280906677,
                -0.34007835388183594,
                -0.17069241404533386
            ],
            "type" : "VEC3"
        },
        {
            "bufferView" : 4,
            "componentType" : 5126,
            "count" : 116,
            "type" : "VEC3"
        },
        {
            "bufferView" : 5,
            "componentType" : 5123,
            "count" : 174,
            "type" : "SCALAR"
        },
        {
            "bufferView" : 6,
            "componentType" : 5126,
            "count" : 116,
            "max" : [
                0.17069239914417267,
                0.3387775421142578,
                0.3413848280906677
            ],
            "min" : [
                -0.17069245874881744,
                -0.3297154903411865,
                -0.3413848280906677
            ],
            "type" : "VEC3"
        },
        {
            "bufferView" : 7,
            "componentType" : 5126,
            "count" : 116,
            "type" : "VEC3"
        },
        {
            "bufferView" : 8,
            "componentType" : 5123,
            "count" : 174,
            "type" : "SCALAR"
        },
        {
            "bufferView" : 9,
            "componentType" : 5126,
            "count" : 80,
            "max" : [
                0.29564791917800903,
                0.3297896385192871,
                0.2956479787826538
            ],
            "min" : [
                -0.29564788937568665,
                -0.3297154903411865,
                -0.29564791917800903
            ],
            "type" : "VEC3"
        },
        {
            "bufferView" : 10,
            "componentType" : 5126,
            "count" : 80,
            "type" : "VEC3"
        },
        {
            "bufferView" : 11,
            "componentType" : 5123,
            "count" : 120,
            "type" : "SCALAR"
        }
    ],
    "bufferViews" : [
        {
            "buffer" : 0,
            "byteLength" : 2880,
            "byteOffset" : 0
        },
        {
            "buffer" : 0,
            "byteLength" : 2880,
            "byteOffset" : 2880
        },
        {
            "buffer" : 0,
            "byteLength" : 720,
            "byteOffset" : 5760
        },
        {
            "buffer" : 0,
            "byteLength" : 1392,
            "byteOffset" : 6480
        },
        {
            "buffer" : 0,
            "byteLength" : 1392,
            "byteOffset" : 7872
        },
        {
            "buffer" : 0,
            "byteLength" : 348,
            "byteOffset" : 9264
        },
        {
            "buffer" : 0,
            "byteLength" : 1392,
            "byteOffset" : 9612
        },
        {
            "buffer" : 0,
            "byteLength" : 1392,
            "byteOffset" : 11004
        },
        {
            "buffer" : 0,
            "byteLength" : 348,
            "byteOffset" : 12396
        },
        {
            "buffer" : 0,
            "byteLength" : 960,
            "byteOffset" : 12744
        },
        {
            "buffer" : 0,
            "byteLength" : 960,
            "byteOffset" : 13704
        },
        {
            "buffer" : 0,
            "byteLength" : 240,
            "byteOffset" : 14664
        }
    ],
    "buffers" : [
        {
            "byteLength" : 14904,
            "uri" : "data:application/octet-stream;base64,"
        }
    ]
}
