{
    "asset" : {
        "generator" : "Khronos glTF Blender I/O v1.2.75",
        "version" : "2.0"
    },
    "scene" : 0,
    "scenes" : [
        {
            "name" : "Scene",
            "nodes" : [
                21,
                22
            ]
        }
    ],
    "nodes" : [
        {
            "name" : "Mesh_20"
        },
        {
            "children" : [
                0
            ],
            "name" : "B_CHAIR1",
            "rotation" : [
                -0.08182261139154434,
                -0.015809163451194763,
                -0.9917759895324707,
                0.09713692218065262
            ],
            "scale" : [
                0.21455757319927216,
                0.21455751359462738,
                0.21455754339694977
            ],
            "translation" : [
                130.72799682617188,
                -73.16948699951172,
                81.95172119140625
            ]
        },
        {
            "name" : "Camera-camera"
        },
        {
            "children" : [
                2
            ],
            "name" : "Camera.001",
            "rotation" : [
                0.4538572132587433,
                0.04783688858151436,
                0.09328898042440414,
                0.8848855495452881
            ],
            "translation" : [
                88.82037353515625,
                -84.26378631591797,
                99.85237121582031
            ]
        },
        {
            "name" : "FLAG",
            "scale" : [
                1.6310850381851196,
                1.6310850381851196,
                1.6310850381851196
            ],
            "translation" : [
                128.4093017578125,
                -44.28049087524414,
                104.697998046875
            ]
        },
        {
            "name" : "PALM1",
            "rotation" : [
                0,
                0,
                0.3575766086578369,
                0.9338839054107666
            ],
            "scale" : [
                1.3755156993865967,
                1.3755156993865967,
                1.3755160570144653
            ],
            "translation" : [
                155.09739685058594,
                -89.18990325927734,
                101.65950012207031
            ]
        },
        {
            "name" : "PALM2",
            "rotation" : [
                0,
                0,
                0.8113086223602295,
                0.5846181511878967
            ],
            "scale" : [
                0.994866669178009,
                0.994866669178009,
                0.9948667287826538
            ],
            "translation" : [
                125.56690216064453,
                -43.433189392089844,
                93.39726257324219
            ]
        },
        {
            "name" : "PALM4",
            "rotation" : [
                0,
                0,
                -0.9998877048492432,
                0.014984811656177044
            ],
            "scale" : [
                1.3755160570144653,
                1.3755160570144653,
                1.3755160570144653
            ],
            "translation" : [
                106.61750030517578,
                -21.4235897064209,
                101.65950012207031
            ]
        },
        {
            "name" : "PALM5",
            "rotation" : [
                0,
                0,
                0.2563154399394989,
                0.9665932059288025
            ],
            "scale" : [
                1.231002926826477,
                1.231002926826477,
                1.2310030460357666
            ],
            "translation" : [
                102.92389678955078,
                -117.16349792480469,
                95.8564682006836
            ]
        },
        {
            "name" : "ROCKS",
            "rotation" : [
                -0.9518662691116333,
                -0.0068906634114682674,
                -0.22548390924930573,
                0.20750944316387177
            ],
            "scale" : [
                1.580009937286377,
                1.580010175704956,
                1.580009937286377
            ],
            "translation" : [
                133.47869873046875,
                -27.50632095336914,
                79.77002716064453
            ]
        },
        {
            "name" : "Sun.001"
        },
        {
            "children" : [
                10
            ],
            "name" : "Sun",
            "rotation" : [
                0,
                -0.30401191115379333,
                0,
                0.9526682496070862
            ],
            "translation" : [
                -14.662949562072754,
                16.742090225219727,
                41.788448333740234
            ]
        },
        {
            "name" : "SURFBOARD",
            "rotation" : [
                0.6919917464256287,
                -0.6881358623504639,
                -0.1460762917995453,
                0.16210584342479706
            ],
            "scale" : [
                1.8105920553207397,
                1.8105924129486084,
                1.8105918169021606
            ],
            "translation" : [
                118.08419799804688,
                -41.667728424072266,
                86.6134262084961
            ]
        },
        {
            "name" : "SURFBOARD2",
            "rotation" : [
                0.45630115270614624,
                -0.8894186615943909,
                -0.016272149980068207,
                0.021425439044833183
            ],
            "scale" : [
                1.8105922937393188,
                1.8105922937393188,
                1.8105922937393188
            ],
            "translation" : [
                110.08260345458984,
                -114.24250030517578,
                87.54969024658203
            ]
        },
        {
            "name" : "TOWEL2",
            "rotation" : [
                0.02300843596458435,
                0.023061666637659073,
                -0.7065080404281616,
                0.7069548964500427
            ],
            "scale" : [
                2.693411350250244,
                2.6934103965759277,
                2.693410634994507
            ],
            "translation" : [
                116.37950134277344,
                -55.32263946533203,
                79.47396850585938
            ]
        },
        {
            "name" : "VOLLEYBALL1",
            "rotation" : [
                0.35088998079299927,
                0,
                0,
                0.9364166855812073
            ],
            "translation" : [
                150.83700561523438,
                -41.758060455322266,
                79.68229675292969
            ]
        },
        {
            "mesh" : 0,
            "name" : "Red-material"
        },
        {
            "mesh" : 1,
            "name" : "Yellow-material.001"
        },
        {
            "children" : [
                16,
                17
            ],
            "name" : "VOLLEYBALL2",
            "scale" : [
                0.06099041923880577,
                0.06099041923880577,
                0.06099041923880577
            ],
            "translation" : [
                142.74180603027344,
                -51.206600189208984,
                82.11022186279297
            ]
        },
        {
            "children" : [
                1,
                3,
                4,
                5,
                6,
                7,
                8,
                9,
                11,
                12,
                13,
                14,
                15,
                18
            ],
            "name" : "Collada visual scene group"
        },
        {
            "children" : [
                19
            ],
            "name" : "RootNode (model correction matrix)"
        },
        {
            "children" : [
                20
            ],
            "name" : "RootNode (gltf orientation matrix)",
            "rotation" : [
                -0.7071067690849304,
                0,
                0,
                0.7071067690849304
            ]
        },
        {
            "name" : "Light",
            "rotation" : [
                0.16907575726509094,
                0.7558803558349609,
                -0.27217137813568115,
                0.570947527885437
            ],
            "translation" : [
                4.076245307922363,
                5.903861999511719,
                -1.0054539442062378
            ]
        }
    ],
    "materials" : [
        {
            "doubleSided" : true,
            "emissiveFactor" : [
                0,
                0,
                0
            ],
            "name" : "material_2",
            "pbrMetallicRoughness" : {
                "baseColorFactor" : [
                    0.6399999856948853,
                    0.11607900261878967,
                    0.08483079820871353,
                    1
                ],
                "metallicFactor" : 0,
                "roughnessFactor" : 0.5527864098548889
            }
        },
        {
            "doubleSided" : true,
            "emissiveFactor" : [
                0,
                0,
                0
            ],
            "name" : "Yellow",
            "pbrMetallicRoughness" : {
                "baseColorFactor" : [
                    0.6399999856948853,
                    0.5378900170326233,
                    0.02147109992802143,
                    1
                ],
                "metallicFactor" : 0,
                "roughnessFactor" : 0.5527864098548889
            }
        }
    ],
    "meshes" : [
        {
            "name" : "Red-material",
            "primitives" : [
                {
                    "attributes" : {
                        "POSITION" : 0,
                        "NORMAL" : 1
                    },
                    "indices" : 2,
                    "material" : 0
                }
            ]
        },
        {
            "name" : "Yellow-material.001",
            "primitives" : [
                {
                    "attributes" : {
                        "POSITION" : 3,
                        "NORMAL" : 4
                    },
                    "indices" : 5,
                    "material" : 1
                }
            ]
        }
    ],
    "accessors" : [
        {
            "bufferView" : 0,
            "componentType" : 5126,
            "count" : 55,
            "max" : [
                231.63389587402344,
                2.1607871055603027,
                55.54484176635742
            ],
            "min" : [
                -75.57917022705078,
                -2.160655975341797,
                -86.8330307006836
            ],
            "type" : "VEC3"
        },
        {
            "bufferView" : 1,
            "componentType" : 5126,
            "count" : 55,
            "type" : "VEC3"
        },
        {
            "bufferView" : 2,
            "componentType" : 5123,
            "count" : 84,
            "type" : "SCALAR"
        },
        {
            "bufferView" : 3,
            "componentType" : 5126,
            "count" : 264,
            "max" : [
                228.52659606933594,
                2.1608660221099854,
                55.54484176635742
            ],
            "min" : [
                -71.8295669555664,
                -2.160655975341797,
                4.0504679679870605
            ],
            "type" : "VEC3"
        },
        {
            "bufferView" : 4,
            "componentType" : 5126,
            "count" : 264,
            "type" : "VEC3"
        },
        {
            "bufferView" : 5,
            "componentType" : 5123,
            "count" : 276,
            "type" : "SCALAR"
        }
    ],
    "bufferViews" : [
        {
            "buffer" : 0,
            "byteLength" : 660,
            "byteOffset" : 0
        },
        {
            "buffer" : 0,
            "byteLength" : 660,
            "byteOffset" : 660
        },
        {
            "buffer" : 0,
            "byteLength" : 168,
            "byteOffset" : 1320
        },
        {
            "buffer" : 0,
            "byteLength" : 3168,
            "byteOffset" : 1488
        },
        {
            "buffer" : 0,
            "byteLength" : 3168,
            "byteOffset" : 4656
        },
        {
            "buffer" : 0,
            "byteLength" : 552,
            "byteOffset" : 7824
        }
    ],
    "buffers" : [
        {
            "byteLength" : 8376,
            "uri" : "data:application/octet-stream;base64,"
        }
    ]
}
