{
    "asset" : {
        "generator" : "Khronos glTF Blender I/O v1.2.75",
        "version" : "2.0"
    },
    "scene" : 0,
    "scenes" : [
        {
            "name" : "Scene",
            "nodes" : [
                0,
                1,
                2
            ]
        }
    ],
    "nodes" : [
        {
            "mesh" : 0,
            "name" : "Icosphere",
            "rotation" : [
                0,
                0.7282594442367554,
                0,
                0.6853015422821045
            ],
            "scale" : [
                0.6723713278770447,
                0.3708382844924927,
                0.6723713278770447
            ],
            "translation" : [
                -5.153720378875732,
                0.119571253657341,
                4.469761848449707
            ]
        },
        {
            "mesh" : 1,
            "name" : "PALM 1.001",
            "rotation" : [
                0.27889537811279297,
                0.36106181144714355,
                -0.1437598317861557,
                0.8781713247299194
            ],
            "scale" : [
                0.24282115697860718,
                0.22570353746414185,
                0.23365503549575806
            ],
            "translation" : [
                -5.032187461853027,
                1.5053712129592896,
                5.150062084197998
            ]
        },
        {
            "mesh" : 2,
            "name" : "PALM3",
            "rotation" : [
                -0.030431384220719337,
                -0.5188060998916626,
                0.004357830621302128,
                0.8543390035629272
            ],
            "scale" : [
                0.2533383369445801,
                0.35280632972717285,
                0.29732438921928406
            ],
            "translation" : [
                -5.278972148895264,
                1.9969041347503662,
                3.655094623565674
            ]
        }
    ],
    "materials" : [
        {
            "doubleSided" : true,
            "emissiveFactor" : [
                0,
                0,
                0
            ],
            "name" : "Material.017",
            "pbrMetallicRoughness" : {
                "baseColorFactor" : [
                    0.04205046594142914,
                    0.1237097680568695,
                    0.01868954859673977,
                    1
                ],
                "metallicFactor" : 0,
                "roughnessFactor" : 0.5
            }
        },
        {
            "doubleSided" : true,
            "emissiveFactor" : [
                0,
                0,
                0
            ],
            "name" : "Material.019",
            "pbrMetallicRoughness" : {
                "baseColorFactor" : [
                    0.8000000715255737,
                    0.7973580956459045,
                    0.03559878468513489,
                    1
                ],
                "metallicFactor" : 0,
                "roughnessFactor" : 0.5
            }
        },
        {
            "doubleSided" : true,
            "emissiveFactor" : [
                0,
                0,
                0
            ],
            "name" : "Material.006",
            "pbrMetallicRoughness" : {
                "baseColorFactor" : [
                    0,
                    0,
                    0,
                    1
                ],
                "metallicFactor" : 0,
                "roughnessFactor" : 0.5
            }
        },
        {
            "doubleSided" : true,
            "emissiveFactor" : [
                0,
                0,
                0
            ],
            "name" : "Material.015",
            "pbrMetallicRoughness" : {
                "baseColorFactor" : [
                    0.06620881706476212,
                    0.1901862621307373,
                    0.039418768137693405,
                    1
                ],
                "metallicFactor" : 0,
                "roughnessFactor" : 0.5
            }
        },
        {
            "doubleSided" : true,
            "emissiveFactor" : [
                0,
                0,
                0
            ],
            "name" : "Material.018",
            "pbrMetallicRoughness" : {
                "baseColorFactor" : [
                    0.8000000715255737,
                    0.08949447423219681,
                    0.018311770632863045,
                    1
                ],
                "metallicFactor" : 0,
                "roughnessFactor" : 0.5
            }
        },
        {
            "doubleSided" : true,
            "emissiveFactor" : [
                0,
                0,
                0
            ],
            "name" : "Material.000",
            "pbrMetallicRoughness" : {
                "baseColorFactor" : [
                    0.8000000715255737,
                    0.5795246362686157,
                    0.23395118117332458,
                    1
                ],
                "metallicFactor" : 0,
                "roughnessFactor" : 0.5
            }
        },
        {
            "doubleSided" : true,
            "emissiveFactor" : [
                0,
                0,
                0
            ],
            "name" : "Material.013",
            "pbrMetallicRoughness" : {
                "baseColorFactor" : [
                    0.14584855735301971,
                    0.4385433793067932,
                    0.08414234220981598,
                    1
                ],
                "metallicFactor" : 0,
                "roughnessFactor" : 0.5
            }
        },
        {
            "doubleSided" : true,
            "emissiveFactor" : [
                0,
                0,
                0
            ],
            "name" : "Material.014",
            "pbrMetallicRoughness" : {
                "baseColorFactor" : [
                    0.06071941554546356,
                    0.03294798359274864,
                    0.01697317510843277,
                    1
                ],
                "metallicFactor" : 0,
                "roughnessFactor" : 0.5
            }
        }
    ],
    "meshes" : [
        {
            "name" : "Icosphere",
            "primitives" : [
                {
                    "attributes" : {
                        "POSITION" : 0,
                        "NORMAL" : 1
                    },
                    "indices" : 2,
                    "material" : 0
                },
                {
                    "attributes" : {
                        "POSITION" : 3,
                        "NORMAL" : 4
                    },
                    "indices" : 5,
                    "material" : 1
                },
                {
                    "attributes" : {
                        "POSITION" : 6,
                        "NORMAL" : 7
                    },
                    "indices" : 8,
                    "material" : 2
                },
                {
                    "attributes" : {
                        "POSITION" : 9,
                        "NORMAL" : 10
                    },
                    "indices" : 11,
                    "material" : 3
                },
                {
                    "attributes" : {
                        "POSITION" : 12,
                        "NORMAL" : 13
                    },
                    "indices" : 14,
                    "material" : 4
                }
            ]
        },
        {
            "name" : "Cylinder.001",
            "primitives" : [
                {
                    "attributes" : {
                        "POSITION" : 15,
                        "NORMAL" : 16
                    },
                    "indices" : 17,
                    "material" : 5
                },
                {
                    "attributes" : {
                        "POSITION" : 18,
                        "NORMAL" : 19
                    },
                    "indices" : 20,
                    "material" : 6
                },
                {
                    "attributes" : {
                        "POSITION" : 21,
                        "NORMAL" : 22
                    },
                    "indices" : 23,
                    "material" : 7
                }
            ]
        },
        {
            "name" : "Cylinder.014",
            "primitives" : [
                {
                    "attributes" : {
                        "POSITION" : 24,
                        "NORMAL" : 25
                    },
                    "indices" : 26,
                    "material" : 5
                },
                {
                    "attributes" : {
                        "POSITION" : 27,
                        "NORMAL" : 28
                    },
                    "indices" : 29,
                    "material" : 6
                },
                {
                    "attributes" : {
                        "POSITION" : 30,
                        "NORMAL" : 31
                    },
                    "indices" : 32,
                    "material" : 7
                }
            ]
        }
    ],
    "accessors" : [
        {
            "bufferView" : 0,
            "componentType" : 5126,
            "count" : 240,
            "max" : [
                1.0347703695297241,
                0.753828763961792,
                0.985239565372467
            ],
            "min" : [
                -0.9495066404342651,
                -1,
                -1.0027902126312256
            ],
            "type" : "VEC3"
        },
        {
            "bufferView" : 1,
            "componentType" : 5126,
            "count" : 240,
            "type" : "VEC3"
        },
        {
            "bufferView" : 2,
            "componentType" : 5123,
            "count" : 240,
            "type" : "SCALAR"
        },
        {
            "bufferView" : 3,
            "componentType" : 5126,
            "count" : 480,
            "max" : [
                0.025354843586683273,
                0.8719991445541382,
                0.9473589062690735
            ],
            "min" : [
                -0.9028692245483398,
                0.15940843522548676,
                0.14387854933738708
            ],
            "type" : "VEC3"
        },
        {
            "bufferView" : 4,
            "componentType" : 5126,
            "count" : 480,
            "type" : "VEC3"
        },
        {
            "bufferView" : 5,
            "componentType" : 5123,
            "count" : 720,
            "type" : "SCALAR"
        },
        {
            "bufferView" : 6,
            "componentType" : 5126,
            "count" : 168,
            "max" : [
                -0.08881697058677673,
                0.6631243228912354,
                0.8314237594604492
            ],
            "min" : [
                -0.7814816236495972,
                0.24074475467205048,
                0.24564334750175476
            ],
            "type" : "VEC3"
        },
        {
            "bufferView" : 7,
            "componentType" : 5126,
            "count" : 168,
            "type" : "VEC3"
        },
        {
            "bufferView" : 8,
            "componentType" : 5123,
            "count" : 216,
            "type" : "SCALAR"
        },
        {
            "bufferView" : 9,
            "componentType" : 5126,
            "count" : 184,
            "max" : [
                0.7465928196907043,
                0.8854019641876221,
                0.8962318301200867
            ],
            "min" : [
                0.1505010575056076,
                -0.07851699739694595,
                -0.015622066333889961
            ],
            "type" : "VEC3"
        },
        {
            "bufferView" : 10,
            "componentType" : 5126,
            "count" : 184,
            "type" : "VEC3"
        },
        {
            "bufferView" : 11,
            "componentType" : 5123,
            "count" : 264,
            "type" : "SCALAR"
        },
        {
            "bufferView" : 12,
            "componentType" : 5126,
            "count" : 208,
            "max" : [
                0.734847903251648,
                0.9531726837158203,
                0.9068508744239807
            ],
            "min" : [
                0.1625739187002182,
                -0.061588604003190994,
                -0.01478536706417799
            ],
            "type" : "VEC3"
        },
        {
            "bufferView" : 13,
            "componentType" : 5126,
            "count" : 208,
            "type" : "VEC3"
        },
        {
            "bufferView" : 14,
            "componentType" : 5123,
            "count" : 288,
            "type" : "SCALAR"
        },
        {
            "bufferView" : 15,
            "componentType" : 5126,
            "count" : 1120,
            "max" : [
                1.1452630758285522,
                9.661407470703125,
                5.082359313964844
            ],
            "min" : [
                -1.1618021726608276,
                -4.301941394805908,
                -0.36253198981285095
            ],
            "type" : "VEC3"
        },
        {
            "bufferView" : 16,
            "componentType" : 5126,
            "count" : 1120,
            "type" : "VEC3"
        },
        {
            "bufferView" : 17,
            "componentType" : 5123,
            "count" : 1848,
            "type" : "SCALAR"
        },
        {
            "bufferView" : 18,
            "componentType" : 5126,
            "count" : 1250,
            "max" : [
                6.460261821746826,
                9.531404495239258,
                6.642169952392578
            ],
            "min" : [
                -6.500048637390137,
                -4.918643951416016,
                -6.763245105743408
            ],
            "type" : "VEC3"
        },
        {
            "bufferView" : 19,
            "componentType" : 5126,
            "count" : 1250,
            "type" : "VEC3"
        },
        {
            "bufferView" : 20,
            "componentType" : 5123,
            "count" : 3102,
            "type" : "SCALAR"
        },
        {
            "bufferView" : 21,
            "componentType" : 5126,
            "count" : 960,
            "max" : [
                1.3777878284454346,
                9.855183601379395,
                1.3545256853103638
            ],
            "min" : [
                -0.8014172911643982,
                7.905736446380615,
                -1.2889714241027832
            ],
            "type" : "VEC3"
        },
        {
            "bufferView" : 22,
            "componentType" : 5126,
            "count" : 960,
            "type" : "VEC3"
        },
        {
            "bufferView" : 23,
            "componentType" : 5123,
            "count" : 960,
            "type" : "SCALAR"
        },
        {
            "bufferView" : 24,
            "componentType" : 5126,
            "count" : 1120,
            "max" : [
                1.14527428150177,
                5.524353504180908,
                0.17335084080696106
            ],
            "min" : [
                -1.1617909669876099,
                -5.0997395515441895,
                -9.159892082214355
            ],
            "type" : "VEC3"
        },
        {
            "bufferView" : 25,
            "componentType" : 5126,
            "count" : 1120,
            "type" : "VEC3"
        },
        {
            "bufferView" : 26,
            "componentType" : 5123,
            "count" : 1848,
            "type" : "SCALAR"
        },
        {
            "bufferView" : 27,
            "componentType" : 5126,
            "count" : 1250,
            "max" : [
                6.292216777801514,
                6.863753318786621,
                0.7100721597671509
            ],
            "min" : [
                -6.668094635009766,
                -5.550704002380371,
                -13.3400239944458
            ],
            "type" : "VEC3"
        },
        {
            "bufferView" : 28,
            "componentType" : 5126,
            "count" : 1250,
            "type" : "VEC3"
        },
        {
            "bufferView" : 29,
            "componentType" : 5123,
            "count" : 3102,
            "type" : "SCALAR"
        },
        {
            "bufferView" : 30,
            "componentType" : 5126,
            "count" : 1440,
            "max" : [
                1.3889659643173218,
                6.56782341003418,
                -7.906566143035889
            ],
            "min" : [
                -1.1263285875320435,
                4.412413597106934,
                -10.084169387817383
            ],
            "type" : "VEC3"
        },
        {
            "bufferView" : 31,
            "componentType" : 5126,
            "count" : 1440,
            "type" : "VEC3"
        },
        {
            "bufferView" : 32,
            "componentType" : 5123,
            "count" : 1440,
            "type" : "SCALAR"
        }
    ],
    "bufferViews" : [
        {
            "buffer" : 0,
            "byteLength" : 2880,
            "byteOffset" : 0
        },
        {
            "buffer" : 0,
            "byteLength" : 2880,
            "byteOffset" : 2880
        },
        {
            "buffer" : 0,
            "byteLength" : 480,
            "byteOffset" : 5760
        },
        {
            "buffer" : 0,
            "byteLength" : 5760,
            "byteOffset" : 6240
        },
        {
            "buffer" : 0,
            "byteLength" : 5760,
            "byteOffset" : 12000
        },
        {
            "buffer" : 0,
            "byteLength" : 1440,
            "byteOffset" : 17760
        },
        {
            "buffer" : 0,
            "byteLength" : 2016,
            "byteOffset" : 19200
        },
        {
            "buffer" : 0,
            "byteLength" : 2016,
            "byteOffset" : 21216
        },
        {
            "buffer" : 0,
            "byteLength" : 432,
            "byteOffset" : 23232
        },
        {
            "buffer" : 0,
            "byteLength" : 2208,
            "byteOffset" : 23664
        },
        {
            "buffer" : 0,
            "byteLength" : 2208,
            "byteOffset" : 25872
        },
        {
            "buffer" : 0,
            "byteLength" : 528,
            "byteOffset" : 28080
        },
        {
            "buffer" : 0,
            "byteLength" : 2496,
            "byteOffset" : 28608
        },
        {
            "buffer" : 0,
            "byteLength" : 2496,
            "byteOffset" : 31104
        },
        {
            "buffer" : 0,
            "byteLength" : 576,
            "byteOffset" : 33600
        },
        {
            "buffer" : 0,
            "byteLength" : 13440,
            "byteOffset" : 34176
        },
        {
            "buffer" : 0,
            "byteLength" : 13440,
            "byteOffset" : 47616
        },
        {
            "buffer" : 0,
            "byteLength" : 3696,
            "byteOffset" : 61056
        },
        {
            "buffer" : 0,
            "byteLength" : 15000,
            "byteOffset" : 64752
        },
        {
            "buffer" : 0,
            "byteLength" : 15000,
            "byteOffset" : 79752
        },
        {
            "buffer" : 0,
            "byteLength" : 6204,
            "byteOffset" : 94752
        },
        {
            "buffer" : 0,
            "byteLength" : 11520,
            "byteOffset" : 100956
        },
        {
            "buffer" : 0,
            "byteLength" : 11520,
            "byteOffset" : 112476
        },
        {
            "buffer" : 0,
            "byteLength" : 1920,
            "byteOffset" : 123996
        },
        {
            "buffer" : 0,
            "byteLength" : 13440,
            "byteOffset" : 125916
        },
        {
            "buffer" : 0,
            "byteLength" : 13440,
            "byteOffset" : 139356
        },
        {
            "buffer" : 0,
            "byteLength" : 3696,
            "byteOffset" : 152796
        },
        {
            "buffer" : 0,
            "byteLength" : 15000,
            "byteOffset" : 156492
        },
        {
            "buffer" : 0,
            "byteLength" : 15000,
            "byteOffset" : 171492
        },
        {
            "buffer" : 0,
            "byteLength" : 6204,
            "byteOffset" : 186492
        },
        {
            "buffer" : 0,
            "byteLength" : 17280,
            "byteOffset" : 192696
        },
        {
            "buffer" : 0,
            "byteLength" : 17280,
            "byteOffset" : 209976
        },
        {
            "buffer" : 0,
            "byteLength" : 2880,
            "byteOffset" : 227256
        }
    ],
    "buffers" : [
        {
            "byteLength" : 230136,
            "uri" : "data:application/octet-stream;base64,"
        }
    ]
}
