{
    "asset" : {
        "generator" : "Khronos glTF Blender I/O v1.2.75",
        "version" : "2.0"
    },
    "scene" : 0,
    "scenes" : [
        {
            "name" : "Scene",
            "nodes" : [
                0,
                1,
                2,
                3
            ]
        }
    ],
    "nodes" : [
        {
            "mesh" : 0,
            "name" : "PALM 1",
            "rotation" : [
                0.21456597745418549,
                0.7229607701301575,
                -0.3069700002670288,
                0.580567479133606
            ],
            "scale" : [
                0.2857072055339813,
                0.2655664086341858,
                0.2749221920967102
            ],
            "translation" : [
                -5.2613935470581055,
                1.8164527416229248,
                -2.2478256225585938
            ]
        },
        {
            "mesh" : 1,
            "name" : "TROPIC ROCK 2",
            "rotation" : [
                0.04184297099709511,
                -0.9313219785690308,
                0.11343391984701157,
                0.3435421884059906
            ],
            "scale" : [
                0.40728795528411865,
                0.4072880148887634,
                0.5276699662208557
            ],
            "translation" : [
                -5.118933200836182,
                0.08519437909126282,
                -3.403306722640991
            ]
        },
        {
            "name" : "Light",
            "rotation" : [
                0.16907575726509094,
                0.7558803558349609,
                -0.27217137813568115,
                0.570947527885437
            ],
            "translation" : [
                4.076245307922363,
                5.903861999511719,
                -1.0054539442062378
            ]
        },
        {
            "name" : "Camera",
            "rotation" : [
                0.483536034822464,
                0.33687159419059753,
                -0.20870360732078552,
                0.7804827094078064
            ],
            "translation" : [
                7.358891487121582,
                4.958309173583984,
                6.925790786743164
            ]
        }
    ],
    "materials" : [
        {
            "doubleSided" : true,
            "emissiveFactor" : [
                0,
                0,
                0
            ],
            "name" : "Material.000",
            "pbrMetallicRoughness" : {
                "baseColorFactor" : [
                    0.8000000715255737,
                    0.5795246362686157,
                    0.23395118117332458,
                    1
                ],
                "metallicFactor" : 0,
                "roughnessFactor" : 0.5
            }
        },
        {
            "doubleSided" : true,
            "emissiveFactor" : [
                0,
                0,
                0
            ],
            "name" : "Material.013",
            "pbrMetallicRoughness" : {
                "baseColorFactor" : [
                    0.14584855735301971,
                    0.4385433793067932,
                    0.08414234220981598,
                    1
                ],
                "metallicFactor" : 0,
                "roughnessFactor" : 0.5
            }
        },
        {
            "doubleSided" : true,
            "emissiveFactor" : [
                0,
                0,
                0
            ],
            "name" : "Material.014",
            "pbrMetallicRoughness" : {
                "baseColorFactor" : [
                    0.06071941554546356,
                    0.03294798359274864,
                    0.01697317510843277,
                    1
                ],
                "metallicFactor" : 0,
                "roughnessFactor" : 0.5
            }
        },
        {
            "doubleSided" : true,
            "emissiveFactor" : [
                0,
                0,
                0
            ],
            "name" : "Material.017",
            "pbrMetallicRoughness" : {
                "baseColorFactor" : [
                    0.04205046594142914,
                    0.1237097680568695,
                    0.01868954859673977,
                    1
                ],
                "metallicFactor" : 0,
                "roughnessFactor" : 0.5
            }
        },
        {
            "doubleSided" : true,
            "emissiveFactor" : [
                0,
                0,
                0
            ],
            "name" : "Material.022",
            "pbrMetallicRoughness" : {
                "baseColorFactor" : [
                    0.03327468782663345,
                    0.03740977495908737,
                    0.03102952428162098,
                    1
                ],
                "metallicFactor" : 0,
                "roughnessFactor" : 0.5
            }
        }
    ],
    "meshes" : [
        {
            "name" : "Cylinder",
            "primitives" : [
                {
                    "attributes" : {
                        "POSITION" : 0,
                        "NORMAL" : 1
                    },
                    "indices" : 2,
                    "material" : 0
                },
                {
                    "attributes" : {
                        "POSITION" : 3,
                        "NORMAL" : 4
                    },
                    "indices" : 5,
                    "material" : 1
                },
                {
                    "attributes" : {
                        "POSITION" : 6,
                        "NORMAL" : 7
                    },
                    "indices" : 8,
                    "material" : 2
                }
            ]
        },
        {
            "name" : "Icosphere.008",
            "primitives" : [
                {
                    "attributes" : {
                        "POSITION" : 9,
                        "NORMAL" : 10
                    },
                    "indices" : 11,
                    "material" : 3
                },
                {
                    "attributes" : {
                        "POSITION" : 12,
                        "NORMAL" : 13
                    },
                    "indices" : 11,
                    "material" : 4
                }
            ]
        }
    ],
    "accessors" : [
        {
            "bufferView" : 0,
            "componentType" : 5126,
            "count" : 1829,
            "max" : [
                1.1452630758285522,
                9.661407470703125,
                5.082359313964844
            ],
            "min" : [
                -1.1618021726608276,
                -4.301941394805908,
                -0.36253198981285095
            ],
            "type" : "VEC3"
        },
        {
            "bufferView" : 1,
            "componentType" : 5126,
            "count" : 1829,
            "type" : "VEC3"
        },
        {
            "bufferView" : 2,
            "componentType" : 5123,
            "count" : 1848,
            "type" : "SCALAR"
        },
        {
            "bufferView" : 3,
            "componentType" : 5126,
            "count" : 2795,
            "max" : [
                6.460261821746826,
                9.531404495239258,
                6.642169952392578
            ],
            "min" : [
                -6.500048637390137,
                -4.918643951416016,
                -6.763245105743408
            ],
            "type" : "VEC3"
        },
        {
            "bufferView" : 4,
            "componentType" : 5126,
            "count" : 2795,
            "type" : "VEC3"
        },
        {
            "bufferView" : 5,
            "componentType" : 5123,
            "count" : 3102,
            "type" : "SCALAR"
        },
        {
            "bufferView" : 6,
            "componentType" : 5126,
            "count" : 960,
            "max" : [
                1.3777878284454346,
                9.855183601379395,
                1.3545256853103638
            ],
            "min" : [
                -0.8014172911643982,
                7.905736446380615,
                -1.2889714241027832
            ],
            "type" : "VEC3"
        },
        {
            "bufferView" : 7,
            "componentType" : 5126,
            "count" : 960,
            "type" : "VEC3"
        },
        {
            "bufferView" : 8,
            "componentType" : 5123,
            "count" : 960,
            "type" : "SCALAR"
        },
        {
            "bufferView" : 9,
            "componentType" : 5126,
            "count" : 226,
            "max" : [
                0.8075526356697083,
                0.9761890769004822,
                0.8404042720794678
            ],
            "min" : [
                -0.8606242537498474,
                -0.7916188836097717,
                -0.7431605458259583
            ],
            "type" : "VEC3"
        },
        {
            "bufferView" : 10,
            "componentType" : 5126,
            "count" : 226,
            "type" : "VEC3"
        },
        {
            "bufferView" : 11,
            "componentType" : 5123,
            "count" : 240,
            "type" : "SCALAR"
        },
        {
            "bufferView" : 12,
            "componentType" : 5126,
            "count" : 226,
            "max" : [
                0.8596248626708984,
                0.9411983489990234,
                0.9132865071296692
            ],
            "min" : [
                -0.9161186218261719,
                -0.9406005144119263,
                -0.7723889350891113
            ],
            "type" : "VEC3"
        },
        {
            "bufferView" : 13,
            "componentType" : 5126,
            "count" : 226,
            "type" : "VEC3"
        }
    ],
    "bufferViews" : [
        {
            "buffer" : 0,
            "byteLength" : 21948,
            "byteOffset" : 0
        },
        {
            "buffer" : 0,
            "byteLength" : 21948,
            "byteOffset" : 21948
        },
        {
            "buffer" : 0,
            "byteLength" : 3696,
            "byteOffset" : 43896
        },
        {
            "buffer" : 0,
            "byteLength" : 33540,
            "byteOffset" : 47592
        },
        {
            "buffer" : 0,
            "byteLength" : 33540,
            "byteOffset" : 81132
        },
        {
            "buffer" : 0,
            "byteLength" : 6204,
            "byteOffset" : 114672
        },
        {
            "buffer" : 0,
            "byteLength" : 11520,
            "byteOffset" : 120876
        },
        {
            "buffer" : 0,
            "byteLength" : 11520,
            "byteOffset" : 132396
        },
        {
            "buffer" : 0,
            "byteLength" : 1920,
            "byteOffset" : 143916
        },
        {
            "buffer" : 0,
            "byteLength" : 2712,
            "byteOffset" : 145836
        },
        {
            "buffer" : 0,
            "byteLength" : 2712,
            "byteOffset" : 148548
        },
        {
            "buffer" : 0,
            "byteLength" : 480,
            "byteOffset" : 151260
        },
        {
            "buffer" : 0,
            "byteLength" : 2712,
            "byteOffset" : 151740
        },
        {
            "buffer" : 0,
            "byteLength" : 2712,
            "byteOffset" : 154452
        }
    ],
    "buffers" : [
        {
            "byteLength" : 157164,
            "uri" : "data:application/octet-stream;base64,"
        }
    ]
}
