{
    "asset" : {
        "generator" : "Khronos glTF Blender I/O v1.2.75",
        "version" : "2.0"
    },
    "scene" : 0,
    "scenes" : [
        {
            "name" : "Scene",
            "nodes" : [
                0
            ]
        }
    ],
    "nodes" : [
        {
            "mesh" : 0,
            "name" : "PALM 2",
            "rotation" : [
                -0.21476267278194427,
                -0.4540824890136719,
                -0.12487632781267166,
                0.855623722076416
            ],
            "scale" : [
                0.2677064538002014,
                0.2677065134048462,
                0.2677065432071686
            ],
            "translation" : [
                2.0008771419525146,
                0.8977700471878052,
                -4.937132835388184
            ]
        }
    ],
    "materials" : [
        {
            "doubleSided" : true,
            "emissiveFactor" : [
                0,
                0,
                0
            ],
            "name" : "Material.005",
            "pbrMetallicRoughness" : {
                "baseColorFactor" : [
                    0.8000000715255737,
                    0.5795246362686157,
                    0.23395118117332458,
                    1
                ],
                "metallicFactor" : 0,
                "roughnessFactor" : 0.5
            }
        },
        {
            "doubleSided" : true,
            "emissiveFactor" : [
                0,
                0,
                0
            ],
            "name" : "Material.007",
            "pbrMetallicRoughness" : {
                "baseColorFactor" : [
                    0.14584855735301971,
                    0.4385433793067932,
                    0.08414234220981598,
                    1
                ],
                "metallicFactor" : 0,
                "roughnessFactor" : 0.5
            }
        },
        {
            "doubleSided" : true,
            "emissiveFactor" : [
                0,
                0,
                0
            ],
            "name" : "Material.008",
            "pbrMetallicRoughness" : {
                "baseColorFactor" : [
                    0.06071941554546356,
                    0.03294798359274864,
                    0.01697317510843277,
                    1
                ],
                "metallicFactor" : 0,
                "roughnessFactor" : 0.5
            }
        }
    ],
    "meshes" : [
        {
            "name" : "Cylinder.010",
            "primitives" : [
                {
                    "attributes" : {
                        "POSITION" : 0,
                        "NORMAL" : 1
                    },
                    "indices" : 2,
                    "material" : 0
                },
                {
                    "attributes" : {
                        "POSITION" : 3,
                        "NORMAL" : 4
                    },
                    "indices" : 5,
                    "material" : 1
                },
                {
                    "attributes" : {
                        "POSITION" : 6,
                        "NORMAL" : 7
                    },
                    "indices" : 8,
                    "material" : 2
                }
            ]
        }
    ],
    "accessors" : [
        {
            "bufferView" : 0,
            "componentType" : 5126,
            "count" : 1955,
            "max" : [
                0.24266789853572845,
                5.930619239807129,
                2.871572971343994
            ],
            "min" : [
                -4.309683322906494,
                -4.044457912445068,
                -0.31985604763031006
            ],
            "type" : "VEC3"
        },
        {
            "bufferView" : 1,
            "componentType" : 5126,
            "count" : 1955,
            "type" : "VEC3"
        },
        {
            "bufferView" : 2,
            "componentType" : 5123,
            "count" : 1980,
            "type" : "SCALAR"
        },
        {
            "bufferView" : 3,
            "componentType" : 5126,
            "count" : 2790,
            "max" : [
                6.332901477813721,
                8.073369979858398,
                5.626663684844971
            ],
            "min" : [
                -7.2014594078063965,
                -4.042036533355713,
                -7.290823459625244
            ],
            "type" : "VEC3"
        },
        {
            "bufferView" : 4,
            "componentType" : 5126,
            "count" : 2790,
            "type" : "VEC3"
        },
        {
            "bufferView" : 5,
            "componentType" : 5123,
            "count" : 3102,
            "type" : "SCALAR"
        },
        {
            "bufferView" : 6,
            "componentType" : 5126,
            "count" : 960,
            "max" : [
                1.344936490058899,
                7.460663318634033,
                1.2532683610916138
            ],
            "min" : [
                -0.8139552474021912,
                5.299280166625977,
                -1.2106177806854248
            ],
            "type" : "VEC3"
        },
        {
            "bufferView" : 7,
            "componentType" : 5126,
            "count" : 960,
            "type" : "VEC3"
        },
        {
            "bufferView" : 8,
            "componentType" : 5123,
            "count" : 960,
            "type" : "SCALAR"
        }
    ],
    "bufferViews" : [
        {
            "buffer" : 0,
            "byteLength" : 23460,
            "byteOffset" : 0
        },
        {
            "buffer" : 0,
            "byteLength" : 23460,
            "byteOffset" : 23460
        },
        {
            "buffer" : 0,
            "byteLength" : 3960,
            "byteOffset" : 46920
        },
        {
            "buffer" : 0,
            "byteLength" : 33480,
            "byteOffset" : 50880
        },
        {
            "buffer" : 0,
            "byteLength" : 33480,
            "byteOffset" : 84360
        },
        {
            "buffer" : 0,
            "byteLength" : 6204,
            "byteOffset" : 117840
        },
        {
            "buffer" : 0,
            "byteLength" : 11520,
            "byteOffset" : 124044
        },
        {
            "buffer" : 0,
            "byteLength" : 11520,
            "byteOffset" : 135564
        },
        {
            "buffer" : 0,
            "byteLength" : 1920,
            "byteOffset" : 147084
        }
    ],
    "buffers" : [
        {
            "byteLength" : 149004,
            "uri" : "data:application/octet-stream;base64,"
        }
    ]
}
