{
    "asset" : {
        "generator" : "Khronos glTF Blender I/O v1.2.75",
        "version" : "2.0"
    },
    "scene" : 0,
    "scenes" : [
        {
            "name" : "Scene",
            "nodes" : [
                0,
                1
            ]
        }
    ],
    "nodes" : [
        {
            "mesh" : 0,
            "name" : "Cube.006",
            "scale" : [
                0.49841704964637756,
                0.49841704964637756,
                0.49841704964637756
            ],
            "translation" : [
                -0.3075069785118103,
                -0.061907291412353516,
                -1.249096393585205
            ]
        },
        {
            "name" : "Camera",
            "rotation" : [
                0.4619399607181549,
                0.3314136862754822,
                -0.19134193658828735,
                0.800102949142456
            ],
            "translation" : [
                12.039999961853027,
                9.659996032714844,
                12.069999694824219
            ]
        }
    ],
    "materials" : [
        {
            "doubleSided" : true,
            "emissiveFactor" : [
                0,
                0,
                0
            ],
            "name" : "Material.009",
            "pbrMetallicRoughness" : {
                "baseColorFactor" : [
                    0.8549931049346924,
                    0.45641085505485535,
                    0.04518628120422363,
                    1
                ],
                "metallicFactor" : 0,
                "roughnessFactor" : 0.5
            }
        }
    ],
    "meshes" : [
        {
            "name" : "Cube.001",
            "primitives" : [
                {
                    "attributes" : {
                        "POSITION" : 0,
                        "NORMAL" : 1
                    },
                    "indices" : 2,
                    "material" : 0
                }
            ]
        }
    ],
    "accessors" : [
        {
            "bufferView" : 0,
            "componentType" : 5126,
            "count" : 2510,
            "max" : [
                3.6251795291900635,
                5.009336948394775,
                5.079786777496338
            ],
            "min" : [
                -1.069180965423584,
                -1.0930185317993164,
                -1.063209891319275
            ],
            "type" : "VEC3"
        },
        {
            "bufferView" : 1,
            "componentType" : 5126,
            "count" : 2510,
            "type" : "VEC3"
        },
        {
            "bufferView" : 2,
            "componentType" : 5123,
            "count" : 3228,
            "type" : "SCALAR"
        }
    ],
    "bufferViews" : [
        {
            "buffer" : 0,
            "byteLength" : 30120,
            "byteOffset" : 0
        },
        {
            "buffer" : 0,
            "byteLength" : 30120,
            "byteOffset" : 30120
        },
        {
            "buffer" : 0,
            "byteLength" : 6456,
            "byteOffset" : 60240
        }
    ],
    "buffers" : [
        {
            "byteLength" : 66696,
            "uri" : "data:application/octet-stream;base64,"
        }
    ]
}
