{
    "asset" : {
        "generator" : "Khronos glTF Blender I/O v1.2.75",
        "version" : "2.0"
    },
    "scene" : 0,
    "scenes" : [
        {
            "name" : "Scene",
            "nodes" : [
                0,
                1,
                2,
                3,
                4
            ]
        }
    ],
    "nodes" : [
        {
            "name" : "Camera",
            "rotation" : [
                0.4619399607181549,
                0.3314136862754822,
                -0.19134193658828735,
                0.800102949142456
            ],
            "translation" : [
                12.039999961853027,
                9.659996032714844,
                12.069999694824219
            ]
        },
        {
            "name" : "Point.001",
            "translation" : [
                0.0010945498943328857,
                9.707029342651367,
                -0.1123514175415039
            ]
        },
        {
            "name" : "Point",
            "translation" : [
                0.0010945498943328857,
                4.288434028625488,
                -0.1123514175415039
            ]
        },
        {
            "mesh" : 0,
            "name" : "Cube",
            "scale" : [
                1.6153104305267334,
                3.4924914836883545,
                1.7025896310806274
            ],
            "translation" : [
                0,
                3.5153450965881348,
                0
            ]
        },
        {
            "name" : "Camera.001",
            "rotation" : [
                0.5162329077720642,
                0.3240383267402649,
                -0.2195834368467331,
                0.7617650032043457
            ],
            "translation" : [
                37.3989143371582,
                23.722536087036133,
                35.26310729980469
            ]
        }
    ],
    "materials" : [
        {
            "doubleSided" : true,
            "emissiveFactor" : [
                0,
                0,
                0
            ],
            "name" : "Material.011",
            "pbrMetallicRoughness" : {
                "baseColorFactor" : [
                    0.800000011920929,
                    0.800000011920929,
                    0.800000011920929,
                    1
                ],
                "metallicFactor" : 0,
                "roughnessFactor" : 0.5
            }
        },
        {
            "doubleSided" : true,
            "emissiveFactor" : [
                0,
                0,
                0
            ],
            "name" : "Material.012",
            "pbrMetallicRoughness" : {
                "baseColorFactor" : [
                    0.8000000715255737,
                    0.0088048642501235,
                    0.008153515867888927,
                    1
                ],
                "metallicFactor" : 0,
                "roughnessFactor" : 0.5
            }
        },
        {
            "doubleSided" : true,
            "emissiveFactor" : [
                0,
                0,
                0
            ],
            "name" : "Material.016",
            "pbrMetallicRoughness" : {
                "baseColorFactor" : [
                    0.08036811649799347,
                    0.6730772256851196,
                    0.11834006756544113,
                    1
                ],
                "metallicFactor" : 0,
                "roughnessFactor" : 0.5
            }
        },
        {
            "doubleSided" : true,
            "emissiveFactor" : [
                0,
                0,
                0
            ],
            "name" : "Material.020",
            "pbrMetallicRoughness" : {
                "baseColorFactor" : [
                    0.8000000715255737,
                    0.6200883388519287,
                    0.3472481369972229,
                    1
                ],
                "metallicFactor" : 0,
                "roughnessFactor" : 0.5
            }
        },
        {
            "doubleSided" : true,
            "emissiveFactor" : [
                0,
                0,
                0
            ],
            "name" : "Material.021",
            "pbrMetallicRoughness" : {
                "baseColorFactor" : [
                    0.5287825465202332,
                    0.44168734550476074,
                    0.2332277148962021,
                    1
                ],
                "metallicFactor" : 0,
                "roughnessFactor" : 0.5
            }
        },
        {
            "doubleSided" : true,
            "emissiveFactor" : [
                0,
                0,
                0
            ],
            "name" : "Material.023",
            "pbrMetallicRoughness" : {
                "baseColorFactor" : [
                    0.46413928270339966,
                    0.25898313522338867,
                    0.12087380886077881,
                    1
                ],
                "metallicFactor" : 0,
                "roughnessFactor" : 0.5
            }
        }
    ],
    "meshes" : [
        {
            "name" : "Cube.002",
            "primitives" : [
                {
                    "attributes" : {
                        "POSITION" : 0,
                        "NORMAL" : 1
                    },
                    "indices" : 2,
                    "material" : 0
                },
                {
                    "attributes" : {
                        "POSITION" : 3,
                        "NORMAL" : 4
                    },
                    "indices" : 5,
                    "material" : 1
                },
                {
                    "attributes" : {
                        "POSITION" : 6,
                        "NORMAL" : 7
                    },
                    "indices" : 8,
                    "material" : 2
                },
                {
                    "attributes" : {
                        "POSITION" : 9,
                        "NORMAL" : 10
                    },
                    "indices" : 11,
                    "material" : 3
                },
                {
                    "attributes" : {
                        "POSITION" : 12,
                        "NORMAL" : 13
                    },
                    "indices" : 14,
                    "material" : 4
                },
                {
                    "attributes" : {
                        "POSITION" : 15,
                        "NORMAL" : 16
                    },
                    "indices" : 17,
                    "material" : 5
                }
            ]
        }
    ],
    "accessors" : [
        {
            "bufferView" : 0,
            "componentType" : 5126,
            "count" : 26,
            "max" : [
                0.06504993885755539,
                3.7319045066833496,
                0.0925498753786087
            ],
            "min" : [
                -0.06709793210029602,
                2.434393882751465,
                -0.06451480090618134
            ],
            "type" : "VEC3"
        },
        {
            "bufferView" : 1,
            "componentType" : 5126,
            "count" : 26,
            "type" : "VEC3"
        },
        {
            "bufferView" : 2,
            "componentType" : 5123,
            "count" : 48,
            "type" : "SCALAR"
        },
        {
            "bufferView" : 3,
            "componentType" : 5126,
            "count" : 20,
            "max" : [
                1.4802916049957275,
                3.7319045066833496,
                0.09255047887563705
            ],
            "min" : [
                0.06504986435174942,
                3.2805964946746826,
                -0.06451474130153656
            ],
            "type" : "VEC3"
        },
        {
            "bufferView" : 4,
            "componentType" : 5126,
            "count" : 20,
            "type" : "VEC3"
        },
        {
            "bufferView" : 5,
            "componentType" : 5123,
            "count" : 30,
            "type" : "SCALAR"
        },
        {
            "bufferView" : 6,
            "componentType" : 5126,
            "count" : 382,
            "max" : [
                8.715457916259766,
                -0.9012832641601562,
                8.398103713989258
            ],
            "min" : [
                -8.715457916259766,
                -1.3307760953903198,
                -8.398103713989258
            ],
            "type" : "VEC3"
        },
        {
            "bufferView" : 7,
            "componentType" : 5126,
            "count" : 382,
            "type" : "VEC3"
        },
        {
            "bufferView" : 8,
            "componentType" : 5123,
            "count" : 1098,
            "type" : "SCALAR"
        },
        {
            "bufferView" : 9,
            "componentType" : 5126,
            "count" : 2538,
            "max" : [
                3.453308582305908,
                2.7207224369049072,
                3.4057059288024902
            ],
            "min" : [
                -3.453308582305908,
                -0.9012832641601562,
                -3.4057059288024902
            ],
            "type" : "VEC3"
        },
        {
            "bufferView" : 10,
            "componentType" : 5126,
            "count" : 2538,
            "type" : "VEC3"
        },
        {
            "bufferView" : 11,
            "componentType" : 5123,
            "count" : 6408,
            "type" : "SCALAR"
        },
        {
            "bufferView" : 12,
            "componentType" : 5126,
            "count" : 116,
            "max" : [
                2.8342337608337402,
                0.9420502185821533,
                2.524696111679077
            ],
            "min" : [
                -2.524695634841919,
                -0.9012832641601562,
                -2.8183646202087402
            ],
            "type" : "VEC3"
        },
        {
            "bufferView" : 13,
            "componentType" : 5126,
            "count" : 116,
            "type" : "VEC3"
        },
        {
            "bufferView" : 14,
            "componentType" : 5123,
            "count" : 294,
            "type" : "SCALAR"
        },
        {
            "bufferView" : 15,
            "componentType" : 5126,
            "count" : 36,
            "max" : [
                2.4340288639068604,
                1.1383262872695923,
                2.4255807399749756
            ],
            "min" : [
                -2.4471850395202637,
                1.1064237356185913,
                -2.44718599319458
            ],
            "type" : "VEC3"
        },
        {
            "bufferView" : 16,
            "componentType" : 5126,
            "count" : 36,
            "type" : "VEC3"
        },
        {
            "bufferView" : 17,
            "componentType" : 5123,
            "count" : 96,
            "type" : "SCALAR"
        }
    ],
    "bufferViews" : [
        {
            "buffer" : 0,
            "byteLength" : 312,
            "byteOffset" : 0
        },
        {
            "buffer" : 0,
            "byteLength" : 312,
            "byteOffset" : 312
        },
        {
            "buffer" : 0,
            "byteLength" : 96,
            "byteOffset" : 624
        },
        {
            "buffer" : 0,
            "byteLength" : 240,
            "byteOffset" : 720
        },
        {
            "buffer" : 0,
            "byteLength" : 240,
            "byteOffset" : 960
        },
        {
            "buffer" : 0,
            "byteLength" : 60,
            "byteOffset" : 1200
        },
        {
            "buffer" : 0,
            "byteLength" : 4584,
            "byteOffset" : 1260
        },
        {
            "buffer" : 0,
            "byteLength" : 4584,
            "byteOffset" : 5844
        },
        {
            "buffer" : 0,
            "byteLength" : 2196,
            "byteOffset" : 10428
        },
        {
            "buffer" : 0,
            "byteLength" : 30456,
            "byteOffset" : 12624
        },
        {
            "buffer" : 0,
            "byteLength" : 30456,
            "byteOffset" : 43080
        },
        {
            "buffer" : 0,
            "byteLength" : 12816,
            "byteOffset" : 73536
        },
        {
            "buffer" : 0,
            "byteLength" : 1392,
            "byteOffset" : 86352
        },
        {
            "buffer" : 0,
            "byteLength" : 1392,
            "byteOffset" : 87744
        },
        {
            "buffer" : 0,
            "byteLength" : 588,
            "byteOffset" : 89136
        },
        {
            "buffer" : 0,
            "byteLength" : 432,
            "byteOffset" : 89724
        },
        {
            "buffer" : 0,
            "byteLength" : 432,
            "byteOffset" : 90156
        },
        {
            "buffer" : 0,
            "byteLength" : 192,
            "byteOffset" : 90588
        }
    ],
    "buffers" : [
        {
            "byteLength" : 90780,
            "uri" : "data:application/octet-stream;base64,"
        }
    ]
}
