{
    "asset" : {
        "generator" : "Khronos glTF Blender I/O v1.2.75",
        "version" : "2.0"
    },
    "scene" : 0,
    "scenes" : [
        {
            "name" : "Scene",
            "nodes" : [
                0
            ]
        }
    ],
    "nodes" : [
        {
            "mesh" : 0,
            "name" : "Cube.004",
            "rotation" : [
                0,
                0.23721784353256226,
                0,
                0.9714564681053162
            ],
            "translation" : [
                -1.6739087104797363,
                1.04789400100708,
                -0.2551688253879547
            ]
        }
    ],
    "materials" : [
        {
            "doubleSided" : true,
            "emissiveFactor" : [
                0,
                0,
                0
            ],
            "name" : "Material.001",
            "pbrMetallicRoughness" : {
                "baseColorFactor" : [
                    0.35055580735206604,
                    0.12956063449382782,
                    0.08060907572507858,
                    1
                ],
                "metallicFactor" : 0,
                "roughnessFactor" : 0.5
            }
        },
        {
            "doubleSided" : true,
            "emissiveFactor" : [
                0,
                0,
                0
            ],
            "name" : "Material.002",
            "pbrMetallicRoughness" : {
                "baseColorFactor" : [
                    0.5596006512641907,
                    0.33203914761543274,
                    0.0204312726855278,
                    1
                ],
                "metallicFactor" : 0,
                "roughnessFactor" : 0.5
            }
        },
        {
            "doubleSided" : true,
            "emissiveFactor" : [
                0,
                0,
                0
            ],
            "name" : "Material.003",
            "pbrMetallicRoughness" : {
                "baseColorFactor" : [
                    0.38437479734420776,
                    0.015363472513854504,
                    0.01889703795313835,
                    1
                ],
                "metallicFactor" : 0,
                "roughnessFactor" : 0.5
            }
        }
    ],
    "meshes" : [
        {
            "name" : "Cube.005",
            "primitives" : [
                {
                    "attributes" : {
                        "POSITION" : 0,
                        "NORMAL" : 1,
                        "TEXCOORD_0" : 2
                    },
                    "indices" : 3,
                    "material" : 0
                },
                {
                    "attributes" : {
                        "POSITION" : 4,
                        "NORMAL" : 5,
                        "TEXCOORD_0" : 6
                    },
                    "indices" : 7,
                    "material" : 1
                },
                {
                    "attributes" : {
                        "POSITION" : 8,
                        "NORMAL" : 9,
                        "TEXCOORD_0" : 10
                    },
                    "indices" : 11,
                    "material" : 2
                }
            ]
        }
    ],
    "accessors" : [
        {
            "bufferView" : 0,
            "componentType" : 5126,
            "count" : 720,
            "max" : [
                0.09373277425765991,
                0.9733996391296387,
                1.6773971319198608
            ],
            "min" : [
                -1.6777801513671875,
                -1.0321317911148071,
                -1.6723829507827759
            ],
            "type" : "VEC3"
        },
        {
            "bufferView" : 1,
            "componentType" : 5126,
            "count" : 720,
            "type" : "VEC3"
        },
        {
            "bufferView" : 2,
            "componentType" : 5126,
            "count" : 720,
            "type" : "VEC2"
        },
        {
            "bufferView" : 3,
            "componentType" : 5123,
            "count" : 1104,
            "type" : "SCALAR"
        },
        {
            "bufferView" : 4,
            "componentType" : 5126,
            "count" : 48,
            "max" : [
                -0.1048477292060852,
                0.8694854974746704,
                0.8918030858039856
            ],
            "min" : [
                -1.4806604385375977,
                -0.3336443305015564,
                -1.622556447982788
            ],
            "type" : "VEC3"
        },
        {
            "bufferView" : 5,
            "componentType" : 5126,
            "count" : 48,
            "type" : "VEC3"
        },
        {
            "bufferView" : 6,
            "componentType" : 5126,
            "count" : 48,
            "type" : "VEC2"
        },
        {
            "bufferView" : 7,
            "componentType" : 5123,
            "count" : 72,
            "type" : "SCALAR"
        },
        {
            "bufferView" : 8,
            "componentType" : 5126,
            "count" : 48,
            "max" : [
                -0.1048477292060852,
                0.5491265058517456,
                1.3946750164031982
            ],
            "min" : [
                -1.4806604385375977,
                -0.3336443305015564,
                -1.1196846961975098
            ],
            "type" : "VEC3"
        },
        {
            "bufferView" : 9,
            "componentType" : 5126,
            "count" : 48,
            "type" : "VEC3"
        },
        {
            "bufferView" : 10,
            "componentType" : 5126,
            "count" : 48,
            "type" : "VEC2"
        },
        {
            "bufferView" : 11,
            "componentType" : 5123,
            "count" : 72,
            "type" : "SCALAR"
        }
    ],
    "bufferViews" : [
        {
            "buffer" : 0,
            "byteLength" : 8640,
            "byteOffset" : 0
        },
        {
            "buffer" : 0,
            "byteLength" : 8640,
            "byteOffset" : 8640
        },
        {
            "buffer" : 0,
            "byteLength" : 5760,
            "byteOffset" : 17280
        },
        {
            "buffer" : 0,
            "byteLength" : 2208,
            "byteOffset" : 23040
        },
        {
            "buffer" : 0,
            "byteLength" : 576,
            "byteOffset" : 25248
        },
        {
            "buffer" : 0,
            "byteLength" : 576,
            "byteOffset" : 25824
        },
        {
            "buffer" : 0,
            "byteLength" : 384,
            "byteOffset" : 26400
        },
        {
            "buffer" : 0,
            "byteLength" : 144,
            "byteOffset" : 26784
        },
        {
            "buffer" : 0,
            "byteLength" : 576,
            "byteOffset" : 26928
        },
        {
            "buffer" : 0,
            "byteLength" : 576,
            "byteOffset" : 27504
        },
        {
            "buffer" : 0,
            "byteLength" : 384,
            "byteOffset" : 28080
        },
        {
            "buffer" : 0,
            "byteLength" : 144,
            "byteOffset" : 28464
        }
    ],
    "buffers" : [
        {
            "byteLength" : 28608,
            "uri" : "data:application/octet-stream;base64,"
        }
    ]
}
