{
    "asset" : {
        "generator" : "Khronos glTF Blender I/O v1.2.75",
        "version" : "2.0"
    },
    "scene" : 0,
    "scenes" : [
        {
            "name" : "Scene",
            "nodes" : [
                0,
                1,
                2,
                3,
                4
            ]
        }
    ],
    "nodes" : [
        {
            "mesh" : 0,
            "name" : "Cube.001",
            "rotation" : [
                0,
                -0.2854262590408325,
                0,
                0.9584006667137146
            ],
            "translation" : [
                4.071996212005615,
                1.0193243026733398,
                0.538406491279602
            ]
        },
        {
            "mesh" : 1,
            "name" : "Cube.003",
            "rotation" : [
                0,
                -0.2854262590408325,
                0,
                0.9584006667137146
            ],
            "translation" : [
                4.071996212005615,
                1.0193243026733398,
                0.538406491279602
            ]
        },
        {
            "mesh" : 2,
            "name" : "Cube.005",
            "rotation" : [
                0,
                -0.2854262590408325,
                0,
                0.9584006667137146
            ],
            "translation" : [
                4.071996212005615,
                1.0193243026733398,
                0.538406491279602
            ]
        },
        {
            "mesh" : 3,
            "name" : "Cube.006",
            "rotation" : [
                0,
                -0.2854262590408325,
                0,
                0.9584006667137146
            ],
            "translation" : [
                4.071996212005615,
                1.0193243026733398,
                0.538406491279602
            ]
        },
        {
            "mesh" : 4,
            "name" : "Cube.007",
            "rotation" : [
                0,
                -0.2854262590408325,
                0,
                0.9584006667137146
            ],
            "translation" : [
                4.071996212005615,
                1.0193243026733398,
                0.538406491279602
            ]
        }
    ],
    "materials" : [
        {
            "doubleSided" : true,
            "emissiveFactor" : [
                0,
                0,
                0
            ],
            "name" : "Material.001",
            "pbrMetallicRoughness" : {
                "baseColorFactor" : [
                    0.35055580735206604,
                    0.12956063449382782,
                    0.08060907572507858,
                    1
                ],
                "metallicFactor" : 0,
                "roughnessFactor" : 0.5
            }
        },
        {
            "doubleSided" : true,
            "emissiveFactor" : [
                0,
                0,
                0
            ],
            "name" : "Material.002",
            "pbrMetallicRoughness" : {
                "baseColorFactor" : [
                    0.5596006512641907,
                    0.33203914761543274,
                    0.0204312726855278,
                    1
                ],
                "metallicFactor" : 0,
                "roughnessFactor" : 0.5
            }
        },
        {
            "doubleSided" : true,
            "emissiveFactor" : [
                0,
                0,
                0
            ],
            "name" : "Material.003",
            "pbrMetallicRoughness" : {
                "baseColorFactor" : [
                    0.38437479734420776,
                    0.015363472513854504,
                    0.01889703795313835,
                    1
                ],
                "metallicFactor" : 0,
                "roughnessFactor" : 0.5
            }
        }
    ],
    "meshes" : [
        {
            "name" : "Cube.007",
            "primitives" : [
                {
                    "attributes" : {
                        "POSITION" : 0,
                        "NORMAL" : 1,
                        "TEXCOORD_0" : 2
                    },
                    "indices" : 3,
                    "material" : 0
                }
            ]
        },
        {
            "name" : "Cube.008",
            "primitives" : [
                {
                    "attributes" : {
                        "POSITION" : 4,
                        "NORMAL" : 5,
                        "TEXCOORD_0" : 6
                    },
                    "indices" : 7,
                    "material" : 0
                }
            ]
        },
        {
            "name" : "Cube.009",
            "primitives" : [
                {
                    "attributes" : {
                        "POSITION" : 8,
                        "NORMAL" : 9,
                        "TEXCOORD_0" : 10
                    },
                    "indices" : 11,
                    "material" : 0
                }
            ]
        },
        {
            "name" : "Cube.010",
            "primitives" : [
                {
                    "attributes" : {
                        "POSITION" : 12,
                        "NORMAL" : 13,
                        "TEXCOORD_0" : 14
                    },
                    "indices" : 15,
                    "material" : 0
                }
            ]
        },
        {
            "name" : "Cube.011",
            "primitives" : [
                {
                    "attributes" : {
                        "POSITION" : 16,
                        "NORMAL" : 17,
                        "TEXCOORD_0" : 18
                    },
                    "indices" : 19,
                    "material" : 1
                },
                {
                    "attributes" : {
                        "POSITION" : 20,
                        "NORMAL" : 21,
                        "TEXCOORD_0" : 22
                    },
                    "indices" : 23,
                    "material" : 2
                }
            ]
        }
    ],
    "accessors" : [
        {
            "bufferView" : 0,
            "componentType" : 5126,
            "count" : 188,
            "max" : [
                0.09373277425765991,
                -0.0826868787407875,
                1.4649748802185059
            ],
            "min" : [
                -0.09373277425765991,
                -1.0321317911148071,
                -1.3997830152511597
            ],
            "type" : "VEC3"
        },
        {
            "bufferView" : 1,
            "componentType" : 5126,
            "count" : 188,
            "type" : "VEC3"
        },
        {
            "bufferView" : 2,
            "componentType" : 5126,
            "count" : 188,
            "type" : "VEC2"
        },
        {
            "bufferView" : 3,
            "componentType" : 5123,
            "count" : 276,
            "type" : "SCALAR"
        },
        {
            "bufferView" : 4,
            "componentType" : 5126,
            "count" : 178,
            "max" : [
                0.09364136308431625,
                0.9733996391296387,
                1.6694092750549316
            ],
            "min" : [
                -0.10257538408041,
                -0.9682669043540955,
                -1.6723829507827759
            ],
            "type" : "VEC3"
        },
        {
            "bufferView" : 5,
            "componentType" : 5126,
            "count" : 178,
            "type" : "VEC3"
        },
        {
            "bufferView" : 6,
            "componentType" : 5126,
            "count" : 178,
            "type" : "VEC2"
        },
        {
            "bufferView" : 7,
            "componentType" : 5123,
            "count" : 276,
            "type" : "SCALAR"
        },
        {
            "bufferView" : 8,
            "componentType" : 5126,
            "count" : 170,
            "max" : [
                -1.4875292778015137,
                0.9725351929664612,
                1.6773971319198608
            ],
            "min" : [
                -1.6758298873901367,
                -0.966998815536499,
                -1.6713870763778687
            ],
            "type" : "VEC3"
        },
        {
            "bufferView" : 9,
            "componentType" : 5126,
            "count" : 170,
            "type" : "VEC3"
        },
        {
            "bufferView" : 10,
            "componentType" : 5126,
            "count" : 170,
            "type" : "VEC2"
        },
        {
            "bufferView" : 11,
            "componentType" : 5123,
            "count" : 276,
            "type" : "SCALAR"
        },
        {
            "bufferView" : 12,
            "componentType" : 5126,
            "count" : 184,
            "max" : [
                -1.485579013824463,
                -0.0847172737121582,
                1.462085247039795
            ],
            "min" : [
                -1.6777801513671875,
                -1.0199382305145264,
                -1.4005751609802246
            ],
            "type" : "VEC3"
        },
        {
            "bufferView" : 13,
            "componentType" : 5126,
            "count" : 184,
            "type" : "VEC3"
        },
        {
            "bufferView" : 14,
            "componentType" : 5126,
            "count" : 184,
            "type" : "VEC2"
        },
        {
            "bufferView" : 15,
            "componentType" : 5123,
            "count" : 276,
            "type" : "SCALAR"
        },
        {
            "bufferView" : 16,
            "componentType" : 5126,
            "count" : 46,
            "max" : [
                -0.10484579205513,
                0.5483332872390747,
                1.3946750164031982
            ],
            "min" : [
                -1.4806604385375977,
                -0.32102519273757935,
                -1.1185201406478882
            ],
            "type" : "VEC3"
        },
        {
            "bufferView" : 17,
            "componentType" : 5126,
            "count" : 46,
            "type" : "VEC3"
        },
        {
            "bufferView" : 18,
            "componentType" : 5126,
            "count" : 46,
            "type" : "VEC2"
        },
        {
            "bufferView" : 19,
            "componentType" : 5123,
            "count" : 72,
            "type" : "SCALAR"
        },
        {
            "bufferView" : 20,
            "componentType" : 5126,
            "count" : 48,
            "max" : [
                -0.10482915490865707,
                0.8618863821029663,
                0.8918030858039856
            ],
            "min" : [
                -1.4806604385375977,
                -0.32102519273757935,
                -1.6113998889923096
            ],
            "type" : "VEC3"
        },
        {
            "bufferView" : 21,
            "componentType" : 5126,
            "count" : 48,
            "type" : "VEC3"
        },
        {
            "bufferView" : 22,
            "componentType" : 5126,
            "count" : 48,
            "type" : "VEC2"
        },
        {
            "bufferView" : 23,
            "componentType" : 5123,
            "count" : 72,
            "type" : "SCALAR"
        }
    ],
    "bufferViews" : [
        {
            "buffer" : 0,
            "byteLength" : 2256,
            "byteOffset" : 0
        },
        {
            "buffer" : 0,
            "byteLength" : 2256,
            "byteOffset" : 2256
        },
        {
            "buffer" : 0,
            "byteLength" : 1504,
            "byteOffset" : 4512
        },
        {
            "buffer" : 0,
            "byteLength" : 552,
            "byteOffset" : 6016
        },
        {
            "buffer" : 0,
            "byteLength" : 2136,
            "byteOffset" : 6568
        },
        {
            "buffer" : 0,
            "byteLength" : 2136,
            "byteOffset" : 8704
        },
        {
            "buffer" : 0,
            "byteLength" : 1424,
            "byteOffset" : 10840
        },
        {
            "buffer" : 0,
            "byteLength" : 552,
            "byteOffset" : 12264
        },
        {
            "buffer" : 0,
            "byteLength" : 2040,
            "byteOffset" : 12816
        },
        {
            "buffer" : 0,
            "byteLength" : 2040,
            "byteOffset" : 14856
        },
        {
            "buffer" : 0,
            "byteLength" : 1360,
            "byteOffset" : 16896
        },
        {
            "buffer" : 0,
            "byteLength" : 552,
            "byteOffset" : 18256
        },
        {
            "buffer" : 0,
            "byteLength" : 2208,
            "byteOffset" : 18808
        },
        {
            "buffer" : 0,
            "byteLength" : 2208,
            "byteOffset" : 21016
        },
        {
            "buffer" : 0,
            "byteLength" : 1472,
            "byteOffset" : 23224
        },
        {
            "buffer" : 0,
            "byteLength" : 552,
            "byteOffset" : 24696
        },
        {
            "buffer" : 0,
            "byteLength" : 552,
            "byteOffset" : 25248
        },
        {
            "buffer" : 0,
            "byteLength" : 552,
            "byteOffset" : 25800
        },
        {
            "buffer" : 0,
            "byteLength" : 368,
            "byteOffset" : 26352
        },
        {
            "buffer" : 0,
            "byteLength" : 144,
            "byteOffset" : 26720
        },
        {
            "buffer" : 0,
            "byteLength" : 576,
            "byteOffset" : 26864
        },
        {
            "buffer" : 0,
            "byteLength" : 576,
            "byteOffset" : 27440
        },
        {
            "buffer" : 0,
            "byteLength" : 384,
            "byteOffset" : 28016
        },
        {
            "buffer" : 0,
            "byteLength" : 144,
            "byteOffset" : 28400
        }
    ],
    "buffers" : [
        {
            "byteLength" : 28544,
            "uri" : "data:application/octet-stream;base64,"
        }
    ]
}
