{
    "asset" : {
        "generator" : "Khronos glTF Blender I/O v1.2.75",
        "version" : "2.0"
    },
    "scene" : 0,
    "scenes" : [
        {
            "name" : "Scene",
            "nodes" : [
                10
            ]
        }
    ],
    "nodes" : [
        {
            "name" : "Camera-camera"
        },
        {
            "children" : [
                0
            ],
            "name" : "Camera.001",
            "rotation" : [
                0.4538572132587433,
                0.04783688858151436,
                0.09328898042440414,
                0.8848855495452881
            ],
            "translation" : [
                88.82037353515625,
                -84.26378631591797,
                99.85237121582031
            ]
        },
        {
            "name" : "PALM5",
            "rotation" : [
                0,
                0,
                0.2563154399394989,
                0.9665932059288025
            ],
            "scale" : [
                1.231002926826477,
                1.231002926826477,
                1.2310030460357666
            ],
            "translation" : [
                102.92389678955078,
                -117.16349792480469,
                95.8564682006836
            ]
        },
        {
            "name" : "Sun.001"
        },
        {
            "children" : [
                3
            ],
            "name" : "Sun",
            "rotation" : [
                0,
                -0.30401191115379333,
                0,
                0.9526682496070862
            ],
            "translation" : [
                -14.662949562072754,
                16.742090225219727,
                41.788448333740234
            ]
        },
        {
            "mesh" : 0,
            "name" : "Green-material.001"
        },
        {
            "mesh" : 1,
            "name" : "Red-material.002"
        },
        {
            "children" : [
                5,
                6
            ],
            "name" : "SURFBOARD2",
            "rotation" : [
                0.45630115270614624,
                -0.8894186615943909,
                -0.016272149980068207,
                0.021425439044833183
            ],
            "scale" : [
                1.8105922937393188,
                1.8105922937393188,
                1.8105922937393188
            ],
            "translation" : [
                110.08260345458984,
                -114.24250030517578,
                87.54969024658203
            ]
        },
        {
            "children" : [
                1,
                2,
                4,
                7
            ],
            "name" : "Collada visual scene group"
        },
        {
            "children" : [
                8
            ],
            "name" : "RootNode (model correction matrix)"
        },
        {
            "children" : [
                9
            ],
            "name" : "RootNode (gltf orientation matrix)",
            "rotation" : [
                -0.7071067690849304,
                0,
                0,
                0.7071067690849304
            ]
        }
    ],
    "materials" : [
        {
            "doubleSided" : true,
            "emissiveFactor" : [
                0,
                0,
                0
            ],
            "name" : "Green",
            "pbrMetallicRoughness" : {
                "baseColorFactor" : [
                    0.10714200139045715,
                    0.6399999856948853,
                    0.048080600798130035,
                    1
                ],
                "metallicFactor" : 0,
                "roughnessFactor" : 0.5527864098548889
            }
        },
        {
            "doubleSided" : true,
            "emissiveFactor" : [
                0,
                0,
                0
            ],
            "name" : "material_2",
            "pbrMetallicRoughness" : {
                "baseColorFactor" : [
                    0.6399999856948853,
                    0.11607900261878967,
                    0.08483079820871353,
                    1
                ],
                "metallicFactor" : 0,
                "roughnessFactor" : 0.5527864098548889
            }
        }
    ],
    "meshes" : [
        {
            "name" : "Green-material.001",
            "primitives" : [
                {
                    "attributes" : {
                        "POSITION" : 0,
                        "NORMAL" : 1
                    },
                    "indices" : 2,
                    "material" : 0
                }
            ]
        },
        {
            "name" : "Red-material.002",
            "primitives" : [
                {
                    "attributes" : {
                        "POSITION" : 3,
                        "NORMAL" : 4
                    },
                    "indices" : 5,
                    "material" : 1
                }
            ]
        }
    ],
    "accessors" : [
        {
            "bufferView" : 0,
            "componentType" : 5126,
            "count" : 115,
            "max" : [
                0.9999989867210388,
                1.1693830490112305,
                4.854515075683594
            ],
            "min" : [
                -1.0000009536743164,
                0.719490110874176,
                -0.20033249258995056
            ],
            "type" : "VEC3"
        },
        {
            "bufferView" : 1,
            "componentType" : 5126,
            "count" : 115,
            "type" : "VEC3"
        },
        {
            "bufferView" : 2,
            "componentType" : 5123,
            "count" : 120,
            "type" : "SCALAR"
        },
        {
            "bufferView" : 3,
            "componentType" : 5126,
            "count" : 120,
            "max" : [
                1,
                1.2603559494018555,
                3.8787689208984375
            ],
            "min" : [
                -1,
                0.7194976806640625,
                -1.1760790348052979
            ],
            "type" : "VEC3"
        },
        {
            "bufferView" : 4,
            "componentType" : 5126,
            "count" : 120,
            "type" : "VEC3"
        },
        {
            "bufferView" : 5,
            "componentType" : 5123,
            "count" : 120,
            "type" : "SCALAR"
        }
    ],
    "bufferViews" : [
        {
            "buffer" : 0,
            "byteLength" : 1380,
            "byteOffset" : 0
        },
        {
            "buffer" : 0,
            "byteLength" : 1380,
            "byteOffset" : 1380
        },
        {
            "buffer" : 0,
            "byteLength" : 240,
            "byteOffset" : 2760
        },
        {
            "buffer" : 0,
            "byteLength" : 1440,
            "byteOffset" : 3000
        },
        {
            "buffer" : 0,
            "byteLength" : 1440,
            "byteOffset" : 4440
        },
        {
            "buffer" : 0,
            "byteLength" : 240,
            "byteOffset" : 5880
        }
    ],
    "buffers" : [
        {
            "byteLength" : 6120,
            "uri" : "data:application/octet-stream;base64,"
        }
    ]
}
