{
    "asset" : {
        "generator" : "Khronos glTF Blender I/O v1.2.75",
        "version" : "2.0"
    },
    "scene" : 0,
    "scenes" : [
        {
            "name" : "Scene",
            "nodes" : [
                0,
                1
            ]
        }
    ],
    "nodes" : [
        {
            "mesh" : 0,
            "name" : "Cylinder.002",
            "rotation" : [
                0,
                1,
                0,
                -4.371138473402425e-08
            ],
            "scale" : [
                -0.5455852746963501,
                -0.13036751747131348,
                -0.5455852746963501
            ],
            "translation" : [
                0.4201776385307312,
                0.2543449401855469,
                -1.3402982950210571
            ]
        },
        {
            "mesh" : 1,
            "name" : "Plane.001",
            "scale" : [
                4.643342971801758,
                4.643342971801758,
                4.643342971801758
            ],
            "translation" : [
                0.42145922780036926,
                4.978189468383789,
                -1.3395322561264038
            ]
        }
    ],
    "materials" : [
        {
            "doubleSided" : true,
            "emissiveFactor" : [
                0,
                0,
                0
            ],
            "name" : "Material.005",
            "pbrMetallicRoughness" : {
                "baseColorFactor" : [
                    0.38437479734420776,
                    0.38437479734420776,
                    0.38437479734420776,
                    1
                ],
                "metallicFactor" : 0,
                "roughnessFactor" : 1
            }
        },
        {
            "doubleSided" : true,
            "emissiveFactor" : [
                0,
                0,
                0
            ],
            "name" : "Material.008",
            "pbrMetallicRoughness" : {
                "baseColorFactor" : [
                    0.00020342020434327424,
                    0.10247385501861572,
                    0,
                    1
                ],
                "metallicFactor" : 0,
                "roughnessFactor" : 0.8416666984558105
            }
        },
        {
            "doubleSided" : true,
            "emissiveFactor" : [
                0,
                0,
                0
            ],
            "name" : "Material.009",
            "pbrMetallicRoughness" : {
                "baseColorFactor" : [
                    0.6901583671569824,
                    0.5655800104141235,
                    0.6981927156448364,
                    1
                ],
                "metallicFactor" : 0,
                "roughnessFactor" : 0.5
            }
        }
    ],
    "meshes" : [
        {
            "name" : "Cylinder.001",
            "primitives" : [
                {
                    "attributes" : {
                        "POSITION" : 0,
                        "NORMAL" : 1,
                        "TEXCOORD_0" : 2
                    },
                    "indices" : 3,
                    "material" : 0
                }
            ]
        },
        {
            "name" : "Plane.001",
            "primitives" : [
                {
                    "attributes" : {
                        "POSITION" : 4,
                        "NORMAL" : 5,
                        "TEXCOORD_0" : 6
                    },
                    "indices" : 7,
                    "material" : 1
                },
                {
                    "attributes" : {
                        "POSITION" : 8,
                        "NORMAL" : 9,
                        "TEXCOORD_0" : 10
                    },
                    "indices" : 11,
                    "material" : 2
                }
            ]
        }
    ],
    "accessors" : [
        {
            "bufferView" : 0,
            "componentType" : 5126,
            "count" : 96,
            "max" : [
                1,
                1,
                1
            ],
            "min" : [
                -1,
                -42.3895149230957,
                -1
            ],
            "type" : "VEC3"
        },
        {
            "bufferView" : 1,
            "componentType" : 5126,
            "count" : 96,
            "type" : "VEC3"
        },
        {
            "bufferView" : 2,
            "componentType" : 5126,
            "count" : 96,
            "type" : "VEC2"
        },
        {
            "bufferView" : 3,
            "componentType" : 5123,
            "count" : 180,
            "type" : "SCALAR"
        },
        {
            "bufferView" : 4,
            "componentType" : 5126,
            "count" : 49,
            "max" : [
                0.9166667461395264,
                0.18845884501934052,
                0.9166667461395264
            ],
            "min" : [
                -0.9166667461395264,
                -0.15297558903694153,
                -0.9166667461395264
            ],
            "type" : "VEC3"
        },
        {
            "bufferView" : 5,
            "componentType" : 5126,
            "count" : 49,
            "type" : "VEC3"
        },
        {
            "bufferView" : 6,
            "componentType" : 5126,
            "count" : 49,
            "type" : "VEC2"
        },
        {
            "bufferView" : 7,
            "componentType" : 5123,
            "count" : 144,
            "type" : "SCALAR"
        },
        {
            "bufferView" : 8,
            "componentType" : 5126,
            "count" : 16,
            "max" : [
                0.9166667461395264,
                0.12536689639091492,
                0.9166667461395264
            ],
            "min" : [
                -0.9166667461395264,
                0,
                -0.9166667461395264
            ],
            "type" : "VEC3"
        },
        {
            "bufferView" : 9,
            "componentType" : 5126,
            "count" : 16,
            "type" : "VEC3"
        },
        {
            "bufferView" : 10,
            "componentType" : 5126,
            "count" : 16,
            "type" : "VEC2"
        },
        {
            "bufferView" : 11,
            "componentType" : 5123,
            "count" : 48,
            "type" : "SCALAR"
        }
    ],
    "bufferViews" : [
        {
            "buffer" : 0,
            "byteLength" : 1152,
            "byteOffset" : 0
        },
        {
            "buffer" : 0,
            "byteLength" : 1152,
            "byteOffset" : 1152
        },
        {
            "buffer" : 0,
            "byteLength" : 768,
            "byteOffset" : 2304
        },
        {
            "buffer" : 0,
            "byteLength" : 360,
            "byteOffset" : 3072
        },
        {
            "buffer" : 0,
            "byteLength" : 588,
            "byteOffset" : 3432
        },
        {
            "buffer" : 0,
            "byteLength" : 588,
            "byteOffset" : 4020
        },
        {
            "buffer" : 0,
            "byteLength" : 392,
            "byteOffset" : 4608
        },
        {
            "buffer" : 0,
            "byteLength" : 288,
            "byteOffset" : 5000
        },
        {
            "buffer" : 0,
            "byteLength" : 192,
            "byteOffset" : 5288
        },
        {
            "buffer" : 0,
            "byteLength" : 192,
            "byteOffset" : 5480
        },
        {
            "buffer" : 0,
            "byteLength" : 128,
            "byteOffset" : 5672
        },
        {
            "buffer" : 0,
            "byteLength" : 96,
            "byteOffset" : 5800
        }
    ],
    "buffers" : [
        {
            "byteLength" : 5896,
            "uri" : "data:application/octet-stream;base64,"
        }
    ]
}
