{
    "asset" : {
        "generator" : "Khronos glTF Blender I/O v1.2.75",
        "version" : "2.0"
    },
    "scene" : 0,
    "scenes" : [
        {
            "name" : "Scene",
            "nodes" : [
                3,
                7
            ]
        }
    ],
    "nodes" : [
        {
            "mesh" : 0,
            "name" : "Mesh_0",
            "rotation" : [
                0,
                0,
                0.06738991290330887,
                0.9977267384529114
            ],
            "translation" : [
                -23.061899185180664,
                -58.4041748046875,
                -5.023792266845703
            ]
        },
        {
            "children" : [
                0
            ],
            "name" : "aac6d3af1717478786bd50f7c006ca5e.stl.cleaner.materialmerger.gle"
        },
        {
            "children" : [
                1
            ],
            "name" : "RootNode (model correction matrix)"
        },
        {
            "children" : [
                2
            ],
            "name" : "RootNode (gltf orientation matrix)",
            "rotation" : [
                -0.7071067690849304,
                0,
                0,
                0.7071067690849304
            ]
        },
        {
            "mesh" : 1,
            "name" : "Mesh_0.001",
            "rotation" : [
                0,
                0,
                0.06738991290330887,
                0.9977267384529114
            ],
            "translation" : [
                -23.061899185180664,
                -58.4041748046875,
                -5.023792266845703
            ]
        },
        {
            "children" : [
                4
            ],
            "name" : "aac6d3af1717478786bd50f7c006ca5e.stl.cleaner.materialmerger"
        },
        {
            "children" : [
                5
            ],
            "name" : "RootNode (model correction matrix).001"
        },
        {
            "children" : [
                6
            ],
            "name" : "RootNode (gltf orientation matrix).001",
            "rotation" : [
                -0.7071067690849304,
                0,
                0,
                0.7071067690849304
            ]
        }
    ],
    "materials" : [
        {
            "doubleSided" : true,
            "emissiveFactor" : [
                0,
                0,
                0
            ],
            "name" : "Scene_-_Root",
            "pbrMetallicRoughness" : {
                "baseColorFactor" : [
                    1,
                    1,
                    1,
                    1
                ],
                "metallicFactor" : 0,
                "roughnessFactor" : 0.6000000238418579
            }
        },
        {
            "doubleSided" : true,
            "name" : "Material",
            "pbrMetallicRoughness" : {}
        }
    ],
    "meshes" : [
        {
            "name" : "Mesh_0",
            "primitives" : [
                {
                    "attributes" : {
                        "POSITION" : 0,
                        "NORMAL" : 1
                    },
                    "indices" : 2,
                    "material" : 0
                }
            ]
        },
        {
            "name" : "Mesh_0.001",
            "primitives" : [
                {
                    "attributes" : {
                        "POSITION" : 3,
                        "NORMAL" : 4
                    },
                    "indices" : 2,
                    "material" : 1
                }
            ]
        }
    ],
    "accessors" : [
        {
            "bufferView" : 0,
            "componentType" : 5126,
            "count" : 608,
            "max" : [
                68.07870483398438,
                64.42845153808594,
                24.663774490356445
            ],
            "min" : [
                9.428702354431152,
                37.22645568847656,
                -0.002226336859166622
            ],
            "type" : "VEC3"
        },
        {
            "bufferView" : 1,
            "componentType" : 5126,
            "count" : 608,
            "type" : "VEC3"
        },
        {
            "bufferView" : 2,
            "componentType" : 5123,
            "count" : 2232,
            "type" : "SCALAR"
        },
        {
            "bufferView" : 3,
            "componentType" : 5126,
            "count" : 608,
            "max" : [
                68.07870483398438,
                64.42845153808594,
                24.663774490356445
            ],
            "min" : [
                9.428702354431152,
                37.22645568847656,
                -0.002226336859166622
            ],
            "type" : "VEC3"
        },
        {
            "bufferView" : 4,
            "componentType" : 5126,
            "count" : 608,
            "type" : "VEC3"
        }
    ],
    "bufferViews" : [
        {
            "buffer" : 0,
            "byteLength" : 7296,
            "byteOffset" : 0
        },
        {
            "buffer" : 0,
            "byteLength" : 7296,
            "byteOffset" : 7296
        },
        {
            "buffer" : 0,
            "byteLength" : 4464,
            "byteOffset" : 14592
        },
        {
            "buffer" : 0,
            "byteLength" : 7296,
            "byteOffset" : 19056
        },
        {
            "buffer" : 0,
            "byteLength" : 7296,
            "byteOffset" : 26352
        }
    ],
    "buffers" : [
        {
            "byteLength" : 33648,
            "uri" : "data:application/octet-stream;base64,"
        }
    ]
}
