{
    "asset" : {
        "generator" : "Khronos glTF Blender I/O v1.2.75",
        "version" : "2.0"
    },
    "scene" : 0,
    "scenes" : [
        {
            "name" : "Scene",
            "nodes" : [
                0,
                1,
                2,
                3,
                4
            ]
        }
    ],
    "nodes" : [
        {
            "mesh" : 0,
            "name" : "Icosphere",
            "rotation" : [
                0,
                0,
                -0.9999996423721313,
                0.000859455147292465
            ],
            "scale" : [
                0.19582165777683258,
                0.19582165777683258,
                0.19582165777683258
            ],
            "translation" : [
                -1.3800996541976929,
                0.30915895104408264,
                1.2933021783828735
            ]
        },
        {
            "name" : "Camera",
            "rotation" : [
                0.5266152620315552,
                -0.010300170630216599,
                0.006381262093782425,
                0.8500173687934875
            ],
            "translation" : [
                -1.5152021646499634,
                3.511031150817871,
                6.507639408111572
            ]
        },
        {
            "name" : "Sun.001",
            "scale" : [
                1.6047735214233398,
                1.6047735214233398,
                1.6047735214233398
            ],
            "translation" : [
                -1.2861285209655762,
                14.629434585571289,
                1.7953948974609375
            ]
        },
        {
            "name" : "Sun.000",
            "scale" : [
                1.6047735214233398,
                1.6047735214233398,
                1.6047735214233398
            ],
            "translation" : [
                -1.2861285209655762,
                6.085278034210205,
                0.746842622756958
            ]
        },
        {
            "name" : "Sun.002",
            "rotation" : [
                0.3298743665218353,
                0,
                0,
                0.9440248608589172
            ],
            "scale" : [
                1.6047735214233398,
                1.6047734022140503,
                1.6047734022140503
            ],
            "translation" : [
                -1.2861285209655762,
                6.085278034210205,
                6.426250457763672
            ]
        }
    ],
    "materials" : [
        {
            "doubleSided" : true,
            "emissiveFactor" : [
                0,
                0,
                0
            ],
            "name" : "PLANT.001",
            "pbrMetallicRoughness" : {
                "baseColorFactor" : [
                    0.17268475890159607,
                    1,
                    0.029101427644491196,
                    1
                ],
                "metallicFactor" : 0,
                "roughnessFactor" : 0.5
            }
        },
        {
            "doubleSided" : true,
            "emissiveFactor" : [
                0,
                0,
                0
            ],
            "name" : "WOOD.001",
            "pbrMetallicRoughness" : {
                "baseColorFactor" : [
                    0.4385521709918976,
                    0.09921953082084656,
                    0.015345950610935688,
                    1
                ],
                "metallicFactor" : 0,
                "roughnessFactor" : 0.5
            }
        },
        {
            "doubleSided" : true,
            "emissiveFactor" : [
                0,
                0,
                0
            ],
            "name" : "PLANTDARC.001",
            "pbrMetallicRoughness" : {
                "baseColorFactor" : [
                    0.018907422199845314,
                    0.1237080991268158,
                    0.00558940414339304,
                    1
                ],
                "metallicFactor" : 0,
                "roughnessFactor" : 0.5
            }
        },
        {
            "doubleSided" : true,
            "emissiveFactor" : [
                0,
                0,
                0
            ],
            "name" : "WOODDARC.001",
            "pbrMetallicRoughness" : {
                "baseColorFactor" : [
                    0.18447238206863403,
                    0.04686146229505539,
                    0.011977564543485641,
                    1
                ],
                "metallicFactor" : 0,
                "roughnessFactor" : 0.5
            }
        }
    ],
    "meshes" : [
        {
            "name" : "Icosphere.001",
            "primitives" : [
                {
                    "attributes" : {
                        "POSITION" : 0,
                        "NORMAL" : 1
                    },
                    "indices" : 2,
                    "material" : 0
                },
                {
                    "attributes" : {
                        "POSITION" : 3,
                        "NORMAL" : 4
                    },
                    "indices" : 5,
                    "material" : 1
                },
                {
                    "attributes" : {
                        "POSITION" : 6,
                        "NORMAL" : 7
                    },
                    "indices" : 8,
                    "material" : 2
                },
                {
                    "attributes" : {
                        "POSITION" : 9,
                        "NORMAL" : 10
                    },
                    "indices" : 11,
                    "material" : 3
                }
            ]
        }
    ],
    "accessors" : [
        {
            "bufferView" : 0,
            "componentType" : 5126,
            "count" : 130,
            "max" : [
                2.259455680847168,
                -0.9453550577163696,
                2.148866891860962
            ],
            "min" : [
                -2.14886212348938,
                -8.898926734924316,
                -2.148866891860962
            ],
            "type" : "VEC3"
        },
        {
            "bufferView" : 1,
            "componentType" : 5126,
            "count" : 130,
            "type" : "VEC3"
        },
        {
            "bufferView" : 2,
            "componentType" : 5123,
            "count" : 204,
            "type" : "SCALAR"
        },
        {
            "bufferView" : 3,
            "componentType" : 5126,
            "count" : 160,
            "max" : [
                0.8914452791213989,
                1.2481701374053955,
                0.8506487607955933
            ],
            "min" : [
                -0.8536288142204285,
                -6.521975517272949,
                -0.8506497144699097
            ],
            "type" : "VEC3"
        },
        {
            "bufferView" : 4,
            "componentType" : 5126,
            "count" : 160,
            "type" : "VEC3"
        },
        {
            "bufferView" : 5,
            "componentType" : 5123,
            "count" : 240,
            "type" : "SCALAR"
        },
        {
            "bufferView" : 6,
            "componentType" : 5126,
            "count" : 120,
            "max" : [
                2.259455680847168,
                -0.8890676498413086,
                2.148866891860962
            ],
            "min" : [
                -2.14886212348938,
                -6.8122968673706055,
                -2.148866891860962
            ],
            "type" : "VEC3"
        },
        {
            "bufferView" : 7,
            "componentType" : 5126,
            "count" : 120,
            "type" : "VEC3"
        },
        {
            "bufferView" : 8,
            "componentType" : 5123,
            "count" : 180,
            "type" : "SCALAR"
        },
        {
            "bufferView" : 9,
            "componentType" : 5126,
            "count" : 50,
            "max" : [
                0.8914452791213989,
                1.2616331577301025,
                0.8506487607955933
            ],
            "min" : [
                -0.8536288142204285,
                1.245941162109375,
                -0.8506497144699097
            ],
            "type" : "VEC3"
        },
        {
            "bufferView" : 10,
            "componentType" : 5126,
            "count" : 50,
            "type" : "VEC3"
        },
        {
            "bufferView" : 11,
            "componentType" : 5123,
            "count" : 60,
            "type" : "SCALAR"
        }
    ],
    "bufferViews" : [
        {
            "buffer" : 0,
            "byteLength" : 1560,
            "byteOffset" : 0
        },
        {
            "buffer" : 0,
            "byteLength" : 1560,
            "byteOffset" : 1560
        },
        {
            "buffer" : 0,
            "byteLength" : 408,
            "byteOffset" : 3120
        },
        {
            "buffer" : 0,
            "byteLength" : 1920,
            "byteOffset" : 3528
        },
        {
            "buffer" : 0,
            "byteLength" : 1920,
            "byteOffset" : 5448
        },
        {
            "buffer" : 0,
            "byteLength" : 480,
            "byteOffset" : 7368
        },
        {
            "buffer" : 0,
            "byteLength" : 1440,
            "byteOffset" : 7848
        },
        {
            "buffer" : 0,
            "byteLength" : 1440,
            "byteOffset" : 9288
        },
        {
            "buffer" : 0,
            "byteLength" : 360,
            "byteOffset" : 10728
        },
        {
            "buffer" : 0,
            "byteLength" : 600,
            "byteOffset" : 11088
        },
        {
            "buffer" : 0,
            "byteLength" : 600,
            "byteOffset" : 11688
        },
        {
            "buffer" : 0,
            "byteLength" : 120,
            "byteOffset" : 12288
        }
    ],
    "buffers" : [
        {
            "byteLength" : 12408,
            "uri" : "data:application/octet-stream;base64,"
        }
    ]
}
