{
    "asset" : {
        "generator" : "Khronos glTF Blender I/O v1.2.75",
        "version" : "2.0"
    },
    "scene" : 0,
    "scenes" : [
        {
            "name" : "Scene",
            "nodes" : [
                0,
                1,
                2,
                3,
                4,
                5,
                6,
                7,
                8,
                9,
                10,
                11,
                12,
                13,
                14,
                15,
                16,
                17,
                18,
                19,
                20,
                21,
                22,
                23
            ]
        }
    ],
    "nodes" : [
        {
            "name" : "Lamp.002",
            "rotation" : [
                0.16907575726509094,
                0.7558804154396057,
                -0.27217134833335876,
                0.5709474086761475
            ],
            "translation" : [
                -6.71072244644165,
                3.8020946979522705,
                -1.0054539442062378
            ]
        },
        {
            "name" : "Camera.001",
            "rotation" : [
                0.48170706629753113,
                0.33425137400627136,
                -0.2129216492176056,
                0.7816001176834106
            ],
            "translation" : [
                7.481131553649902,
                5.34366512298584,
                6.507639408111572
            ]
        },
        {
            "name" : "Lamp.001",
            "rotation" : [
                0.16907575726509094,
                0.7558803558349609,
                -0.27217137813568115,
                0.570947527885437
            ],
            "translation" : [
                -6.710722923278809,
                3.8020946979522705,
                -1.0054539442062378
            ]
        },
        {
            "name" : "Camera",
            "rotation" : [
                0.48170700669288635,
                0.3342514932155609,
                -0.21292176842689514,
                0.7816000580787659
            ],
            "translation" : [
                7.481131553649902,
                5.34366512298584,
                6.5076398849487305
            ]
        },
        {
            "name" : "Lamp.003",
            "rotation" : [
                0.16907575726509094,
                0.7558804154396057,
                -0.27217134833335876,
                0.5709474086761475
            ],
            "translation" : [
                -6.71072244644165,
                3.8020946979522705,
                -1.0054539442062378
            ]
        },
        {
            "name" : "Lamp.004",
            "rotation" : [
                -0.2721358835697174,
                0.5711058974266052,
                -0.16913285851478577,
                -0.755760669708252
            ],
            "translation" : [
                -0.5800273418426514,
                3.8020946979522705,
                -0.9669533967971802
            ]
        },
        {
            "name" : "Camera.002",
            "rotation" : [
                0.48170706629753113,
                0.33425137400627136,
                -0.2129216492176056,
                0.7816001176834106
            ],
            "translation" : [
                7.481131553649902,
                5.34366512298584,
                6.507639408111572
            ]
        },
        {
            "name" : "Lamp.005",
            "rotation" : [
                0.16907575726509094,
                0.7558803558349609,
                -0.27217137813568115,
                0.570947527885437
            ],
            "translation" : [
                -6.710722923278809,
                3.8020946979522705,
                -1.0054539442062378
            ]
        },
        {
            "name" : "Lamp",
            "rotation" : [
                -0.2721359133720398,
                0.5711060762405396,
                -0.16913284361362457,
                -0.7557606101036072
            ],
            "translation" : [
                -0.5800273418426514,
                3.8020946979522705,
                -0.9669533967971802
            ]
        },
        {
            "name" : "Camera.003",
            "rotation" : [
                0.48170700669288635,
                0.3342514932155609,
                -0.21292176842689514,
                0.7816000580787659
            ],
            "translation" : [
                7.481131553649902,
                5.34366512298584,
                6.5076398849487305
            ]
        },
        {
            "name" : "Lamp.006",
            "rotation" : [
                0.16907590627670288,
                0.7558804154396057,
                -0.2721714675426483,
                0.5709473490715027
            ],
            "translation" : [
                -6.71072244644165,
                3.8020946979522705,
                -1.0054539442062378
            ]
        },
        {
            "name" : "Camera.004",
            "rotation" : [
                0.4817071557044983,
                0.33425137400627136,
                -0.21292167901992798,
                0.7815999984741211
            ],
            "translation" : [
                7.481131553649902,
                5.34366512298584,
                6.507638931274414
            ]
        },
        {
            "name" : "Lamp.007",
            "rotation" : [
                0.1690758466720581,
                0.7558803558349609,
                -0.2721714377403259,
                0.5709474682807922
            ],
            "translation" : [
                -6.71072244644165,
                3.8020946979522705,
                -1.0054539442062378
            ]
        },
        {
            "name" : "Camera.005",
            "rotation" : [
                0.48170700669288635,
                0.3342514932155609,
                -0.21292175352573395,
                0.7816000580787659
            ],
            "translation" : [
                7.481131553649902,
                5.34366512298584,
                6.507639408111572
            ]
        },
        {
            "name" : "Lamp.008",
            "rotation" : [
                0.16907590627670288,
                0.7558804154396057,
                -0.2721714675426483,
                0.5709473490715027
            ],
            "translation" : [
                -6.71072244644165,
                3.8020946979522705,
                -1.0054539442062378
            ]
        },
        {
            "mesh" : 0,
            "name" : "Plane.001",
            "rotation" : [
                -0.7071067690849304,
                0.7071067094802856,
                -0.00014832599845249206,
                0.00014832599845249206
            ],
            "scale" : [
                0.2667063772678375,
                1,
                3.0314104557037354
            ],
            "translation" : [
                3.454042911529541,
                1.624260663986206,
                -0.6919972896575928
            ]
        },
        {
            "mesh" : 1,
            "name" : "Cube.001",
            "rotation" : [
                0,
                1,
                0,
                0.0002096454263664782
            ],
            "translation" : [
                2.5780582427978516,
                0,
                -1.9710826873779297
            ]
        },
        {
            "name" : "Lamp.009",
            "rotation" : [
                0.27213597297668457,
                -0.5711060762405396,
                0.16913296282291412,
                0.7557604908943176
            ],
            "translation" : [
                -0.5800273418426514,
                3.8020946979522705,
                -0.9669533967971802
            ]
        },
        {
            "name" : "Camera.006",
            "rotation" : [
                0.4817071557044983,
                0.33425137400627136,
                -0.21292167901992798,
                0.7815999984741211
            ],
            "translation" : [
                7.481131553649902,
                5.34366512298584,
                6.507638931274414
            ]
        },
        {
            "name" : "Lamp.010",
            "rotation" : [
                0.1690758466720581,
                0.7558803558349609,
                -0.2721714377403259,
                0.5709474682807922
            ],
            "translation" : [
                -6.71072244644165,
                3.8020946979522705,
                -1.0054539442062378
            ]
        },
        {
            "mesh" : 2,
            "name" : "Plane",
            "rotation" : [
                -0.7070838809013367,
                0.7070838212966919,
                -0.005696306936442852,
                0.005696306936442852
            ],
            "scale" : [
                0.2667063772678375,
                1,
                3.0314106941223145
            ],
            "translation" : [
                3.454042911529541,
                1.624260663986206,
                -0.6919972896575928
            ]
        },
        {
            "mesh" : 3,
            "name" : "Cube",
            "rotation" : [
                0,
                1,
                0,
                0.0002096454263664782
            ],
            "translation" : [
                2.5780582427978516,
                0,
                -1.9710824489593506
            ]
        },
        {
            "name" : "Lamp.011",
            "rotation" : [
                0.2721359133720398,
                -0.5711060762405396,
                0.16913282871246338,
                0.7557605504989624
            ],
            "translation" : [
                -0.5800273418426514,
                3.8020946979522705,
                -0.9669533967971802
            ]
        },
        {
            "name" : "Camera.007",
            "rotation" : [
                0.48170700669288635,
                0.3342514932155609,
                -0.21292175352573395,
                0.7816000580787659
            ],
            "translation" : [
                7.481131553649902,
                5.34366512298584,
                6.507639408111572
            ]
        }
    ],
    "materials" : [
        {
            "doubleSided" : true,
            "emissiveFactor" : [
                0,
                0,
                0
            ],
            "name" : "Materiale.002",
            "pbrMetallicRoughness" : {
                "baseColorFactor" : [
                    0.8000000715255737,
                    0.16966235637664795,
                    0.026713581755757332,
                    1
                ],
                "metallicFactor" : 0,
                "roughnessFactor" : 0.4000000059604645
            }
        },
        {
            "doubleSided" : true,
            "emissiveFactor" : [
                0,
                0,
                0
            ],
            "name" : "Material.005",
            "pbrMetallicRoughness" : {
                "baseColorFactor" : [
                    0.8000000715255737,
                    0.3114090859889984,
                    0.10005223751068115,
                    1
                ],
                "metallicFactor" : 0,
                "roughnessFactor" : 0.4000000059604645
            }
        },
        {
            "doubleSided" : true,
            "emissiveFactor" : [
                0,
                0,
                0
            ],
            "name" : "Materiale.003",
            "pbrMetallicRoughness" : {
                "baseColorFactor" : [
                    0.8000000715255737,
                    0.16914667189121246,
                    0.03529383987188339,
                    1
                ],
                "metallicFactor" : 0,
                "roughnessFactor" : 0.4000000059604645
            }
        },
        {
            "doubleSided" : true,
            "emissiveFactor" : [
                0,
                0,
                0
            ],
            "name" : "Material.006",
            "pbrMetallicRoughness" : {
                "baseColorFactor" : [
                    1,
                    0.27064159512519836,
                    0.13794481754302979,
                    1
                ],
                "metallicFactor" : 0,
                "roughnessFactor" : 0.4000000059604645
            }
        }
    ],
    "meshes" : [
        {
            "name" : "Plane.004",
            "primitives" : [
                {
                    "attributes" : {
                        "POSITION" : 0,
                        "NORMAL" : 1,
                        "TEXCOORD_0" : 2
                    },
                    "indices" : 3,
                    "material" : 0
                }
            ]
        },
        {
            "name" : "Cube.005",
            "primitives" : [
                {
                    "attributes" : {
                        "POSITION" : 4,
                        "NORMAL" : 5,
                        "TEXCOORD_0" : 6
                    },
                    "indices" : 7,
                    "material" : 1
                }
            ]
        },
        {
            "name" : "Plane.005",
            "primitives" : [
                {
                    "attributes" : {
                        "POSITION" : 8,
                        "NORMAL" : 9,
                        "TEXCOORD_0" : 10
                    },
                    "indices" : 3,
                    "material" : 2
                }
            ]
        },
        {
            "name" : "Cube.006",
            "primitives" : [
                {
                    "attributes" : {
                        "POSITION" : 11,
                        "NORMAL" : 12,
                        "TEXCOORD_0" : 13
                    },
                    "indices" : 7,
                    "material" : 3
                }
            ]
        }
    ],
    "accessors" : [
        {
            "bufferView" : 0,
            "componentType" : 5126,
            "count" : 48,
            "max" : [
                2.0779993534088135,
                0.05596858263015747,
                0.8780532479286194
            ],
            "min" : [
                -1.8786683082580566,
                -0.04403144121170044,
                -0.8196057677268982
            ],
            "type" : "VEC3"
        },
        {
            "bufferView" : 1,
            "componentType" : 5126,
            "count" : 48,
            "type" : "VEC3"
        },
        {
            "bufferView" : 2,
            "componentType" : 5126,
            "count" : 48,
            "type" : "VEC2"
        },
        {
            "bufferView" : 3,
            "componentType" : 5123,
            "count" : 72,
            "type" : "SCALAR"
        },
        {
            "bufferView" : 4,
            "componentType" : 5126,
            "count" : 150,
            "max" : [
                -0.8307592272758484,
                2.92919921875,
                1.0000005960464478
            ],
            "min" : [
                -0.9132380485534668,
                0.42919921875,
                -3.3919990062713623
            ],
            "type" : "VEC3"
        },
        {
            "bufferView" : 5,
            "componentType" : 5126,
            "count" : 150,
            "type" : "VEC3"
        },
        {
            "bufferView" : 6,
            "componentType" : 5126,
            "count" : 150,
            "type" : "VEC2"
        },
        {
            "bufferView" : 7,
            "componentType" : 5123,
            "count" : 240,
            "type" : "SCALAR"
        },
        {
            "bufferView" : 8,
            "componentType" : 5126,
            "count" : 48,
            "max" : [
                2.0779993534088135,
                0.05596858263015747,
                0.8780532479286194
            ],
            "min" : [
                -1.8786683082580566,
                -0.04403144121170044,
                -0.8196057677268982
            ],
            "type" : "VEC3"
        },
        {
            "bufferView" : 9,
            "componentType" : 5126,
            "count" : 48,
            "type" : "VEC3"
        },
        {
            "bufferView" : 10,
            "componentType" : 5126,
            "count" : 48,
            "type" : "VEC2"
        },
        {
            "bufferView" : 11,
            "componentType" : 5126,
            "count" : 150,
            "max" : [
                -0.8307592272758484,
                2.92919921875,
                1.0000005960464478
            ],
            "min" : [
                -0.9132380485534668,
                0.42919921875,
                -3.3919990062713623
            ],
            "type" : "VEC3"
        },
        {
            "bufferView" : 12,
            "componentType" : 5126,
            "count" : 150,
            "type" : "VEC3"
        },
        {
            "bufferView" : 13,
            "componentType" : 5126,
            "count" : 150,
            "type" : "VEC2"
        }
    ],
    "bufferViews" : [
        {
            "buffer" : 0,
            "byteLength" : 576,
            "byteOffset" : 0
        },
        {
            "buffer" : 0,
            "byteLength" : 576,
            "byteOffset" : 576
        },
        {
            "buffer" : 0,
            "byteLength" : 384,
            "byteOffset" : 1152
        },
        {
            "buffer" : 0,
            "byteLength" : 144,
            "byteOffset" : 1536
        },
        {
            "buffer" : 0,
            "byteLength" : 1800,
            "byteOffset" : 1680
        },
        {
            "buffer" : 0,
            "byteLength" : 1800,
            "byteOffset" : 3480
        },
        {
            "buffer" : 0,
            "byteLength" : 1200,
            "byteOffset" : 5280
        },
        {
            "buffer" : 0,
            "byteLength" : 480,
            "byteOffset" : 6480
        },
        {
            "buffer" : 0,
            "byteLength" : 576,
            "byteOffset" : 6960
        },
        {
            "buffer" : 0,
            "byteLength" : 576,
            "byteOffset" : 7536
        },
        {
            "buffer" : 0,
            "byteLength" : 384,
            "byteOffset" : 8112
        },
        {
            "buffer" : 0,
            "byteLength" : 1800,
            "byteOffset" : 8496
        },
        {
            "buffer" : 0,
            "byteLength" : 1800,
            "byteOffset" : 10296
        },
        {
            "buffer" : 0,
            "byteLength" : 1200,
            "byteOffset" : 12096
        }
    ],
    "buffers" : [
        {
            "byteLength" : 13296,
            "uri" : "data:application/octet-stream;base64,"
        }
    ]
}
