{
    "asset" : {
        "generator" : "Khronos glTF Blender I/O v1.2.75",
        "version" : "2.0"
    },
    "scene" : 0,
    "scenes" : [
        {
            "name" : "Scene",
            "nodes" : [
                0,
                1,
                2,
                3,
                4,
                5,
                6,
                7,
                8,
                9
            ]
        }
    ],
    "nodes" : [
        {
            "name" : "Lamp.002",
            "rotation" : [
                0.16907575726509094,
                0.7558804154396057,
                -0.27217134833335876,
                0.5709474086761475
            ],
            "translation" : [
                -6.71072244644165,
                3.8020946979522705,
                -1.0054539442062378
            ]
        },
        {
            "mesh" : 0,
            "name" : "Plane.001",
            "rotation" : [
                0,
                0,
                -0.7071067690849304,
                0.7071068286895752
            ],
            "scale" : [
                0.2667063772678375,
                1,
                3.0314106941223145
            ],
            "translation" : [
                0.042060259729623795,
                1.624260663986206,
                -1.2787175178527832
            ]
        },
        {
            "mesh" : 1,
            "name" : "Cube.001",
            "translation" : [
                0.9185814261436462,
                0,
                0
            ]
        },
        {
            "name" : "Lamp.003",
            "rotation" : [
                0.16907575726509094,
                0.7558804154396057,
                -0.27217134833335876,
                0.5709474086761475
            ],
            "translation" : [
                4.076245307922363,
                3.8020946979522705,
                -1.0054539442062378
            ]
        },
        {
            "name" : "Camera.001",
            "rotation" : [
                0.48170706629753113,
                0.33425137400627136,
                -0.2129216492176056,
                0.7816001176834106
            ],
            "translation" : [
                7.481131553649902,
                5.34366512298584,
                6.507639408111572
            ]
        },
        {
            "name" : "Lamp.001",
            "rotation" : [
                0.16907575726509094,
                0.7558803558349609,
                -0.27217137813568115,
                0.570947527885437
            ],
            "translation" : [
                -6.710722923278809,
                3.8020946979522705,
                -1.0054539442062378
            ]
        },
        {
            "mesh" : 2,
            "name" : "Plane",
            "rotation" : [
                0,
                0,
                -0.7071067690849304,
                0.7071068286895752
            ],
            "scale" : [
                0.2667063772678375,
                1,
                3.0314106941223145
            ],
            "translation" : [
                0.042060259729623795,
                1.624260663986206,
                -1.2787175178527832
            ]
        },
        {
            "mesh" : 3,
            "name" : "Cube",
            "translation" : [
                0.918581485748291,
                0,
                0
            ]
        },
        {
            "name" : "Lamp",
            "rotation" : [
                0.16907575726509094,
                0.7558803558349609,
                -0.27217137813568115,
                0.570947527885437
            ],
            "translation" : [
                4.076245307922363,
                3.8020946979522705,
                -1.0054539442062378
            ]
        },
        {
            "name" : "Camera",
            "rotation" : [
                0.48170700669288635,
                0.3342514932155609,
                -0.21292176842689514,
                0.7816000580787659
            ],
            "translation" : [
                7.481131553649902,
                5.34366512298584,
                6.5076398849487305
            ]
        }
    ],
    "materials" : [
        {
            "doubleSided" : true,
            "emissiveFactor" : [
                0,
                0,
                0
            ],
            "name" : "Material.001",
            "pbrMetallicRoughness" : {
                "baseColorFactor" : [
                    0.800000011920929,
                    0.800000011920929,
                    0.800000011920929,
                    1
                ],
                "metallicFactor" : 0,
                "roughnessFactor" : 0.5
            }
        },
        {
            "doubleSided" : true,
            "name" : "Material",
            "pbrMetallicRoughness" : {}
        }
    ],
    "meshes" : [
        {
            "name" : "Plane.001",
            "primitives" : [
                {
                    "attributes" : {
                        "POSITION" : 0,
                        "NORMAL" : 1,
                        "TEXCOORD_0" : 2
                    },
                    "indices" : 3
                }
            ]
        },
        {
            "name" : "Cube.001",
            "primitives" : [
                {
                    "attributes" : {
                        "POSITION" : 4,
                        "NORMAL" : 5,
                        "TEXCOORD_0" : 6
                    },
                    "indices" : 7,
                    "material" : 0
                }
            ]
        },
        {
            "name" : "Plane",
            "primitives" : [
                {
                    "attributes" : {
                        "POSITION" : 8,
                        "NORMAL" : 9,
                        "TEXCOORD_0" : 10
                    },
                    "indices" : 3
                }
            ]
        },
        {
            "name" : "Cube",
            "primitives" : [
                {
                    "attributes" : {
                        "POSITION" : 11,
                        "NORMAL" : 12,
                        "TEXCOORD_0" : 13
                    },
                    "indices" : 7,
                    "material" : 1
                }
            ]
        }
    ],
    "accessors" : [
        {
            "bufferView" : 0,
            "componentType" : 5126,
            "count" : 56,
            "max" : [
                2.0779993534088135,
                0.05596858263015747,
                0.8780532479286194
            ],
            "min" : [
                -1.8786683082580566,
                -0.04403144121170044,
                -0.8196057677268982
            ],
            "type" : "VEC3"
        },
        {
            "bufferView" : 1,
            "componentType" : 5126,
            "count" : 56,
            "type" : "VEC3"
        },
        {
            "bufferView" : 2,
            "componentType" : 5126,
            "count" : 56,
            "type" : "VEC2"
        },
        {
            "bufferView" : 3,
            "componentType" : 5123,
            "count" : 96,
            "type" : "SCALAR"
        },
        {
            "bufferView" : 4,
            "componentType" : 5126,
            "count" : 150,
            "max" : [
                -0.8307592272758484,
                2.92919921875,
                1.0000005960464478
            ],
            "min" : [
                -0.9132380485534668,
                0.42919921875,
                -3.3919990062713623
            ],
            "type" : "VEC3"
        },
        {
            "bufferView" : 5,
            "componentType" : 5126,
            "count" : 150,
            "type" : "VEC3"
        },
        {
            "bufferView" : 6,
            "componentType" : 5126,
            "count" : 150,
            "type" : "VEC2"
        },
        {
            "bufferView" : 7,
            "componentType" : 5123,
            "count" : 240,
            "type" : "SCALAR"
        },
        {
            "bufferView" : 8,
            "componentType" : 5126,
            "count" : 56,
            "max" : [
                2.0779993534088135,
                0.05596858263015747,
                0.8780532479286194
            ],
            "min" : [
                -1.8786683082580566,
                -0.04403144121170044,
                -0.8196057677268982
            ],
            "type" : "VEC3"
        },
        {
            "bufferView" : 9,
            "componentType" : 5126,
            "count" : 56,
            "type" : "VEC3"
        },
        {
            "bufferView" : 10,
            "componentType" : 5126,
            "count" : 56,
            "type" : "VEC2"
        },
        {
            "bufferView" : 11,
            "componentType" : 5126,
            "count" : 150,
            "max" : [
                -0.8307592272758484,
                2.92919921875,
                1.0000005960464478
            ],
            "min" : [
                -0.9132380485534668,
                0.42919921875,
                -3.3919990062713623
            ],
            "type" : "VEC3"
        },
        {
            "bufferView" : 12,
            "componentType" : 5126,
            "count" : 150,
            "type" : "VEC3"
        },
        {
            "bufferView" : 13,
            "componentType" : 5126,
            "count" : 150,
            "type" : "VEC2"
        }
    ],
    "bufferViews" : [
        {
            "buffer" : 0,
            "byteLength" : 672,
            "byteOffset" : 0
        },
        {
            "buffer" : 0,
            "byteLength" : 672,
            "byteOffset" : 672
        },
        {
            "buffer" : 0,
            "byteLength" : 448,
            "byteOffset" : 1344
        },
        {
            "buffer" : 0,
            "byteLength" : 192,
            "byteOffset" : 1792
        },
        {
            "buffer" : 0,
            "byteLength" : 1800,
            "byteOffset" : 1984
        },
        {
            "buffer" : 0,
            "byteLength" : 1800,
            "byteOffset" : 3784
        },
        {
            "buffer" : 0,
            "byteLength" : 1200,
            "byteOffset" : 5584
        },
        {
            "buffer" : 0,
            "byteLength" : 480,
            "byteOffset" : 6784
        },
        {
            "buffer" : 0,
            "byteLength" : 672,
            "byteOffset" : 7264
        },
        {
            "buffer" : 0,
            "byteLength" : 672,
            "byteOffset" : 7936
        },
        {
            "buffer" : 0,
            "byteLength" : 448,
            "byteOffset" : 8608
        },
        {
            "buffer" : 0,
            "byteLength" : 1800,
            "byteOffset" : 9056
        },
        {
            "buffer" : 0,
            "byteLength" : 1800,
            "byteOffset" : 10856
        },
        {
            "buffer" : 0,
            "byteLength" : 1200,
            "byteOffset" : 12656
        }
    ],
    "buffers" : [
        {
            "byteLength" : 13856,
            "uri" : "data:application/octet-stream;base64,"
        }
    ]
}
