{
    "asset" : {
        "generator" : "Khronos glTF Blender I/O v1.2.75",
        "version" : "2.0"
    },
    "scene" : 0,
    "scenes" : [
        {
            "name" : "Scene",
            "nodes" : [
                0
            ]
        }
    ],
    "nodes" : [
        {
            "mesh" : 0,
            "name" : "Stone_2_moss_mat",
            "rotation" : [
                0.7071080803871155,
                0,
                0,
                0.7071055173873901
            ],
            "scale" : [
                0.009999999776482582,
                0.009999999776482582,
                0.009999999776482582
            ]
        }
    ],
    "materials" : [
        {
            "doubleSided" : true,
            "emissiveFactor" : [
                0,
                0,
                0
            ],
            "name" : "dark_grey.001",
            "pbrMetallicRoughness" : {
                "baseColorFactor" : [
                    0.2597964406013489,
                    0.2597964406013489,
                    0.2597964406013489,
                    1
                ],
                "metallicFactor" : 0,
                "roughnessFactor" : 0.690034806728363
            }
        },
        {
            "doubleSided" : true,
            "emissiveFactor" : [
                0,
                0,
                0
            ],
            "name" : "leafs_3.001",
            "pbrMetallicRoughness" : {
                "baseColorFactor" : [
                    0.18718841671943665,
                    0.318538635969162,
                    0.033555276691913605,
                    1
                ],
                "metallicFactor" : 0,
                "roughnessFactor" : 0.690034806728363
            }
        }
    ],
    "meshes" : [
        {
            "name" : "Icosphere.002",
            "primitives" : [
                {
                    "attributes" : {
                        "POSITION" : 0,
                        "NORMAL" : 1
                    },
                    "indices" : 2,
                    "material" : 0
                },
                {
                    "attributes" : {
                        "POSITION" : 3,
                        "NORMAL" : 4
                    },
                    "indices" : 2,
                    "material" : 1
                }
            ]
        }
    ],
    "accessors" : [
        {
            "bufferView" : 0,
            "componentType" : 5126,
            "count" : 84,
            "max" : [
                56.465065002441406,
                73.33415985107422,
                14.078240394592285
            ],
            "min" : [
                -52.611793518066406,
                -75.58009338378906,
                -61.41825485229492
            ],
            "type" : "VEC3"
        },
        {
            "bufferView" : 1,
            "componentType" : 5126,
            "count" : 84,
            "type" : "VEC3"
        },
        {
            "bufferView" : 2,
            "componentType" : 5123,
            "count" : 96,
            "type" : "SCALAR"
        },
        {
            "bufferView" : 3,
            "componentType" : 5126,
            "count" : 84,
            "max" : [
                54.57014465332031,
                70.87308502197266,
                4.116763591766357
            ],
            "min" : [
                -50.84618377685547,
                -73.04371643066406,
                -68.84613037109375
            ],
            "type" : "VEC3"
        },
        {
            "bufferView" : 4,
            "componentType" : 5126,
            "count" : 84,
            "type" : "VEC3"
        }
    ],
    "bufferViews" : [
        {
            "buffer" : 0,
            "byteLength" : 1008,
            "byteOffset" : 0
        },
        {
            "buffer" : 0,
            "byteLength" : 1008,
            "byteOffset" : 1008
        },
        {
            "buffer" : 0,
            "byteLength" : 192,
            "byteOffset" : 2016
        },
        {
            "buffer" : 0,
            "byteLength" : 1008,
            "byteOffset" : 2208
        },
        {
            "buffer" : 0,
            "byteLength" : 1008,
            "byteOffset" : 3216
        }
    ],
    "buffers" : [
        {
            "byteLength" : 4224,
            "uri" : "data:application/octet-stream;base64,"
        }
    ]
}
