{
    "asset" : {
        "generator" : "Khronos glTF Blender I/O v1.2.75",
        "version" : "2.0"
    },
    "scene" : 0,
    "scenes" : [
        {
            "name" : "Scene",
            "nodes" : [
                0,
                1,
                2,
                3,
                4
            ]
        }
    ],
    "nodes" : [
        {
            "name" : "CINEMA_4D_Editor",
            "rotation" : [
                0.04266082122921944,
                0.8247385621070862,
                -0.5603967905044556,
                0.06278339773416519
            ],
            "scale" : [
                0.009999999776482582,
                0.009999999776482582,
                0.009999998845160007
            ],
            "translation" : [
                0.6785804629325867,
                3.1306700706481934,
                -4.557121276855469
            ]
        },
        {
            "name" : "CINEMA_4D_Editor.001",
            "rotation" : [
                0.04266083613038063,
                0.8247385621070862,
                -0.5603968501091003,
                0.06278353184461594
            ],
            "scale" : [
                0.009999999776482582,
                0.009999999776482582,
                0.009999998845160007
            ],
            "translation" : [
                0.6785804629325867,
                3.1306700706481934,
                -4.557121276855469
            ]
        },
        {
            "name" : "CINEMA_4D_Editor.002",
            "rotation" : [
                0.04266083613038063,
                0.8247385621070862,
                -0.5603968501091003,
                0.06278353184461594
            ],
            "scale" : [
                0.009999999776482582,
                0.009999999776482582,
                0.009999998845160007
            ],
            "translation" : [
                0.6785804629325867,
                3.1306700706481934,
                -4.557121276855469
            ]
        },
        {
            "name" : "CINEMA_4D_Editor.003",
            "rotation" : [
                0.04266083613038063,
                0.8247385621070862,
                -0.5603968501091003,
                0.06278353184461594
            ],
            "scale" : [
                0.009999999776482582,
                0.009999999776482582,
                0.009999998845160007
            ],
            "translation" : [
                0.6785804629325867,
                3.1306700706481934,
                -4.557121276855469
            ]
        },
        {
            "mesh" : 0,
            "name" : "Tronc-rope",
            "rotation" : [
                0.7071068286895752,
                0,
                0,
                0.7071067094802856
            ]
        }
    ],
    "materials" : [
        {
            "doubleSided" : true,
            "emissiveFactor" : [
                0,
                0,
                0
            ],
            "name" : "wood.001",
            "pbrMetallicRoughness" : {
                "baseColorFactor" : [
                    0.5372106432914734,
                    0.13559052348136902,
                    0.01310044527053833,
                    1
                ],
                "metallicFactor" : 0,
                "roughnessFactor" : 0.5
            }
        },
        {
            "doubleSided" : true,
            "emissiveFactor" : [
                0,
                0,
                0
            ],
            "name" : "rope.001",
            "pbrMetallicRoughness" : {
                "baseColorTexture" : {
                    "index" : 0,
                    "texCoord" : 0
                },
                "metallicFactor" : 0,
                "roughnessFactor" : 0.5
            }
        }
    ],
    "meshes" : [
        {
            "name" : "Cylindre.002_Cylindre.001",
            "primitives" : [
                {
                    "attributes" : {
                        "POSITION" : 0,
                        "NORMAL" : 1,
                        "TEXCOORD_0" : 2
                    },
                    "indices" : 3,
                    "material" : 0
                },
                {
                    "attributes" : {
                        "POSITION" : 4,
                        "NORMAL" : 5,
                        "TEXCOORD_0" : 6
                    },
                    "indices" : 7,
                    "material" : 1
                }
            ]
        }
    ],
    "textures" : [
        {
            "source" : 0
        }
    ],
    "images" : [
        {
            "bufferView" : 8,
            "mimeType" : "image/jpeg",
            "name" : "Rope-diffuse"
        }
    ],
    "accessors" : [
        {
            "bufferView" : 0,
            "componentType" : 5126,
            "count" : 1122,
            "max" : [
                3.5144519805908203,
                2.8668899536132812,
                1.0000020265579224
            ],
            "min" : [
                -3.3224430084228516,
                -1,
                -2.5248870849609375
            ],
            "type" : "VEC3"
        },
        {
            "bufferView" : 1,
            "componentType" : 5126,
            "count" : 1122,
            "type" : "VEC3"
        },
        {
            "bufferView" : 2,
            "componentType" : 5126,
            "count" : 1122,
            "type" : "VEC2"
        },
        {
            "bufferView" : 3,
            "componentType" : 5123,
            "count" : 1692,
            "type" : "SCALAR"
        },
        {
            "bufferView" : 4,
            "componentType" : 5126,
            "count" : 428,
            "max" : [
                1.7916669845581055,
                3.1824491024017334,
                0.9766520261764526
            ],
            "min" : [
                -2.003593921661377,
                -1.3860349655151367,
                -2.652190923690796
            ],
            "type" : "VEC3"
        },
        {
            "bufferView" : 5,
            "componentType" : 5126,
            "count" : 428,
            "type" : "VEC3"
        },
        {
            "bufferView" : 6,
            "componentType" : 5126,
            "count" : 428,
            "type" : "VEC2"
        },
        {
            "bufferView" : 7,
            "componentType" : 5123,
            "count" : 504,
            "type" : "SCALAR"
        }
    ],
    "bufferViews" : [
        {
            "buffer" : 0,
            "byteLength" : 13464,
            "byteOffset" : 0
        },
        {
            "buffer" : 0,
            "byteLength" : 13464,
            "byteOffset" : 13464
        },
        {
            "buffer" : 0,
            "byteLength" : 8976,
            "byteOffset" : 26928
        },
        {
            "buffer" : 0,
            "byteLength" : 3384,
            "byteOffset" : 35904
        },
        {
            "buffer" : 0,
            "byteLength" : 5136,
            "byteOffset" : 39288
        },
        {
            "buffer" : 0,
            "byteLength" : 5136,
            "byteOffset" : 44424
        },
        {
            "buffer" : 0,
            "byteLength" : 3424,
            "byteOffset" : 49560
        },
        {
            "buffer" : 0,
            "byteLength" : 1008,
            "byteOffset" : 52984
        },
        {
            "buffer" : 0,
            "byteLength" : 30024,
            "byteOffset" : 53992
        }
    ],
    "buffers" : [
        {
            "byteLength" : 84016,
            "uri" : "data:application/octet-stream;base64,"
        }
    ]
}
