{
    "asset" : {
        "generator" : "Khronos glTF Blender I/O v1.2.75",
        "version" : "2.0"
    },
    "scene" : 0,
    "scenes" : [
        {
            "name" : "Scene",
            "nodes" : [
                0,
                1,
                2,
                3,
                8
            ]
        }
    ],
    "nodes" : [
        {
            "name" : "CINEMA_4D_Editor",
            "rotation" : [
                0.042660538107156754,
                0.824738621711731,
                -0.5603967905044556,
                0.06278344988822937
            ],
            "scale" : [
                0.009999999776482582,
                0.009999999776482582,
                0.009999998845160007
            ],
            "translation" : [
                0.6785804629325867,
                3.1306700706481934,
                -4.557121276855469
            ]
        },
        {
            "name" : "CINEMA_4D_Editor.001",
            "rotation" : [
                0.04266082122921944,
                0.8247385621070862,
                -0.5603967905044556,
                0.06278339773416519
            ],
            "scale" : [
                0.009999999776482582,
                0.009999999776482582,
                0.009999998845160007
            ],
            "translation" : [
                0.6785804629325867,
                3.1306700706481934,
                -4.557121276855469
            ]
        },
        {
            "name" : "CINEMA_4D_Editor.002",
            "rotation" : [
                0.04266082122921944,
                0.8247385621070862,
                -0.5603967905044556,
                0.06278339773416519
            ],
            "scale" : [
                0.009999999776482582,
                0.009999999776482582,
                0.009999998845160007
            ],
            "translation" : [
                0.6785804629325867,
                3.1306700706481934,
                -4.557121276855469
            ]
        },
        {
            "name" : "CINEMA_4D_Editor.003",
            "rotation" : [
                0.04266082122921944,
                0.8247385621070862,
                -0.5603967905044556,
                0.06278339773416519
            ],
            "scale" : [
                0.009999999776482582,
                0.009999999776482582,
                0.009999998845160007
            ],
            "translation" : [
                0.6785804629325867,
                3.1306700706481934,
                -4.557121276855469
            ]
        },
        {
            "mesh" : 0,
            "name" : "Cube",
            "translation" : [
                0,
                0,
                -69.35957336425781
            ]
        },
        {
            "children" : [
                4
            ],
            "name" : "Subdivision_Surface",
            "translation" : [
                0,
                0,
                2.8526461124420166
            ]
        },
        {
            "mesh" : 1,
            "name" : "Subdivision_Surface_2"
        },
        {
            "children" : [
                6
            ],
            "name" : "Subdivision_Surface_1",
            "translation" : [
                0,
                0,
                -2.852668523788452
            ]
        },
        {
            "children" : [
                5,
                7
            ],
            "name" : "apple",
            "rotation" : [
                0.7071068286895752,
                0,
                0,
                0.7071067094802856
            ],
            "scale" : [
                0.009999999776482582,
                0.009999999776482582,
                0.009999999776482582
            ],
            "translation" : [
                -0.0375572144985199,
                1.1202448606491089,
                -0.017266444861888885
            ]
        }
    ],
    "materials" : [
        {
            "doubleSided" : true,
            "emissiveFactor" : [
                0,
                0,
                0
            ],
            "name" : "Materiale.006",
            "pbrMetallicRoughness" : {
                "baseColorFactor" : [
                    0.8000000715255737,
                    0.14324705302715302,
                    0.07225222140550613,
                    1
                ],
                "metallicFactor" : 0,
                "roughnessFactor" : 0.4000000059604645
            }
        },
        {
            "doubleSided" : true,
            "emissiveFactor" : [
                0,
                0,
                0
            ],
            "name" : "Materiale.007",
            "pbrMetallicRoughness" : {
                "baseColorFactor" : [
                    0.7658025622367859,
                    1,
                    0.017180271446704865,
                    1
                ],
                "metallicFactor" : 0,
                "roughnessFactor" : 0.4000000059604645
            }
        }
    ],
    "meshes" : [
        {
            "name" : "Mesh.006",
            "primitives" : [
                {
                    "attributes" : {
                        "POSITION" : 0,
                        "NORMAL" : 1,
                        "TEXCOORD_0" : 2
                    },
                    "indices" : 3,
                    "material" : 0
                }
            ]
        },
        {
            "name" : "Mesh.007",
            "primitives" : [
                {
                    "attributes" : {
                        "POSITION" : 4,
                        "NORMAL" : 5,
                        "TEXCOORD_0" : 6
                    },
                    "indices" : 7,
                    "material" : 1
                }
            ]
        }
    ],
    "accessors" : [
        {
            "bufferView" : 0,
            "componentType" : 5126,
            "count" : 64,
            "max" : [
                6.905946731567383,
                36.11225509643555,
                3.9760000705718994
            ],
            "min" : [
                -6.90667724609375,
                -9.27196979522705,
                -81.63081359863281
            ],
            "type" : "VEC3"
        },
        {
            "bufferView" : 1,
            "componentType" : 5126,
            "count" : 64,
            "type" : "VEC3"
        },
        {
            "bufferView" : 2,
            "componentType" : 5126,
            "count" : 64,
            "type" : "VEC2"
        },
        {
            "bufferView" : 3,
            "componentType" : 5123,
            "count" : 156,
            "type" : "SCALAR"
        },
        {
            "bufferView" : 4,
            "componentType" : 5126,
            "count" : 140,
            "max" : [
                139.8368377685547,
                139.8368377685547,
                124.57659149169922
            ],
            "min" : [
                -139.8368377685547,
                -139.8368377685547,
                -112.20021057128906
            ],
            "type" : "VEC3"
        },
        {
            "bufferView" : 5,
            "componentType" : 5126,
            "count" : 140,
            "type" : "VEC3"
        },
        {
            "bufferView" : 6,
            "componentType" : 5126,
            "count" : 140,
            "type" : "VEC2"
        },
        {
            "bufferView" : 7,
            "componentType" : 5123,
            "count" : 432,
            "type" : "SCALAR"
        }
    ],
    "bufferViews" : [
        {
            "buffer" : 0,
            "byteLength" : 768,
            "byteOffset" : 0
        },
        {
            "buffer" : 0,
            "byteLength" : 768,
            "byteOffset" : 768
        },
        {
            "buffer" : 0,
            "byteLength" : 512,
            "byteOffset" : 1536
        },
        {
            "buffer" : 0,
            "byteLength" : 312,
            "byteOffset" : 2048
        },
        {
            "buffer" : 0,
            "byteLength" : 1680,
            "byteOffset" : 2360
        },
        {
            "buffer" : 0,
            "byteLength" : 1680,
            "byteOffset" : 4040
        },
        {
            "buffer" : 0,
            "byteLength" : 1120,
            "byteOffset" : 5720
        },
        {
            "buffer" : 0,
            "byteLength" : 864,
            "byteOffset" : 6840
        }
    ],
    "buffers" : [
        {
            "byteLength" : 7704,
            "uri" : "data:application/octet-stream;base64,"
        }
    ]
}
