{
    "asset" : {
        "generator" : "Khronos glTF Blender I/O v1.2.75",
        "version" : "2.0"
    },
    "scene" : 0,
    "scenes" : [
        {
            "name" : "Scene",
            "nodes" : [
                0
            ]
        }
    ],
    "nodes" : [
        {
            "mesh" : 0,
            "name" : "LP BEAR",
            "scale" : [
                1.0611969232559204,
                1.3143256902694702,
                1.1036697626113892
            ],
            "translation" : [
                -3.663785934448242,
                -3.9267361164093018,
                1.7880676984786987
            ]
        }
    ],
    "materials" : [
        {
            "doubleSided" : true,
            "emissiveFactor" : [
                0,
                0,
                0
            ],
            "name" : "Material.007",
            "pbrMetallicRoughness" : {
                "baseColorFactor" : [
                    0.8000000715255737,
                    0.7778761386871338,
                    0.6540709733963013,
                    1
                ],
                "metallicFactor" : 0,
                "roughnessFactor" : 0.5
            }
        }
    ],
    "meshes" : [
        {
            "name" : "Roundcube.001",
            "primitives" : [
                {
                    "attributes" : {
                        "POSITION" : 0,
                        "NORMAL" : 1
                    },
                    "indices" : 2,
                    "material" : 0
                }
            ]
        }
    ],
    "accessors" : [
        {
            "bufferView" : 0,
            "componentType" : 5126,
            "count" : 1650,
            "max" : [
                1.194245457649231,
                2.523465156555176,
                3.2646114826202393
            ],
            "min" : [
                -1.1954303979873657,
                -0.10572230815887451,
                -1.9713354110717773
            ],
            "type" : "VEC3"
        },
        {
            "bufferView" : 1,
            "componentType" : 5126,
            "count" : 1650,
            "type" : "VEC3"
        },
        {
            "bufferView" : 2,
            "componentType" : 5123,
            "count" : 1686,
            "type" : "SCALAR"
        }
    ],
    "bufferViews" : [
        {
            "buffer" : 0,
            "byteLength" : 19800,
            "byteOffset" : 0
        },
        {
            "buffer" : 0,
            "byteLength" : 19800,
            "byteOffset" : 19800
        },
        {
            "buffer" : 0,
            "byteLength" : 3372,
            "byteOffset" : 39600
        }
    ],
    "buffers" : [
        {
            "byteLength" : 42972,
            "uri" : "data:application/octet-stream;base64,"
        }
    ]
}
