{
    "asset" : {
        "generator" : "Khronos glTF Blender I/O v1.2.75",
        "version" : "2.0"
    },
    "scene" : 0,
    "scenes" : [
        {
            "name" : "Scene",
            "nodes" : [
                0,
                1
            ]
        }
    ],
    "nodes" : [
        {
            "mesh" : 0,
            "name" : "Cube.022",
            "rotation" : [
                0.4455260932445526,
                -0.4468238949775696,
                -0.5490961074829102,
                0.548040509223938
            ],
            "scale" : [
                0.3164719045162201,
                0.8323593139648438,
                0.36911818385124207
            ],
            "translation" : [
                -1.7830126285552979,
                4.8218512535095215,
                0.7675861120223999
            ]
        },
        {
            "name" : "Camera",
            "rotation" : [
                0.4194325804710388,
                0.340973436832428,
                -0.1737346649169922,
                0.8231826424598694
            ],
            "scale" : [
                0.10000001639127731,
                0.10000001639127731,
                0.10000001639127731
            ],
            "translation" : [
                12,
                14.59999942779541,
                12
            ]
        }
    ],
    "materials" : [
        {
            "doubleSided" : true,
            "emissiveFactor" : [
                0,
                0,
                0
            ],
            "name" : "Material.008",
            "pbrMetallicRoughness" : {
                "baseColorFactor" : [
                    0.016807377338409424,
                    0.01850022003054619,
                    0.01850022003054619,
                    1
                ],
                "metallicFactor" : 0,
                "roughnessFactor" : 0.5
            }
        },
        {
            "doubleSided" : true,
            "emissiveFactor" : [
                0,
                0,
                0
            ],
            "name" : "Material.009",
            "pbrMetallicRoughness" : {
                "baseColorFactor" : [
                    0.5332765579223633,
                    0.6038274168968201,
                    0.6038274168968201,
                    1
                ],
                "metallicFactor" : 0,
                "roughnessFactor" : 0.5
            }
        },
        {
            "doubleSided" : true,
            "emissiveFactor" : [
                0,
                0,
                0
            ],
            "name" : "Material.010",
            "pbrMetallicRoughness" : {
                "baseColorFactor" : [
                    0.799102783203125,
                    0.32314324378967285,
                    0,
                    1
                ],
                "metallicFactor" : 0,
                "roughnessFactor" : 0.5
            }
        }
    ],
    "meshes" : [
        {
            "name" : "Cube.007",
            "primitives" : [
                {
                    "attributes" : {
                        "POSITION" : 0,
                        "NORMAL" : 1
                    },
                    "indices" : 2,
                    "material" : 0
                },
                {
                    "attributes" : {
                        "POSITION" : 3,
                        "NORMAL" : 4
                    },
                    "indices" : 5,
                    "material" : 1
                },
                {
                    "attributes" : {
                        "POSITION" : 6,
                        "NORMAL" : 7
                    },
                    "indices" : 8,
                    "material" : 2
                }
            ]
        }
    ],
    "accessors" : [
        {
            "bufferView" : 0,
            "componentType" : 5126,
            "count" : 602,
            "max" : [
                0.6377403736114502,
                1.468031406402588,
                1.1149592399597168
            ],
            "min" : [
                -1.1240055561065674,
                -1.0626822710037231,
                -1.1873964071273804
            ],
            "type" : "VEC3"
        },
        {
            "bufferView" : 1,
            "componentType" : 5126,
            "count" : 602,
            "type" : "VEC3"
        },
        {
            "bufferView" : 2,
            "componentType" : 5123,
            "count" : 972,
            "type" : "SCALAR"
        },
        {
            "bufferView" : 3,
            "componentType" : 5126,
            "count" : 198,
            "max" : [
                0.8784722089767456,
                1.0378409624099731,
                0.878472089767456
            ],
            "min" : [
                -0.7031304836273193,
                -0.8784722089767456,
                -0.8784723281860352
            ],
            "type" : "VEC3"
        },
        {
            "bufferView" : 4,
            "componentType" : 5126,
            "count" : 198,
            "type" : "VEC3"
        },
        {
            "bufferView" : 5,
            "componentType" : 5123,
            "count" : 300,
            "type" : "SCALAR"
        },
        {
            "bufferView" : 6,
            "componentType" : 5126,
            "count" : 70,
            "max" : [
                0.280963659286499,
                1.4577828645706177,
                0.3589795231819153
            ],
            "min" : [
                -1.0501389503479004,
                -1.0626822710037231,
                -0.40767860412597656
            ],
            "type" : "VEC3"
        },
        {
            "bufferView" : 7,
            "componentType" : 5126,
            "count" : 70,
            "type" : "VEC3"
        },
        {
            "bufferView" : 8,
            "componentType" : 5123,
            "count" : 108,
            "type" : "SCALAR"
        }
    ],
    "bufferViews" : [
        {
            "buffer" : 0,
            "byteLength" : 7224,
            "byteOffset" : 0
        },
        {
            "buffer" : 0,
            "byteLength" : 7224,
            "byteOffset" : 7224
        },
        {
            "buffer" : 0,
            "byteLength" : 1944,
            "byteOffset" : 14448
        },
        {
            "buffer" : 0,
            "byteLength" : 2376,
            "byteOffset" : 16392
        },
        {
            "buffer" : 0,
            "byteLength" : 2376,
            "byteOffset" : 18768
        },
        {
            "buffer" : 0,
            "byteLength" : 600,
            "byteOffset" : 21144
        },
        {
            "buffer" : 0,
            "byteLength" : 840,
            "byteOffset" : 21744
        },
        {
            "buffer" : 0,
            "byteLength" : 840,
            "byteOffset" : 22584
        },
        {
            "buffer" : 0,
            "byteLength" : 216,
            "byteOffset" : 23424
        }
    ],
    "buffers" : [
        {
            "byteLength" : 23640,
            "uri" : "data:application/octet-stream;base64,"
        }
    ]
}
