{
    "asset" : {
        "generator" : "Khronos glTF Blender I/O v1.2.75",
        "version" : "2.0"
    },
    "scene" : 0,
    "scenes" : [
        {
            "name" : "Scene",
            "nodes" : [
                0
            ]
        }
    ],
    "nodes" : [
        {
            "mesh" : 0,
            "name" : "LPeskimo",
            "scale" : [
                0.7482925057411194,
                1,
                1
            ],
            "translation" : [
                -0.004081494640558958,
                -3.9688174724578857,
                0
            ]
        }
    ],
    "materials" : [
        {
            "doubleSided" : true,
            "emissiveFactor" : [
                0,
                0,
                0
            ],
            "name" : "Material.001",
            "pbrMetallicRoughness" : {
                "baseColorFactor" : [
                    0.6618636846542358,
                    0.6137528419494629,
                    0.48193827271461487,
                    1
                ],
                "metallicFactor" : 0,
                "roughnessFactor" : 0.5
            }
        },
        {
            "doubleSided" : true,
            "emissiveFactor" : [
                0,
                0,
                0
            ],
            "name" : "Material.002",
            "pbrMetallicRoughness" : {
                "baseColorFactor" : [
                    0.7356582283973694,
                    0.5280863642692566,
                    0.4272092580795288,
                    1
                ],
                "metallicFactor" : 0,
                "roughnessFactor" : 0.5
            }
        },
        {
            "doubleSided" : true,
            "emissiveFactor" : [
                0,
                0,
                0
            ],
            "name" : "Material.003",
            "pbrMetallicRoughness" : {
                "baseColorFactor" : [
                    0.5382248759269714,
                    0.48479533195495605,
                    0.45575177669525146,
                    1
                ],
                "metallicFactor" : 0,
                "roughnessFactor" : 0.5
            }
        },
        {
            "doubleSided" : true,
            "emissiveFactor" : [
                0,
                0,
                0
            ],
            "name" : "Material.004",
            "pbrMetallicRoughness" : {
                "baseColorFactor" : [
                    0.2140350043773651,
                    0.18391379714012146,
                    0.12063336372375488,
                    1
                ],
                "metallicFactor" : 0,
                "roughnessFactor" : 0.5
            }
        },
        {
            "doubleSided" : true,
            "emissiveFactor" : [
                0,
                0,
                0
            ],
            "name" : "Material.005",
            "pbrMetallicRoughness" : {
                "baseColorFactor" : [
                    0.45753151178359985,
                    0.3434007167816162,
                    0.18334734439849854,
                    1
                ],
                "metallicFactor" : 0,
                "roughnessFactor" : 0.5
            }
        },
        {
            "doubleSided" : true,
            "emissiveFactor" : [
                0,
                0,
                0
            ],
            "name" : "Material.006",
            "pbrMetallicRoughness" : {
                "baseColorFactor" : [
                    0.28100964426994324,
                    0.28100964426994324,
                    0.28100964426994324,
                    1
                ],
                "metallicFactor" : 0,
                "roughnessFactor" : 0.5
            }
        }
    ],
    "meshes" : [
        {
            "name" : "Roundcube",
            "primitives" : [
                {
                    "attributes" : {
                        "POSITION" : 0,
                        "NORMAL" : 1,
                        "COLOR_0" : 2
                    },
                    "indices" : 3,
                    "material" : 0
                },
                {
                    "attributes" : {
                        "POSITION" : 4,
                        "NORMAL" : 5,
                        "COLOR_0" : 6
                    },
                    "indices" : 7,
                    "material" : 1
                },
                {
                    "attributes" : {
                        "POSITION" : 8,
                        "NORMAL" : 9,
                        "COLOR_0" : 10
                    },
                    "indices" : 11,
                    "material" : 2
                },
                {
                    "attributes" : {
                        "POSITION" : 12,
                        "NORMAL" : 13,
                        "COLOR_0" : 14
                    },
                    "indices" : 15,
                    "material" : 3
                },
                {
                    "attributes" : {
                        "POSITION" : 16,
                        "NORMAL" : 17,
                        "COLOR_0" : 18
                    },
                    "indices" : 19,
                    "material" : 4
                },
                {
                    "attributes" : {
                        "POSITION" : 20,
                        "NORMAL" : 21,
                        "COLOR_0" : 22
                    },
                    "indices" : 23,
                    "material" : 5
                }
            ]
        }
    ],
    "accessors" : [
        {
            "bufferView" : 0,
            "componentType" : 5126,
            "count" : 1466,
            "max" : [
                2.073497772216797,
                5.365522384643555,
                1.0241230726242065
            ],
            "min" : [
                -2.0607316493988037,
                1.1233758926391602,
                -0.5177614092826843
            ],
            "type" : "VEC3"
        },
        {
            "bufferView" : 1,
            "componentType" : 5126,
            "count" : 1466,
            "type" : "VEC3"
        },
        {
            "bufferView" : 2,
            "componentType" : 5126,
            "count" : 1466,
            "type" : "VEC4"
        },
        {
            "bufferView" : 3,
            "componentType" : 5123,
            "count" : 1467,
            "type" : "SCALAR"
        },
        {
            "bufferView" : 4,
            "componentType" : 5126,
            "count" : 171,
            "max" : [
                0.42841997742652893,
                5.111600875854492,
                1.061382532119751
            ],
            "min" : [
                -0.4053550958633423,
                4.323626518249512,
                0.8141416907310486
            ],
            "type" : "VEC3"
        },
        {
            "bufferView" : 5,
            "componentType" : 5126,
            "count" : 171,
            "type" : "VEC3"
        },
        {
            "bufferView" : 6,
            "componentType" : 5126,
            "count" : 171,
            "type" : "VEC4"
        },
        {
            "bufferView" : 7,
            "componentType" : 5123,
            "count" : 171,
            "type" : "SCALAR"
        },
        {
            "bufferView" : 8,
            "componentType" : 5126,
            "count" : 1859,
            "max" : [
                2.2383947372436523,
                5.486551284790039,
                1.0696303844451904
            ],
            "min" : [
                -2.220398426055908,
                0.7868237495422363,
                -0.467027485370636
            ],
            "type" : "VEC3"
        },
        {
            "bufferView" : 9,
            "componentType" : 5126,
            "count" : 1859,
            "type" : "VEC3"
        },
        {
            "bufferView" : 10,
            "componentType" : 5126,
            "count" : 1859,
            "type" : "VEC4"
        },
        {
            "bufferView" : 11,
            "componentType" : 5123,
            "count" : 1887,
            "type" : "SCALAR"
        },
        {
            "bufferView" : 12,
            "componentType" : 5126,
            "count" : 1768,
            "max" : [
                2.2319509983062744,
                2.490511417388916,
                1.0482335090637207
            ],
            "min" : [
                -2.2130916118621826,
                -0.086578369140625,
                -0.26438841223716736
            ],
            "type" : "VEC3"
        },
        {
            "bufferView" : 13,
            "componentType" : 5126,
            "count" : 1768,
            "type" : "VEC3"
        },
        {
            "bufferView" : 14,
            "componentType" : 5126,
            "count" : 1768,
            "type" : "VEC4"
        },
        {
            "bufferView" : 15,
            "componentType" : 5123,
            "count" : 1809,
            "type" : "SCALAR"
        },
        {
            "bufferView" : 16,
            "componentType" : 5126,
            "count" : 452,
            "max" : [
                2.3175034523010254,
                2.782872438430786,
                2.8736627101898193
            ],
            "min" : [
                1.4483351707458496,
                1.4332449436187744,
                -2.968055486679077
            ],
            "type" : "VEC3"
        },
        {
            "bufferView" : 17,
            "componentType" : 5126,
            "count" : 452,
            "type" : "VEC3"
        },
        {
            "bufferView" : 18,
            "componentType" : 5126,
            "count" : 452,
            "type" : "VEC4"
        },
        {
            "bufferView" : 19,
            "componentType" : 5123,
            "count" : 474,
            "type" : "SCALAR"
        },
        {
            "bufferView" : 20,
            "componentType" : 5126,
            "count" : 52,
            "max" : [
                2.418647289276123,
                1.5866948366165161,
                3.7726950645446777
            ],
            "min" : [
                2.181845188140869,
                1.210744857788086,
                2.825615882873535
            ],
            "type" : "VEC3"
        },
        {
            "bufferView" : 21,
            "componentType" : 5126,
            "count" : 52,
            "type" : "VEC3"
        },
        {
            "bufferView" : 22,
            "componentType" : 5126,
            "count" : 52,
            "type" : "VEC4"
        },
        {
            "bufferView" : 23,
            "componentType" : 5123,
            "count" : 54,
            "type" : "SCALAR"
        }
    ],
    "bufferViews" : [
        {
            "buffer" : 0,
            "byteLength" : 17592,
            "byteOffset" : 0
        },
        {
            "buffer" : 0,
            "byteLength" : 17592,
            "byteOffset" : 17592
        },
        {
            "buffer" : 0,
            "byteLength" : 23456,
            "byteOffset" : 35184
        },
        {
            "buffer" : 0,
            "byteLength" : 2934,
            "byteOffset" : 58640
        },
        {
            "buffer" : 0,
            "byteLength" : 2052,
            "byteOffset" : 61576
        },
        {
            "buffer" : 0,
            "byteLength" : 2052,
            "byteOffset" : 63628
        },
        {
            "buffer" : 0,
            "byteLength" : 2736,
            "byteOffset" : 65680
        },
        {
            "buffer" : 0,
            "byteLength" : 342,
            "byteOffset" : 68416
        },
        {
            "buffer" : 0,
            "byteLength" : 22308,
            "byteOffset" : 68760
        },
        {
            "buffer" : 0,
            "byteLength" : 22308,
            "byteOffset" : 91068
        },
        {
            "buffer" : 0,
            "byteLength" : 29744,
            "byteOffset" : 113376
        },
        {
            "buffer" : 0,
            "byteLength" : 3774,
            "byteOffset" : 143120
        },
        {
            "buffer" : 0,
            "byteLength" : 21216,
            "byteOffset" : 146896
        },
        {
            "buffer" : 0,
            "byteLength" : 21216,
            "byteOffset" : 168112
        },
        {
            "buffer" : 0,
            "byteLength" : 28288,
            "byteOffset" : 189328
        },
        {
            "buffer" : 0,
            "byteLength" : 3618,
            "byteOffset" : 217616
        },
        {
            "buffer" : 0,
            "byteLength" : 5424,
            "byteOffset" : 221236
        },
        {
            "buffer" : 0,
            "byteLength" : 5424,
            "byteOffset" : 226660
        },
        {
            "buffer" : 0,
            "byteLength" : 7232,
            "byteOffset" : 232084
        },
        {
            "buffer" : 0,
            "byteLength" : 948,
            "byteOffset" : 239316
        },
        {
            "buffer" : 0,
            "byteLength" : 624,
            "byteOffset" : 240264
        },
        {
            "buffer" : 0,
            "byteLength" : 624,
            "byteOffset" : 240888
        },
        {
            "buffer" : 0,
            "byteLength" : 832,
            "byteOffset" : 241512
        },
        {
            "buffer" : 0,
            "byteLength" : 108,
            "byteOffset" : 242344
        }
    ],
    "buffers" : [
        {
            "byteLength" : 242452,
            "uri" : "data:application/octet-stream;base64,"
        }
    ]
}
