{
    "asset" : {
        "generator" : "Khronos glTF Blender I/O v1.2.75",
        "version" : "2.0"
    },
    "scene" : 0,
    "scenes" : [
        {
            "name" : "Scene",
            "nodes" : [
                1,
                3,
                5,
                7,
                9,
                11,
                12
            ]
        }
    ],
    "nodes" : [
        {
            "mesh" : 0,
            "name" : "Cylinder.007",
            "scale" : [
                0.6928203105926514,
                1.232440710067749,
                0.7000001072883606
            ],
            "translation" : [
                7.185420989990234,
                -1.52587890625e-05,
                -0.5212917327880859
            ]
        },
        {
            "children" : [
                0
            ],
            "mesh" : 1,
            "name" : "Cube.012",
            "rotation" : [
                0,
                0.5315788388252258,
                0,
                0.8470088243484497
            ],
            "scale" : [
                0.03887765854597092,
                0.022081680595874786,
                0.03887765854597092
            ],
            "translation" : [
                -0.17311671376228333,
                4.648829460144043,
                1.9043384790420532
            ]
        },
        {
            "mesh" : 2,
            "name" : "Cylinder.006",
            "scale" : [
                0.6928203105926514,
                1.232440710067749,
                0.7000001668930054
            ],
            "translation" : [
                7.185453414916992,
                0,
                -0.5212039947509766
            ]
        },
        {
            "children" : [
                2
            ],
            "mesh" : 3,
            "name" : "Cube.011",
            "rotation" : [
                0,
                -0.40115272998809814,
                0,
                0.9160111546516418
            ],
            "scale" : [
                0.03887765854597092,
                0.022081680595874786,
                0.03887765854597092
            ],
            "translation" : [
                0.07487952709197998,
                4.648829460144043,
                1.4336048364639282
            ]
        },
        {
            "mesh" : 4,
            "name" : "Cylinder.005",
            "scale" : [
                0.6928201913833618,
                1.232440710067749,
                0.7000000476837158
            ],
            "translation" : [
                7.185450553894043,
                7.62939453125e-06,
                -0.5212726593017578
            ]
        },
        {
            "children" : [
                4
            ],
            "mesh" : 5,
            "name" : "Cube.010",
            "rotation" : [
                0.27693137526512146,
                0.16848687827587128,
                0.5360502600669861,
                0.7794685959815979
            ],
            "scale" : [
                0.04298858717083931,
                0.024416599422693253,
                0.04298858717083931
            ],
            "translation" : [
                -0.4349839985370636,
                4.819500923156738,
                1.3241639137268066
            ]
        },
        {
            "mesh" : 6,
            "name" : "Cylinder.004",
            "scale" : [
                0.6928201913833618,
                1.2324405908584595,
                0.7000000476837158
            ],
            "translation" : [
                7.185445785522461,
                -1.9073486328125e-05,
                -0.5212574005126953
            ]
        },
        {
            "children" : [
                6
            ],
            "mesh" : 7,
            "name" : "Cube.009",
            "rotation" : [
                0.5554277896881104,
                0.6274189949035645,
                0.2356707751750946,
                0.49224454164505005
            ],
            "scale" : [
                0.04298858717083931,
                0.024416599422693253,
                0.04298858717083931
            ],
            "translation" : [
                -0.34455108642578125,
                4.819500923156738,
                1.2307677268981934
            ]
        },
        {
            "mesh" : 8,
            "name" : "Cylinder.003",
            "scale" : [
                0.6928201913833618,
                1.2324405908584595,
                0.7000001072883606
            ],
            "translation" : [
                7.185446739196777,
                0,
                -0.5212821960449219
            ]
        },
        {
            "children" : [
                8
            ],
            "mesh" : 9,
            "name" : "Cube.008",
            "rotation" : [
                0,
                0,
                0.5526698231697083,
                0.833400309085846
            ],
            "scale" : [
                0.04298858717083931,
                0.024416597560048103,
                0.04298858717083931
            ],
            "translation" : [
                -0.2578284740447998,
                4.854143142700195,
                1.3402907848358154
            ]
        },
        {
            "mesh" : 10,
            "name" : "Circle.001",
            "rotation" : [
                0.2236783355474472,
                0,
                0,
                0.9746630191802979
            ],
            "translation" : [
                0.015720367431640625,
                -0.06307029724121094,
                -0.9713358879089355
            ]
        },
        {
            "children" : [
                10
            ],
            "mesh" : 11,
            "name" : "Circle",
            "scale" : [
                0.20450833439826965,
                0.20450833439826965,
                0.20450833439826965
            ],
            "translation" : [
                -0.31448686122894287,
                4.623647689819336,
                1.2998545169830322
            ]
        },
        {
            "name" : "Camera",
            "rotation" : [
                0.4194325804710388,
                0.340973436832428,
                -0.1737346649169922,
                0.8231826424598694
            ],
            "scale" : [
                0.10000001639127731,
                0.10000001639127731,
                0.10000001639127731
            ],
            "translation" : [
                12,
                14.59999942779541,
                12
            ]
        }
    ],
    "materials" : [
        {
            "doubleSided" : true,
            "emissiveFactor" : [
                0,
                0,
                0
            ],
            "name" : "MatBlack",
            "pbrMetallicRoughness" : {
                "baseColorFactor" : [
                    0,
                    0,
                    0,
                    1
                ],
                "metallicFactor" : 0,
                "roughnessFactor" : 0.5
            }
        },
        {
            "doubleSided" : true,
            "emissiveFactor" : [
                0,
                0,
                0
            ],
            "name" : "MatFish",
            "pbrMetallicRoughness" : {
                "baseColorFactor" : [
                    0.028209449723362923,
                    0.0568416565656662,
                    0.1282389760017395,
                    1
                ],
                "metallicFactor" : 0,
                "roughnessFactor" : 0.5
            }
        },
        {
            "doubleSided" : true,
            "emissiveFactor" : [
                0,
                0,
                0
            ],
            "name" : "MaterialDarkGrey",
            "pbrMetallicRoughness" : {
                "baseColorFactor" : [
                    0.05496874079108238,
                    0.05496874079108238,
                    0.05496874079108238,
                    1
                ],
                "metallicFactor" : 0,
                "roughnessFactor" : 0.5
            }
        },
        {
            "doubleSided" : true,
            "emissiveFactor" : [
                0,
                0,
                0
            ],
            "name" : "MaterialGreen",
            "pbrMetallicRoughness" : {
                "baseColorFactor" : [
                    0.07067475467920303,
                    0.8000000715255737,
                    0.04332533851265907,
                    1
                ],
                "metallicFactor" : 0,
                "roughnessFactor" : 0.5
            }
        }
    ],
    "meshes" : [
        {
            "name" : "Cylinder.014",
            "primitives" : [
                {
                    "attributes" : {
                        "POSITION" : 0,
                        "NORMAL" : 1
                    },
                    "indices" : 2,
                    "material" : 0
                }
            ]
        },
        {
            "name" : "Cube.042",
            "primitives" : [
                {
                    "attributes" : {
                        "POSITION" : 3,
                        "NORMAL" : 4
                    },
                    "indices" : 5,
                    "material" : 1
                }
            ]
        },
        {
            "name" : "Cylinder.013",
            "primitives" : [
                {
                    "attributes" : {
                        "POSITION" : 6,
                        "NORMAL" : 7
                    },
                    "indices" : 2,
                    "material" : 0
                }
            ]
        },
        {
            "name" : "Cube.041",
            "primitives" : [
                {
                    "attributes" : {
                        "POSITION" : 8,
                        "NORMAL" : 9
                    },
                    "indices" : 5,
                    "material" : 1
                }
            ]
        },
        {
            "name" : "Cylinder.010",
            "primitives" : [
                {
                    "attributes" : {
                        "POSITION" : 10,
                        "NORMAL" : 11
                    },
                    "indices" : 2,
                    "material" : 0
                }
            ]
        },
        {
            "name" : "Cube.039",
            "primitives" : [
                {
                    "attributes" : {
                        "POSITION" : 12,
                        "NORMAL" : 13
                    },
                    "indices" : 5,
                    "material" : 1
                }
            ]
        },
        {
            "name" : "Cylinder.006",
            "primitives" : [
                {
                    "attributes" : {
                        "POSITION" : 14,
                        "NORMAL" : 15
                    },
                    "indices" : 2,
                    "material" : 0
                }
            ]
        },
        {
            "name" : "Cube.038",
            "primitives" : [
                {
                    "attributes" : {
                        "POSITION" : 16,
                        "NORMAL" : 17
                    },
                    "indices" : 5,
                    "material" : 1
                }
            ]
        },
        {
            "name" : "Cylinder.004",
            "primitives" : [
                {
                    "attributes" : {
                        "POSITION" : 18,
                        "NORMAL" : 19
                    },
                    "indices" : 2,
                    "material" : 0
                }
            ]
        },
        {
            "name" : "Cube.037",
            "primitives" : [
                {
                    "attributes" : {
                        "POSITION" : 20,
                        "NORMAL" : 21
                    },
                    "indices" : 5,
                    "material" : 1
                }
            ]
        },
        {
            "name" : "Circle.001",
            "primitives" : [
                {
                    "attributes" : {
                        "POSITION" : 22,
                        "NORMAL" : 23
                    },
                    "indices" : 24,
                    "material" : 2
                }
            ]
        },
        {
            "name" : "Circle",
            "primitives" : [
                {
                    "attributes" : {
                        "POSITION" : 25,
                        "NORMAL" : 26
                    },
                    "indices" : 27,
                    "material" : 3
                }
            ]
        }
    ],
    "accessors" : [
        {
            "bufferView" : 0,
            "componentType" : 5126,
            "count" : 18,
            "max" : [
                0.8660253882408142,
                1,
                0.5000000596046448
            ],
            "min" : [
                -0.866025447845459,
                -1,
                -1
            ],
            "type" : "VEC3"
        },
        {
            "bufferView" : 1,
            "componentType" : 5126,
            "count" : 18,
            "type" : "VEC3"
        },
        {
            "bufferView" : 2,
            "componentType" : 5123,
            "count" : 24,
            "type" : "SCALAR"
        },
        {
            "bufferView" : 3,
            "componentType" : 5126,
            "count" : 84,
            "max" : [
                9.231544494628906,
                1,
                3.304527759552002
            ],
            "min" : [
                -1,
                -1,
                -3.304527759552002
            ],
            "type" : "VEC3"
        },
        {
            "bufferView" : 4,
            "componentType" : 5126,
            "count" : 84,
            "type" : "VEC3"
        },
        {
            "bufferView" : 5,
            "componentType" : 5123,
            "count" : 156,
            "type" : "SCALAR"
        },
        {
            "bufferView" : 6,
            "componentType" : 5126,
            "count" : 18,
            "max" : [
                0.8660253882408142,
                1,
                0.5000000596046448
            ],
            "min" : [
                -0.866025447845459,
                -1,
                -1
            ],
            "type" : "VEC3"
        },
        {
            "bufferView" : 7,
            "componentType" : 5126,
            "count" : 18,
            "type" : "VEC3"
        },
        {
            "bufferView" : 8,
            "componentType" : 5126,
            "count" : 84,
            "max" : [
                9.231544494628906,
                1,
                3.304527759552002
            ],
            "min" : [
                -1,
                -1,
                -3.304527759552002
            ],
            "type" : "VEC3"
        },
        {
            "bufferView" : 9,
            "componentType" : 5126,
            "count" : 84,
            "type" : "VEC3"
        },
        {
            "bufferView" : 10,
            "componentType" : 5126,
            "count" : 18,
            "max" : [
                0.8660253882408142,
                1,
                0.5000000596046448
            ],
            "min" : [
                -0.866025447845459,
                -1,
                -1
            ],
            "type" : "VEC3"
        },
        {
            "bufferView" : 11,
            "componentType" : 5126,
            "count" : 18,
            "type" : "VEC3"
        },
        {
            "bufferView" : 12,
            "componentType" : 5126,
            "count" : 84,
            "max" : [
                9.231544494628906,
                1,
                3.304527759552002
            ],
            "min" : [
                -1,
                -1,
                -3.304527759552002
            ],
            "type" : "VEC3"
        },
        {
            "bufferView" : 13,
            "componentType" : 5126,
            "count" : 84,
            "type" : "VEC3"
        },
        {
            "bufferView" : 14,
            "componentType" : 5126,
            "count" : 18,
            "max" : [
                0.8660253882408142,
                1,
                0.5000000596046448
            ],
            "min" : [
                -0.866025447845459,
                -1,
                -1
            ],
            "type" : "VEC3"
        },
        {
            "bufferView" : 15,
            "componentType" : 5126,
            "count" : 18,
            "type" : "VEC3"
        },
        {
            "bufferView" : 16,
            "componentType" : 5126,
            "count" : 84,
            "max" : [
                9.231544494628906,
                1,
                3.304527759552002
            ],
            "min" : [
                -1,
                -1,
                -3.304527759552002
            ],
            "type" : "VEC3"
        },
        {
            "bufferView" : 17,
            "componentType" : 5126,
            "count" : 84,
            "type" : "VEC3"
        },
        {
            "bufferView" : 18,
            "componentType" : 5126,
            "count" : 18,
            "max" : [
                0.8660253882408142,
                1,
                0.5000000596046448
            ],
            "min" : [
                -0.866025447845459,
                -1,
                -1
            ],
            "type" : "VEC3"
        },
        {
            "bufferView" : 19,
            "componentType" : 5126,
            "count" : 18,
            "type" : "VEC3"
        },
        {
            "bufferView" : 20,
            "componentType" : 5126,
            "count" : 84,
            "max" : [
                9.231544494628906,
                1,
                3.304527759552002
            ],
            "min" : [
                -1,
                -1,
                -3.304527759552002
            ],
            "type" : "VEC3"
        },
        {
            "bufferView" : 21,
            "componentType" : 5126,
            "count" : 84,
            "type" : "VEC3"
        },
        {
            "bufferView" : 22,
            "componentType" : 5126,
            "count" : 60,
            "max" : [
                1.3905751705169678,
                2.299118757247925,
                1.658523678779602
            ],
            "min" : [
                -1.3905751705169678,
                2.180114269256592,
                -1.6582442086132687e-08
            ],
            "type" : "VEC3"
        },
        {
            "bufferView" : 23,
            "componentType" : 5126,
            "count" : 60,
            "type" : "VEC3"
        },
        {
            "bufferView" : 24,
            "componentType" : 5123,
            "count" : 108,
            "type" : "SCALAR"
        },
        {
            "bufferView" : 25,
            "componentType" : 5126,
            "count" : 96,
            "max" : [
                1.3905751705169678,
                2.191540002822876,
                1.3905751705169678
            ],
            "min" : [
                -1.3905751705169678,
                0,
                -1.3905751705169678
            ],
            "type" : "VEC3"
        },
        {
            "bufferView" : 26,
            "componentType" : 5126,
            "count" : 96,
            "type" : "VEC3"
        },
        {
            "bufferView" : 27,
            "componentType" : 5123,
            "count" : 180,
            "type" : "SCALAR"
        }
    ],
    "bufferViews" : [
        {
            "buffer" : 0,
            "byteLength" : 216,
            "byteOffset" : 0
        },
        {
            "buffer" : 0,
            "byteLength" : 216,
            "byteOffset" : 216
        },
        {
            "buffer" : 0,
            "byteLength" : 48,
            "byteOffset" : 432
        },
        {
            "buffer" : 0,
            "byteLength" : 1008,
            "byteOffset" : 480
        },
        {
            "buffer" : 0,
            "byteLength" : 1008,
            "byteOffset" : 1488
        },
        {
            "buffer" : 0,
            "byteLength" : 312,
            "byteOffset" : 2496
        },
        {
            "buffer" : 0,
            "byteLength" : 216,
            "byteOffset" : 2808
        },
        {
            "buffer" : 0,
            "byteLength" : 216,
            "byteOffset" : 3024
        },
        {
            "buffer" : 0,
            "byteLength" : 1008,
            "byteOffset" : 3240
        },
        {
            "buffer" : 0,
            "byteLength" : 1008,
            "byteOffset" : 4248
        },
        {
            "buffer" : 0,
            "byteLength" : 216,
            "byteOffset" : 5256
        },
        {
            "buffer" : 0,
            "byteLength" : 216,
            "byteOffset" : 5472
        },
        {
            "buffer" : 0,
            "byteLength" : 1008,
            "byteOffset" : 5688
        },
        {
            "buffer" : 0,
            "byteLength" : 1008,
            "byteOffset" : 6696
        },
        {
            "buffer" : 0,
            "byteLength" : 216,
            "byteOffset" : 7704
        },
        {
            "buffer" : 0,
            "byteLength" : 216,
            "byteOffset" : 7920
        },
        {
            "buffer" : 0,
            "byteLength" : 1008,
            "byteOffset" : 8136
        },
        {
            "buffer" : 0,
            "byteLength" : 1008,
            "byteOffset" : 9144
        },
        {
            "buffer" : 0,
            "byteLength" : 216,
            "byteOffset" : 10152
        },
        {
            "buffer" : 0,
            "byteLength" : 216,
            "byteOffset" : 10368
        },
        {
            "buffer" : 0,
            "byteLength" : 1008,
            "byteOffset" : 10584
        },
        {
            "buffer" : 0,
            "byteLength" : 1008,
            "byteOffset" : 11592
        },
        {
            "buffer" : 0,
            "byteLength" : 720,
            "byteOffset" : 12600
        },
        {
            "buffer" : 0,
            "byteLength" : 720,
            "byteOffset" : 13320
        },
        {
            "buffer" : 0,
            "byteLength" : 216,
            "byteOffset" : 14040
        },
        {
            "buffer" : 0,
            "byteLength" : 1152,
            "byteOffset" : 14256
        },
        {
            "buffer" : 0,
            "byteLength" : 1152,
            "byteOffset" : 15408
        },
        {
            "buffer" : 0,
            "byteLength" : 360,
            "byteOffset" : 16560
        }
    ],
    "buffers" : [
        {
            "byteLength" : 16920,
            "uri" : "data:application/octet-stream;base64,"
        }
    ]
}
