{
    "asset" : {
        "generator" : "Khronos glTF Blender I/O v1.2.75",
        "version" : "2.0"
    },
    "scene" : 0,
    "scenes" : [
        {
            "name" : "Scene",
            "nodes" : [
                1,
                2
            ]
        }
    ],
    "nodes" : [
        {
            "mesh" : 0,
            "name" : "Wall.001",
            "rotation" : [
                0.7071068286895752,
                0,
                0,
                0.7071067094802856
            ],
            "scale" : [
                0.9719661474227905,
                0.9719662666320801,
                1.2356455326080322
            ],
            "translation" : [
                10.784992218017578,
                0,
                -0.026040077209472656
            ]
        },
        {
            "children" : [
                0
            ],
            "mesh" : 1,
            "name" : "Wall",
            "rotation" : [
                0,
                -0.6340269446372986,
                0,
                0.7733109593391418
            ],
            "scale" : [
                0.20919020473957062,
                0.20919018983840942,
                0.20919020473957062
            ],
            "translation" : [
                -2.3779313564300537,
                4.610815048217773,
                -2.3311073780059814
            ]
        },
        {
            "name" : "Camera",
            "rotation" : [
                0.4194325804710388,
                0.340973436832428,
                -0.1737346649169922,
                0.8231826424598694
            ],
            "scale" : [
                0.10000001639127731,
                0.10000001639127731,
                0.10000001639127731
            ],
            "translation" : [
                12,
                14.59999942779541,
                12
            ]
        }
    ],
    "materials" : [
        {
            "doubleSided" : true,
            "emissiveFactor" : [
                0,
                0,
                0
            ],
            "name" : "MaterialWhite",
            "pbrMetallicRoughness" : {
                "baseColorFactor" : [
                    0.800000011920929,
                    0.800000011920929,
                    0.800000011920929,
                    1
                ],
                "metallicFactor" : 0,
                "roughnessFactor" : 0.5
            }
        }
    ],
    "meshes" : [
        {
            "name" : "Wall.007",
            "primitives" : [
                {
                    "attributes" : {
                        "POSITION" : 0,
                        "NORMAL" : 1
                    },
                    "indices" : 2,
                    "material" : 0
                }
            ]
        },
        {
            "name" : "Wall.001",
            "primitives" : [
                {
                    "attributes" : {
                        "POSITION" : 3,
                        "NORMAL" : 4
                    },
                    "indices" : 5,
                    "material" : 0
                }
            ]
        }
    ],
    "accessors" : [
        {
            "bufferView" : 0,
            "componentType" : 5126,
            "count" : 864,
            "max" : [
                3.9819953441619873,
                4.5188679695129395,
                -0.030330492183566093
            ],
            "min" : [
                -3.981999397277832,
                -4.52345085144043,
                -4.481949329376221
            ],
            "type" : "VEC3"
        },
        {
            "bufferView" : 1,
            "componentType" : 5126,
            "count" : 864,
            "type" : "VEC3"
        },
        {
            "bufferView" : 2,
            "componentType" : 5123,
            "count" : 1296,
            "type" : "SCALAR"
        },
        {
            "bufferView" : 3,
            "componentType" : 5126,
            "count" : 4902,
            "max" : [
                10.525544166564941,
                10.828629493713379,
                10.775829315185547
            ],
            "min" : [
                -10.755521774291992,
                0.034091684967279434,
                -10.694175720214844
            ],
            "type" : "VEC3"
        },
        {
            "bufferView" : 4,
            "componentType" : 5126,
            "count" : 4902,
            "type" : "VEC3"
        },
        {
            "bufferView" : 5,
            "componentType" : 5123,
            "count" : 7548,
            "type" : "SCALAR"
        }
    ],
    "bufferViews" : [
        {
            "buffer" : 0,
            "byteLength" : 10368,
            "byteOffset" : 0
        },
        {
            "buffer" : 0,
            "byteLength" : 10368,
            "byteOffset" : 10368
        },
        {
            "buffer" : 0,
            "byteLength" : 2592,
            "byteOffset" : 20736
        },
        {
            "buffer" : 0,
            "byteLength" : 58824,
            "byteOffset" : 23328
        },
        {
            "buffer" : 0,
            "byteLength" : 58824,
            "byteOffset" : 82152
        },
        {
            "buffer" : 0,
            "byteLength" : 15096,
            "byteOffset" : 140976
        }
    ],
    "buffers" : [
        {
            "byteLength" : 156072,
            "uri" : "data:application/octet-stream;base64,"
        }
    ]
}
