{
    "asset" : {
        "generator" : "Khronos glTF Blender I/O v1.2.75",
        "version" : "2.0"
    },
    "scene" : 0,
    "scenes" : [
        {
            "name" : "Scene",
            "nodes" : [
                0,
                4
            ]
        }
    ],
    "nodes" : [
        {
            "name" : "Camera.001",
            "rotation" : [
                0.4194325804710388,
                0.340973436832428,
                -0.1737346649169922,
                0.8231826424598694
            ],
            "scale" : [
                0.10000001639127731,
                0.10000001639127731,
                0.10000001639127731
            ],
            "translation" : [
                12,
                14.59999942779541,
                12
            ]
        },
        {
            "mesh" : 0,
            "name" : "Text",
            "rotation" : [
                0.4999997317790985,
                0.5000000596046448,
                -0.4999999403953552,
                0.5000002980232239
            ],
            "scale" : [
                0.4000000059604645,
                1,
                1
            ],
            "translation" : [
                1.0803775787353516,
                -0.3103140592575073,
                0.9317188858985901
            ]
        },
        {
            "children" : [
                1
            ],
            "mesh" : 1,
            "name" : "Cube.013",
            "scale" : [
                1,
                0.20000000298023224,
                6
            ],
            "translation" : [
                0,
                0.699999988079071,
                0
            ]
        },
        {
            "mesh" : 2,
            "name" : "Sphere",
            "scale" : [
                2.000000238418579,
                0.20000000298023224,
                1.9999998807907104
            ],
            "translation" : [
                0,
                1.1647756099700928,
                0
            ]
        },
        {
            "children" : [
                2,
                3
            ],
            "mesh" : 3,
            "name" : "Cylinder.008",
            "scale" : [
                0.09999999403953552,
                1,
                0.09999999403953552
            ],
            "translation" : [
                0,
                0.9974894523620605,
                0
            ]
        }
    ],
    "materials" : [
        {
            "doubleSided" : true,
            "emissiveFactor" : [
                0,
                0,
                0
            ],
            "name" : "MatBlack",
            "pbrMetallicRoughness" : {
                "baseColorFactor" : [
                    0,
                    0,
                    0,
                    1
                ],
                "metallicFactor" : 0,
                "roughnessFactor" : 0.5
            }
        },
        {
            "doubleSided" : true,
            "emissiveFactor" : [
                0,
                0,
                0
            ],
            "name" : "MaterialWhite2",
            "pbrMetallicRoughness" : {
                "baseColorFactor" : [
                    0.800000011920929,
                    0.800000011920929,
                    0.800000011920929,
                    1
                ],
                "metallicFactor" : 0,
                "roughnessFactor" : 0.5
            }
        },
        {
            "doubleSided" : true,
            "emissiveFactor" : [
                0,
                0,
                0
            ],
            "name" : "Material.004",
            "pbrMetallicRoughness" : {
                "baseColorFactor" : [
                    0.799102783203125,
                    0,
                    0.019382361322641373,
                    1
                ],
                "metallicFactor" : 0,
                "roughnessFactor" : 0.5
            }
        },
        {
            "doubleSided" : true,
            "emissiveFactor" : [
                0,
                0,
                0
            ],
            "name" : "MaterialWood",
            "pbrMetallicRoughness" : {
                "baseColorFactor" : [
                    0.11927551031112671,
                    0.027023348957300186,
                    0.006031028460711241,
                    1
                ],
                "metallicFactor" : 0,
                "roughnessFactor" : 0.5
            }
        }
    ],
    "meshes" : [
        {
            "name" : "Text",
            "primitives" : [
                {
                    "attributes" : {
                        "POSITION" : 0,
                        "NORMAL" : 1,
                        "TEXCOORD_0" : 2
                    },
                    "indices" : 3,
                    "material" : 0
                }
            ]
        },
        {
            "name" : "Cube.043",
            "primitives" : [
                {
                    "attributes" : {
                        "POSITION" : 4,
                        "NORMAL" : 5
                    },
                    "indices" : 6,
                    "material" : 1
                }
            ]
        },
        {
            "name" : "Sphere.002",
            "primitives" : [
                {
                    "attributes" : {
                        "POSITION" : 7,
                        "NORMAL" : 8
                    },
                    "indices" : 9,
                    "material" : 2
                }
            ]
        },
        {
            "name" : "Cylinder.016",
            "primitives" : [
                {
                    "attributes" : {
                        "POSITION" : 10,
                        "NORMAL" : 11
                    },
                    "indices" : 12,
                    "material" : 3
                }
            ]
        }
    ],
    "accessors" : [
        {
            "bufferView" : 0,
            "componentType" : 5126,
            "count" : 2156,
            "max" : [
                4.567000389099121,
                0.05000000074505806,
                0.009000000543892384
            ],
            "min" : [
                0.07400000095367432,
                -0.05000000074505806,
                -0.6820000410079956
            ],
            "type" : "VEC3"
        },
        {
            "bufferView" : 1,
            "componentType" : 5126,
            "count" : 2156,
            "type" : "VEC3"
        },
        {
            "bufferView" : 2,
            "componentType" : 5126,
            "count" : 2156,
            "type" : "VEC2"
        },
        {
            "bufferView" : 3,
            "componentType" : 5123,
            "count" : 6312,
            "type" : "SCALAR"
        },
        {
            "bufferView" : 4,
            "componentType" : 5126,
            "count" : 24,
            "max" : [
                1,
                1,
                1
            ],
            "min" : [
                -1,
                -1,
                -1
            ],
            "type" : "VEC3"
        },
        {
            "bufferView" : 5,
            "componentType" : 5126,
            "count" : 24,
            "type" : "VEC3"
        },
        {
            "bufferView" : 6,
            "componentType" : 5123,
            "count" : 36,
            "type" : "SCALAR"
        },
        {
            "bufferView" : 7,
            "componentType" : 5126,
            "count" : 240,
            "max" : [
                0.9999995231628418,
                1,
                0.9999996423721313
            ],
            "min" : [
                -1,
                -1,
                -0.9999997615814209
            ],
            "type" : "VEC3"
        },
        {
            "bufferView" : 8,
            "componentType" : 5126,
            "count" : 240,
            "type" : "VEC3"
        },
        {
            "bufferView" : 9,
            "componentType" : 5123,
            "count" : 336,
            "type" : "SCALAR"
        },
        {
            "bufferView" : 10,
            "componentType" : 5126,
            "count" : 36,
            "max" : [
                0.866025447845459,
                1,
                1
            ],
            "min" : [
                -0.866025447845459,
                -1,
                -1
            ],
            "type" : "VEC3"
        },
        {
            "bufferView" : 11,
            "componentType" : 5126,
            "count" : 36,
            "type" : "VEC3"
        },
        {
            "bufferView" : 12,
            "componentType" : 5123,
            "count" : 60,
            "type" : "SCALAR"
        }
    ],
    "bufferViews" : [
        {
            "buffer" : 0,
            "byteLength" : 25872,
            "byteOffset" : 0
        },
        {
            "buffer" : 0,
            "byteLength" : 25872,
            "byteOffset" : 25872
        },
        {
            "buffer" : 0,
            "byteLength" : 17248,
            "byteOffset" : 51744
        },
        {
            "buffer" : 0,
            "byteLength" : 12624,
            "byteOffset" : 68992
        },
        {
            "buffer" : 0,
            "byteLength" : 288,
            "byteOffset" : 81616
        },
        {
            "buffer" : 0,
            "byteLength" : 288,
            "byteOffset" : 81904
        },
        {
            "buffer" : 0,
            "byteLength" : 72,
            "byteOffset" : 82192
        },
        {
            "buffer" : 0,
            "byteLength" : 2880,
            "byteOffset" : 82264
        },
        {
            "buffer" : 0,
            "byteLength" : 2880,
            "byteOffset" : 85144
        },
        {
            "buffer" : 0,
            "byteLength" : 672,
            "byteOffset" : 88024
        },
        {
            "buffer" : 0,
            "byteLength" : 432,
            "byteOffset" : 88696
        },
        {
            "buffer" : 0,
            "byteLength" : 432,
            "byteOffset" : 89128
        },
        {
            "buffer" : 0,
            "byteLength" : 120,
            "byteOffset" : 89560
        }
    ],
    "buffers" : [
        {
            "byteLength" : 89680,
            "uri" : "data:application/octet-stream;base64,"
        }
    ]
}
