{
    "asset" : {
        "generator" : "Khronos glTF Blender I/O v1.2.75",
        "version" : "2.0"
    },
    "scene" : 0,
    "scenes" : [
        {
            "name" : "Scene",
            "nodes" : [
                0,
                1,
                2,
                3
            ]
        }
    ],
    "nodes" : [
        {
            "mesh" : 0,
            "name" : "Cube.006",
            "rotation" : [
                -0.008597789332270622,
                -0.8756868243217468,
                -0.027759963646531105,
                0.48200419545173645
            ],
            "scale" : [
                0.1864389032125473,
                0.3232611417770386,
                0.2174537032842636
            ],
            "translation" : [
                3.472013473510742,
                5.084559440612793,
                3.867680788040161
            ]
        },
        {
            "mesh" : 1,
            "name" : "Cube.005",
            "rotation" : [
                0,
                -0.7215316891670227,
                0,
                0.6923814415931702
            ],
            "scale" : [
                0.1864389032125473,
                0.32326117157936096,
                0.217453733086586
            ],
            "translation" : [
                3.9404149055480957,
                5.109668254852295,
                4.012121200561523
            ]
        },
        {
            "mesh" : 2,
            "name" : "Cube.024",
            "rotation" : [
                0,
                -0.8134798407554626,
                0,
                0.5815930962562561
            ],
            "scale" : [
                0.3164719045162201,
                0.8323591947555542,
                0.3691181540489197
            ],
            "translation" : [
                3.7934696674346924,
                5.533773899078369,
                3.624741554260254
            ]
        },
        {
            "name" : "Camera",
            "rotation" : [
                0.4194325804710388,
                0.340973436832428,
                -0.1737346649169922,
                0.8231826424598694
            ],
            "scale" : [
                0.10000001639127731,
                0.10000001639127731,
                0.10000001639127731
            ],
            "translation" : [
                12,
                14.59999942779541,
                12
            ]
        }
    ],
    "materials" : [
        {
            "doubleSided" : true,
            "emissiveFactor" : [
                0,
                0,
                0
            ],
            "name" : "MatBlack",
            "pbrMetallicRoughness" : {
                "baseColorFactor" : [
                    0,
                    0,
                    0,
                    1
                ],
                "metallicFactor" : 0,
                "roughnessFactor" : 0.5
            }
        },
        {
            "doubleSided" : true,
            "emissiveFactor" : [
                0,
                0,
                0
            ],
            "name" : "MaterialGrey",
            "pbrMetallicRoughness" : {
                "baseColorFactor" : [
                    0.11927551031112671,
                    0.11927551031112671,
                    0.11927551031112671,
                    1
                ],
                "metallicFactor" : 0,
                "roughnessFactor" : 0.5
            }
        },
        {
            "doubleSided" : true,
            "emissiveFactor" : [
                0,
                0,
                0
            ],
            "name" : "MaterialWhite",
            "pbrMetallicRoughness" : {
                "baseColorFactor" : [
                    0.800000011920929,
                    0.800000011920929,
                    0.800000011920929,
                    1
                ],
                "metallicFactor" : 0,
                "roughnessFactor" : 0.5
            }
        },
        {
            "doubleSided" : true,
            "emissiveFactor" : [
                0,
                0,
                0
            ],
            "name" : "Material.008",
            "pbrMetallicRoughness" : {
                "baseColorFactor" : [
                    0.016807377338409424,
                    0.01850022003054619,
                    0.01850022003054619,
                    1
                ],
                "metallicFactor" : 0,
                "roughnessFactor" : 0.5
            }
        },
        {
            "doubleSided" : true,
            "emissiveFactor" : [
                0,
                0,
                0
            ],
            "name" : "Material.009",
            "pbrMetallicRoughness" : {
                "baseColorFactor" : [
                    0.5332765579223633,
                    0.6038274168968201,
                    0.6038274168968201,
                    1
                ],
                "metallicFactor" : 0,
                "roughnessFactor" : 0.5
            }
        },
        {
            "doubleSided" : true,
            "emissiveFactor" : [
                0,
                0,
                0
            ],
            "name" : "Material.010",
            "pbrMetallicRoughness" : {
                "baseColorFactor" : [
                    0.799102783203125,
                    0.32314324378967285,
                    0,
                    1
                ],
                "metallicFactor" : 0,
                "roughnessFactor" : 0.5
            }
        }
    ],
    "meshes" : [
        {
            "name" : "Cube.034",
            "primitives" : [
                {
                    "attributes" : {
                        "POSITION" : 0,
                        "NORMAL" : 1
                    },
                    "indices" : 2,
                    "material" : 0
                },
                {
                    "attributes" : {
                        "POSITION" : 3,
                        "NORMAL" : 4
                    },
                    "indices" : 5,
                    "material" : 1
                },
                {
                    "attributes" : {
                        "POSITION" : 6,
                        "NORMAL" : 7
                    },
                    "indices" : 8,
                    "material" : 2
                }
            ]
        },
        {
            "name" : "Cube.017",
            "primitives" : [
                {
                    "attributes" : {
                        "POSITION" : 9,
                        "NORMAL" : 10
                    },
                    "indices" : 2,
                    "material" : 0
                },
                {
                    "attributes" : {
                        "POSITION" : 11,
                        "NORMAL" : 12
                    },
                    "indices" : 5,
                    "material" : 1
                },
                {
                    "attributes" : {
                        "POSITION" : 13,
                        "NORMAL" : 14
                    },
                    "indices" : 8,
                    "material" : 2
                }
            ]
        },
        {
            "name" : "Cube.009",
            "primitives" : [
                {
                    "attributes" : {
                        "POSITION" : 15,
                        "NORMAL" : 16
                    },
                    "indices" : 17,
                    "material" : 3
                },
                {
                    "attributes" : {
                        "POSITION" : 18,
                        "NORMAL" : 19
                    },
                    "indices" : 20,
                    "material" : 4
                },
                {
                    "attributes" : {
                        "POSITION" : 21,
                        "NORMAL" : 22
                    },
                    "indices" : 23,
                    "material" : 5
                }
            ]
        }
    ],
    "accessors" : [
        {
            "bufferView" : 0,
            "componentType" : 5126,
            "count" : 124,
            "max" : [
                0.773433268070221,
                1.2304705381393433,
                0.45143669843673706
            ],
            "min" : [
                -0.6698228120803833,
                0.5733644962310791,
                -0.49740126729011536
            ],
            "type" : "VEC3"
        },
        {
            "bufferView" : 1,
            "componentType" : 5126,
            "count" : 124,
            "type" : "VEC3"
        },
        {
            "bufferView" : 2,
            "componentType" : 5123,
            "count" : 192,
            "type" : "SCALAR"
        },
        {
            "bufferView" : 3,
            "componentType" : 5126,
            "count" : 686,
            "max" : [
                0.9593353271484375,
                1.2142888307571411,
                1.114958643913269
            ],
            "min" : [
                -0.8485059142112732,
                -1.0737206935882568,
                -1.1873958110809326
            ],
            "type" : "VEC3"
        },
        {
            "bufferView" : 4,
            "componentType" : 5126,
            "count" : 686,
            "type" : "VEC3"
        },
        {
            "bufferView" : 5,
            "componentType" : 5123,
            "count" : 1128,
            "type" : "SCALAR"
        },
        {
            "bufferView" : 6,
            "componentType" : 5126,
            "count" : 40,
            "max" : [
                0.7685682773590088,
                1.203596830368042,
                0.3721093535423279
            ],
            "min" : [
                0.03971964120864868,
                0.8020843863487244,
                -0.38439035415649414
            ],
            "type" : "VEC3"
        },
        {
            "bufferView" : 7,
            "componentType" : 5126,
            "count" : 40,
            "type" : "VEC3"
        },
        {
            "bufferView" : 8,
            "componentType" : 5123,
            "count" : 60,
            "type" : "SCALAR"
        },
        {
            "bufferView" : 9,
            "componentType" : 5126,
            "count" : 124,
            "max" : [
                0.773433268070221,
                1.2304705381393433,
                0.45143669843673706
            ],
            "min" : [
                -0.6698228120803833,
                0.5733644962310791,
                -0.49740126729011536
            ],
            "type" : "VEC3"
        },
        {
            "bufferView" : 10,
            "componentType" : 5126,
            "count" : 124,
            "type" : "VEC3"
        },
        {
            "bufferView" : 11,
            "componentType" : 5126,
            "count" : 686,
            "max" : [
                0.9593353271484375,
                1.2142888307571411,
                1.114958643913269
            ],
            "min" : [
                -0.8485059142112732,
                -1.0737206935882568,
                -1.1873958110809326
            ],
            "type" : "VEC3"
        },
        {
            "bufferView" : 12,
            "componentType" : 5126,
            "count" : 686,
            "type" : "VEC3"
        },
        {
            "bufferView" : 13,
            "componentType" : 5126,
            "count" : 40,
            "max" : [
                0.7685682773590088,
                1.203596830368042,
                0.3721093535423279
            ],
            "min" : [
                0.03971964120864868,
                0.8020843863487244,
                -0.38439035415649414
            ],
            "type" : "VEC3"
        },
        {
            "bufferView" : 14,
            "componentType" : 5126,
            "count" : 40,
            "type" : "VEC3"
        },
        {
            "bufferView" : 15,
            "componentType" : 5126,
            "count" : 598,
            "max" : [
                1.3242697715759277,
                1.2901380062103271,
                1.1149588823318481
            ],
            "min" : [
                -0.8784721493721008,
                -1.062681794166565,
                -1.1873960494995117
            ],
            "type" : "VEC3"
        },
        {
            "bufferView" : 16,
            "componentType" : 5126,
            "count" : 598,
            "type" : "VEC3"
        },
        {
            "bufferView" : 17,
            "componentType" : 5123,
            "count" : 972,
            "type" : "SCALAR"
        },
        {
            "bufferView" : 18,
            "componentType" : 5126,
            "count" : 198,
            "max" : [
                0.8784722089767456,
                1.068442463874817,
                0.8784719705581665
            ],
            "min" : [
                -0.3263888955116272,
                -0.8784714937210083,
                -0.878472089767456
            ],
            "type" : "VEC3"
        },
        {
            "bufferView" : 19,
            "componentType" : 5126,
            "count" : 198,
            "type" : "VEC3"
        },
        {
            "bufferView" : 20,
            "componentType" : 5123,
            "count" : 300,
            "type" : "SCALAR"
        },
        {
            "bufferView" : 21,
            "componentType" : 5126,
            "count" : 70,
            "max" : [
                1.3104453086853027,
                1.2572733163833618,
                0.35897955298423767
            ],
            "min" : [
                -0.4265074133872986,
                -1.062681794166565,
                -0.5180759429931641
            ],
            "type" : "VEC3"
        },
        {
            "bufferView" : 22,
            "componentType" : 5126,
            "count" : 70,
            "type" : "VEC3"
        },
        {
            "bufferView" : 23,
            "componentType" : 5123,
            "count" : 108,
            "type" : "SCALAR"
        }
    ],
    "bufferViews" : [
        {
            "buffer" : 0,
            "byteLength" : 1488,
            "byteOffset" : 0
        },
        {
            "buffer" : 0,
            "byteLength" : 1488,
            "byteOffset" : 1488
        },
        {
            "buffer" : 0,
            "byteLength" : 384,
            "byteOffset" : 2976
        },
        {
            "buffer" : 0,
            "byteLength" : 8232,
            "byteOffset" : 3360
        },
        {
            "buffer" : 0,
            "byteLength" : 8232,
            "byteOffset" : 11592
        },
        {
            "buffer" : 0,
            "byteLength" : 2256,
            "byteOffset" : 19824
        },
        {
            "buffer" : 0,
            "byteLength" : 480,
            "byteOffset" : 22080
        },
        {
            "buffer" : 0,
            "byteLength" : 480,
            "byteOffset" : 22560
        },
        {
            "buffer" : 0,
            "byteLength" : 120,
            "byteOffset" : 23040
        },
        {
            "buffer" : 0,
            "byteLength" : 1488,
            "byteOffset" : 23160
        },
        {
            "buffer" : 0,
            "byteLength" : 1488,
            "byteOffset" : 24648
        },
        {
            "buffer" : 0,
            "byteLength" : 8232,
            "byteOffset" : 26136
        },
        {
            "buffer" : 0,
            "byteLength" : 8232,
            "byteOffset" : 34368
        },
        {
            "buffer" : 0,
            "byteLength" : 480,
            "byteOffset" : 42600
        },
        {
            "buffer" : 0,
            "byteLength" : 480,
            "byteOffset" : 43080
        },
        {
            "buffer" : 0,
            "byteLength" : 7176,
            "byteOffset" : 43560
        },
        {
            "buffer" : 0,
            "byteLength" : 7176,
            "byteOffset" : 50736
        },
        {
            "buffer" : 0,
            "byteLength" : 1944,
            "byteOffset" : 57912
        },
        {
            "buffer" : 0,
            "byteLength" : 2376,
            "byteOffset" : 59856
        },
        {
            "buffer" : 0,
            "byteLength" : 2376,
            "byteOffset" : 62232
        },
        {
            "buffer" : 0,
            "byteLength" : 600,
            "byteOffset" : 64608
        },
        {
            "buffer" : 0,
            "byteLength" : 840,
            "byteOffset" : 65208
        },
        {
            "buffer" : 0,
            "byteLength" : 840,
            "byteOffset" : 66048
        },
        {
            "buffer" : 0,
            "byteLength" : 216,
            "byteOffset" : 66888
        }
    ],
    "buffers" : [
        {
            "byteLength" : 67104,
            "uri" : "data:application/octet-stream;base64,"
        }
    ]
}
