{
    "asset" : {
        "generator" : "Khronos glTF Blender I/O v1.2.75",
        "version" : "2.0"
    },
    "scene" : 0,
    "scenes" : [
        {
            "name" : "Scene",
            "nodes" : [
                0,
                1
            ]
        }
    ],
    "nodes" : [
        {
            "mesh" : 0,
            "name" : "Cube.001",
            "rotation" : [
                0,
                0.2937089800834656,
                0,
                0.9558948874473572
            ],
            "scale" : [
                0.3164718747138977,
                0.8323591947555542,
                0.36911821365356445
            ],
            "translation" : [
                -0.4033462703227997,
                5.64331579208374,
                0.679552435874939
            ]
        },
        {
            "name" : "Camera",
            "rotation" : [
                0.4194325804710388,
                0.340973436832428,
                -0.1737346649169922,
                0.8231826424598694
            ],
            "scale" : [
                0.10000001639127731,
                0.10000001639127731,
                0.10000001639127731
            ],
            "translation" : [
                12,
                14.59999942779541,
                12
            ]
        }
    ],
    "materials" : [
        {
            "doubleSided" : true,
            "emissiveFactor" : [
                0,
                0,
                0
            ],
            "name" : "Material.008",
            "pbrMetallicRoughness" : {
                "baseColorFactor" : [
                    0.016807377338409424,
                    0.01850022003054619,
                    0.01850022003054619,
                    1
                ],
                "metallicFactor" : 0,
                "roughnessFactor" : 0.5
            }
        },
        {
            "doubleSided" : true,
            "emissiveFactor" : [
                0,
                0,
                0
            ],
            "name" : "Material.009",
            "pbrMetallicRoughness" : {
                "baseColorFactor" : [
                    0.5332765579223633,
                    0.6038274168968201,
                    0.6038274168968201,
                    1
                ],
                "metallicFactor" : 0,
                "roughnessFactor" : 0.5
            }
        },
        {
            "doubleSided" : true,
            "emissiveFactor" : [
                0,
                0,
                0
            ],
            "name" : "Material.010",
            "pbrMetallicRoughness" : {
                "baseColorFactor" : [
                    0.799102783203125,
                    0.32314324378967285,
                    0,
                    1
                ],
                "metallicFactor" : 0,
                "roughnessFactor" : 0.5
            }
        }
    ],
    "meshes" : [
        {
            "name" : "Cube.013",
            "primitives" : [
                {
                    "attributes" : {
                        "POSITION" : 0,
                        "NORMAL" : 1
                    },
                    "indices" : 2,
                    "material" : 0
                },
                {
                    "attributes" : {
                        "POSITION" : 3,
                        "NORMAL" : 4
                    },
                    "indices" : 5,
                    "material" : 1
                },
                {
                    "attributes" : {
                        "POSITION" : 6,
                        "NORMAL" : 7
                    },
                    "indices" : 8,
                    "material" : 2
                }
            ]
        }
    ],
    "accessors" : [
        {
            "bufferView" : 0,
            "componentType" : 5126,
            "count" : 1160,
            "max" : [
                1.6534974575042725,
                1.2901380062103271,
                1.141911268234253
            ],
            "min" : [
                -0.878472089767456,
                -1.062681794166565,
                -1.2490521669387817
            ],
            "type" : "VEC3"
        },
        {
            "bufferView" : 1,
            "componentType" : 5126,
            "count" : 1160,
            "type" : "VEC3"
        },
        {
            "bufferView" : 2,
            "componentType" : 5123,
            "count" : 1926,
            "type" : "SCALAR"
        },
        {
            "bufferView" : 3,
            "componentType" : 5126,
            "count" : 202,
            "max" : [
                0.8784722089767456,
                1.068442463874817,
                0.878472089767456
            ],
            "min" : [
                -0.326388955116272,
                -0.8784714937210083,
                -0.8772305250167847
            ],
            "type" : "VEC3"
        },
        {
            "bufferView" : 4,
            "componentType" : 5126,
            "count" : 202,
            "type" : "VEC3"
        },
        {
            "bufferView" : 5,
            "componentType" : 5123,
            "count" : 306,
            "type" : "SCALAR"
        },
        {
            "bufferView" : 6,
            "componentType" : 5126,
            "count" : 70,
            "max" : [
                1.3104453086853027,
                1.2572733163833618,
                0.35897958278656006
            ],
            "min" : [
                -0.42650723457336426,
                -1.062681794166565,
                -0.5180759429931641
            ],
            "type" : "VEC3"
        },
        {
            "bufferView" : 7,
            "componentType" : 5126,
            "count" : 70,
            "type" : "VEC3"
        },
        {
            "bufferView" : 8,
            "componentType" : 5123,
            "count" : 108,
            "type" : "SCALAR"
        }
    ],
    "bufferViews" : [
        {
            "buffer" : 0,
            "byteLength" : 13920,
            "byteOffset" : 0
        },
        {
            "buffer" : 0,
            "byteLength" : 13920,
            "byteOffset" : 13920
        },
        {
            "buffer" : 0,
            "byteLength" : 3852,
            "byteOffset" : 27840
        },
        {
            "buffer" : 0,
            "byteLength" : 2424,
            "byteOffset" : 31692
        },
        {
            "buffer" : 0,
            "byteLength" : 2424,
            "byteOffset" : 34116
        },
        {
            "buffer" : 0,
            "byteLength" : 612,
            "byteOffset" : 36540
        },
        {
            "buffer" : 0,
            "byteLength" : 840,
            "byteOffset" : 37152
        },
        {
            "buffer" : 0,
            "byteLength" : 840,
            "byteOffset" : 37992
        },
        {
            "buffer" : 0,
            "byteLength" : 216,
            "byteOffset" : 38832
        }
    ],
    "buffers" : [
        {
            "byteLength" : 39048,
            "uri" : "data:application/octet-stream;base64,"
        }
    ]
}
