{
    "asset" : {
        "generator" : "Khronos glTF Blender I/O v1.2.75",
        "version" : "2.0"
    },
    "scene" : 0,
    "scenes" : [
        {
            "name" : "Scene",
            "nodes" : [
                0,
                1
            ]
        }
    ],
    "nodes" : [
        {
            "mesh" : 0,
            "name" : "Cube.023",
            "rotation" : [
                0,
                -0.31875112652778625,
                0,
                0.9478384256362915
            ],
            "scale" : [
                0.3164719045162201,
                0.8323591947555542,
                0.36911818385124207
            ],
            "translation" : [
                -3.7704555988311768,
                5.5254998207092285,
                2.915531873703003
            ]
        },
        {
            "name" : "Camera",
            "rotation" : [
                0.4194325804710388,
                0.340973436832428,
                -0.1737346649169922,
                0.8231826424598694
            ],
            "scale" : [
                0.10000001639127731,
                0.10000001639127731,
                0.10000001639127731
            ],
            "translation" : [
                12,
                14.59999942779541,
                12
            ]
        }
    ],
    "materials" : [
        {
            "doubleSided" : true,
            "emissiveFactor" : [
                0,
                0,
                0
            ],
            "name" : "Material.008",
            "pbrMetallicRoughness" : {
                "baseColorFactor" : [
                    0.016807377338409424,
                    0.01850022003054619,
                    0.01850022003054619,
                    1
                ],
                "metallicFactor" : 0,
                "roughnessFactor" : 0.5
            }
        },
        {
            "doubleSided" : true,
            "emissiveFactor" : [
                0,
                0,
                0
            ],
            "name" : "Material.009",
            "pbrMetallicRoughness" : {
                "baseColorFactor" : [
                    0.5332765579223633,
                    0.6038274168968201,
                    0.6038274168968201,
                    1
                ],
                "metallicFactor" : 0,
                "roughnessFactor" : 0.5
            }
        },
        {
            "doubleSided" : true,
            "emissiveFactor" : [
                0,
                0,
                0
            ],
            "name" : "Material.010",
            "pbrMetallicRoughness" : {
                "baseColorFactor" : [
                    0.799102783203125,
                    0.32314324378967285,
                    0,
                    1
                ],
                "metallicFactor" : 0,
                "roughnessFactor" : 0.5
            }
        }
    ],
    "meshes" : [
        {
            "name" : "Cube.008",
            "primitives" : [
                {
                    "attributes" : {
                        "POSITION" : 0,
                        "NORMAL" : 1
                    },
                    "indices" : 2,
                    "material" : 0
                },
                {
                    "attributes" : {
                        "POSITION" : 3,
                        "NORMAL" : 4
                    },
                    "indices" : 5,
                    "material" : 1
                },
                {
                    "attributes" : {
                        "POSITION" : 6,
                        "NORMAL" : 7
                    },
                    "indices" : 8,
                    "material" : 2
                }
            ]
        }
    ],
    "accessors" : [
        {
            "bufferView" : 0,
            "componentType" : 5126,
            "count" : 596,
            "max" : [
                0.6377403736114502,
                1.382519245147705,
                1.1149592399597168
            ],
            "min" : [
                -0.8784722089767456,
                -1.0626823902130127,
                -1.1873964071273804
            ],
            "type" : "VEC3"
        },
        {
            "bufferView" : 1,
            "componentType" : 5126,
            "count" : 596,
            "type" : "VEC3"
        },
        {
            "bufferView" : 2,
            "componentType" : 5123,
            "count" : 972,
            "type" : "SCALAR"
        },
        {
            "bufferView" : 3,
            "componentType" : 5126,
            "count" : 198,
            "max" : [
                0.8784722089767456,
                1.0229591131210327,
                0.8784722089767456
            ],
            "min" : [
                -0.3263888955116272,
                -0.8784722089767456,
                -0.8784722089767456
            ],
            "type" : "VEC3"
        },
        {
            "bufferView" : 4,
            "componentType" : 5126,
            "count" : 198,
            "type" : "VEC3"
        },
        {
            "bufferView" : 5,
            "componentType" : 5123,
            "count" : 300,
            "type" : "SCALAR"
        },
        {
            "bufferView" : 6,
            "componentType" : 5126,
            "count" : 70,
            "max" : [
                0.6175913214683533,
                1.370862364768982,
                0.3825814723968506
            ],
            "min" : [
                -0.5316712856292725,
                -1.0626823902130127,
                -0.38258135318756104
            ],
            "type" : "VEC3"
        },
        {
            "bufferView" : 7,
            "componentType" : 5126,
            "count" : 70,
            "type" : "VEC3"
        },
        {
            "bufferView" : 8,
            "componentType" : 5123,
            "count" : 108,
            "type" : "SCALAR"
        }
    ],
    "bufferViews" : [
        {
            "buffer" : 0,
            "byteLength" : 7152,
            "byteOffset" : 0
        },
        {
            "buffer" : 0,
            "byteLength" : 7152,
            "byteOffset" : 7152
        },
        {
            "buffer" : 0,
            "byteLength" : 1944,
            "byteOffset" : 14304
        },
        {
            "buffer" : 0,
            "byteLength" : 2376,
            "byteOffset" : 16248
        },
        {
            "buffer" : 0,
            "byteLength" : 2376,
            "byteOffset" : 18624
        },
        {
            "buffer" : 0,
            "byteLength" : 600,
            "byteOffset" : 21000
        },
        {
            "buffer" : 0,
            "byteLength" : 840,
            "byteOffset" : 21600
        },
        {
            "buffer" : 0,
            "byteLength" : 840,
            "byteOffset" : 22440
        },
        {
            "buffer" : 0,
            "byteLength" : 216,
            "byteOffset" : 23280
        }
    ],
    "buffers" : [
        {
            "byteLength" : 23496,
            "uri" : "data:application/octet-stream;base64,"
        }
    ]
}
