{
    "asset" : {
        "generator" : "Khronos glTF Blender I/O v1.2.75",
        "version" : "2.0"
    },
    "scene" : 0,
    "scenes" : [
        {
            "name" : "Scene",
            "nodes" : [
                0,
                1
            ]
        }
    ],
    "nodes" : [
        {
            "name" : "Camera",
            "rotation" : [
                0.4194325804710388,
                0.340973436832428,
                -0.1737346649169922,
                0.8231826424598694
            ],
            "scale" : [
                0.10000001639127731,
                0.10000001639127731,
                0.10000001639127731
            ],
            "translation" : [
                12,
                14.59999942779541,
                12
            ]
        },
        {
            "mesh" : 0,
            "name" : "Cube.026",
            "rotation" : [
                0,
                -0.2484835535287857,
                0,
                0.9686360955238342
            ],
            "scale" : [
                0.6414486169815063,
                0.6414485573768616,
                0.806806743144989
            ],
            "translation" : [
                3.099384069442749,
                5.949951171875,
                -3.361259698867798
            ]
        }
    ],
    "materials" : [
        {
            "doubleSided" : true,
            "emissiveFactor" : [
                0,
                0,
                0
            ],
            "name" : "Material.016",
            "pbrMetallicRoughness" : {
                "baseColorFactor" : [
                    0.6266611814498901,
                    0.5925033688545227,
                    0.4124622941017151,
                    1
                ],
                "metallicFactor" : 0,
                "roughnessFactor" : 0.5
            }
        },
        {
            "doubleSided" : true,
            "emissiveFactor" : [
                0,
                0,
                0
            ],
            "name" : "Material.017",
            "pbrMetallicRoughness" : {
                "baseColorFactor" : [
                    0.21223078668117523,
                    0.12743771076202393,
                    0.07618538290262222,
                    1
                ],
                "metallicFactor" : 0,
                "roughnessFactor" : 0.5
            }
        },
        {
            "doubleSided" : true,
            "emissiveFactor" : [
                0,
                0,
                0
            ],
            "name" : "Material.013",
            "pbrMetallicRoughness" : {
                "baseColorFactor" : [
                    0.5814617872238159,
                    0.4349313974380493,
                    0.28934451937675476,
                    1
                ],
                "metallicFactor" : 0,
                "roughnessFactor" : 0.5
            }
        }
    ],
    "meshes" : [
        {
            "name" : "Cube.002",
            "primitives" : [
                {
                    "attributes" : {
                        "POSITION" : 0,
                        "NORMAL" : 1
                    },
                    "indices" : 2,
                    "material" : 0
                },
                {
                    "attributes" : {
                        "POSITION" : 3,
                        "NORMAL" : 4
                    },
                    "indices" : 5,
                    "material" : 1
                },
                {
                    "attributes" : {
                        "POSITION" : 6,
                        "NORMAL" : 7
                    },
                    "indices" : 8,
                    "material" : 2
                }
            ]
        }
    ],
    "accessors" : [
        {
            "bufferView" : 0,
            "componentType" : 5126,
            "count" : 1816,
            "max" : [
                1.213915467262268,
                1.1730486154556274,
                3.018061876296997
            ],
            "min" : [
                -1.213915467262268,
                -1.9838896989822388,
                -1.6160212755203247
            ],
            "type" : "VEC3"
        },
        {
            "bufferView" : 1,
            "componentType" : 5126,
            "count" : 1816,
            "type" : "VEC3"
        },
        {
            "bufferView" : 2,
            "componentType" : 5123,
            "count" : 2724,
            "type" : "SCALAR"
        },
        {
            "bufferView" : 3,
            "componentType" : 5126,
            "count" : 46,
            "max" : [
                0.5357843041419983,
                0.6234477162361145,
                3.0044212341308594
            ],
            "min" : [
                -0.5357843041419983,
                -0.22446030378341675,
                2.1195931434631348
            ],
            "type" : "VEC3"
        },
        {
            "bufferView" : 4,
            "componentType" : 5126,
            "count" : 46,
            "type" : "VEC3"
        },
        {
            "bufferView" : 5,
            "componentType" : 5123,
            "count" : 66,
            "type" : "SCALAR"
        },
        {
            "bufferView" : 6,
            "componentType" : 5126,
            "count" : 96,
            "max" : [
                0.37599146366119385,
                0.37086689472198486,
                2.733184814453125
            ],
            "min" : [
                -0.37599146366119385,
                0.1033179759979248,
                2.551649570465088
            ],
            "type" : "VEC3"
        },
        {
            "bufferView" : 7,
            "componentType" : 5126,
            "count" : 96,
            "type" : "VEC3"
        },
        {
            "bufferView" : 8,
            "componentType" : 5123,
            "count" : 144,
            "type" : "SCALAR"
        }
    ],
    "bufferViews" : [
        {
            "buffer" : 0,
            "byteLength" : 21792,
            "byteOffset" : 0
        },
        {
            "buffer" : 0,
            "byteLength" : 21792,
            "byteOffset" : 21792
        },
        {
            "buffer" : 0,
            "byteLength" : 5448,
            "byteOffset" : 43584
        },
        {
            "buffer" : 0,
            "byteLength" : 552,
            "byteOffset" : 49032
        },
        {
            "buffer" : 0,
            "byteLength" : 552,
            "byteOffset" : 49584
        },
        {
            "buffer" : 0,
            "byteLength" : 132,
            "byteOffset" : 50136
        },
        {
            "buffer" : 0,
            "byteLength" : 1152,
            "byteOffset" : 50268
        },
        {
            "buffer" : 0,
            "byteLength" : 1152,
            "byteOffset" : 51420
        },
        {
            "buffer" : 0,
            "byteLength" : 288,
            "byteOffset" : 52572
        }
    ],
    "buffers" : [
        {
            "byteLength" : 52860,
            "uri" : "data:application/octet-stream;base64,"
        }
    ]
}
