{
    "asset" : {
        "generator" : "Khronos glTF Blender I/O v1.2.75",
        "version" : "2.0"
    },
    "scene" : 0,
    "scenes" : [
        {
            "name" : "Scene",
            "nodes" : [
                3,
                4
            ]
        }
    ],
    "nodes" : [
        {
            "mesh" : 0,
            "name" : "Text.001",
            "rotation" : [
                0.4999997913837433,
                0.5000001192092896,
                -0.4999998211860657,
                0.5000002384185791
            ],
            "scale" : [
                0.40609240531921387,
                8.121849060058594,
                1.0829130411148071
            ],
            "translation" : [
                1.0803680419921875,
                -0.3103145956993103,
                0.8873060941696167
            ]
        },
        {
            "children" : [
                0
            ],
            "mesh" : 1,
            "name" : "Cube.014",
            "scale" : [
                0.5,
                0.20000000298023224,
                5
            ],
            "translation" : [
                1,
                0.6000000238418579,
                0
            ]
        },
        {
            "mesh" : 2,
            "name" : "Sphere.001",
            "scale" : [
                2.0000007152557373,
                0.20000000298023224,
                2.000000238418579
            ],
            "translation" : [
                0,
                1.1647759675979614,
                0
            ]
        },
        {
            "children" : [
                1,
                2
            ],
            "mesh" : 3,
            "name" : "Cylinder.009",
            "rotation" : [
                -0.0464932918548584,
                -0.609079122543335,
                -0.0041688475757837296,
                0.7917345762252808
            ],
            "scale" : [
                0.10000000149011612,
                1,
                0.10000001639127731
            ],
            "translation" : [
                0.08400421589612961,
                5.569994926452637,
                -4.096278667449951
            ]
        },
        {
            "name" : "Camera",
            "rotation" : [
                0.4194325804710388,
                0.340973436832428,
                -0.1737346649169922,
                0.8231826424598694
            ],
            "scale" : [
                0.10000001639127731,
                0.10000001639127731,
                0.10000001639127731
            ],
            "translation" : [
                12,
                14.59999942779541,
                12
            ]
        }
    ],
    "materials" : [
        {
            "doubleSided" : true,
            "emissiveFactor" : [
                0,
                0,
                0
            ],
            "name" : "MatBlack",
            "pbrMetallicRoughness" : {
                "baseColorFactor" : [
                    0,
                    0,
                    0,
                    1
                ],
                "metallicFactor" : 0,
                "roughnessFactor" : 0.5
            }
        },
        {
            "doubleSided" : true,
            "emissiveFactor" : [
                0,
                0,
                0
            ],
            "name" : "MaterialWhite2",
            "pbrMetallicRoughness" : {
                "baseColorFactor" : [
                    0.800000011920929,
                    0.800000011920929,
                    0.800000011920929,
                    1
                ],
                "metallicFactor" : 0,
                "roughnessFactor" : 0.5
            }
        },
        {
            "doubleSided" : true,
            "emissiveFactor" : [
                0,
                0,
                0
            ],
            "name" : "Material.004",
            "pbrMetallicRoughness" : {
                "baseColorFactor" : [
                    0.799102783203125,
                    0,
                    0.019382361322641373,
                    1
                ],
                "metallicFactor" : 0,
                "roughnessFactor" : 0.5
            }
        },
        {
            "doubleSided" : true,
            "emissiveFactor" : [
                0,
                0,
                0
            ],
            "name" : "MaterialWood",
            "pbrMetallicRoughness" : {
                "baseColorFactor" : [
                    0.11927551031112671,
                    0.027023348957300186,
                    0.006031028460711241,
                    1
                ],
                "metallicFactor" : 0,
                "roughnessFactor" : 0.5
            }
        }
    ],
    "meshes" : [
        {
            "name" : "Text.001",
            "primitives" : [
                {
                    "attributes" : {
                        "POSITION" : 0,
                        "NORMAL" : 1,
                        "TEXCOORD_0" : 2
                    },
                    "indices" : 3,
                    "material" : 0
                }
            ]
        },
        {
            "name" : "Cube.044",
            "primitives" : [
                {
                    "attributes" : {
                        "POSITION" : 4,
                        "NORMAL" : 5
                    },
                    "indices" : 6,
                    "material" : 1
                }
            ]
        },
        {
            "name" : "Sphere.003",
            "primitives" : [
                {
                    "attributes" : {
                        "POSITION" : 7,
                        "NORMAL" : 8
                    },
                    "indices" : 9,
                    "material" : 2
                }
            ]
        },
        {
            "name" : "Cylinder.017",
            "primitives" : [
                {
                    "attributes" : {
                        "POSITION" : 10,
                        "NORMAL" : 11
                    },
                    "indices" : 12,
                    "material" : 3
                }
            ]
        }
    ],
    "accessors" : [
        {
            "bufferView" : 0,
            "componentType" : 5126,
            "count" : 2608,
            "max" : [
                4.348000526428223,
                0.05000000074505806,
                0.009000000543892384
            ],
            "min" : [
                0.04000000283122063,
                -0.05000000074505806,
                -0.6910000443458557
            ],
            "type" : "VEC3"
        },
        {
            "bufferView" : 1,
            "componentType" : 5126,
            "count" : 2608,
            "type" : "VEC3"
        },
        {
            "bufferView" : 2,
            "componentType" : 5126,
            "count" : 2608,
            "type" : "VEC2"
        },
        {
            "bufferView" : 3,
            "componentType" : 5123,
            "count" : 7668,
            "type" : "SCALAR"
        },
        {
            "bufferView" : 4,
            "componentType" : 5126,
            "count" : 24,
            "max" : [
                1,
                1,
                1
            ],
            "min" : [
                -1,
                -1,
                -1
            ],
            "type" : "VEC3"
        },
        {
            "bufferView" : 5,
            "componentType" : 5126,
            "count" : 24,
            "type" : "VEC3"
        },
        {
            "bufferView" : 6,
            "componentType" : 5123,
            "count" : 36,
            "type" : "SCALAR"
        },
        {
            "bufferView" : 7,
            "componentType" : 5126,
            "count" : 240,
            "max" : [
                0.9999995231628418,
                1,
                0.9999996423721313
            ],
            "min" : [
                -1,
                -1,
                -0.9999997615814209
            ],
            "type" : "VEC3"
        },
        {
            "bufferView" : 8,
            "componentType" : 5126,
            "count" : 240,
            "type" : "VEC3"
        },
        {
            "bufferView" : 9,
            "componentType" : 5123,
            "count" : 336,
            "type" : "SCALAR"
        },
        {
            "bufferView" : 10,
            "componentType" : 5126,
            "count" : 36,
            "max" : [
                0.866025447845459,
                1,
                1
            ],
            "min" : [
                -0.866025447845459,
                -1,
                -1
            ],
            "type" : "VEC3"
        },
        {
            "bufferView" : 11,
            "componentType" : 5126,
            "count" : 36,
            "type" : "VEC3"
        },
        {
            "bufferView" : 12,
            "componentType" : 5123,
            "count" : 60,
            "type" : "SCALAR"
        }
    ],
    "bufferViews" : [
        {
            "buffer" : 0,
            "byteLength" : 31296,
            "byteOffset" : 0
        },
        {
            "buffer" : 0,
            "byteLength" : 31296,
            "byteOffset" : 31296
        },
        {
            "buffer" : 0,
            "byteLength" : 20864,
            "byteOffset" : 62592
        },
        {
            "buffer" : 0,
            "byteLength" : 15336,
            "byteOffset" : 83456
        },
        {
            "buffer" : 0,
            "byteLength" : 288,
            "byteOffset" : 98792
        },
        {
            "buffer" : 0,
            "byteLength" : 288,
            "byteOffset" : 99080
        },
        {
            "buffer" : 0,
            "byteLength" : 72,
            "byteOffset" : 99368
        },
        {
            "buffer" : 0,
            "byteLength" : 2880,
            "byteOffset" : 99440
        },
        {
            "buffer" : 0,
            "byteLength" : 2880,
            "byteOffset" : 102320
        },
        {
            "buffer" : 0,
            "byteLength" : 672,
            "byteOffset" : 105200
        },
        {
            "buffer" : 0,
            "byteLength" : 432,
            "byteOffset" : 105872
        },
        {
            "buffer" : 0,
            "byteLength" : 432,
            "byteOffset" : 106304
        },
        {
            "buffer" : 0,
            "byteLength" : 120,
            "byteOffset" : 106736
        }
    ],
    "buffers" : [
        {
            "byteLength" : 106856,
            "uri" : "data:application/octet-stream;base64,"
        }
    ]
}
