{
    "asset" : {
        "generator" : "Khronos glTF Blender I/O v1.2.75",
        "version" : "2.0"
    },
    "scene" : 0,
    "scenes" : [
        {
            "name" : "Scene",
            "nodes" : [
                0,
                2,
                3
            ]
        }
    ],
    "nodes" : [
        {
            "name" : "Camera",
            "rotation" : [
                0.483536034822464,
                0.33687159419059753,
                -0.20870360732078552,
                0.7804827094078064
            ],
            "translation" : [
                7.358891487121582,
                4.958309173583984,
                6.925790786743164
            ]
        },
        {
            "mesh" : 0,
            "name" : "snow",
            "translation" : [
                0.07593943923711777,
                0,
                0
            ]
        },
        {
            "children" : [
                1
            ],
            "mesh" : 1,
            "name" : "Rock_large",
            "rotation" : [
                0,
                0,
                0.7071067094802856,
                0.7071068286895752
            ],
            "scale" : [
                0.5625014901161194,
                1.1785637140274048,
                1.1785637140274048
            ],
            "translation" : [
                -2.8831868171691895,
                -0.06015598773956299,
                -1.5408782958984375
            ]
        },
        {
            "name" : "Camera.001",
            "rotation" : [
                0.48170706629753113,
                0.33425137400627136,
                -0.2129216492176056,
                0.7816001176834106
            ],
            "translation" : [
                4.624536991119385,
                4.343865871429443,
                3.8303966522216797
            ]
        }
    ],
    "materials" : [
        {
            "doubleSided" : true,
            "emissiveFactor" : [
                0,
                0,
                0
            ],
            "name" : "White_snow",
            "pbrMetallicRoughness" : {
                "baseColorFactor" : [
                    0.7893333435058594,
                    0.800000011920929,
                    0.7786666750907898,
                    1
                ],
                "metallicFactor" : 0,
                "roughnessFactor" : 0.5
            }
        },
        {
            "doubleSided" : true,
            "emissiveFactor" : [
                0,
                0,
                0
            ],
            "name" : "Brown_rock",
            "pbrMetallicRoughness" : {
                "baseColorFactor" : [
                    0.13758352398872375,
                    0.1105847880244255,
                    0.05936634913086891,
                    1
                ],
                "metallicFactor" : 0,
                "roughnessFactor" : 0.5
            }
        }
    ],
    "meshes" : [
        {
            "name" : "Cube.017",
            "primitives" : [
                {
                    "attributes" : {
                        "POSITION" : 0,
                        "NORMAL" : 1
                    },
                    "indices" : 2,
                    "material" : 0
                }
            ]
        },
        {
            "name" : "Cube.001",
            "primitives" : [
                {
                    "attributes" : {
                        "POSITION" : 3,
                        "NORMAL" : 4
                    },
                    "indices" : 5,
                    "material" : 1
                }
            ]
        }
    ],
    "accessors" : [
        {
            "bufferView" : 0,
            "componentType" : 5126,
            "count" : 174,
            "max" : [
                0.8259661793708801,
                0.5821259021759033,
                0.6663293838500977
            ],
            "min" : [
                -0.3732368052005768,
                -0.7713196277618408,
                -0.6941146850585938
            ],
            "type" : "VEC3"
        },
        {
            "bufferView" : 1,
            "componentType" : 5126,
            "count" : 174,
            "type" : "VEC3"
        },
        {
            "bufferView" : 2,
            "componentType" : 5123,
            "count" : 522,
            "type" : "SCALAR"
        },
        {
            "bufferView" : 3,
            "componentType" : 5126,
            "count" : 102,
            "max" : [
                0.8259661793708801,
                0.5821256637573242,
                0.6663293838500977
            ],
            "min" : [
                -0.4963754117488861,
                -0.7713196277618408,
                -0.694114625453949
            ],
            "type" : "VEC3"
        },
        {
            "bufferView" : 4,
            "componentType" : 5126,
            "count" : 102,
            "type" : "VEC3"
        },
        {
            "bufferView" : 5,
            "componentType" : 5123,
            "count" : 192,
            "type" : "SCALAR"
        }
    ],
    "bufferViews" : [
        {
            "buffer" : 0,
            "byteLength" : 2088,
            "byteOffset" : 0
        },
        {
            "buffer" : 0,
            "byteLength" : 2088,
            "byteOffset" : 2088
        },
        {
            "buffer" : 0,
            "byteLength" : 1044,
            "byteOffset" : 4176
        },
        {
            "buffer" : 0,
            "byteLength" : 1224,
            "byteOffset" : 5220
        },
        {
            "buffer" : 0,
            "byteLength" : 1224,
            "byteOffset" : 6444
        },
        {
            "buffer" : 0,
            "byteLength" : 384,
            "byteOffset" : 7668
        }
    ],
    "buffers" : [
        {
            "byteLength" : 8052,
            "uri" : "data:application/octet-stream;base64,"
        }
    ]
}
