{
    "asset" : {
        "generator" : "Khronos glTF Blender I/O v1.2.75",
        "version" : "2.0"
    },
    "scene" : 0,
    "scenes" : [
        {
            "name" : "Scene",
            "nodes" : [
                0,
                1,
                3,
                4
            ]
        }
    ],
    "nodes" : [
        {
            "name" : "Light",
            "rotation" : [
                0.16907575726509094,
                0.7558803558349609,
                -0.27217137813568115,
                0.570947527885437
            ],
            "translation" : [
                4.076245307922363,
                5.903861999511719,
                -1.0054539442062378
            ]
        },
        {
            "name" : "Camera",
            "rotation" : [
                0.483536034822464,
                0.33687159419059753,
                -0.20870360732078552,
                0.7804827094078064
            ],
            "translation" : [
                7.358891487121582,
                4.958309173583984,
                6.925790786743164
            ]
        },
        {
            "mesh" : 0,
            "name" : "snow.001",
            "translation" : [
                0.04878991097211838,
                0,
                0
            ]
        },
        {
            "children" : [
                2
            ],
            "mesh" : 1,
            "name" : "Rock_small",
            "rotation" : [
                0,
                0,
                0.7071067690849304,
                0.7071068286895752
            ],
            "scale" : [
                0.410627156496048,
                0.410627156496048,
                0.410627156496048
            ],
            "translation" : [
                1.3644981384277344,
                0.3695935308933258,
                -0.1467522382736206
            ]
        },
        {
            "name" : "Camera.001",
            "rotation" : [
                0.48170706629753113,
                0.33425137400627136,
                -0.2129216492176056,
                0.7816001176834106
            ],
            "translation" : [
                4.624536991119385,
                4.343865871429443,
                3.8303966522216797
            ]
        }
    ],
    "materials" : [
        {
            "doubleSided" : true,
            "emissiveFactor" : [
                0,
                0,
                0
            ],
            "name" : "White_snow",
            "pbrMetallicRoughness" : {
                "baseColorFactor" : [
                    0.7893333435058594,
                    0.800000011920929,
                    0.7786666750907898,
                    1
                ],
                "metallicFactor" : 0,
                "roughnessFactor" : 0.5
            }
        },
        {
            "doubleSided" : true,
            "emissiveFactor" : [
                0,
                0,
                0
            ],
            "name" : "Brown_rock",
            "pbrMetallicRoughness" : {
                "baseColorFactor" : [
                    0.13758352398872375,
                    0.1105847880244255,
                    0.05936634913086891,
                    1
                ],
                "metallicFactor" : 0,
                "roughnessFactor" : 0.5
            }
        }
    ],
    "meshes" : [
        {
            "name" : "Cube.014",
            "primitives" : [
                {
                    "attributes" : {
                        "POSITION" : 0,
                        "NORMAL" : 1
                    },
                    "indices" : 2,
                    "material" : 0
                }
            ]
        },
        {
            "name" : "Cube.013",
            "primitives" : [
                {
                    "attributes" : {
                        "POSITION" : 3,
                        "NORMAL" : 4
                    },
                    "indices" : 5,
                    "material" : 1
                }
            ]
        }
    ],
    "accessors" : [
        {
            "bufferView" : 0,
            "componentType" : 5126,
            "count" : 172,
            "max" : [
                0.8259660601615906,
                0.5821254849433899,
                0.6663293838500977
            ],
            "min" : [
                -0.3706226050853729,
                -0.7713196277618408,
                -0.6941146850585938
            ],
            "type" : "VEC3"
        },
        {
            "bufferView" : 1,
            "componentType" : 5126,
            "count" : 172,
            "type" : "VEC3"
        },
        {
            "bufferView" : 2,
            "componentType" : 5123,
            "count" : 522,
            "type" : "SCALAR"
        },
        {
            "bufferView" : 3,
            "componentType" : 5126,
            "count" : 102,
            "max" : [
                0.8259661793708801,
                0.5821256637573242,
                0.6663293838500977
            ],
            "min" : [
                -0.4963754117488861,
                -0.7713196277618408,
                -0.694114625453949
            ],
            "type" : "VEC3"
        },
        {
            "bufferView" : 4,
            "componentType" : 5126,
            "count" : 102,
            "type" : "VEC3"
        },
        {
            "bufferView" : 5,
            "componentType" : 5123,
            "count" : 192,
            "type" : "SCALAR"
        }
    ],
    "bufferViews" : [
        {
            "buffer" : 0,
            "byteLength" : 2064,
            "byteOffset" : 0
        },
        {
            "buffer" : 0,
            "byteLength" : 2064,
            "byteOffset" : 2064
        },
        {
            "buffer" : 0,
            "byteLength" : 1044,
            "byteOffset" : 4128
        },
        {
            "buffer" : 0,
            "byteLength" : 1224,
            "byteOffset" : 5172
        },
        {
            "buffer" : 0,
            "byteLength" : 1224,
            "byteOffset" : 6396
        },
        {
            "buffer" : 0,
            "byteLength" : 384,
            "byteOffset" : 7620
        }
    ],
    "buffers" : [
        {
            "byteLength" : 8004,
            "uri" : "data:application/octet-stream;base64,"
        }
    ]
}
