{
    "asset" : {
        "generator" : "Khronos glTF Blender I/O v1.2.75",
        "version" : "2.0"
    },
    "scene" : 0,
    "scenes" : [
        {
            "name" : "Scene",
            "nodes" : [
                0,
                1,
                3,
                4
            ]
        }
    ],
    "nodes" : [
        {
            "name" : "Light",
            "rotation" : [
                0.16907575726509094,
                0.7558803558349609,
                -0.27217137813568115,
                0.570947527885437
            ],
            "translation" : [
                4.076245307922363,
                5.903861999511719,
                -1.0054539442062378
            ]
        },
        {
            "name" : "Camera",
            "rotation" : [
                0.483536034822464,
                0.33687159419059753,
                -0.20870360732078552,
                0.7804827094078064
            ],
            "translation" : [
                7.358891487121582,
                4.958309173583984,
                6.925790786743164
            ]
        },
        {
            "mesh" : 0,
            "name" : "SnowTree",
            "translation" : [
                0,
                0.03549104183912277,
                0
            ]
        },
        {
            "children" : [
                2
            ],
            "mesh" : 1,
            "name" : "Tree",
            "scale" : [
                0.18143752217292786,
                1.059875726699829,
                0.18143752217292786
            ],
            "translation" : [
                -2.615880012512207,
                0,
                -3.44018816947937
            ]
        },
        {
            "name" : "Camera.001",
            "rotation" : [
                0.48170706629753113,
                0.33425137400627136,
                -0.2129216492176056,
                0.7816001176834106
            ],
            "translation" : [
                4.624536991119385,
                4.343865871429443,
                3.8303966522216797
            ]
        }
    ],
    "materials" : [
        {
            "doubleSided" : true,
            "emissiveFactor" : [
                0,
                0,
                0
            ],
            "name" : "White_snow",
            "pbrMetallicRoughness" : {
                "baseColorFactor" : [
                    0.7893333435058594,
                    0.800000011920929,
                    0.7786666750907898,
                    1
                ],
                "metallicFactor" : 0,
                "roughnessFactor" : 0.5
            }
        },
        {
            "doubleSided" : true,
            "emissiveFactor" : [
                0,
                0,
                0
            ],
            "name" : "Wooden_plank",
            "pbrMetallicRoughness" : {
                "baseColorFactor" : [
                    0.16264154016971588,
                    0.10186324268579483,
                    0.06355026364326477,
                    1
                ],
                "metallicFactor" : 0,
                "roughnessFactor" : 0.5
            }
        }
    ],
    "meshes" : [
        {
            "name" : "Cylinder.001",
            "primitives" : [
                {
                    "attributes" : {
                        "POSITION" : 0,
                        "NORMAL" : 1
                    },
                    "indices" : 2,
                    "material" : 0
                }
            ]
        },
        {
            "name" : "Cylinder",
            "primitives" : [
                {
                    "attributes" : {
                        "POSITION" : 3,
                        "NORMAL" : 4
                    },
                    "indices" : 5,
                    "material" : 1
                }
            ]
        }
    ],
    "accessors" : [
        {
            "bufferView" : 0,
            "componentType" : 5126,
            "count" : 428,
            "max" : [
                3.1833062171936035,
                1.9741688966751099,
                1.9763609170913696
            ],
            "min" : [
                -3.3947625160217285,
                0.9575595855712891,
                -3.715435028076172
            ],
            "type" : "VEC3"
        },
        {
            "bufferView" : 1,
            "componentType" : 5126,
            "count" : 428,
            "type" : "VEC3"
        },
        {
            "bufferView" : 2,
            "componentType" : 5123,
            "count" : 786,
            "type" : "SCALAR"
        },
        {
            "bufferView" : 3,
            "componentType" : 5126,
            "count" : 274,
            "max" : [
                3.183305263519287,
                1.9741690158843994,
                1.9763606786727905
            ],
            "min" : [
                -3.394763708114624,
                -0.451151967048645,
                -3.715435028076172
            ],
            "type" : "VEC3"
        },
        {
            "bufferView" : 4,
            "componentType" : 5126,
            "count" : 274,
            "type" : "VEC3"
        },
        {
            "bufferView" : 5,
            "componentType" : 5123,
            "count" : 456,
            "type" : "SCALAR"
        }
    ],
    "bufferViews" : [
        {
            "buffer" : 0,
            "byteLength" : 5136,
            "byteOffset" : 0
        },
        {
            "buffer" : 0,
            "byteLength" : 5136,
            "byteOffset" : 5136
        },
        {
            "buffer" : 0,
            "byteLength" : 1572,
            "byteOffset" : 10272
        },
        {
            "buffer" : 0,
            "byteLength" : 3288,
            "byteOffset" : 11844
        },
        {
            "buffer" : 0,
            "byteLength" : 3288,
            "byteOffset" : 15132
        },
        {
            "buffer" : 0,
            "byteLength" : 912,
            "byteOffset" : 18420
        }
    ],
    "buffers" : [
        {
            "byteLength" : 19332,
            "uri" : "data:application/octet-stream;base64,"
        }
    ]
}
