{
    "asset" : {
        "generator" : "Khronos glTF Blender I/O v1.2.75",
        "version" : "2.0"
    },
    "scene" : 0,
    "scenes" : [
        {
            "name" : "Scene",
            "nodes" : [
                0,
                1,
                2,
                3,
                4,
                5,
                6,
                7,
                8,
                9,
                10,
                11,
                12,
                13
            ]
        }
    ],
    "nodes" : [
        {
            "name" : "Light.001",
            "rotation" : [
                0.16907575726509094,
                0.7558803558349609,
                -0.27217137813568115,
                0.570947527885437
            ],
            "translation" : [
                4.076245307922363,
                5.903861999511719,
                -1.0054539442062378
            ]
        },
        {
            "name" : "Camera.001",
            "rotation" : [
                0.483536034822464,
                0.33687159419059753,
                -0.20870360732078552,
                0.7804827094078064
            ],
            "translation" : [
                7.358891487121582,
                4.958309173583984,
                6.925790786743164
            ]
        },
        {
            "name" : "Lamp",
            "rotation" : [
                0.17919191718101501,
                0.7333094477653503,
                -0.23532657325267792,
                0.612183690071106
            ],
            "scale" : [
                2.405028820037842,
                2.405028820037842,
                2.405028820037842
            ],
            "translation" : [
                39.21839904785156,
                68.64612579345703,
                -37.011802673339844
            ]
        },
        {
            "name" : "Camera.002",
            "rotation" : [
                0.38221871852874756,
                0.5898672938346863,
                -0.3359856903553009,
                0.6269602179527283
            ],
            "scale" : [
                10.802321434020996,
                10.802319526672363,
                10.802321434020996
            ],
            "translation" : [
                79.6216049194336,
                45.68517303466797,
                3.8807003498077393
            ]
        },
        {
            "name" : "Light.002",
            "rotation" : [
                0.16907575726509094,
                0.7558803558349609,
                -0.27217137813568115,
                0.570947527885437
            ],
            "translation" : [
                4.076245307922363,
                5.903861999511719,
                -1.0054539442062378
            ]
        },
        {
            "name" : "Camera.003",
            "rotation" : [
                0.483536034822464,
                0.33687159419059753,
                -0.20870360732078552,
                0.7804827094078064
            ],
            "translation" : [
                7.358891487121582,
                4.958309173583984,
                6.925790786743164
            ]
        },
        {
            "name" : "Lamp.001",
            "rotation" : [
                0.17919191718101501,
                0.7333094477653503,
                -0.23532657325267792,
                0.612183690071106
            ],
            "scale" : [
                2.405028820037842,
                2.405028820037842,
                2.405028820037842
            ],
            "translation" : [
                39.21839904785156,
                68.64612579345703,
                -37.011802673339844
            ]
        },
        {
            "name" : "Camera.004",
            "rotation" : [
                0.38221871852874756,
                0.5898672938346863,
                -0.3359856903553009,
                0.6269602179527283
            ],
            "scale" : [
                10.802321434020996,
                10.802319526672363,
                10.802321434020996
            ],
            "translation" : [
                79.6216049194336,
                45.68517303466797,
                3.8807003498077393
            ]
        },
        {
            "name" : "Lamp.002",
            "rotation" : [
                0.17919191718101501,
                0.7333094477653503,
                -0.23532657325267792,
                0.612183690071106
            ],
            "scale" : [
                2.405028820037842,
                2.405028820037842,
                2.405028820037842
            ],
            "translation" : [
                39.21839904785156,
                68.64612579345703,
                -37.011802673339844
            ]
        },
        {
            "name" : "Camera.005",
            "rotation" : [
                0.38221871852874756,
                0.5898672938346863,
                -0.3359856903553009,
                0.6269602179527283
            ],
            "scale" : [
                10.802321434020996,
                10.802319526672363,
                10.802321434020996
            ],
            "translation" : [
                79.6216049194336,
                45.68517303466797,
                3.8807003498077393
            ]
        },
        {
            "mesh" : 0,
            "name" : "Cylinder.004",
            "rotation" : [
                0,
                -0.13297228515148163,
                0,
                0.9911197423934937
            ],
            "scale" : [
                0.718506932258606,
                3.3192973136901855,
                0.718506932258606
            ],
            "translation" : [
                0.20733487606048584,
                -0.8626071214675903,
                -3.62933349609375
            ]
        },
        {
            "mesh" : 1,
            "name" : "Icosphere.003",
            "rotation" : [
                -0.06704054027795792,
                -0.13266772031784058,
                -0.00899440236389637,
                0.9888498187065125
            ],
            "scale" : [
                2.5049667358398438,
                3.1195387840270996,
                2.5049664974212646
            ],
            "translation" : [
                -0.11854439228773117,
                3.6285457611083984,
                -2.1262588500976562
            ]
        },
        {
            "name" : "Light",
            "rotation" : [
                0.16907575726509094,
                0.7558803558349609,
                -0.27217137813568115,
                0.570947527885437
            ],
            "translation" : [
                4.076245307922363,
                5.903861999511719,
                -1.0054539442062378
            ]
        },
        {
            "name" : "Camera",
            "rotation" : [
                0.483536034822464,
                0.33687159419059753,
                -0.20870360732078552,
                0.7804827094078064
            ],
            "translation" : [
                7.358891487121582,
                4.958309173583984,
                6.925790786743164
            ]
        }
    ],
    "materials" : [
        {
            "doubleSided" : true,
            "emissiveFactor" : [
                0,
                0,
                0
            ],
            "name" : "winter wood.002",
            "pbrMetallicRoughness" : {
                "baseColorFactor" : [
                    0.2461947351694107,
                    0.1683536022901535,
                    0.04941513389348984,
                    1
                ],
                "metallicFactor" : 0,
                "roughnessFactor" : 0.5
            }
        },
        {
            "doubleSided" : true,
            "emissiveFactor" : [
                0,
                0,
                0
            ],
            "name" : "yellow.002",
            "pbrMetallicRoughness" : {
                "baseColorFactor" : [
                    1,
                    1,
                    1,
                    1
                ],
                "metallicFactor" : 0,
                "roughnessFactor" : 0.49418604373931885
            }
        }
    ],
    "meshes" : [
        {
            "name" : "Cylinder.011",
            "primitives" : [
                {
                    "attributes" : {
                        "POSITION" : 0,
                        "NORMAL" : 1
                    },
                    "indices" : 2,
                    "material" : 0
                }
            ]
        },
        {
            "name" : "Icosphere.003",
            "primitives" : [
                {
                    "attributes" : {
                        "POSITION" : 3,
                        "NORMAL" : 4
                    },
                    "indices" : 5,
                    "material" : 1
                }
            ]
        }
    ],
    "accessors" : [
        {
            "bufferView" : 0,
            "componentType" : 5126,
            "count" : 175,
            "max" : [
                0.9691517353057861,
                1,
                2.220151424407959
            ],
            "min" : [
                -0.5922555327415466,
                -1,
                -0.6838777661323547
            ],
            "type" : "VEC3"
        },
        {
            "bufferView" : 1,
            "componentType" : 5126,
            "count" : 175,
            "type" : "VEC3"
        },
        {
            "bufferView" : 2,
            "componentType" : 5123,
            "count" : 192,
            "type" : "SCALAR"
        },
        {
            "bufferView" : 3,
            "componentType" : 5126,
            "count" : 354,
            "max" : [
                1.4538198709487915,
                2.2759532928466797,
                0.9927976131439209
            ],
            "min" : [
                -1.7422218322753906,
                -1.1088603734970093,
                -2.1335370540618896
            ],
            "type" : "VEC3"
        },
        {
            "bufferView" : 4,
            "componentType" : 5126,
            "count" : 354,
            "type" : "VEC3"
        },
        {
            "bufferView" : 5,
            "componentType" : 5123,
            "count" : 354,
            "type" : "SCALAR"
        }
    ],
    "bufferViews" : [
        {
            "buffer" : 0,
            "byteLength" : 2100,
            "byteOffset" : 0
        },
        {
            "buffer" : 0,
            "byteLength" : 2100,
            "byteOffset" : 2100
        },
        {
            "buffer" : 0,
            "byteLength" : 384,
            "byteOffset" : 4200
        },
        {
            "buffer" : 0,
            "byteLength" : 4248,
            "byteOffset" : 4584
        },
        {
            "buffer" : 0,
            "byteLength" : 4248,
            "byteOffset" : 8832
        },
        {
            "buffer" : 0,
            "byteLength" : 708,
            "byteOffset" : 13080
        }
    ],
    "buffers" : [
        {
            "byteLength" : 13788,
            "uri" : "data:application/octet-stream;base64,"
        }
    ]
}
