{
    "asset" : {
        "generator" : "Khronos glTF Blender I/O v1.2.75",
        "version" : "2.0"
    },
    "scene" : 0,
    "scenes" : [
        {
            "name" : "Scene",
            "nodes" : [
                0,
                1,
                8,
                9
            ]
        }
    ],
    "nodes" : [
        {
            "name" : "Light",
            "rotation" : [
                0.16907575726509094,
                0.7558803558349609,
                -0.27217137813568115,
                0.570947527885437
            ],
            "translation" : [
                4.076245307922363,
                5.903861999511719,
                -1.0054539442062378
            ]
        },
        {
            "name" : "Camera",
            "rotation" : [
                0.483536034822464,
                0.33687159419059753,
                -0.20870360732078552,
                0.7804827094078064
            ],
            "translation" : [
                7.358891487121582,
                4.958309173583984,
                6.925790786743164
            ]
        },
        {
            "mesh" : 0,
            "name" : "Bush_snow",
            "scale" : [
                0.9847930669784546,
                0.9847931265830994,
                0.984792947769165
            ],
            "translation" : [
                0,
                -0.0831308364868164,
                0
            ]
        },
        {
            "children" : [
                2
            ],
            "mesh" : 1,
            "name" : "bush",
            "scale" : [
                -2.613097667694092,
                -0.44732969999313354,
                -2.625885009765625
            ],
            "translation" : [
                -4.458218097686768,
                1.6042132377624512,
                2.157453775405884
            ]
        },
        {
            "mesh" : 2,
            "name" : "Bush_snow.001",
            "scale" : [
                0.9701171517372131,
                0.9701172709465027,
                0.9701172113418579
            ],
            "translation" : [
                0,
                -0.06404781341552734,
                0
            ]
        },
        {
            "children" : [
                4
            ],
            "mesh" : 3,
            "name" : "bush.001",
            "scale" : [
                -4.363702774047852,
                -0.7470114231109619,
                -5.105729579925537
            ],
            "translation" : [
                0.3982069492340088,
                2.1958863735198975,
                -2.2716379165649414
            ]
        },
        {
            "mesh" : 4,
            "name" : "Bush_snow.002",
            "rotation" : [
                0.23861350119113922,
                -0.29625043272972107,
                -0.5945068597793579,
                0.7084214091300964
            ],
            "scale" : [
                0.9665555357933044,
                0.972813069820404,
                0.9596536755561829
            ],
            "translation" : [
                0,
                -0.06818652153015137,
                0
            ]
        },
        {
            "children" : [
                6
            ],
            "mesh" : 5,
            "name" : "bush.002",
            "scale" : [
                -2.613097667694092,
                -0.44732969999313354,
                -2.5766537189483643
            ],
            "translation" : [
                3.7882208824157715,
                1.182139277458191,
                2.7225706577301025
            ]
        },
        {
            "children" : [
                3,
                5,
                7
            ],
            "mesh" : 6,
            "name" : "bush_master",
            "scale" : [
                0.05478948354721069,
                0.3200553357601166,
                0.05478948354721069
            ],
            "translation" : [
                -0.23038005828857422,
                0,
                -0.25942015647888184
            ]
        },
        {
            "name" : "Camera.001",
            "rotation" : [
                0.48170706629753113,
                0.33425137400627136,
                -0.2129216492176056,
                0.7816001176834106
            ],
            "translation" : [
                4.624536991119385,
                4.343865871429443,
                3.8303966522216797
            ]
        }
    ],
    "materials" : [
        {
            "doubleSided" : true,
            "emissiveFactor" : [
                0,
                0,
                0
            ],
            "name" : "White_snow",
            "pbrMetallicRoughness" : {
                "baseColorFactor" : [
                    0.7893333435058594,
                    0.800000011920929,
                    0.7786666750907898,
                    1
                ],
                "metallicFactor" : 0,
                "roughnessFactor" : 0.5
            }
        },
        {
            "doubleSided" : true,
            "emissiveFactor" : [
                0,
                0,
                0
            ],
            "name" : "Green_leaves",
            "pbrMetallicRoughness" : {
                "baseColorFactor" : [
                    0.05317290499806404,
                    0.25294357538223267,
                    0,
                    1
                ],
                "metallicFactor" : 0,
                "roughnessFactor" : 0.5
            }
        },
        {
            "doubleSided" : true,
            "emissiveFactor" : [
                0,
                0,
                0
            ],
            "name" : "Wooden_plank",
            "pbrMetallicRoughness" : {
                "baseColorFactor" : [
                    0.16264154016971588,
                    0.10186324268579483,
                    0.06355026364326477,
                    1
                ],
                "metallicFactor" : 0,
                "roughnessFactor" : 0.5
            }
        }
    ],
    "meshes" : [
        {
            "name" : "Icosphere.005",
            "primitives" : [
                {
                    "attributes" : {
                        "POSITION" : 0,
                        "NORMAL" : 1
                    },
                    "indices" : 2,
                    "material" : 0
                }
            ]
        },
        {
            "name" : "Icosphere.002",
            "primitives" : [
                {
                    "attributes" : {
                        "POSITION" : 3,
                        "NORMAL" : 4
                    },
                    "indices" : 5,
                    "material" : 1
                }
            ]
        },
        {
            "name" : "Icosphere.004",
            "primitives" : [
                {
                    "attributes" : {
                        "POSITION" : 6,
                        "NORMAL" : 7
                    },
                    "indices" : 8,
                    "material" : 0
                }
            ]
        },
        {
            "name" : "Icosphere",
            "primitives" : [
                {
                    "attributes" : {
                        "POSITION" : 9,
                        "NORMAL" : 10
                    },
                    "indices" : 5,
                    "material" : 1
                }
            ]
        },
        {
            "name" : "Icosphere.006",
            "primitives" : [
                {
                    "attributes" : {
                        "POSITION" : 11,
                        "NORMAL" : 12
                    },
                    "indices" : 13,
                    "material" : 0
                }
            ]
        },
        {
            "name" : "Icosphere.001",
            "primitives" : [
                {
                    "attributes" : {
                        "POSITION" : 14,
                        "NORMAL" : 15
                    },
                    "indices" : 16,
                    "material" : 1
                }
            ]
        },
        {
            "name" : "Cylinder.006",
            "primitives" : [
                {
                    "attributes" : {
                        "POSITION" : 17,
                        "NORMAL" : 18
                    },
                    "indices" : 19,
                    "material" : 2
                }
            ]
        }
    ],
    "accessors" : [
        {
            "bufferView" : 0,
            "componentType" : 5126,
            "count" : 230,
            "max" : [
                0.990692138671875,
                0.07268362492322922,
                1
            ],
            "min" : [
                -1.0670945644378662,
                -1.0124801397323608,
                -0.9999998211860657
            ],
            "type" : "VEC3"
        },
        {
            "bufferView" : 1,
            "componentType" : 5126,
            "count" : 230,
            "type" : "VEC3"
        },
        {
            "bufferView" : 2,
            "componentType" : 5123,
            "count" : 552,
            "type" : "SCALAR"
        },
        {
            "bufferView" : 3,
            "componentType" : 5126,
            "count" : 240,
            "max" : [
                0.9906919002532959,
                1,
                0.9999999403953552
            ],
            "min" : [
                -1.0670948028564453,
                -1.0124796628952026,
                -0.9999999403953552
            ],
            "type" : "VEC3"
        },
        {
            "bufferView" : 4,
            "componentType" : 5126,
            "count" : 240,
            "type" : "VEC3"
        },
        {
            "bufferView" : 5,
            "componentType" : 5123,
            "count" : 240,
            "type" : "SCALAR"
        },
        {
            "bufferView" : 6,
            "componentType" : 5126,
            "count" : 136,
            "max" : [
                0.8954147100448608,
                -0.4011392593383789,
                0.8630500435829163
            ],
            "min" : [
                -0.9528082609176636,
                -0.9584712982177734,
                -0.8987932801246643
            ],
            "type" : "VEC3"
        },
        {
            "bufferView" : 7,
            "componentType" : 5126,
            "count" : 136,
            "type" : "VEC3"
        },
        {
            "bufferView" : 8,
            "componentType" : 5123,
            "count" : 330,
            "type" : "SCALAR"
        },
        {
            "bufferView" : 9,
            "componentType" : 5126,
            "count" : 240,
            "max" : [
                0.8973347544670105,
                1,
                0.9999999403953552
            ],
            "min" : [
                -1.0047810077667236,
                -0.9584711194038391,
                -1.0102545022964478
            ],
            "type" : "VEC3"
        },
        {
            "bufferView" : 10,
            "componentType" : 5126,
            "count" : 240,
            "type" : "VEC3"
        },
        {
            "bufferView" : 11,
            "componentType" : 5126,
            "count" : 42,
            "max" : [
                0.9510578513145447,
                1,
                0.9999999403953552
            ],
            "min" : [
                -0.9510578513145447,
                -1.0919320583343506,
                -0.9618212580680847
            ],
            "type" : "VEC3"
        },
        {
            "bufferView" : 12,
            "componentType" : 5126,
            "count" : 42,
            "type" : "VEC3"
        },
        {
            "bufferView" : 13,
            "componentType" : 5123,
            "count" : 240,
            "type" : "SCALAR"
        },
        {
            "bufferView" : 14,
            "componentType" : 5126,
            "count" : 238,
            "max" : [
                0.9510578513145447,
                1,
                0.9999999403953552
            ],
            "min" : [
                -0.9510578513145447,
                -1.0919320583343506,
                -0.9618212580680847
            ],
            "type" : "VEC3"
        },
        {
            "bufferView" : 15,
            "componentType" : 5126,
            "count" : 238,
            "type" : "VEC3"
        },
        {
            "bufferView" : 16,
            "componentType" : 5123,
            "count" : 240,
            "type" : "SCALAR"
        },
        {
            "bufferView" : 17,
            "componentType" : 5126,
            "count" : 284,
            "max" : [
                4.078351020812988,
                2.2037405967712402,
                2.6090707778930664
            ],
            "min" : [
                -4.616867542266846,
                0.3541070818901062,
                -4.914627552032471
            ],
            "type" : "VEC3"
        },
        {
            "bufferView" : 18,
            "componentType" : 5126,
            "count" : 284,
            "type" : "VEC3"
        },
        {
            "bufferView" : 19,
            "componentType" : 5123,
            "count" : 480,
            "type" : "SCALAR"
        }
    ],
    "bufferViews" : [
        {
            "buffer" : 0,
            "byteLength" : 2760,
            "byteOffset" : 0
        },
        {
            "buffer" : 0,
            "byteLength" : 2760,
            "byteOffset" : 2760
        },
        {
            "buffer" : 0,
            "byteLength" : 1104,
            "byteOffset" : 5520
        },
        {
            "buffer" : 0,
            "byteLength" : 2880,
            "byteOffset" : 6624
        },
        {
            "buffer" : 0,
            "byteLength" : 2880,
            "byteOffset" : 9504
        },
        {
            "buffer" : 0,
            "byteLength" : 480,
            "byteOffset" : 12384
        },
        {
            "buffer" : 0,
            "byteLength" : 1632,
            "byteOffset" : 12864
        },
        {
            "buffer" : 0,
            "byteLength" : 1632,
            "byteOffset" : 14496
        },
        {
            "buffer" : 0,
            "byteLength" : 660,
            "byteOffset" : 16128
        },
        {
            "buffer" : 0,
            "byteLength" : 2880,
            "byteOffset" : 16788
        },
        {
            "buffer" : 0,
            "byteLength" : 2880,
            "byteOffset" : 19668
        },
        {
            "buffer" : 0,
            "byteLength" : 504,
            "byteOffset" : 22548
        },
        {
            "buffer" : 0,
            "byteLength" : 504,
            "byteOffset" : 23052
        },
        {
            "buffer" : 0,
            "byteLength" : 480,
            "byteOffset" : 23556
        },
        {
            "buffer" : 0,
            "byteLength" : 2856,
            "byteOffset" : 24036
        },
        {
            "buffer" : 0,
            "byteLength" : 2856,
            "byteOffset" : 26892
        },
        {
            "buffer" : 0,
            "byteLength" : 480,
            "byteOffset" : 29748
        },
        {
            "buffer" : 0,
            "byteLength" : 3408,
            "byteOffset" : 30228
        },
        {
            "buffer" : 0,
            "byteLength" : 3408,
            "byteOffset" : 33636
        },
        {
            "buffer" : 0,
            "byteLength" : 960,
            "byteOffset" : 37044
        }
    ],
    "buffers" : [
        {
            "byteLength" : 38004,
            "uri" : "data:application/octet-stream;base64,"
        }
    ]
}
