{
    "asset" : {
        "generator" : "Khronos glTF Blender I/O v1.2.75",
        "version" : "2.0"
    },
    "scene" : 0,
    "scenes" : [
        {
            "name" : "Scene",
            "nodes" : [
                0,
                1,
                2,
                3,
                4,
                5
            ]
        }
    ],
    "nodes" : [
        {
            "name" : "Light",
            "rotation" : [
                0.16907575726509094,
                0.7558803558349609,
                -0.27217137813568115,
                0.570947527885437
            ],
            "translation" : [
                4.076245307922363,
                5.903861999511719,
                -1.0054539442062378
            ]
        },
        {
            "name" : "Camera",
            "rotation" : [
                0.483536034822464,
                0.33687159419059753,
                -0.20870360732078552,
                0.7804827094078064
            ],
            "translation" : [
                7.358891487121582,
                4.958309173583984,
                6.925790786743164
            ]
        },
        {
            "name" : "Lamp",
            "rotation" : [
                0.17919191718101501,
                0.7333094477653503,
                -0.23532657325267792,
                0.612183690071106
            ],
            "scale" : [
                2.405028820037842,
                2.405028820037842,
                2.405028820037842
            ],
            "translation" : [
                39.21839904785156,
                68.64612579345703,
                -37.011802673339844
            ]
        },
        {
            "name" : "Camera.001",
            "rotation" : [
                0.38221871852874756,
                0.5898672938346863,
                -0.3359856903553009,
                0.6269602179527283
            ],
            "scale" : [
                10.802321434020996,
                10.802319526672363,
                10.802321434020996
            ],
            "translation" : [
                79.6216049194336,
                45.68517303466797,
                3.8807003498077393
            ]
        },
        {
            "mesh" : 0,
            "name" : "Cylinder.008",
            "rotation" : [
                0,
                -0.5917161107063293,
                0,
                0.8061463832855225
            ],
            "scale" : [
                1.1503419876098633,
                2.075313091278076,
                1.1503419876098633
            ],
            "translation" : [
                0.8841490149497986,
                -2.048877000808716,
                -30.296415328979492
            ]
        },
        {
            "mesh" : 1,
            "name" : "Icosphere.007",
            "rotation" : [
                0,
                0.03004319593310356,
                0,
                0.999548614025116
            ],
            "scale" : [
                3.1230838298797607,
                3.6329305171966553,
                3.35321307182312
            ]
        }
    ],
    "materials" : [
        {
            "doubleSided" : true,
            "emissiveFactor" : [
                0,
                0,
                0
            ],
            "name" : "winter wood",
            "pbrMetallicRoughness" : {
                "baseColorFactor" : [
                    0.2461947351694107,
                    0.1683536022901535,
                    0.04941513389348984,
                    1
                ],
                "metallicFactor" : 0,
                "roughnessFactor" : 0.5
            }
        },
        {
            "doubleSided" : true,
            "emissiveFactor" : [
                0,
                0,
                0
            ],
            "name" : "yellow",
            "pbrMetallicRoughness" : {
                "baseColorFactor" : [
                    1,
                    1,
                    1,
                    1
                ],
                "metallicFactor" : 0,
                "roughnessFactor" : 0.49418604373931885
            }
        }
    ],
    "meshes" : [
        {
            "name" : "Cylinder.005",
            "primitives" : [
                {
                    "attributes" : {
                        "POSITION" : 0,
                        "NORMAL" : 1
                    },
                    "indices" : 2,
                    "material" : 0
                }
            ]
        },
        {
            "name" : "Icosphere.001",
            "primitives" : [
                {
                    "attributes" : {
                        "POSITION" : 3,
                        "NORMAL" : 4
                    },
                    "indices" : 5,
                    "material" : 1
                }
            ]
        }
    ],
    "accessors" : [
        {
            "bufferView" : 0,
            "componentType" : 5126,
            "count" : 232,
            "max" : [
                1.087037444114685,
                2.0662431716918945,
                1.864173173904419
            ],
            "min" : [
                -0.9546295404434204,
                -1,
                -1.1439790725708008
            ],
            "type" : "VEC3"
        },
        {
            "bufferView" : 1,
            "componentType" : 5126,
            "count" : 232,
            "type" : "VEC3"
        },
        {
            "bufferView" : 2,
            "componentType" : 5123,
            "count" : 384,
            "type" : "SCALAR"
        },
        {
            "bufferView" : 3,
            "componentType" : 5126,
            "count" : 324,
            "max" : [
                2.3176193237304688,
                3.267472505569458,
                -7.076644420623779
            ],
            "min" : [
                -0.848392903804779,
                -0.3508089780807495,
                -10.713045120239258
            ],
            "type" : "VEC3"
        },
        {
            "bufferView" : 4,
            "componentType" : 5126,
            "count" : 324,
            "type" : "VEC3"
        },
        {
            "bufferView" : 5,
            "componentType" : 5123,
            "count" : 324,
            "type" : "SCALAR"
        }
    ],
    "bufferViews" : [
        {
            "buffer" : 0,
            "byteLength" : 2784,
            "byteOffset" : 0
        },
        {
            "buffer" : 0,
            "byteLength" : 2784,
            "byteOffset" : 2784
        },
        {
            "buffer" : 0,
            "byteLength" : 768,
            "byteOffset" : 5568
        },
        {
            "buffer" : 0,
            "byteLength" : 3888,
            "byteOffset" : 6336
        },
        {
            "buffer" : 0,
            "byteLength" : 3888,
            "byteOffset" : 10224
        },
        {
            "buffer" : 0,
            "byteLength" : 648,
            "byteOffset" : 14112
        }
    ],
    "buffers" : [
        {
            "byteLength" : 14760,
            "uri" : "data:application/octet-stream;base64,"
        }
    ]
}
