{
    "asset" : {
        "generator" : "Khronos glTF Blender I/O v1.2.75",
        "version" : "2.0"
    },
    "scene" : 0,
    "scenes" : [
        {
            "name" : "Scene",
            "nodes" : [
                0,
                1,
                2,
                3,
                4,
                5,
                6,
                7,
                8,
                9,
                10,
                11
            ]
        }
    ],
    "nodes" : [
        {
            "name" : "Camera.001",
            "rotation" : [
                0.483536034822464,
                0.33687159419059753,
                -0.20870360732078552,
                0.7804827094078064
            ],
            "translation" : [
                7.358891487121582,
                4.958309173583984,
                6.925790786743164
            ]
        },
        {
            "name" : "Lamp",
            "rotation" : [
                0.17919191718101501,
                0.7333094477653503,
                -0.23532657325267792,
                0.612183690071106
            ],
            "scale" : [
                2.405028820037842,
                2.405028820037842,
                2.405028820037842
            ],
            "translation" : [
                39.21839904785156,
                68.64612579345703,
                -37.011802673339844
            ]
        },
        {
            "name" : "Camera.002",
            "rotation" : [
                0.38221871852874756,
                0.5898672938346863,
                -0.3359856903553009,
                0.6269602179527283
            ],
            "scale" : [
                10.802321434020996,
                10.802319526672363,
                10.802321434020996
            ],
            "translation" : [
                79.6216049194336,
                45.68517303466797,
                3.8807003498077393
            ]
        },
        {
            "name" : "Lamp.001",
            "rotation" : [
                0.17919191718101501,
                0.7333094477653503,
                -0.23532657325267792,
                0.612183690071106
            ],
            "scale" : [
                2.405028820037842,
                2.405028820037842,
                2.405028820037842
            ],
            "translation" : [
                39.21839904785156,
                68.64612579345703,
                -37.011802673339844
            ]
        },
        {
            "name" : "Camera.003",
            "rotation" : [
                0.38221871852874756,
                0.5898672938346863,
                -0.3359856903553009,
                0.6269602179527283
            ],
            "scale" : [
                10.802321434020996,
                10.802319526672363,
                10.802321434020996
            ],
            "translation" : [
                79.6216049194336,
                45.68517303466797,
                3.8807003498077393
            ]
        },
        {
            "name" : "Lamp.002",
            "rotation" : [
                0.17919191718101501,
                0.7333094477653503,
                -0.23532657325267792,
                0.612183690071106
            ],
            "scale" : [
                2.405028820037842,
                2.405028820037842,
                2.405028820037842
            ],
            "translation" : [
                39.21839904785156,
                68.64612579345703,
                -37.011802673339844
            ]
        },
        {
            "name" : "Camera.004",
            "rotation" : [
                0.38221871852874756,
                0.5898672938346863,
                -0.3359856903553009,
                0.6269602179527283
            ],
            "scale" : [
                10.802321434020996,
                10.802319526672363,
                10.802321434020996
            ],
            "translation" : [
                79.6216049194336,
                45.68517303466797,
                3.8807003498077393
            ]
        },
        {
            "mesh" : 0,
            "name" : "Cylinder.001",
            "rotation" : [
                0,
                -0.4148653447628021,
                0,
                0.9098828434944153
            ],
            "scale" : [
                0.5888644456863403,
                4.832976341247559,
                0.5888644456863403
            ],
            "translation" : [
                -0.9719067215919495,
                -1.8062940835952759,
                18.28357696533203
            ]
        },
        {
            "mesh" : 1,
            "name" : "Icosphere.001",
            "rotation" : [
                -0.10325860977172852,
                -0.37086644768714905,
                -0.014564437791705132,
                0.9228128790855408
            ],
            "scale" : [
                2.0308473110198975,
                3.0819952487945557,
                2.040504217147827
            ],
            "translation" : [
                0.06172800064086914,
                4.8339433670043945,
                16.67579460144043
            ]
        },
        {
            "name" : "Camera.005",
            "rotation" : [
                0.483536034822464,
                0.33687159419059753,
                -0.20870360732078552,
                0.7804827094078064
            ],
            "translation" : [
                7.358891487121582,
                4.958309173583984,
                6.925790786743164
            ]
        },
        {
            "name" : "Light",
            "rotation" : [
                0.16907575726509094,
                0.7558803558349609,
                -0.27217137813568115,
                0.570947527885437
            ],
            "translation" : [
                4.076245307922363,
                5.903861999511719,
                -1.0054539442062378
            ]
        },
        {
            "name" : "Camera",
            "rotation" : [
                0.483536034822464,
                0.33687159419059753,
                -0.20870360732078552,
                0.7804827094078064
            ],
            "translation" : [
                7.358891487121582,
                4.958309173583984,
                6.925790786743164
            ]
        }
    ],
    "materials" : [
        {
            "doubleSided" : true,
            "emissiveFactor" : [
                0,
                0,
                0
            ],
            "name" : "winter wood.002",
            "pbrMetallicRoughness" : {
                "baseColorFactor" : [
                    0.2461947351694107,
                    0.1683536022901535,
                    0.04941513389348984,
                    1
                ],
                "metallicFactor" : 0,
                "roughnessFactor" : 0.5
            }
        },
        {
            "doubleSided" : true,
            "emissiveFactor" : [
                0,
                0,
                0
            ],
            "name" : "yellow.002",
            "pbrMetallicRoughness" : {
                "baseColorFactor" : [
                    1,
                    1,
                    1,
                    1
                ],
                "metallicFactor" : 0,
                "roughnessFactor" : 0.49418604373931885
            }
        }
    ],
    "meshes" : [
        {
            "name" : "Cylinder.001",
            "primitives" : [
                {
                    "attributes" : {
                        "POSITION" : 0,
                        "NORMAL" : 1
                    },
                    "indices" : 2,
                    "material" : 0
                }
            ]
        },
        {
            "name" : "Icosphere.003",
            "primitives" : [
                {
                    "attributes" : {
                        "POSITION" : 3,
                        "NORMAL" : 4
                    },
                    "indices" : 5,
                    "material" : 1
                }
            ]
        }
    ],
    "accessors" : [
        {
            "bufferView" : 0,
            "componentType" : 5126,
            "count" : 124,
            "max" : [
                0.866025447845459,
                1.4695158004760742,
                1
            ],
            "min" : [
                -1.6482223272323608,
                -0.5028072595596313,
                -3.1260852813720703
            ],
            "type" : "VEC3"
        },
        {
            "bufferView" : 1,
            "componentType" : 5126,
            "count" : 124,
            "type" : "VEC3"
        },
        {
            "bufferView" : 2,
            "componentType" : 5123,
            "count" : 150,
            "type" : "SCALAR"
        },
        {
            "bufferView" : 3,
            "componentType" : 5126,
            "count" : 192,
            "max" : [
                1.5422555208206177,
                1.8540241718292236,
                2.521125555038452
            ],
            "min" : [
                -1.1038130521774292,
                -0.9942751526832581,
                -0.9927976131439209
            ],
            "type" : "VEC3"
        },
        {
            "bufferView" : 4,
            "componentType" : 5126,
            "count" : 192,
            "type" : "VEC3"
        },
        {
            "bufferView" : 5,
            "componentType" : 5123,
            "count" : 192,
            "type" : "SCALAR"
        }
    ],
    "bufferViews" : [
        {
            "buffer" : 0,
            "byteLength" : 1488,
            "byteOffset" : 0
        },
        {
            "buffer" : 0,
            "byteLength" : 1488,
            "byteOffset" : 1488
        },
        {
            "buffer" : 0,
            "byteLength" : 300,
            "byteOffset" : 2976
        },
        {
            "buffer" : 0,
            "byteLength" : 2304,
            "byteOffset" : 3276
        },
        {
            "buffer" : 0,
            "byteLength" : 2304,
            "byteOffset" : 5580
        },
        {
            "buffer" : 0,
            "byteLength" : 384,
            "byteOffset" : 7884
        }
    ],
    "buffers" : [
        {
            "byteLength" : 8268,
            "uri" : "data:application/octet-stream;base64,"
        }
    ]
}
