{
    "asset" : {
        "generator" : "Khronos glTF Blender I/O v1.2.75",
        "version" : "2.0"
    },
    "scene" : 0,
    "scenes" : [
        {
            "name" : "Scene",
            "nodes" : [
                0,
                1
            ]
        }
    ],
    "nodes" : [
        {
            "mesh" : 0,
            "name" : "Cylinder"
        },
        {
            "name" : "Camera.001",
            "rotation" : [
                0.6244080662727356,
                0.17366723716259003,
                -0.16548322141170502,
                0.7433502078056335
            ],
            "translation" : [
                10.877935409545898,
                4.795795917510986,
                12.419962882995605
            ]
        }
    ],
    "materials" : [
        {
            "doubleSided" : true,
            "emissiveFactor" : [
                0,
                0,
                0
            ],
            "name" : "Material.001",
            "pbrMetallicRoughness" : {
                "baseColorFactor" : [
                    0.04954893887042999,
                    0.04954893887042999,
                    0.04954893887042999,
                    1
                ],
                "metallicFactor" : 0,
                "roughnessFactor" : 0.5
            }
        },
        {
            "doubleSided" : true,
            "emissiveFactor" : [
                0,
                0,
                0
            ],
            "name" : "Material.002",
            "pbrMetallicRoughness" : {
                "baseColorFactor" : [
                    0.800000011920929,
                    0.800000011920929,
                    0.800000011920929,
                    1
                ],
                "metallicFactor" : 0,
                "roughnessFactor" : 0.5
            }
        },
        {
            "doubleSided" : true,
            "emissiveFactor" : [
                0,
                0,
                0
            ],
            "name" : "Material.003",
            "pbrMetallicRoughness" : {
                "baseColorFactor" : [
                    0.10247339308261871,
                    0.10247339308261871,
                    0.10247339308261871,
                    1
                ],
                "metallicFactor" : 0,
                "roughnessFactor" : 0.5
            }
        }
    ],
    "meshes" : [
        {
            "name" : "Cylinder.001",
            "primitives" : [
                {
                    "attributes" : {
                        "POSITION" : 0,
                        "NORMAL" : 1,
                        "COLOR_0" : 2
                    },
                    "indices" : 3,
                    "material" : 0
                },
                {
                    "attributes" : {
                        "POSITION" : 4,
                        "NORMAL" : 5,
                        "COLOR_0" : 6
                    },
                    "indices" : 7,
                    "material" : 1
                },
                {
                    "attributes" : {
                        "POSITION" : 8,
                        "NORMAL" : 9,
                        "COLOR_0" : 10
                    },
                    "indices" : 11,
                    "material" : 2
                }
            ]
        }
    ],
    "accessors" : [
        {
            "bufferView" : 0,
            "componentType" : 5126,
            "count" : 764,
            "max" : [
                0.7778900861740112,
                4.316354751586914,
                2.899073600769043
            ],
            "min" : [
                -0.7778900861740112,
                1.2182936668395996,
                -2.261936902999878
            ],
            "type" : "VEC3"
        },
        {
            "bufferView" : 1,
            "componentType" : 5126,
            "count" : 764,
            "type" : "VEC3"
        },
        {
            "bufferView" : 2,
            "componentType" : 5126,
            "count" : 764,
            "type" : "VEC4"
        },
        {
            "bufferView" : 3,
            "componentType" : 5123,
            "count" : 1152,
            "type" : "SCALAR"
        },
        {
            "bufferView" : 4,
            "componentType" : 5126,
            "count" : 1014,
            "max" : [
                0.6874316930770874,
                4.296205043792725,
                2.899073600769043
            ],
            "min" : [
                -0.6874316930770874,
                0.009538520127534866,
                -3.299203395843506
            ],
            "type" : "VEC3"
        },
        {
            "bufferView" : 5,
            "componentType" : 5126,
            "count" : 1014,
            "type" : "VEC3"
        },
        {
            "bufferView" : 6,
            "componentType" : 5126,
            "count" : 1014,
            "type" : "VEC4"
        },
        {
            "bufferView" : 7,
            "componentType" : 5123,
            "count" : 1632,
            "type" : "SCALAR"
        },
        {
            "bufferView" : 8,
            "componentType" : 5126,
            "count" : 144,
            "max" : [
                0.7668825387954712,
                3.411825180053711,
                1.638123869895935
            ],
            "min" : [
                -0.7668825387954712,
                0.9534240961074829,
                -2.560523509979248
            ],
            "type" : "VEC3"
        },
        {
            "bufferView" : 9,
            "componentType" : 5126,
            "count" : 144,
            "type" : "VEC3"
        },
        {
            "bufferView" : 10,
            "componentType" : 5126,
            "count" : 144,
            "type" : "VEC4"
        },
        {
            "bufferView" : 11,
            "componentType" : 5123,
            "count" : 216,
            "type" : "SCALAR"
        }
    ],
    "bufferViews" : [
        {
            "buffer" : 0,
            "byteLength" : 9168,
            "byteOffset" : 0
        },
        {
            "buffer" : 0,
            "byteLength" : 9168,
            "byteOffset" : 9168
        },
        {
            "buffer" : 0,
            "byteLength" : 12224,
            "byteOffset" : 18336
        },
        {
            "buffer" : 0,
            "byteLength" : 2304,
            "byteOffset" : 30560
        },
        {
            "buffer" : 0,
            "byteLength" : 12168,
            "byteOffset" : 32864
        },
        {
            "buffer" : 0,
            "byteLength" : 12168,
            "byteOffset" : 45032
        },
        {
            "buffer" : 0,
            "byteLength" : 16224,
            "byteOffset" : 57200
        },
        {
            "buffer" : 0,
            "byteLength" : 3264,
            "byteOffset" : 73424
        },
        {
            "buffer" : 0,
            "byteLength" : 1728,
            "byteOffset" : 76688
        },
        {
            "buffer" : 0,
            "byteLength" : 1728,
            "byteOffset" : 78416
        },
        {
            "buffer" : 0,
            "byteLength" : 2304,
            "byteOffset" : 80144
        },
        {
            "buffer" : 0,
            "byteLength" : 432,
            "byteOffset" : 82448
        }
    ],
    "buffers" : [
        {
            "byteLength" : 82880,
            "uri" : "data:application/octet-stream;base64,"
        }
    ]
}
