{
    "asset" : {
        "generator" : "Khronos glTF Blender I/O v1.2.75",
        "version" : "2.0"
    },
    "scene" : 0,
    "scenes" : [
        {
            "name" : "Scene",
            "nodes" : [
                0,
                1,
                2,
                3,
                4,
                5,
                6,
                7,
                8,
                9,
                10,
                11,
                12,
                13,
                14
            ]
        }
    ],
    "nodes" : [
        {
            "name" : "Cylinder.001",
            "rotation" : [
                0.13899116218090057,
                0.10185977816581726,
                0.10497234016656876,
                0.9794319272041321
            ],
            "translation" : [
                6.219976902008057,
                -0.11197063326835632,
                -5.41154146194458
            ]
        },
        {
            "name" : "Cylinder.002",
            "rotation" : [
                0.13899116218090057,
                0.10185977816581726,
                0.10497234016656876,
                0.9794319272041321
            ],
            "translation" : [
                6.219976902008057,
                -0.11197063326835632,
                -5.41154146194458
            ]
        },
        {
            "name" : "Cylinder.003",
            "rotation" : [
                0.13899116218090057,
                0.10185977816581726,
                0.10497234016656876,
                0.9794319272041321
            ],
            "translation" : [
                6.219976902008057,
                -0.11197063326835632,
                -5.41154146194458
            ]
        },
        {
            "mesh" : 0,
            "name" : "Cylinder.004",
            "scale" : [
                0.18100182712078094,
                0.18100182712078094,
                0.18100182712078094
            ],
            "translation" : [
                -0.1448400914669037,
                1.6449297666549683,
                0.022202186286449432
            ]
        },
        {
            "mesh" : 1,
            "name" : "Sphere",
            "scale" : [
                -0.06022512912750244,
                -0.06022512912750244,
                -0.06022512912750244
            ],
            "translation" : [
                0.002759315073490143,
                1.429133415222168,
                -0.005276646465063095
            ]
        },
        {
            "mesh" : 2,
            "name" : "Cylinder",
            "scale" : [
                0.08979392051696777,
                0.08979392051696777,
                0.08979392051696777
            ],
            "translation" : [
                0.0027179718017578125,
                0.894781231880188,
                0.004739880561828613
            ]
        },
        {
            "name" : "Lamp",
            "rotation" : [
                0.16907578706741333,
                0.7558803558349609,
                -0.2721714973449707,
                0.5709474086761475
            ],
            "translation" : [
                4.076245307922363,
                5.903861999511719,
                -1.0054539442062378
            ]
        },
        {
            "name" : "Camera",
            "rotation" : [
                0.4835360646247864,
                0.33687159419059753,
                -0.20870357751846313,
                0.7804827094078064
            ],
            "translation" : [
                7.481131553649902,
                5.34366512298584,
                6.507639408111572
            ]
        },
        {
            "mesh" : 3,
            "name" : "Cylinder.005",
            "scale" : [
                0.18100182712078094,
                0.18100182712078094,
                0.18100182712078094
            ],
            "translation" : [
                -0.36114710569381714,
                1.648459553718567,
                -0.11595403403043747
            ]
        },
        {
            "mesh" : 4,
            "name" : "Cylinder.006",
            "scale" : [
                0.18100182712078094,
                0.18100182712078094,
                0.18100182712078094
            ],
            "translation" : [
                -0.247781902551651,
                1.648459553718567,
                0.26830679178237915
            ]
        },
        {
            "mesh" : 5,
            "name" : "Cylinder.007",
            "scale" : [
                0.18100182712078094,
                0.18100182712078094,
                0.18100182712078094
            ],
            "translation" : [
                -0.4341889023780823,
                1.6768403053283691,
                0.22169245779514313
            ]
        },
        {
            "mesh" : 6,
            "name" : "Cylinder.008",
            "scale" : [
                0.18100182712078094,
                0.18100182712078094,
                0.18100182712078094
            ],
            "translation" : [
                -0.47813719511032104,
                1.6310971975326538,
                0.06992598623037338
            ]
        },
        {
            "mesh" : 7,
            "name" : "Cylinder.009",
            "rotation" : [
                -0.28439950942993164,
                0.16902340948581696,
                0.5305770039558411,
                0.7804076075553894
            ],
            "scale" : [
                0.021127324551343918,
                0.021127333864569664,
                0.021127330139279366
            ],
            "translation" : [
                -0.1700001358985901,
                0.7569736242294312,
                -0.05226047337055206
            ]
        },
        {
            "mesh" : 8,
            "name" : "Cylinder.010",
            "rotation" : [
                0.5350929498672485,
                0.6568484306335449,
                -0.3139554560184479,
                0.4285529851913452
            ],
            "scale" : [
                0.023302437737584114,
                0.023302443325519562,
                0.023302443325519562
            ],
            "translation" : [
                0.24733184278011322,
                1.086976170539856,
                0.06552211940288544
            ]
        },
        {
            "name" : "Cylinder.023",
            "rotation" : [
                0.13899113237857819,
                0.10185976326465607,
                0.10497233271598816,
                0.9794319272041321
            ],
            "translation" : [
                6.219976902008057,
                -0.11197063326835632,
                -5.41154146194458
            ]
        }
    ],
    "materials" : [
        {
            "doubleSided" : true,
            "emissiveFactor" : [
                0,
                0,
                0
            ],
            "name" : "Material.037",
            "pbrMetallicRoughness" : {
                "baseColorFactor" : [
                    0.8000000715255737,
                    0.051674410700798035,
                    0.07234399765729904,
                    1
                ],
                "metallicFactor" : 0,
                "roughnessFactor" : 0.690034806728363
            }
        },
        {
            "doubleSided" : true,
            "emissiveFactor" : [
                0,
                0,
                0
            ],
            "name" : "Material.038",
            "pbrMetallicRoughness" : {
                "baseColorFactor" : [
                    0.8000000715255737,
                    0.35865721106529236,
                    0.011298923753201962,
                    1
                ],
                "metallicFactor" : 0,
                "roughnessFactor" : 0.690034806728363
            }
        },
        {
            "doubleSided" : true,
            "emissiveFactor" : [
                0,
                0,
                0
            ],
            "name" : "Material.039",
            "pbrMetallicRoughness" : {
                "baseColorFactor" : [
                    0.36615702509880066,
                    0.8000000715255737,
                    0.08665655553340912,
                    1
                ],
                "metallicFactor" : 0,
                "roughnessFactor" : 0.690034806728363
            }
        },
        {
            "doubleSided" : true,
            "emissiveFactor" : [
                0,
                0,
                0
            ],
            "name" : "Material.040",
            "pbrMetallicRoughness" : {
                "baseColorFactor" : [
                    0.8000000715255737,
                    0.04723229631781578,
                    0.061615657061338425,
                    1
                ],
                "metallicFactor" : 0,
                "roughnessFactor" : 0.690034806728363
            }
        },
        {
            "doubleSided" : true,
            "emissiveFactor" : [
                0,
                0,
                0
            ],
            "name" : "Material.041",
            "pbrMetallicRoughness" : {
                "baseColorFactor" : [
                    0.8000000715255737,
                    0.01086325291544199,
                    0.05342831462621689,
                    1
                ],
                "metallicFactor" : 0,
                "roughnessFactor" : 0.690034806728363
            }
        },
        {
            "doubleSided" : true,
            "emissiveFactor" : [
                0,
                0,
                0
            ],
            "name" : "Material.042",
            "pbrMetallicRoughness" : {
                "baseColorFactor" : [
                    0.8000000715255737,
                    0.03273190185427666,
                    0.06905633956193924,
                    1
                ],
                "metallicFactor" : 0,
                "roughnessFactor" : 0.690034806728363
            }
        },
        {
            "doubleSided" : true,
            "emissiveFactor" : [
                0,
                0,
                0
            ],
            "name" : "Material.043",
            "pbrMetallicRoughness" : {
                "baseColorFactor" : [
                    0.8000000715255737,
                    0.029590360820293427,
                    0.058954816311597824,
                    1
                ],
                "metallicFactor" : 0,
                "roughnessFactor" : 0.690034806728363
            }
        },
        {
            "doubleSided" : true,
            "emissiveFactor" : [
                0,
                0,
                0
            ],
            "name" : "Material.044",
            "pbrMetallicRoughness" : {
                "baseColorFactor" : [
                    0.36615702509880066,
                    0.8000000715255737,
                    0.08665655553340912,
                    1
                ],
                "metallicFactor" : 0,
                "roughnessFactor" : 0.690034806728363
            }
        },
        {
            "doubleSided" : true,
            "emissiveFactor" : [
                0,
                0,
                0
            ],
            "name" : "Material.045",
            "pbrMetallicRoughness" : {
                "baseColorFactor" : [
                    0.36615702509880066,
                    0.8000000715255737,
                    0.08665655553340912,
                    1
                ],
                "metallicFactor" : 0,
                "roughnessFactor" : 0.690034806728363
            }
        }
    ],
    "meshes" : [
        {
            "name" : "Cylinder.129",
            "primitives" : [
                {
                    "attributes" : {
                        "POSITION" : 0,
                        "NORMAL" : 1
                    },
                    "indices" : 2,
                    "material" : 0
                }
            ]
        },
        {
            "name" : "Sphere.094",
            "primitives" : [
                {
                    "attributes" : {
                        "POSITION" : 3,
                        "NORMAL" : 4
                    },
                    "indices" : 5,
                    "material" : 1
                }
            ]
        },
        {
            "name" : "Cylinder.130",
            "primitives" : [
                {
                    "attributes" : {
                        "POSITION" : 6,
                        "NORMAL" : 7
                    },
                    "indices" : 8,
                    "material" : 2
                }
            ]
        },
        {
            "name" : "Cylinder.131",
            "primitives" : [
                {
                    "attributes" : {
                        "POSITION" : 9,
                        "NORMAL" : 10
                    },
                    "indices" : 2,
                    "material" : 3
                }
            ]
        },
        {
            "name" : "Cylinder.132",
            "primitives" : [
                {
                    "attributes" : {
                        "POSITION" : 11,
                        "NORMAL" : 12
                    },
                    "indices" : 2,
                    "material" : 4
                }
            ]
        },
        {
            "name" : "Cylinder.133",
            "primitives" : [
                {
                    "attributes" : {
                        "POSITION" : 13,
                        "NORMAL" : 14
                    },
                    "indices" : 2,
                    "material" : 5
                }
            ]
        },
        {
            "name" : "Cylinder.134",
            "primitives" : [
                {
                    "attributes" : {
                        "POSITION" : 15,
                        "NORMAL" : 16
                    },
                    "indices" : 2,
                    "material" : 6
                }
            ]
        },
        {
            "name" : "Cylinder.135",
            "primitives" : [
                {
                    "attributes" : {
                        "POSITION" : 17,
                        "NORMAL" : 18
                    },
                    "indices" : 8,
                    "material" : 7
                }
            ]
        },
        {
            "name" : "Cylinder.136",
            "primitives" : [
                {
                    "attributes" : {
                        "POSITION" : 19,
                        "NORMAL" : 20
                    },
                    "indices" : 8,
                    "material" : 8
                }
            ]
        }
    ],
    "accessors" : [
        {
            "bufferView" : 0,
            "componentType" : 5126,
            "count" : 64,
            "max" : [
                2.818052053451538,
                -1.0559324026107788,
                0.6628706455230713
            ],
            "min" : [
                0.8180519938468933,
                -1.1890714168548584,
                -1.3371294736862183
            ],
            "type" : "VEC3"
        },
        {
            "bufferView" : 1,
            "componentType" : 5126,
            "count" : 64,
            "type" : "VEC3"
        },
        {
            "bufferView" : 2,
            "componentType" : 5123,
            "count" : 372,
            "type" : "SCALAR"
        },
        {
            "bufferView" : 3,
            "componentType" : 5126,
            "count" : 482,
            "max" : [
                1.000000238418579,
                1,
                1.0000003576278687
            ],
            "min" : [
                -0.9999998211860657,
                -1,
                -0.9999991655349731
            ],
            "type" : "VEC3"
        },
        {
            "bufferView" : 4,
            "componentType" : 5126,
            "count" : 482,
            "type" : "VEC3"
        },
        {
            "bufferView" : 5,
            "componentType" : 5123,
            "count" : 2880,
            "type" : "SCALAR"
        },
        {
            "bufferView" : 6,
            "componentType" : 5126,
            "count" : 256,
            "max" : [
                1.1287529468536377,
                5.8562445640563965,
                1.1744606494903564
            ],
            "min" : [
                -1,
                -10.269824028015137,
                -1.466525912284851
            ],
            "type" : "VEC3"
        },
        {
            "bufferView" : 7,
            "componentType" : 5126,
            "count" : 256,
            "type" : "VEC3"
        },
        {
            "bufferView" : 8,
            "componentType" : 5123,
            "count" : 1524,
            "type" : "SCALAR"
        },
        {
            "bufferView" : 9,
            "componentType" : 5126,
            "count" : 64,
            "max" : [
                2.818052053451538,
                -1.0559324026107788,
                0.6628706455230713
            ],
            "min" : [
                0.8180519938468933,
                -1.1890714168548584,
                -1.3371294736862183
            ],
            "type" : "VEC3"
        },
        {
            "bufferView" : 10,
            "componentType" : 5126,
            "count" : 64,
            "type" : "VEC3"
        },
        {
            "bufferView" : 11,
            "componentType" : 5126,
            "count" : 64,
            "max" : [
                2.818052053451538,
                -1.0559324026107788,
                0.6628706455230713
            ],
            "min" : [
                0.8180519938468933,
                -1.1890714168548584,
                -1.3371294736862183
            ],
            "type" : "VEC3"
        },
        {
            "bufferView" : 12,
            "componentType" : 5126,
            "count" : 64,
            "type" : "VEC3"
        },
        {
            "bufferView" : 13,
            "componentType" : 5126,
            "count" : 64,
            "max" : [
                2.818052053451538,
                -1.0559324026107788,
                0.6628706455230713
            ],
            "min" : [
                0.8180519938468933,
                -1.1890714168548584,
                -1.3371294736862183
            ],
            "type" : "VEC3"
        },
        {
            "bufferView" : 14,
            "componentType" : 5126,
            "count" : 64,
            "type" : "VEC3"
        },
        {
            "bufferView" : 15,
            "componentType" : 5126,
            "count" : 64,
            "max" : [
                2.818052053451538,
                -1.0559324026107788,
                0.6628706455230713
            ],
            "min" : [
                0.8180519938468933,
                -1.1890714168548584,
                -1.3371294736862183
            ],
            "type" : "VEC3"
        },
        {
            "bufferView" : 16,
            "componentType" : 5126,
            "count" : 64,
            "type" : "VEC3"
        },
        {
            "bufferView" : 17,
            "componentType" : 5126,
            "count" : 256,
            "max" : [
                1.1287529468536377,
                5.8562445640563965,
                1.1744606494903564
            ],
            "min" : [
                -1,
                -10.269824028015137,
                -1.466525912284851
            ],
            "type" : "VEC3"
        },
        {
            "bufferView" : 18,
            "componentType" : 5126,
            "count" : 256,
            "type" : "VEC3"
        },
        {
            "bufferView" : 19,
            "componentType" : 5126,
            "count" : 256,
            "max" : [
                1.1287529468536377,
                5.8562445640563965,
                1.1744606494903564
            ],
            "min" : [
                -1,
                -10.269824028015137,
                -1.466525912284851
            ],
            "type" : "VEC3"
        },
        {
            "bufferView" : 20,
            "componentType" : 5126,
            "count" : 256,
            "type" : "VEC3"
        }
    ],
    "bufferViews" : [
        {
            "buffer" : 0,
            "byteLength" : 768,
            "byteOffset" : 0
        },
        {
            "buffer" : 0,
            "byteLength" : 768,
            "byteOffset" : 768
        },
        {
            "buffer" : 0,
            "byteLength" : 744,
            "byteOffset" : 1536
        },
        {
            "buffer" : 0,
            "byteLength" : 5784,
            "byteOffset" : 2280
        },
        {
            "buffer" : 0,
            "byteLength" : 5784,
            "byteOffset" : 8064
        },
        {
            "buffer" : 0,
            "byteLength" : 5760,
            "byteOffset" : 13848
        },
        {
            "buffer" : 0,
            "byteLength" : 3072,
            "byteOffset" : 19608
        },
        {
            "buffer" : 0,
            "byteLength" : 3072,
            "byteOffset" : 22680
        },
        {
            "buffer" : 0,
            "byteLength" : 3048,
            "byteOffset" : 25752
        },
        {
            "buffer" : 0,
            "byteLength" : 768,
            "byteOffset" : 28800
        },
        {
            "buffer" : 0,
            "byteLength" : 768,
            "byteOffset" : 29568
        },
        {
            "buffer" : 0,
            "byteLength" : 768,
            "byteOffset" : 30336
        },
        {
            "buffer" : 0,
            "byteLength" : 768,
            "byteOffset" : 31104
        },
        {
            "buffer" : 0,
            "byteLength" : 768,
            "byteOffset" : 31872
        },
        {
            "buffer" : 0,
            "byteLength" : 768,
            "byteOffset" : 32640
        },
        {
            "buffer" : 0,
            "byteLength" : 768,
            "byteOffset" : 33408
        },
        {
            "buffer" : 0,
            "byteLength" : 768,
            "byteOffset" : 34176
        },
        {
            "buffer" : 0,
            "byteLength" : 3072,
            "byteOffset" : 34944
        },
        {
            "buffer" : 0,
            "byteLength" : 3072,
            "byteOffset" : 38016
        },
        {
            "buffer" : 0,
            "byteLength" : 3072,
            "byteOffset" : 41088
        },
        {
            "buffer" : 0,
            "byteLength" : 3072,
            "byteOffset" : 44160
        }
    ],
    "buffers" : [
        {
            "byteLength" : 47232,
            "uri" : "data:application/octet-stream;base64,"
        }
    ]
}
