{
    "asset" : {
        "generator" : "Khronos glTF Blender I/O v1.2.75",
        "version" : "2.0"
    },
    "scene" : 0,
    "scenes" : [
        {
            "name" : "Scene",
            "nodes" : [
                0
            ]
        }
    ],
    "nodes" : [
        {
            "mesh" : 0,
            "name" : "low poly tree",
            "rotation" : [
                0.7071068286895752,
                0,
                0,
                0.7071067094802856
            ]
        }
    ],
    "materials" : [
        {
            "doubleSided" : true,
            "emissiveFactor" : [
                0,
                0,
                0
            ],
            "name" : "Mat_1.001",
            "pbrMetallicRoughness" : {
                "baseColorFactor" : [
                    0.8000000715255737,
                    0.10697928816080093,
                    0.017356785014271736,
                    1
                ],
                "metallicFactor" : 0,
                "roughnessFactor" : 0.4000000059604645
            }
        },
        {
            "doubleSided" : true,
            "emissiveFactor" : [
                0,
                0,
                0
            ],
            "name" : "Mat.001",
            "pbrMetallicRoughness" : {
                "baseColorFactor" : [
                    0.007418750319629908,
                    0.8000000715255737,
                    0.010482138954102993,
                    1
                ],
                "metallicFactor" : 0,
                "roughnessFactor" : 0.4000000059604645
            }
        }
    ],
    "meshes" : [
        {
            "name" : "low poly tree.001",
            "primitives" : [
                {
                    "attributes" : {
                        "POSITION" : 0,
                        "NORMAL" : 1,
                        "TEXCOORD_0" : 2
                    },
                    "indices" : 3,
                    "material" : 0
                },
                {
                    "attributes" : {
                        "POSITION" : 4,
                        "NORMAL" : 5,
                        "TEXCOORD_0" : 6
                    },
                    "indices" : 7,
                    "material" : 1
                }
            ]
        }
    ],
    "accessors" : [
        {
            "bufferView" : 0,
            "componentType" : 5126,
            "count" : 344,
            "max" : [
                10.296769142150879,
                10.296769142150879,
                0
            ],
            "min" : [
                -10.61943531036377,
                -10.61943531036377,
                -200
            ],
            "type" : "VEC3"
        },
        {
            "bufferView" : 1,
            "componentType" : 5126,
            "count" : 344,
            "type" : "VEC3"
        },
        {
            "bufferView" : 2,
            "componentType" : 5126,
            "count" : 344,
            "type" : "VEC2"
        },
        {
            "bufferView" : 3,
            "componentType" : 5123,
            "count" : 540,
            "type" : "SCALAR"
        },
        {
            "bufferView" : 4,
            "componentType" : 5126,
            "count" : 600,
            "max" : [
                71.03226470947266,
                69.05451965332031,
                -143.7902374267578
            ],
            "min" : [
                -68.65126037597656,
                -71.39424133300781,
                -401.7417297363281
            ],
            "type" : "VEC3"
        },
        {
            "bufferView" : 5,
            "componentType" : 5126,
            "count" : 600,
            "type" : "VEC3"
        },
        {
            "bufferView" : 6,
            "componentType" : 5126,
            "count" : 600,
            "type" : "VEC2"
        },
        {
            "bufferView" : 7,
            "componentType" : 5123,
            "count" : 600,
            "type" : "SCALAR"
        }
    ],
    "bufferViews" : [
        {
            "buffer" : 0,
            "byteLength" : 4128,
            "byteOffset" : 0
        },
        {
            "buffer" : 0,
            "byteLength" : 4128,
            "byteOffset" : 4128
        },
        {
            "buffer" : 0,
            "byteLength" : 2752,
            "byteOffset" : 8256
        },
        {
            "buffer" : 0,
            "byteLength" : 1080,
            "byteOffset" : 11008
        },
        {
            "buffer" : 0,
            "byteLength" : 7200,
            "byteOffset" : 12088
        },
        {
            "buffer" : 0,
            "byteLength" : 7200,
            "byteOffset" : 19288
        },
        {
            "buffer" : 0,
            "byteLength" : 4800,
            "byteOffset" : 26488
        },
        {
            "buffer" : 0,
            "byteLength" : 1200,
            "byteOffset" : 31288
        }
    ],
    "buffers" : [
        {
            "byteLength" : 32488,
            "uri" : "data:application/octet-stream;base64,"
        }
    ]
}
