{
    "asset" : {
        "generator" : "Khronos glTF Blender I/O v1.2.75",
        "version" : "2.0"
    },
    "scene" : 0,
    "scenes" : [
        {
            "name" : "Scene",
            "nodes" : [
                0,
                1
            ]
        }
    ],
    "nodes" : [
        {
            "mesh" : 0,
            "name" : "Hedra001",
            "scale" : [
                0.009999999776482582,
                0.009999999776482582,
                0.009999999776482582
            ],
            "translation" : [
                -0.026022864505648613,
                0.5583284497261047,
                0.0460093691945076
            ]
        },
        {
            "mesh" : 1,
            "name" : "Cylinder002",
            "scale" : [
                0.009999999776482582,
                0.009999999776482582,
                0.009999999776482582
            ],
            "translation" : [
                -0.006709340028464794,
                0,
                0.02530548721551895
            ]
        }
    ],
    "materials" : [
        {
            "doubleSided" : true,
            "emissiveFactor" : [
                0,
                0,
                0
            ],
            "name" : "Material #47",
            "pbrMetallicRoughness" : {
                "baseColorFactor" : [
                    0.3803921937942505,
                    0.9529412388801575,
                    0,
                    1
                ],
                "metallicFactor" : 0,
                "roughnessFactor" : 0.5527864098548889
            }
        },
        {
            "doubleSided" : true,
            "emissiveFactor" : [
                0,
                0,
                0
            ],
            "name" : "Material #49",
            "pbrMetallicRoughness" : {
                "baseColorFactor" : [
                    0.5879999995231628,
                    0.5879999995231628,
                    0.5879999995231628,
                    1
                ],
                "metallicFactor" : 0,
                "roughnessFactor" : 0.858578622341156
            }
        },
        {
            "doubleSided" : true,
            "emissiveFactor" : [
                0,
                0,
                0
            ],
            "name" : "Material #48",
            "pbrMetallicRoughness" : {
                "baseColorFactor" : [
                    0.7098039388656616,
                    0.13333334028720856,
                    0,
                    1
                ],
                "metallicFactor" : 0,
                "roughnessFactor" : 0.5527864098548889
            }
        }
    ],
    "meshes" : [
        {
            "name" : "Mesh",
            "primitives" : [
                {
                    "attributes" : {
                        "POSITION" : 0,
                        "NORMAL" : 1,
                        "TEXCOORD_0" : 2
                    },
                    "indices" : 3,
                    "material" : 0
                }
            ]
        },
        {
            "name" : "Mesh.001",
            "primitives" : [
                {
                    "attributes" : {
                        "POSITION" : 4,
                        "NORMAL" : 5,
                        "TEXCOORD_0" : 6
                    },
                    "indices" : 7,
                    "material" : 1
                },
                {
                    "attributes" : {
                        "POSITION" : 8,
                        "NORMAL" : 9,
                        "TEXCOORD_0" : 10
                    },
                    "indices" : 11,
                    "material" : 2
                }
            ]
        }
    ],
    "accessors" : [
        {
            "bufferView" : 0,
            "componentType" : 5126,
            "count" : 180,
            "max" : [
                31.964780807495117,
                65.55337524414062,
                34.63419723510742
            ],
            "min" : [
                -33.82932662963867,
                -0.24073028564453125,
                -32.95267105102539
            ],
            "type" : "VEC3"
        },
        {
            "bufferView" : 1,
            "componentType" : 5126,
            "count" : 180,
            "type" : "VEC3"
        },
        {
            "bufferView" : 2,
            "componentType" : 5126,
            "count" : 180,
            "type" : "VEC2"
        },
        {
            "bufferView" : 3,
            "componentType" : 5123,
            "count" : 348,
            "type" : "SCALAR"
        },
        {
            "bufferView" : 4,
            "componentType" : 5126,
            "count" : 25,
            "max" : [
                9.315923690795898,
                71.70936584472656,
                3.0133585929870605
            ],
            "min" : [
                -3.0788846015930176,
                58.39060974121094,
                -3.0133581161499023
            ],
            "type" : "VEC3"
        },
        {
            "bufferView" : 5,
            "componentType" : 5126,
            "count" : 25,
            "type" : "VEC3"
        },
        {
            "bufferView" : 6,
            "componentType" : 5126,
            "count" : 25,
            "type" : "VEC2"
        },
        {
            "bufferView" : 7,
            "componentType" : 5123,
            "count" : 39,
            "type" : "SCALAR"
        },
        {
            "bufferView" : 8,
            "componentType" : 5126,
            "count" : 77,
            "max" : [
                12.920178413391113,
                62.563568115234375,
                6.164370536804199
            ],
            "min" : [
                -9.966758728027344,
                0,
                -6.164371490478516
            ],
            "type" : "VEC3"
        },
        {
            "bufferView" : 9,
            "componentType" : 5126,
            "count" : 77,
            "type" : "VEC3"
        },
        {
            "bufferView" : 10,
            "componentType" : 5126,
            "count" : 77,
            "type" : "VEC2"
        },
        {
            "bufferView" : 11,
            "componentType" : 5123,
            "count" : 129,
            "type" : "SCALAR"
        }
    ],
    "bufferViews" : [
        {
            "buffer" : 0,
            "byteLength" : 2160,
            "byteOffset" : 0
        },
        {
            "buffer" : 0,
            "byteLength" : 2160,
            "byteOffset" : 2160
        },
        {
            "buffer" : 0,
            "byteLength" : 1440,
            "byteOffset" : 4320
        },
        {
            "buffer" : 0,
            "byteLength" : 696,
            "byteOffset" : 5760
        },
        {
            "buffer" : 0,
            "byteLength" : 300,
            "byteOffset" : 6456
        },
        {
            "buffer" : 0,
            "byteLength" : 300,
            "byteOffset" : 6756
        },
        {
            "buffer" : 0,
            "byteLength" : 200,
            "byteOffset" : 7056
        },
        {
            "buffer" : 0,
            "byteLength" : 78,
            "byteOffset" : 7256
        },
        {
            "buffer" : 0,
            "byteLength" : 924,
            "byteOffset" : 7336
        },
        {
            "buffer" : 0,
            "byteLength" : 924,
            "byteOffset" : 8260
        },
        {
            "buffer" : 0,
            "byteLength" : 616,
            "byteOffset" : 9184
        },
        {
            "buffer" : 0,
            "byteLength" : 258,
            "byteOffset" : 9800
        }
    ],
    "buffers" : [
        {
            "byteLength" : 10060,
            "uri" : "data:application/octet-stream;base64,"
        }
    ]
}
