{
    "asset" : {
        "generator" : "Khronos glTF Blender I/O v1.2.75",
        "version" : "2.0"
    },
    "scene" : 0,
    "scenes" : [
        {
            "name" : "Scene",
            "nodes" : [
                0
            ]
        }
    ],
    "nodes" : [
        {
            "mesh" : 0,
            "name" : "BEE",
            "rotation" : [
                0.7071068286895752,
                0,
                0,
                0.7071067094802856
            ]
        }
    ],
    "materials" : [
        {
            "doubleSided" : true,
            "emissiveFactor" : [
                0,
                0,
                0
            ],
            "name" : "Default OBJ.001",
            "pbrMetallicRoughness" : {
                "baseColorFactor" : [
                    0.3568683862686157,
                    0.0886445865035057,
                    0.8000000715255737,
                    1
                ],
                "metallicFactor" : 0,
                "roughnessFactor" : 0.4000000059604645
            }
        }
    ],
    "meshes" : [
        {
            "name" : "BEE.001",
            "primitives" : [
                {
                    "attributes" : {
                        "POSITION" : 0,
                        "NORMAL" : 1,
                        "TEXCOORD_0" : 2
                    },
                    "indices" : 3,
                    "material" : 0
                }
            ]
        }
    ],
    "accessors" : [
        {
            "bufferView" : 0,
            "componentType" : 5126,
            "count" : 2317,
            "max" : [
                0.007507959846407175,
                0.00600337004289031,
                0.005007040221244097
            ],
            "min" : [
                -0.007507959846407175,
                -0.007212670054286718,
                -0.006940850056707859
            ],
            "type" : "VEC3"
        },
        {
            "bufferView" : 1,
            "componentType" : 5126,
            "count" : 2317,
            "type" : "VEC3"
        },
        {
            "bufferView" : 2,
            "componentType" : 5126,
            "count" : 2317,
            "type" : "VEC2"
        },
        {
            "bufferView" : 3,
            "componentType" : 5123,
            "count" : 9600,
            "type" : "SCALAR"
        }
    ],
    "bufferViews" : [
        {
            "buffer" : 0,
            "byteLength" : 27804,
            "byteOffset" : 0
        },
        {
            "buffer" : 0,
            "byteLength" : 27804,
            "byteOffset" : 27804
        },
        {
            "buffer" : 0,
            "byteLength" : 18536,
            "byteOffset" : 55608
        },
        {
            "buffer" : 0,
            "byteLength" : 19200,
            "byteOffset" : 74144
        }
    ],
    "buffers" : [
        {
            "byteLength" : 93344,
            "uri" : "data:application/octet-stream;base64,"
        }
    ]
}
