{
    "asset" : {
        "generator" : "Khronos glTF Blender I/O v1.2.75",
        "version" : "2.0"
    },
    "scene" : 0,
    "scenes" : [
        {
            "name" : "Scene",
            "nodes" : [
                0,
                1,
                2
            ]
        }
    ],
    "nodes" : [
        {
            "name" : "Cylinder.001",
            "rotation" : [
                0.13899116218090057,
                0.10185977816581726,
                0.10497234016656876,
                0.9794319272041321
            ],
            "translation" : [
                6.219976902008057,
                -0.11197063326835632,
                -5.41154146194458
            ]
        },
        {
            "mesh" : 0,
            "name" : "MONARCH",
            "rotation" : [
                0.7071068286895752,
                0,
                0,
                0.7071067094802856
            ]
        },
        {
            "name" : "Cylinder.023",
            "rotation" : [
                0.13899113237857819,
                0.10185976326465607,
                0.10497233271598816,
                0.9794319272041321
            ],
            "translation" : [
                6.219976902008057,
                -0.11197063326835632,
                -5.41154146194458
            ]
        }
    ],
    "materials" : [
        {
            "doubleSided" : true,
            "emissiveFactor" : [
                0,
                0,
                0
            ],
            "name" : "Default OBJ.003",
            "pbrMetallicRoughness" : {
                "baseColorFactor" : [
                    0.8000000715255737,
                    0.0616459846496582,
                    0.49034327268600464,
                    1
                ],
                "metallicFactor" : 0,
                "roughnessFactor" : 0.4000000059604645
            }
        }
    ],
    "meshes" : [
        {
            "name" : "MONARCH.001",
            "primitives" : [
                {
                    "attributes" : {
                        "POSITION" : 0,
                        "NORMAL" : 1,
                        "TEXCOORD_0" : 2
                    },
                    "indices" : 3,
                    "material" : 0
                }
            ]
        }
    ],
    "accessors" : [
        {
            "bufferView" : 0,
            "componentType" : 5126,
            "count" : 2145,
            "max" : [
                0.039720501750707626,
                0.017992999404668808,
                0.004622550215572119
            ],
            "min" : [
                -0.039720501750707626,
                -0.017992999404668808,
                -0.004622550215572119
            ],
            "type" : "VEC3"
        },
        {
            "bufferView" : 1,
            "componentType" : 5126,
            "count" : 2145,
            "type" : "VEC3"
        },
        {
            "bufferView" : 2,
            "componentType" : 5126,
            "count" : 2145,
            "type" : "VEC2"
        },
        {
            "bufferView" : 3,
            "componentType" : 5123,
            "count" : 8328,
            "type" : "SCALAR"
        }
    ],
    "bufferViews" : [
        {
            "buffer" : 0,
            "byteLength" : 25740,
            "byteOffset" : 0
        },
        {
            "buffer" : 0,
            "byteLength" : 25740,
            "byteOffset" : 25740
        },
        {
            "buffer" : 0,
            "byteLength" : 17160,
            "byteOffset" : 51480
        },
        {
            "buffer" : 0,
            "byteLength" : 16656,
            "byteOffset" : 68640
        }
    ],
    "buffers" : [
        {
            "byteLength" : 85296,
            "uri" : "data:application/octet-stream;base64,"
        }
    ]
}
