{
    "asset" : {
        "generator" : "Khronos glTF Blender I/O v1.2.75",
        "version" : "2.0"
    },
    "scene" : 0,
    "scenes" : [
        {
            "name" : "Scene",
            "nodes" : [
                0
            ]
        }
    ],
    "nodes" : [
        {
            "mesh" : 0,
            "name" : "Cube",
            "scale" : [
                1.1306747198104858,
                1.9048120975494385,
                1.1306747198104858
            ],
            "translation" : [
                0,
                1.7397873401641846,
                0
            ]
        }
    ],
    "materials" : [
        {
            "doubleSided" : true,
            "emissiveFactor" : [
                0,
                0,
                0
            ],
            "name" : "Material.002",
            "pbrMetallicRoughness" : {
                "baseColorFactor" : [
                    0.29613831639289856,
                    0.09084172546863556,
                    0.014443841762840748,
                    1
                ],
                "metallicFactor" : 0,
                "roughnessFactor" : 0.690034806728363
            }
        },
        {
            "doubleSided" : true,
            "emissiveFactor" : [
                0,
                0,
                0
            ],
            "name" : "Material.003",
            "pbrMetallicRoughness" : {
                "baseColorFactor" : [
                    0.0800110250711441,
                    0.07572392374277115,
                    0.07572392374277115,
                    1
                ],
                "metallicFactor" : 0,
                "roughnessFactor" : 0.690034806728363
            }
        },
        {
            "doubleSided" : true,
            "emissiveFactor" : [
                0,
                0,
                0
            ],
            "name" : "Material.004",
            "pbrMetallicRoughness" : {
                "baseColorFactor" : [
                    0.5814623236656189,
                    0.2951161563396454,
                    0.10564309358596802,
                    1
                ],
                "metallicFactor" : 0,
                "roughnessFactor" : 0.690034806728363
            }
        },
        {
            "doubleSided" : true,
            "emissiveFactor" : [
                0,
                0,
                0
            ],
            "name" : "Material.005",
            "pbrMetallicRoughness" : {
                "baseColorFactor" : [
                    0.10224173218011856,
                    0.02518685907125473,
                    0.005605391692370176,
                    1
                ],
                "metallicFactor" : 0,
                "roughnessFactor" : 0.690034806728363
            }
        },
        {
            "doubleSided" : true,
            "emissiveFactor" : [
                0,
                0,
                0
            ],
            "name" : "Material.006",
            "pbrMetallicRoughness" : {
                "baseColorFactor" : [
                    0.06071895360946655,
                    0.012585083022713661,
                    0.0020368092227727175,
                    1
                ],
                "metallicFactor" : 0,
                "roughnessFactor" : 0.690034806728363
            }
        }
    ],
    "meshes" : [
        {
            "name" : "Cube.001",
            "primitives" : [
                {
                    "attributes" : {
                        "POSITION" : 0,
                        "NORMAL" : 1
                    },
                    "indices" : 2,
                    "material" : 0
                },
                {
                    "attributes" : {
                        "POSITION" : 3,
                        "NORMAL" : 4
                    },
                    "indices" : 5,
                    "material" : 1
                },
                {
                    "attributes" : {
                        "POSITION" : 6,
                        "NORMAL" : 7
                    },
                    "indices" : 8,
                    "material" : 2
                },
                {
                    "attributes" : {
                        "POSITION" : 9,
                        "NORMAL" : 10
                    },
                    "indices" : 11,
                    "material" : 3
                },
                {
                    "attributes" : {
                        "POSITION" : 12,
                        "NORMAL" : 13
                    },
                    "indices" : 14,
                    "material" : 4
                }
            ]
        }
    ],
    "accessors" : [
        {
            "bufferView" : 0,
            "componentType" : 5126,
            "count" : 840,
            "max" : [
                1.3045732975006104,
                0.9505071640014648,
                1.3282866477966309
            ],
            "min" : [
                -1.289914846420288,
                -0.9391655921936035,
                -1.3266544342041016
            ],
            "type" : "VEC3"
        },
        {
            "bufferView" : 1,
            "componentType" : 5126,
            "count" : 840,
            "type" : "VEC3"
        },
        {
            "bufferView" : 2,
            "componentType" : 5123,
            "count" : 1560,
            "type" : "SCALAR"
        },
        {
            "bufferView" : 3,
            "componentType" : 5126,
            "count" : 208,
            "max" : [
                1.44903564453125,
                0.12431715428829193,
                1.4735788106918335
            ],
            "min" : [
                -1.434004306793213,
                -0.12538565695285797,
                -1.4719051122665405
            ],
            "type" : "VEC3"
        },
        {
            "bufferView" : 4,
            "componentType" : 5126,
            "count" : 208,
            "type" : "VEC3"
        },
        {
            "bufferView" : 5,
            "componentType" : 5123,
            "count" : 432,
            "type" : "SCALAR"
        },
        {
            "bufferView" : 6,
            "componentType" : 5126,
            "count" : 72,
            "max" : [
                1.3045732975006104,
                0.7898237705230713,
                1.3282866477966309
            ],
            "min" : [
                -1.289914846420288,
                -0.8084185123443604,
                -1.3266544342041016
            ],
            "type" : "VEC3"
        },
        {
            "bufferView" : 7,
            "componentType" : 5126,
            "count" : 72,
            "type" : "VEC3"
        },
        {
            "bufferView" : 8,
            "componentType" : 5123,
            "count" : 120,
            "type" : "SCALAR"
        },
        {
            "bufferView" : 9,
            "componentType" : 5126,
            "count" : 60,
            "max" : [
                1.0239689350128174,
                0.8689283728599548,
                1.0422555208206177
            ],
            "min" : [
                -1.01174795627594,
                -0.8689283728599548,
                -1.0408947467803955
            ],
            "type" : "VEC3"
        },
        {
            "bufferView" : 10,
            "componentType" : 5126,
            "count" : 60,
            "type" : "VEC3"
        },
        {
            "bufferView" : 11,
            "componentType" : 5123,
            "count" : 156,
            "type" : "SCALAR"
        },
        {
            "bufferView" : 12,
            "componentType" : 5126,
            "count" : 32,
            "max" : [
                0.9817227721214294,
                0.8689283728599548,
                1.0422555208206177
            ],
            "min" : [
                -0.9698687195777893,
                -0.8689283728599548,
                -1.0408947467803955
            ],
            "type" : "VEC3"
        },
        {
            "bufferView" : 13,
            "componentType" : 5126,
            "count" : 32,
            "type" : "VEC3"
        },
        {
            "bufferView" : 14,
            "componentType" : 5123,
            "count" : 84,
            "type" : "SCALAR"
        }
    ],
    "bufferViews" : [
        {
            "buffer" : 0,
            "byteLength" : 10080,
            "byteOffset" : 0
        },
        {
            "buffer" : 0,
            "byteLength" : 10080,
            "byteOffset" : 10080
        },
        {
            "buffer" : 0,
            "byteLength" : 3120,
            "byteOffset" : 20160
        },
        {
            "buffer" : 0,
            "byteLength" : 2496,
            "byteOffset" : 23280
        },
        {
            "buffer" : 0,
            "byteLength" : 2496,
            "byteOffset" : 25776
        },
        {
            "buffer" : 0,
            "byteLength" : 864,
            "byteOffset" : 28272
        },
        {
            "buffer" : 0,
            "byteLength" : 864,
            "byteOffset" : 29136
        },
        {
            "buffer" : 0,
            "byteLength" : 864,
            "byteOffset" : 30000
        },
        {
            "buffer" : 0,
            "byteLength" : 240,
            "byteOffset" : 30864
        },
        {
            "buffer" : 0,
            "byteLength" : 720,
            "byteOffset" : 31104
        },
        {
            "buffer" : 0,
            "byteLength" : 720,
            "byteOffset" : 31824
        },
        {
            "buffer" : 0,
            "byteLength" : 312,
            "byteOffset" : 32544
        },
        {
            "buffer" : 0,
            "byteLength" : 384,
            "byteOffset" : 32856
        },
        {
            "buffer" : 0,
            "byteLength" : 384,
            "byteOffset" : 33240
        },
        {
            "buffer" : 0,
            "byteLength" : 168,
            "byteOffset" : 33624
        }
    ],
    "buffers" : [
        {
            "byteLength" : 33792,
            "uri" : "data:application/octet-stream;base64,"
        }
    ]
}
