{
    "asset" : {
        "generator" : "Khronos glTF Blender I/O v1.2.75",
        "version" : "2.0"
    },
    "scene" : 0,
    "scenes" : [
        {
            "name" : "Scene",
            "nodes" : [
                0,
                1,
                2,
                3,
                4,
                5,
                6,
                7,
                8
            ]
        }
    ],
    "nodes" : [
        {
            "name" : "Light",
            "rotation" : [
                0.16907575726509094,
                0.7558803558349609,
                -0.27217137813568115,
                0.570947527885437
            ],
            "translation" : [
                8.104384422302246,
                5.453603267669678,
                3.503726005554199
            ]
        },
        {
            "name" : "Camera",
            "rotation" : [
                0.483536034822464,
                0.33687159419059753,
                -0.20870360732078552,
                0.7804827094078064
            ],
            "translation" : [
                7.358891487121582,
                4.958309173583984,
                6.925790786743164
            ]
        },
        {
            "mesh" : 0,
            "name" : "Cylinder",
            "rotation" : [
                0,
                -0.7888663411140442,
                0,
                0.6145647764205933
            ],
            "scale" : [
                0.37957823276519775,
                0.37957823276519775,
                0.37957823276519775
            ],
            "translation" : [
                -0.6692537069320679,
                0,
                4.189674377441406
            ]
        },
        {
            "mesh" : 1,
            "name" : "Cylinder.001",
            "rotation" : [
                0,
                -0.9839367270469666,
                0,
                -0.17851759493350983
            ],
            "scale" : [
                0.37957820296287537,
                0.37957823276519775,
                0.37957820296287537
            ],
            "translation" : [
                -0.8473118543624878,
                0.1521228551864624,
                1.4670186042785645
            ]
        },
        {
            "mesh" : 2,
            "name" : "Icosphere",
            "translation" : [
                -0.5323089361190796,
                0,
                -2.785036563873291
            ]
        },
        {
            "mesh" : 3,
            "name" : "Icosphere.052",
            "scale" : [
                0.6580911874771118,
                0.6580911874771118,
                0.6580911874771118
            ],
            "translation" : [
                0.3032587170600891,
                0,
                2.555985927581787
            ]
        },
        {
            "mesh" : 4,
            "name" : "Sphere.003",
            "rotation" : [
                0.8792780637741089,
                0,
                0,
                0.47630879282951355
            ],
            "scale" : [
                -1.1598830223083496,
                -2.246311902999878,
                -1.0696940422058105
            ],
            "translation" : [
                -0.7936228513717651,
                0.6516050100326538,
                6.883617401123047
            ]
        },
        {
            "mesh" : 5,
            "name" : "Cylinder.004",
            "rotation" : [
                -0.006391279399394989,
                -0.9952876567840576,
                0.0003873901441693306,
                0.09675463289022446
            ],
            "scale" : [
                0.37957823276519775,
                0.37957823276519775,
                0.37957823276519775
            ],
            "translation" : [
                -0.8374043703079224,
                0,
                -0.606029748916626
            ]
        },
        {
            "mesh" : 6,
            "name" : "Cylinder.005",
            "rotation" : [
                0.0026636177208274603,
                -0.9796425104141235,
                0.005822975188493729,
                0.20064777135849
            ],
            "scale" : [
                0.37957820296287537,
                0.37957823276519775,
                0.37957820296287537
            ],
            "translation" : [
                -0.5638912320137024,
                0,
                -5.10943078994751
            ]
        }
    ],
    "materials" : [
        {
            "doubleSided" : true,
            "emissiveFactor" : [
                0,
                0,
                0
            ],
            "name" : "Material.005",
            "pbrMetallicRoughness" : {
                "baseColorFactor" : [
                    0.13286834955215454,
                    0.033104777336120605,
                    0,
                    1
                ],
                "metallicFactor" : 0,
                "roughnessFactor" : 0.690034806728363
            }
        },
        {
            "doubleSided" : true,
            "emissiveFactor" : [
                0,
                0,
                0
            ],
            "name" : "Material.006",
            "pbrMetallicRoughness" : {
                "baseColorTexture" : {
                    "index" : 0,
                    "texCoord" : 0
                },
                "metallicFactor" : 0,
                "roughnessFactor" : 0.690034806728363
            }
        },
        {
            "doubleSided" : true,
            "emissiveFactor" : [
                0,
                0,
                0
            ],
            "name" : "Material.008",
            "pbrMetallicRoughness" : {
                "baseColorFactor" : [
                    0.13286834955215454,
                    0.033104777336120605,
                    0,
                    1
                ],
                "metallicFactor" : 0,
                "roughnessFactor" : 0.690034806728363
            }
        },
        {
            "doubleSided" : true,
            "emissiveFactor" : [
                0,
                0,
                0
            ],
            "name" : "Material.009",
            "pbrMetallicRoughness" : {
                "baseColorTexture" : {
                    "index" : 1,
                    "texCoord" : 0
                },
                "metallicFactor" : 0,
                "roughnessFactor" : 0.690034806728363
            }
        },
        {
            "doubleSided" : true,
            "emissiveFactor" : [
                0,
                0,
                0
            ],
            "name" : "Material.004",
            "pbrMetallicRoughness" : {
                "baseColorTexture" : {
                    "index" : 2,
                    "texCoord" : 0
                },
                "metallicFactor" : 0,
                "roughnessFactor" : 0.690034806728363
            }
        },
        {
            "doubleSided" : true,
            "emissiveFactor" : [
                0,
                0,
                0
            ],
            "name" : "Material.003",
            "pbrMetallicRoughness" : {
                "baseColorTexture" : {
                    "index" : 3,
                    "texCoord" : 0
                },
                "metallicFactor" : 0,
                "roughnessFactor" : 0.690034806728363
            }
        },
        {
            "doubleSided" : true,
            "emissiveFactor" : [
                0,
                0,
                0
            ],
            "name" : "Material.007",
            "pbrMetallicRoughness" : {
                "baseColorTexture" : {
                    "index" : 4,
                    "texCoord" : 0
                },
                "metallicFactor" : 0,
                "roughnessFactor" : 0.690034806728363
            }
        }
    ],
    "meshes" : [
        {
            "name" : "Cylinder",
            "primitives" : [
                {
                    "attributes" : {
                        "POSITION" : 0,
                        "NORMAL" : 1
                    },
                    "indices" : 2,
                    "material" : 0
                },
                {
                    "attributes" : {
                        "POSITION" : 3,
                        "NORMAL" : 4
                    },
                    "indices" : 5,
                    "material" : 1
                }
            ]
        },
        {
            "name" : "Cylinder.001",
            "primitives" : [
                {
                    "attributes" : {
                        "POSITION" : 6,
                        "NORMAL" : 7
                    },
                    "indices" : 2,
                    "material" : 2
                },
                {
                    "attributes" : {
                        "POSITION" : 8,
                        "NORMAL" : 9
                    },
                    "indices" : 10,
                    "material" : 3
                }
            ]
        },
        {
            "name" : "Icosphere",
            "primitives" : [
                {
                    "attributes" : {
                        "POSITION" : 11,
                        "NORMAL" : 12
                    },
                    "indices" : 13,
                    "material" : 4
                }
            ]
        },
        {
            "name" : "Icosphere.052",
            "primitives" : [
                {
                    "attributes" : {
                        "POSITION" : 14,
                        "NORMAL" : 15
                    },
                    "indices" : 16,
                    "material" : 5
                }
            ]
        },
        {
            "name" : "Mesh.001",
            "primitives" : [
                {
                    "attributes" : {
                        "POSITION" : 17,
                        "NORMAL" : 18
                    },
                    "indices" : 19,
                    "material" : 6
                }
            ]
        },
        {
            "name" : "Cylinder.004",
            "primitives" : [
                {
                    "attributes" : {
                        "POSITION" : 20,
                        "NORMAL" : 21
                    },
                    "indices" : 2,
                    "material" : 0
                },
                {
                    "attributes" : {
                        "POSITION" : 22,
                        "NORMAL" : 23
                    },
                    "indices" : 5,
                    "material" : 1
                }
            ]
        },
        {
            "name" : "Cylinder.005",
            "primitives" : [
                {
                    "attributes" : {
                        "POSITION" : 24,
                        "NORMAL" : 25
                    },
                    "indices" : 2,
                    "material" : 2
                },
                {
                    "attributes" : {
                        "POSITION" : 26,
                        "NORMAL" : 27
                    },
                    "indices" : 10,
                    "material" : 3
                }
            ]
        }
    ],
    "textures" : [
        {
            "source" : 0
        },
        {
            "source" : 0
        },
        {
            "source" : 1
        },
        {
            "source" : 1
        },
        {
            "source" : 1
        }
    ],
    "images" : [
        {
            "bufferView" : 6,
            "mimeType" : "image/png",
            "name" : "green.psd"
        },
        {
            "bufferView" : 15,
            "mimeType" : "image/png",
            "name" : "Stone"
        }
    ],
    "accessors" : [
        {
            "bufferView" : 0,
            "componentType" : 5126,
            "count" : 45,
            "max" : [
                0.6945440173149109,
                0.666434645652771,
                0.5908145308494568
            ],
            "min" : [
                -0.6945440173149109,
                -1.0663059949874878,
                -0.7302867770195007
            ],
            "type" : "VEC3"
        },
        {
            "bufferView" : 1,
            "componentType" : 5126,
            "count" : 45,
            "type" : "VEC3"
        },
        {
            "bufferView" : 2,
            "componentType" : 5123,
            "count" : 69,
            "type" : "SCALAR"
        },
        {
            "bufferView" : 3,
            "componentType" : 5126,
            "count" : 445,
            "max" : [
                2.688210964202881,
                9.17629337310791,
                2.286729335784912
            ],
            "min" : [
                -2.688210964202881,
                0.07670316100120544,
                -2.826552629470825
            ],
            "type" : "VEC3"
        },
        {
            "bufferView" : 4,
            "componentType" : 5126,
            "count" : 445,
            "type" : "VEC3"
        },
        {
            "bufferView" : 5,
            "componentType" : 5123,
            "count" : 669,
            "type" : "SCALAR"
        },
        {
            "bufferView" : 7,
            "componentType" : 5126,
            "count" : 45,
            "max" : [
                0.6945440173149109,
                0.666434645652771,
                0.5908145308494568
            ],
            "min" : [
                -0.6945440173149109,
                -1.0663059949874878,
                -0.7302867770195007
            ],
            "type" : "VEC3"
        },
        {
            "bufferView" : 8,
            "componentType" : 5126,
            "count" : 45,
            "type" : "VEC3"
        },
        {
            "bufferView" : 9,
            "componentType" : 5126,
            "count" : 456,
            "max" : [
                2.7016587257385254,
                9.648606300354004,
                2.2954182624816895
            ],
            "min" : [
                -2.7035810947418213,
                0.06252696365118027,
                -2.845266342163086
            ],
            "type" : "VEC3"
        },
        {
            "bufferView" : 10,
            "componentType" : 5126,
            "count" : 456,
            "type" : "VEC3"
        },
        {
            "bufferView" : 11,
            "componentType" : 5123,
            "count" : 684,
            "type" : "SCALAR"
        },
        {
            "bufferView" : 12,
            "componentType" : 5126,
            "count" : 112,
            "max" : [
                0.9757601022720337,
                1.0915827751159668,
                0.9897569417953491
            ],
            "min" : [
                -0.9700464010238647,
                -0.4922710359096527,
                -1.0193310976028442
            ],
            "type" : "VEC3"
        },
        {
            "bufferView" : 13,
            "componentType" : 5126,
            "count" : 112,
            "type" : "VEC3"
        },
        {
            "bufferView" : 14,
            "componentType" : 5123,
            "count" : 114,
            "type" : "SCALAR"
        },
        {
            "bufferView" : 16,
            "componentType" : 5126,
            "count" : 66,
            "max" : [
                0.9769314527511597,
                1.0631599426269531,
                0.9897569417953491
            ],
            "min" : [
                -0.9700464010238647,
                -0.5910782217979431,
                -1.0038574934005737
            ],
            "type" : "VEC3"
        },
        {
            "bufferView" : 17,
            "componentType" : 5126,
            "count" : 66,
            "type" : "VEC3"
        },
        {
            "bufferView" : 18,
            "componentType" : 5123,
            "count" : 66,
            "type" : "SCALAR"
        },
        {
            "bufferView" : 19,
            "componentType" : 5126,
            "count" : 142,
            "max" : [
                1.0181081295013428,
                0.7963463068008423,
                0.9887568950653076
            ],
            "min" : [
                -1.0072376728057861,
                -0.5564902424812317,
                -0.9336262941360474
            ],
            "type" : "VEC3"
        },
        {
            "bufferView" : 20,
            "componentType" : 5126,
            "count" : 142,
            "type" : "VEC3"
        },
        {
            "bufferView" : 21,
            "componentType" : 5123,
            "count" : 144,
            "type" : "SCALAR"
        },
        {
            "bufferView" : 22,
            "componentType" : 5126,
            "count" : 45,
            "max" : [
                0.6945440173149109,
                0.666434645652771,
                0.5908145308494568
            ],
            "min" : [
                -0.6945440173149109,
                -1.0663059949874878,
                -0.7302867770195007
            ],
            "type" : "VEC3"
        },
        {
            "bufferView" : 23,
            "componentType" : 5126,
            "count" : 45,
            "type" : "VEC3"
        },
        {
            "bufferView" : 24,
            "componentType" : 5126,
            "count" : 445,
            "max" : [
                2.688210964202881,
                9.17629337310791,
                2.286729335784912
            ],
            "min" : [
                -2.688210964202881,
                0.07670316100120544,
                -2.826552629470825
            ],
            "type" : "VEC3"
        },
        {
            "bufferView" : 25,
            "componentType" : 5126,
            "count" : 445,
            "type" : "VEC3"
        },
        {
            "bufferView" : 26,
            "componentType" : 5126,
            "count" : 45,
            "max" : [
                0.6945440173149109,
                0.666434645652771,
                0.5908145308494568
            ],
            "min" : [
                -0.6945440173149109,
                -1.0663059949874878,
                -0.7302867770195007
            ],
            "type" : "VEC3"
        },
        {
            "bufferView" : 27,
            "componentType" : 5126,
            "count" : 45,
            "type" : "VEC3"
        },
        {
            "bufferView" : 28,
            "componentType" : 5126,
            "count" : 456,
            "max" : [
                2.7016587257385254,
                9.648606300354004,
                2.2954182624816895
            ],
            "min" : [
                -2.7035810947418213,
                0.06252696365118027,
                -2.845266342163086
            ],
            "type" : "VEC3"
        },
        {
            "bufferView" : 29,
            "componentType" : 5126,
            "count" : 456,
            "type" : "VEC3"
        }
    ],
    "bufferViews" : [
        {
            "buffer" : 0,
            "byteLength" : 540,
            "byteOffset" : 0
        },
        {
            "buffer" : 0,
            "byteLength" : 540,
            "byteOffset" : 540
        },
        {
            "buffer" : 0,
            "byteLength" : 138,
            "byteOffset" : 1080
        },
        {
            "buffer" : 0,
            "byteLength" : 5340,
            "byteOffset" : 1220
        },
        {
            "buffer" : 0,
            "byteLength" : 5340,
            "byteOffset" : 6560
        },
        {
            "buffer" : 0,
            "byteLength" : 1338,
            "byteOffset" : 11900
        },
        {
            "buffer" : 0,
            "byteLength" : 15581,
            "byteOffset" : 13240
        },
        {
            "buffer" : 0,
            "byteLength" : 540,
            "byteOffset" : 28824
        },
        {
            "buffer" : 0,
            "byteLength" : 540,
            "byteOffset" : 29364
        },
        {
            "buffer" : 0,
            "byteLength" : 5472,
            "byteOffset" : 29904
        },
        {
            "buffer" : 0,
            "byteLength" : 5472,
            "byteOffset" : 35376
        },
        {
            "buffer" : 0,
            "byteLength" : 1368,
            "byteOffset" : 40848
        },
        {
            "buffer" : 0,
            "byteLength" : 1344,
            "byteOffset" : 42216
        },
        {
            "buffer" : 0,
            "byteLength" : 1344,
            "byteOffset" : 43560
        },
        {
            "buffer" : 0,
            "byteLength" : 228,
            "byteOffset" : 44904
        },
        {
            "buffer" : 0,
            "byteLength" : 23944,
            "byteOffset" : 45132
        },
        {
            "buffer" : 0,
            "byteLength" : 792,
            "byteOffset" : 69076
        },
        {
            "buffer" : 0,
            "byteLength" : 792,
            "byteOffset" : 69868
        },
        {
            "buffer" : 0,
            "byteLength" : 132,
            "byteOffset" : 70660
        },
        {
            "buffer" : 0,
            "byteLength" : 1704,
            "byteOffset" : 70792
        },
        {
            "buffer" : 0,
            "byteLength" : 1704,
            "byteOffset" : 72496
        },
        {
            "buffer" : 0,
            "byteLength" : 288,
            "byteOffset" : 74200
        },
        {
            "buffer" : 0,
            "byteLength" : 540,
            "byteOffset" : 74488
        },
        {
            "buffer" : 0,
            "byteLength" : 540,
            "byteOffset" : 75028
        },
        {
            "buffer" : 0,
            "byteLength" : 5340,
            "byteOffset" : 75568
        },
        {
            "buffer" : 0,
            "byteLength" : 5340,
            "byteOffset" : 80908
        },
        {
            "buffer" : 0,
            "byteLength" : 540,
            "byteOffset" : 86248
        },
        {
            "buffer" : 0,
            "byteLength" : 540,
            "byteOffset" : 86788
        },
        {
            "buffer" : 0,
            "byteLength" : 5472,
            "byteOffset" : 87328
        },
        {
            "buffer" : 0,
            "byteLength" : 5472,
            "byteOffset" : 92800
        }
    ],
    "buffers" : [
        {
            "byteLength" : 98272,
            "uri" : "data:application/octet-stream;base64,"
        }
    ]
}
