{
    "asset" : {
        "generator" : "Khronos glTF Blender I/O v1.2.75",
        "version" : "2.0"
    },
    "scene" : 0,
    "scenes" : [
        {
            "name" : "Scene",
            "nodes" : [
                0,
                1
            ]
        }
    ],
    "nodes" : [
        {
            "mesh" : 0,
            "name" : "Icosphere.026",
            "rotation" : [
                0.7071068286895752,
                0,
                0,
                0.7071067094802856
            ],
            "scale" : [
                0.40145131945610046,
                0.40145131945610046,
                0.40145131945610046
            ],
            "translation" : [
                1.5853900909423828,
                0.570469081401825,
                -0.37067437171936035
            ]
        },
        {
            "mesh" : 1,
            "name" : "Icosphere.028",
            "rotation" : [
                0.7071068286895752,
                0,
                0,
                0.7071067094802856
            ],
            "translation" : [
                -2.1943249702453613,
                0.39064037799835205,
                -0.31914305686950684
            ]
        }
    ],
    "materials" : [
        {
            "doubleSided" : true,
            "emissiveFactor" : [
                0,
                0,
                0
            ],
            "name" : "Material.106",
            "pbrMetallicRoughness" : {
                "baseColorFactor" : [
                    0.19695499539375305,
                    0.03169500082731247,
                    0.00521499989554286,
                    1
                ],
                "metallicFactor" : 0,
                "roughnessFactor" : 0.6932139992713928
            }
        },
        {
            "doubleSided" : true,
            "emissiveFactor" : [
                0,
                0,
                0
            ],
            "name" : "Material.107",
            "pbrMetallicRoughness" : {
                "baseColorFactor" : [
                    0.07427600026130676,
                    0.3815920054912567,
                    0.00812000036239624,
                    1
                ],
                "metallicFactor" : 0,
                "roughnessFactor" : 0.6932139992713928
            }
        },
        {
            "doubleSided" : true,
            "emissiveFactor" : [
                0,
                0,
                0
            ],
            "name" : "Material.070",
            "pbrMetallicRoughness" : {
                "baseColorFactor" : [
                    0.05033800005912781,
                    0.3074969947338104,
                    0.033955998718738556,
                    1
                ],
                "metallicFactor" : 0,
                "roughnessFactor" : 0.6932139992713928
            }
        },
        {
            "doubleSided" : true,
            "emissiveFactor" : [
                0,
                0,
                0
            ],
            "name" : "Material.071",
            "pbrMetallicRoughness" : {
                "baseColorFactor" : [
                    0.05033800005912781,
                    0.3074969947338104,
                    0.033955998718738556,
                    1
                ],
                "metallicFactor" : 0,
                "roughnessFactor" : 0.6932139992713928
            }
        }
    ],
    "meshes" : [
        {
            "name" : "Icosphere.010",
            "primitives" : [
                {
                    "attributes" : {
                        "POSITION" : 0,
                        "NORMAL" : 1
                    },
                    "indices" : 2,
                    "material" : 0
                },
                {
                    "attributes" : {
                        "POSITION" : 3,
                        "NORMAL" : 4
                    },
                    "indices" : 5,
                    "material" : 1
                }
            ]
        },
        {
            "name" : "Icosphere.028",
            "primitives" : [
                {
                    "attributes" : {
                        "POSITION" : 6,
                        "NORMAL" : 7
                    },
                    "indices" : 5,
                    "material" : 2
                },
                {
                    "attributes" : {
                        "POSITION" : 8,
                        "NORMAL" : 9
                    },
                    "indices" : 5,
                    "material" : 3
                }
            ]
        }
    ],
    "accessors" : [
        {
            "bufferView" : 0,
            "componentType" : 5126,
            "count" : 30,
            "max" : [
                0.48947200179100037,
                0.4163700044155121,
                2.0090889930725098
            ],
            "min" : [
                -0.48947200179100037,
                -0.5146620273590088,
                0.281792014837265
            ],
            "type" : "VEC3"
        },
        {
            "bufferView" : 1,
            "componentType" : 5126,
            "count" : 30,
            "type" : "VEC3"
        },
        {
            "bufferView" : 2,
            "componentType" : 5123,
            "count" : 48,
            "type" : "SCALAR"
        },
        {
            "bufferView" : 3,
            "componentType" : 5126,
            "count" : 240,
            "max" : [
                0.9510579705238342,
                1,
                0.9326599836349487
            ],
            "min" : [
                -0.9510579705238342,
                -1,
                -5.711921215057373
            ],
            "type" : "VEC3"
        },
        {
            "bufferView" : 4,
            "componentType" : 5126,
            "count" : 240,
            "type" : "VEC3"
        },
        {
            "bufferView" : 5,
            "componentType" : 5123,
            "count" : 240,
            "type" : "SCALAR"
        },
        {
            "bufferView" : 6,
            "componentType" : 5126,
            "count" : 240,
            "max" : [
                0.7768959999084473,
                0.8168747425079346,
                0.8168746829032898
            ],
            "min" : [
                -0.7768950462341309,
                -0.8168752193450928,
                -0.8168743848800659
            ],
            "type" : "VEC3"
        },
        {
            "bufferView" : 7,
            "componentType" : 5126,
            "count" : 240,
            "type" : "VEC3"
        },
        {
            "bufferView" : 8,
            "componentType" : 5126,
            "count" : 240,
            "max" : [
                3.105544090270996,
                1.9165006875991821,
                0.8658828735351562
            ],
            "min" : [
                -0.11717236042022705,
                -1.472058653831482,
                -2.522674560546875
            ],
            "type" : "VEC3"
        },
        {
            "bufferView" : 9,
            "componentType" : 5126,
            "count" : 240,
            "type" : "VEC3"
        }
    ],
    "bufferViews" : [
        {
            "buffer" : 0,
            "byteLength" : 360,
            "byteOffset" : 0
        },
        {
            "buffer" : 0,
            "byteLength" : 360,
            "byteOffset" : 360
        },
        {
            "buffer" : 0,
            "byteLength" : 96,
            "byteOffset" : 720
        },
        {
            "buffer" : 0,
            "byteLength" : 2880,
            "byteOffset" : 816
        },
        {
            "buffer" : 0,
            "byteLength" : 2880,
            "byteOffset" : 3696
        },
        {
            "buffer" : 0,
            "byteLength" : 480,
            "byteOffset" : 6576
        },
        {
            "buffer" : 0,
            "byteLength" : 2880,
            "byteOffset" : 7056
        },
        {
            "buffer" : 0,
            "byteLength" : 2880,
            "byteOffset" : 9936
        },
        {
            "buffer" : 0,
            "byteLength" : 2880,
            "byteOffset" : 12816
        },
        {
            "buffer" : 0,
            "byteLength" : 2880,
            "byteOffset" : 15696
        }
    ],
    "buffers" : [
        {
            "byteLength" : 18576,
            "uri" : "data:application/octet-stream;base64,"
        }
    ]
}
