{
    "asset" : {
        "generator" : "Khronos glTF Blender I/O v1.2.75",
        "version" : "2.0"
    },
    "scene" : 0,
    "scenes" : [
        {
            "name" : "Scene",
            "nodes" : [
                0,
                1,
                2,
                3
            ]
        }
    ],
    "nodes" : [
        {
            "name" : "Light",
            "rotation" : [
                0.16907575726509094,
                0.7558804154396057,
                -0.27217134833335876,
                0.5709474086761475
            ],
            "translation" : [
                4.076245307922363,
                5.903861999511719,
                -1.0054539442062378
            ]
        },
        {
            "name" : "Camera",
            "rotation" : [
                0.4979250133037567,
                0.39368006587028503,
                -0.27086886763572693,
                0.7236827611923218
            ],
            "translation" : [
                8.868891716003418,
                4.958309173583984,
                5.575790882110596
            ]
        },
        {
            "mesh" : 0,
            "name" : "Bottom",
            "rotation" : [
                0,
                0.486335426568985,
                0,
                0.8737722039222717
            ],
            "scale" : [
                1.7379661798477173,
                0.044820740818977356,
                1.7379661798477173
            ]
        },
        {
            "name" : "Light.001",
            "rotation" : [
                0.16907575726509094,
                0.7558804154396057,
                -0.27217134833335876,
                0.5709474086761475
            ],
            "translation" : [
                0.5118587017059326,
                5.903861999511719,
                -1.0054539442062378
            ]
        }
    ],
    "materials" : [
        {
            "doubleSided" : true,
            "emissiveFactor" : [
                0,
                0,
                0
            ],
            "name" : "Material.003",
            "pbrMetallicRoughness" : {
                "baseColorFactor" : [
                    0.07657965272665024,
                    0.026547977700829506,
                    0,
                    1
                ],
                "metallicFactor" : 0,
                "roughnessFactor" : 1
            }
        }
    ],
    "meshes" : [
        {
            "name" : "Cube.001",
            "primitives" : [
                {
                    "attributes" : {
                        "POSITION" : 0,
                        "NORMAL" : 1,
                        "TEXCOORD_0" : 2
                    },
                    "indices" : 3,
                    "material" : 0
                }
            ]
        }
    ],
    "accessors" : [
        {
            "bufferView" : 0,
            "componentType" : 5126,
            "count" : 864,
            "max" : [
                1.0740959644317627,
                60.6687126159668,
                1.05894136428833
            ],
            "min" : [
                -1.0762898921966553,
                -1.5235214233398438,
                -1.0635333061218262
            ],
            "type" : "VEC3"
        },
        {
            "bufferView" : 1,
            "componentType" : 5126,
            "count" : 864,
            "type" : "VEC3"
        },
        {
            "bufferView" : 2,
            "componentType" : 5126,
            "count" : 864,
            "type" : "VEC2"
        },
        {
            "bufferView" : 3,
            "componentType" : 5123,
            "count" : 1380,
            "type" : "SCALAR"
        }
    ],
    "bufferViews" : [
        {
            "buffer" : 0,
            "byteLength" : 10368,
            "byteOffset" : 0
        },
        {
            "buffer" : 0,
            "byteLength" : 10368,
            "byteOffset" : 10368
        },
        {
            "buffer" : 0,
            "byteLength" : 6912,
            "byteOffset" : 20736
        },
        {
            "buffer" : 0,
            "byteLength" : 2760,
            "byteOffset" : 27648
        }
    ],
    "buffers" : [
        {
            "byteLength" : 30408,
            "uri" : "data:application/octet-stream;base64,"
        }
    ]
}
