{
    "asset" : {
        "generator" : "Khronos glTF Blender I/O v1.2.75",
        "version" : "2.0"
    },
    "scene" : 0,
    "scenes" : [
        {
            "name" : "Scene",
            "nodes" : [
                0
            ]
        }
    ],
    "nodes" : [
        {
            "mesh" : 0,
            "name" : "Tree_20_autumn_mat",
            "rotation" : [
                0.7071080803871155,
                0,
                0,
                0.7071055173873901
            ],
            "scale" : [
                0.009999999776482582,
                0.009999999776482582,
                0.009999999776482582
            ]
        }
    ],
    "materials" : [
        {
            "doubleSided" : true,
            "emissiveFactor" : [
                0,
                0,
                0
            ],
            "name" : "leafs_4.001",
            "pbrMetallicRoughness" : {
                "baseColorFactor" : [
                    0.012582508847117424,
                    0.1473141759634018,
                    0.008089971728622913,
                    1
                ],
                "metallicFactor" : 0,
                "roughnessFactor" : 0.690034806728363
            }
        },
        {
            "doubleSided" : true,
            "emissiveFactor" : [
                0,
                0,
                0
            ],
            "name" : "Wood_dark.004",
            "pbrMetallicRoughness" : {
                "baseColorFactor" : [
                    0.3031974732875824,
                    0.09980674088001251,
                    0.05096309259533882,
                    1
                ],
                "metallicFactor" : 0,
                "roughnessFactor" : 0.690034806728363
            }
        }
    ],
    "meshes" : [
        {
            "name" : "Cube.027",
            "primitives" : [
                {
                    "attributes" : {
                        "POSITION" : 0,
                        "NORMAL" : 1
                    },
                    "indices" : 2,
                    "material" : 0
                },
                {
                    "attributes" : {
                        "POSITION" : 3,
                        "NORMAL" : 4
                    },
                    "indices" : 5,
                    "material" : 1
                }
            ]
        }
    ],
    "accessors" : [
        {
            "bufferView" : 0,
            "componentType" : 5126,
            "count" : 129,
            "max" : [
                171.08847045898438,
                171.0849151611328,
                -860.0972290039062
            ],
            "min" : [
                -171.08847045898438,
                -171.09202575683594,
                -1279.146240234375
            ],
            "type" : "VEC3"
        },
        {
            "bufferView" : 1,
            "componentType" : 5126,
            "count" : 129,
            "type" : "VEC3"
        },
        {
            "bufferView" : 2,
            "componentType" : 5123,
            "count" : 240,
            "type" : "SCALAR"
        },
        {
            "bufferView" : 3,
            "componentType" : 5126,
            "count" : 48,
            "max" : [
                44.286251068115234,
                44.28631591796875,
                17.515676498413086
            ],
            "min" : [
                -44.286258697509766,
                -44.289424896240234,
                -876.2554321289062
            ],
            "type" : "VEC3"
        },
        {
            "bufferView" : 4,
            "componentType" : 5126,
            "count" : 48,
            "type" : "VEC3"
        },
        {
            "bufferView" : 5,
            "componentType" : 5123,
            "count" : 72,
            "type" : "SCALAR"
        }
    ],
    "bufferViews" : [
        {
            "buffer" : 0,
            "byteLength" : 1548,
            "byteOffset" : 0
        },
        {
            "buffer" : 0,
            "byteLength" : 1548,
            "byteOffset" : 1548
        },
        {
            "buffer" : 0,
            "byteLength" : 480,
            "byteOffset" : 3096
        },
        {
            "buffer" : 0,
            "byteLength" : 576,
            "byteOffset" : 3576
        },
        {
            "buffer" : 0,
            "byteLength" : 576,
            "byteOffset" : 4152
        },
        {
            "buffer" : 0,
            "byteLength" : 144,
            "byteOffset" : 4728
        }
    ],
    "buffers" : [
        {
            "byteLength" : 4872,
            "uri" : "data:application/octet-stream;base64,"
        }
    ]
}
