{
    "asset" : {
        "generator" : "Khronos glTF Blender I/O v1.2.75",
        "version" : "2.0"
    },
    "scene" : 0,
    "scenes" : [
        {
            "name" : "Scene",
            "nodes" : [
                0
            ]
        }
    ],
    "nodes" : [
        {
            "mesh" : 0,
            "name" : "Tree_28_autumn_mat",
            "rotation" : [
                0.7071080803871155,
                0,
                0,
                0.7071055173873901
            ],
            "scale" : [
                0.009999999776482582,
                0.009999999776482582,
                0.009999999776482582
            ]
        }
    ],
    "materials" : [
        {
            "doubleSided" : true,
            "emissiveFactor" : [
                0,
                0,
                0
            ],
            "name" : "leafs_3.002",
            "pbrMetallicRoughness" : {
                "baseColorFactor" : [
                    0.18718841671943665,
                    0.318538635969162,
                    0.033555276691913605,
                    1
                ],
                "metallicFactor" : 0,
                "roughnessFactor" : 0.690034806728363
            }
        },
        {
            "doubleSided" : true,
            "emissiveFactor" : [
                0,
                0,
                0
            ],
            "name" : "Wood_light",
            "pbrMetallicRoughness" : {
                "baseColorFactor" : [
                    0.8000000715255737,
                    0.2518918514251709,
                    0.1236436665058136,
                    1
                ],
                "metallicFactor" : 0,
                "roughnessFactor" : 0.690034806728363
            }
        }
    ],
    "meshes" : [
        {
            "name" : "Circle.013",
            "primitives" : [
                {
                    "attributes" : {
                        "POSITION" : 0,
                        "NORMAL" : 1
                    },
                    "indices" : 2,
                    "material" : 0
                },
                {
                    "attributes" : {
                        "POSITION" : 3,
                        "NORMAL" : 4
                    },
                    "indices" : 5,
                    "material" : 1
                }
            ]
        }
    ],
    "accessors" : [
        {
            "bufferView" : 0,
            "componentType" : 5126,
            "count" : 80,
            "max" : [
                197.9383087158203,
                197.93719482421875,
                -394.8338623046875
            ],
            "min" : [
                -197.93850708007812,
                -197.9396514892578,
                -1147.94677734375
            ],
            "type" : "VEC3"
        },
        {
            "bufferView" : 1,
            "componentType" : 5126,
            "count" : 80,
            "type" : "VEC3"
        },
        {
            "bufferView" : 2,
            "componentType" : 5123,
            "count" : 120,
            "type" : "SCALAR"
        },
        {
            "bufferView" : 3,
            "componentType" : 5126,
            "count" : 49,
            "max" : [
                44.12175369262695,
                44.12214660644531,
                30.014102935791016
            ],
            "min" : [
                -44.121944427490234,
                -44.121551513671875,
                -1147.9466552734375
            ],
            "type" : "VEC3"
        },
        {
            "bufferView" : 4,
            "componentType" : 5126,
            "count" : 49,
            "type" : "VEC3"
        },
        {
            "bufferView" : 5,
            "componentType" : 5123,
            "count" : 96,
            "type" : "SCALAR"
        }
    ],
    "bufferViews" : [
        {
            "buffer" : 0,
            "byteLength" : 960,
            "byteOffset" : 0
        },
        {
            "buffer" : 0,
            "byteLength" : 960,
            "byteOffset" : 960
        },
        {
            "buffer" : 0,
            "byteLength" : 240,
            "byteOffset" : 1920
        },
        {
            "buffer" : 0,
            "byteLength" : 588,
            "byteOffset" : 2160
        },
        {
            "buffer" : 0,
            "byteLength" : 588,
            "byteOffset" : 2748
        },
        {
            "buffer" : 0,
            "byteLength" : 192,
            "byteOffset" : 3336
        }
    ],
    "buffers" : [
        {
            "byteLength" : 3528,
            "uri" : "data:application/octet-stream;base64,"
        }
    ]
}
