{
    "asset" : {
        "generator" : "Khronos glTF Blender I/O v1.2.75",
        "version" : "2.0"
    },
    "scene" : 0,
    "scenes" : [
        {
            "name" : "Scene",
            "nodes" : [
                0,
                1
            ]
        }
    ],
    "nodes" : [
        {
            "mesh" : 0,
            "name" : "lopatky",
            "translation" : [
                1.3116501569747925,
                6.5,
                0
            ]
        },
        {
            "mesh" : 1,
            "name" : "mlyn",
            "rotation" : [
                0,
                -0.8660253882408142,
                0,
                0.5000000596046448
            ]
        }
    ],
    "materials" : [
        {
            "doubleSided" : true,
            "name" : "Material",
            "pbrMetallicRoughness" : {}
        },
        {
            "doubleSided" : true,
            "name" : "windmill",
            "pbrMetallicRoughness" : {}
        }
    ],
    "meshes" : [
        {
            "name" : "Circle.003",
            "primitives" : [
                {
                    "attributes" : {
                        "POSITION" : 0,
                        "NORMAL" : 1,
                        "TEXCOORD_0" : 2
                    },
                    "indices" : 3,
                    "material" : 0
                }
            ]
        },
        {
            "name" : "Circle",
            "primitives" : [
                {
                    "attributes" : {
                        "POSITION" : 4,
                        "NORMAL" : 5,
                        "TEXCOORD_0" : 6
                    },
                    "indices" : 7,
                    "material" : 1
                }
            ]
        }
    ],
    "accessors" : [
        {
            "bufferView" : 0,
            "componentType" : 5126,
            "count" : 760,
            "max" : [
                1.1586335897445679,
                4.147818565368652,
                4.145519733428955
            ],
            "min" : [
                -0.0024676306638866663,
                -4.127769947052002,
                -4.130194664001465
            ],
            "type" : "VEC3"
        },
        {
            "bufferView" : 1,
            "componentType" : 5126,
            "count" : 760,
            "type" : "VEC3"
        },
        {
            "bufferView" : 2,
            "componentType" : 5126,
            "count" : 760,
            "type" : "VEC2"
        },
        {
            "bufferView" : 3,
            "componentType" : 5123,
            "count" : 1128,
            "type" : "SCALAR"
        },
        {
            "bufferView" : 4,
            "componentType" : 5126,
            "count" : 4750,
            "max" : [
                2.6042912006378174,
                8.89444637298584,
                2.697293281555176
            ],
            "min" : [
                -1.9384493827819824,
                -0.6545041799545288,
                -1.9384491443634033
            ],
            "type" : "VEC3"
        },
        {
            "bufferView" : 5,
            "componentType" : 5126,
            "count" : 4750,
            "type" : "VEC3"
        },
        {
            "bufferView" : 6,
            "componentType" : 5126,
            "count" : 4750,
            "type" : "VEC2"
        },
        {
            "bufferView" : 7,
            "componentType" : 5123,
            "count" : 7038,
            "type" : "SCALAR"
        }
    ],
    "bufferViews" : [
        {
            "buffer" : 0,
            "byteLength" : 9120,
            "byteOffset" : 0
        },
        {
            "buffer" : 0,
            "byteLength" : 9120,
            "byteOffset" : 9120
        },
        {
            "buffer" : 0,
            "byteLength" : 6080,
            "byteOffset" : 18240
        },
        {
            "buffer" : 0,
            "byteLength" : 2256,
            "byteOffset" : 24320
        },
        {
            "buffer" : 0,
            "byteLength" : 57000,
            "byteOffset" : 26576
        },
        {
            "buffer" : 0,
            "byteLength" : 57000,
            "byteOffset" : 83576
        },
        {
            "buffer" : 0,
            "byteLength" : 38000,
            "byteOffset" : 140576
        },
        {
            "buffer" : 0,
            "byteLength" : 14076,
            "byteOffset" : 178576
        }
    ],
    "buffers" : [
        {
            "byteLength" : 192652,
            "uri" : "data:application/octet-stream;base64,"
        }
    ]
}
