{
    "asset" : {
        "generator" : "Khronos glTF Blender I/O v1.2.75",
        "version" : "2.0"
    },
    "scene" : 0,
    "scenes" : [
        {
            "name" : "Scene",
            "nodes" : [
                0,
                1,
                2,
                3,
                4,
                5
            ]
        }
    ],
    "nodes" : [
        {
            "mesh" : 0,
            "name" : "Cube.001",
            "rotation" : [
                0,
                -0.35389190912246704,
                0,
                0.9352863430976868
            ],
            "translation" : [
                -0.6396085023880005,
                1,
                -0.03565782308578491
            ]
        },
        {
            "mesh" : 1,
            "name" : "Cube.002",
            "rotation" : [
                0,
                0.41110795736312866,
                0,
                0.9115866422653198
            ],
            "translation" : [
                0.7123966217041016,
                1,
                -0.14348876476287842
            ]
        },
        {
            "mesh" : 2,
            "name" : "Cube.003",
            "rotation" : [
                0,
                -0.9115866422653198,
                0,
                0.41110798716545105
            ],
            "translation" : [
                -0.7027227878570557,
                1,
                -1.3933287858963013
            ]
        },
        {
            "mesh" : 3,
            "name" : "Cube.004",
            "rotation" : [
                0,
                0.9352864027023315,
                0,
                0.3538917303085327
            ],
            "translation" : [
                0.6279825568199158,
                1,
                -1.47087562084198
            ]
        },
        {
            "mesh" : 4,
            "name" : "Cube.005",
            "rotation" : [
                -0.6613473296165466,
                -0.2502393424510956,
                -0.25023937225341797,
                0.6613473296165466
            ],
            "translation" : [
                -0.00438880268484354,
                1.9398642778396606,
                -0.7548792362213135
            ]
        },
        {
            "mesh" : 5,
            "name" : "Cube.006",
            "rotation" : [
                0.6613473296165466,
                -0.25023937225341797,
                0.25023937225341797,
                0.6613472700119019
            ],
            "translation" : [
                0.0022581033408641815,
                0.05000763759016991,
                -0.7624051570892334
            ]
        }
    ],
    "materials" : [
        {
            "doubleSided" : true,
            "emissiveFactor" : [
                0,
                0,
                0
            ],
            "name" : "Material.001",
            "pbrMetallicRoughness" : {
                "baseColorFactor" : [
                    0.75947105884552,
                    0.4591270983219147,
                    0.11391326785087585,
                    1
                ],
                "metallicFactor" : 0,
                "roughnessFactor" : 0.6890909075737
            }
        },
        {
            "doubleSided" : true,
            "emissiveFactor" : [
                0,
                0,
                0
            ],
            "name" : "Material.002",
            "pbrMetallicRoughness" : {
                "baseColorFactor" : [
                    0.10008077323436737,
                    0.10008077323436737,
                    0.10008077323436737,
                    1
                ],
                "metallicFactor" : 0,
                "roughnessFactor" : 1
            }
        }
    ],
    "meshes" : [
        {
            "name" : "Cube.001",
            "primitives" : [
                {
                    "attributes" : {
                        "POSITION" : 0,
                        "NORMAL" : 1,
                        "TEXCOORD_0" : 2
                    },
                    "indices" : 3,
                    "material" : 0
                },
                {
                    "attributes" : {
                        "POSITION" : 4,
                        "NORMAL" : 5,
                        "TEXCOORD_0" : 6
                    },
                    "indices" : 7,
                    "material" : 1
                }
            ]
        },
        {
            "name" : "Cube.000",
            "primitives" : [
                {
                    "attributes" : {
                        "POSITION" : 8,
                        "NORMAL" : 9,
                        "TEXCOORD_0" : 10
                    },
                    "indices" : 3,
                    "material" : 0
                },
                {
                    "attributes" : {
                        "POSITION" : 11,
                        "NORMAL" : 12,
                        "TEXCOORD_0" : 13
                    },
                    "indices" : 7,
                    "material" : 1
                }
            ]
        },
        {
            "name" : "Cube.002",
            "primitives" : [
                {
                    "attributes" : {
                        "POSITION" : 14,
                        "NORMAL" : 15,
                        "TEXCOORD_0" : 16
                    },
                    "indices" : 3,
                    "material" : 0
                },
                {
                    "attributes" : {
                        "POSITION" : 17,
                        "NORMAL" : 18,
                        "TEXCOORD_0" : 19
                    },
                    "indices" : 7,
                    "material" : 1
                }
            ]
        },
        {
            "name" : "Cube.003",
            "primitives" : [
                {
                    "attributes" : {
                        "POSITION" : 20,
                        "NORMAL" : 21,
                        "TEXCOORD_0" : 22
                    },
                    "indices" : 3,
                    "material" : 0
                },
                {
                    "attributes" : {
                        "POSITION" : 23,
                        "NORMAL" : 24,
                        "TEXCOORD_0" : 25
                    },
                    "indices" : 7,
                    "material" : 1
                }
            ]
        },
        {
            "name" : "Cube.004",
            "primitives" : [
                {
                    "attributes" : {
                        "POSITION" : 26,
                        "NORMAL" : 27,
                        "TEXCOORD_0" : 28
                    },
                    "indices" : 3,
                    "material" : 0
                },
                {
                    "attributes" : {
                        "POSITION" : 29,
                        "NORMAL" : 30,
                        "TEXCOORD_0" : 31
                    },
                    "indices" : 7,
                    "material" : 1
                }
            ]
        },
        {
            "name" : "Cube.005",
            "primitives" : [
                {
                    "attributes" : {
                        "POSITION" : 32,
                        "NORMAL" : 33,
                        "TEXCOORD_0" : 34
                    },
                    "indices" : 3,
                    "material" : 0
                },
                {
                    "attributes" : {
                        "POSITION" : 35,
                        "NORMAL" : 36,
                        "TEXCOORD_0" : 37
                    },
                    "indices" : 7,
                    "material" : 1
                }
            ]
        }
    ],
    "accessors" : [
        {
            "bufferView" : 0,
            "componentType" : 5126,
            "count" : 1064,
            "max" : [
                0.9966394305229187,
                1.0022482872009277,
                0.05275580286979675
            ],
            "min" : [
                -0.9966394305229187,
                -1.0022482872009277,
                -0.01627003215253353
            ],
            "type" : "VEC3"
        },
        {
            "bufferView" : 1,
            "componentType" : 5126,
            "count" : 1064,
            "type" : "VEC3"
        },
        {
            "bufferView" : 2,
            "componentType" : 5126,
            "count" : 1064,
            "type" : "VEC2"
        },
        {
            "bufferView" : 3,
            "componentType" : 5123,
            "count" : 1536,
            "type" : "SCALAR"
        },
        {
            "bufferView" : 4,
            "componentType" : 5126,
            "count" : 4608,
            "max" : [
                0.9651002883911133,
                0.9668396711349487,
                0.055472590029239655
            ],
            "min" : [
                -0.9625658988952637,
                -0.9641691446304321,
                0.04090335965156555
            ],
            "type" : "VEC3"
        },
        {
            "bufferView" : 5,
            "componentType" : 5126,
            "count" : 4608,
            "type" : "VEC3"
        },
        {
            "bufferView" : 6,
            "componentType" : 5126,
            "count" : 4608,
            "type" : "VEC2"
        },
        {
            "bufferView" : 7,
            "componentType" : 5123,
            "count" : 8928,
            "type" : "SCALAR"
        },
        {
            "bufferView" : 8,
            "componentType" : 5126,
            "count" : 1064,
            "max" : [
                0.9966394305229187,
                1.0022482872009277,
                0.05275580286979675
            ],
            "min" : [
                -0.9966394305229187,
                -1.0022482872009277,
                -0.01627003215253353
            ],
            "type" : "VEC3"
        },
        {
            "bufferView" : 9,
            "componentType" : 5126,
            "count" : 1064,
            "type" : "VEC3"
        },
        {
            "bufferView" : 10,
            "componentType" : 5126,
            "count" : 1064,
            "type" : "VEC2"
        },
        {
            "bufferView" : 11,
            "componentType" : 5126,
            "count" : 4608,
            "max" : [
                0.9651002883911133,
                0.9668396711349487,
                0.055472590029239655
            ],
            "min" : [
                -0.9625658988952637,
                -0.9641691446304321,
                0.04090335965156555
            ],
            "type" : "VEC3"
        },
        {
            "bufferView" : 12,
            "componentType" : 5126,
            "count" : 4608,
            "type" : "VEC3"
        },
        {
            "bufferView" : 13,
            "componentType" : 5126,
            "count" : 4608,
            "type" : "VEC2"
        },
        {
            "bufferView" : 14,
            "componentType" : 5126,
            "count" : 1064,
            "max" : [
                0.9966394305229187,
                1.0022482872009277,
                0.05275580286979675
            ],
            "min" : [
                -0.9966394305229187,
                -1.0022482872009277,
                -0.01627003215253353
            ],
            "type" : "VEC3"
        },
        {
            "bufferView" : 15,
            "componentType" : 5126,
            "count" : 1064,
            "type" : "VEC3"
        },
        {
            "bufferView" : 16,
            "componentType" : 5126,
            "count" : 1064,
            "type" : "VEC2"
        },
        {
            "bufferView" : 17,
            "componentType" : 5126,
            "count" : 4608,
            "max" : [
                0.9651002883911133,
                0.9668396711349487,
                0.055472590029239655
            ],
            "min" : [
                -0.9625658988952637,
                -0.9641691446304321,
                0.04090335965156555
            ],
            "type" : "VEC3"
        },
        {
            "bufferView" : 18,
            "componentType" : 5126,
            "count" : 4608,
            "type" : "VEC3"
        },
        {
            "bufferView" : 19,
            "componentType" : 5126,
            "count" : 4608,
            "type" : "VEC2"
        },
        {
            "bufferView" : 20,
            "componentType" : 5126,
            "count" : 1064,
            "max" : [
                0.9966394305229187,
                1.0022482872009277,
                0.05275580286979675
            ],
            "min" : [
                -0.9966394305229187,
                -1.0022482872009277,
                -0.01627003215253353
            ],
            "type" : "VEC3"
        },
        {
            "bufferView" : 21,
            "componentType" : 5126,
            "count" : 1064,
            "type" : "VEC3"
        },
        {
            "bufferView" : 22,
            "componentType" : 5126,
            "count" : 1064,
            "type" : "VEC2"
        },
        {
            "bufferView" : 23,
            "componentType" : 5126,
            "count" : 4608,
            "max" : [
                0.9651002883911133,
                0.9668396711349487,
                0.055472590029239655
            ],
            "min" : [
                -0.9625658988952637,
                -0.9641691446304321,
                0.04090335965156555
            ],
            "type" : "VEC3"
        },
        {
            "bufferView" : 24,
            "componentType" : 5126,
            "count" : 4608,
            "type" : "VEC3"
        },
        {
            "bufferView" : 25,
            "componentType" : 5126,
            "count" : 4608,
            "type" : "VEC2"
        },
        {
            "bufferView" : 26,
            "componentType" : 5126,
            "count" : 1064,
            "max" : [
                0.9966394305229187,
                1.0022482872009277,
                0.05275580286979675
            ],
            "min" : [
                -0.9966394305229187,
                -1.0022482872009277,
                -0.01627003215253353
            ],
            "type" : "VEC3"
        },
        {
            "bufferView" : 27,
            "componentType" : 5126,
            "count" : 1064,
            "type" : "VEC3"
        },
        {
            "bufferView" : 28,
            "componentType" : 5126,
            "count" : 1064,
            "type" : "VEC2"
        },
        {
            "bufferView" : 29,
            "componentType" : 5126,
            "count" : 4608,
            "max" : [
                0.9651002883911133,
                0.9668396711349487,
                0.055472590029239655
            ],
            "min" : [
                -0.9625658988952637,
                -0.9641691446304321,
                0.04090335965156555
            ],
            "type" : "VEC3"
        },
        {
            "bufferView" : 30,
            "componentType" : 5126,
            "count" : 4608,
            "type" : "VEC3"
        },
        {
            "bufferView" : 31,
            "componentType" : 5126,
            "count" : 4608,
            "type" : "VEC2"
        },
        {
            "bufferView" : 32,
            "componentType" : 5126,
            "count" : 1064,
            "max" : [
                0.9966394305229187,
                1.0022482872009277,
                0.05275580286979675
            ],
            "min" : [
                -0.9966394305229187,
                -1.0022482872009277,
                -0.01627003215253353
            ],
            "type" : "VEC3"
        },
        {
            "bufferView" : 33,
            "componentType" : 5126,
            "count" : 1064,
            "type" : "VEC3"
        },
        {
            "bufferView" : 34,
            "componentType" : 5126,
            "count" : 1064,
            "type" : "VEC2"
        },
        {
            "bufferView" : 35,
            "componentType" : 5126,
            "count" : 4608,
            "max" : [
                0.9651002883911133,
                0.9668396711349487,
                0.055472590029239655
            ],
            "min" : [
                -0.9625658988952637,
                -0.9641691446304321,
                0.04090335965156555
            ],
            "type" : "VEC3"
        },
        {
            "bufferView" : 36,
            "componentType" : 5126,
            "count" : 4608,
            "type" : "VEC3"
        },
        {
            "bufferView" : 37,
            "componentType" : 5126,
            "count" : 4608,
            "type" : "VEC2"
        }
    ],
    "bufferViews" : [
        {
            "buffer" : 0,
            "byteLength" : 12768,
            "byteOffset" : 0
        },
        {
            "buffer" : 0,
            "byteLength" : 12768,
            "byteOffset" : 12768
        },
        {
            "buffer" : 0,
            "byteLength" : 8512,
            "byteOffset" : 25536
        },
        {
            "buffer" : 0,
            "byteLength" : 3072,
            "byteOffset" : 34048
        },
        {
            "buffer" : 0,
            "byteLength" : 55296,
            "byteOffset" : 37120
        },
        {
            "buffer" : 0,
            "byteLength" : 55296,
            "byteOffset" : 92416
        },
        {
            "buffer" : 0,
            "byteLength" : 36864,
            "byteOffset" : 147712
        },
        {
            "buffer" : 0,
            "byteLength" : 17856,
            "byteOffset" : 184576
        },
        {
            "buffer" : 0,
            "byteLength" : 12768,
            "byteOffset" : 202432
        },
        {
            "buffer" : 0,
            "byteLength" : 12768,
            "byteOffset" : 215200
        },
        {
            "buffer" : 0,
            "byteLength" : 8512,
            "byteOffset" : 227968
        },
        {
            "buffer" : 0,
            "byteLength" : 55296,
            "byteOffset" : 236480
        },
        {
            "buffer" : 0,
            "byteLength" : 55296,
            "byteOffset" : 291776
        },
        {
            "buffer" : 0,
            "byteLength" : 36864,
            "byteOffset" : 347072
        },
        {
            "buffer" : 0,
            "byteLength" : 12768,
            "byteOffset" : 383936
        },
        {
            "buffer" : 0,
            "byteLength" : 12768,
            "byteOffset" : 396704
        },
        {
            "buffer" : 0,
            "byteLength" : 8512,
            "byteOffset" : 409472
        },
        {
            "buffer" : 0,
            "byteLength" : 55296,
            "byteOffset" : 417984
        },
        {
            "buffer" : 0,
            "byteLength" : 55296,
            "byteOffset" : 473280
        },
        {
            "buffer" : 0,
            "byteLength" : 36864,
            "byteOffset" : 528576
        },
        {
            "buffer" : 0,
            "byteLength" : 12768,
            "byteOffset" : 565440
        },
        {
            "buffer" : 0,
            "byteLength" : 12768,
            "byteOffset" : 578208
        },
        {
            "buffer" : 0,
            "byteLength" : 8512,
            "byteOffset" : 590976
        },
        {
            "buffer" : 0,
            "byteLength" : 55296,
            "byteOffset" : 599488
        },
        {
            "buffer" : 0,
            "byteLength" : 55296,
            "byteOffset" : 654784
        },
        {
            "buffer" : 0,
            "byteLength" : 36864,
            "byteOffset" : 710080
        },
        {
            "buffer" : 0,
            "byteLength" : 12768,
            "byteOffset" : 746944
        },
        {
            "buffer" : 0,
            "byteLength" : 12768,
            "byteOffset" : 759712
        },
        {
            "buffer" : 0,
            "byteLength" : 8512,
            "byteOffset" : 772480
        },
        {
            "buffer" : 0,
            "byteLength" : 55296,
            "byteOffset" : 780992
        },
        {
            "buffer" : 0,
            "byteLength" : 55296,
            "byteOffset" : 836288
        },
        {
            "buffer" : 0,
            "byteLength" : 36864,
            "byteOffset" : 891584
        },
        {
            "buffer" : 0,
            "byteLength" : 12768,
            "byteOffset" : 928448
        },
        {
            "buffer" : 0,
            "byteLength" : 12768,
            "byteOffset" : 941216
        },
        {
            "buffer" : 0,
            "byteLength" : 8512,
            "byteOffset" : 953984
        },
        {
            "buffer" : 0,
            "byteLength" : 55296,
            "byteOffset" : 962496
        },
        {
            "buffer" : 0,
            "byteLength" : 55296,
            "byteOffset" : 1017792
        },
        {
            "buffer" : 0,
            "byteLength" : 36864,
            "byteOffset" : 1073088
        }
    ],
    "buffers" : [
        {
            "byteLength" : 1109952,
            "uri" : "data:application/octet-stream;base64,"
        }
    ]
}
