{
    "asset" : {
        "generator" : "Khronos glTF Blender I/O v1.2.75",
        "version" : "2.0"
    },
    "scene" : 0,
    "scenes" : [
        {
            "name" : "Scene",
            "nodes" : [
                0,
                1,
                2,
                3,
                4,
                5,
                6,
                7
            ]
        }
    ],
    "nodes" : [
        {
            "name" : "Light",
            "rotation" : [
                0.16907575726509094,
                0.7558803558349609,
                -0.27217137813568115,
                0.570947527885437
            ],
            "translation" : [
                4.076245307922363,
                5.903861999511719,
                -1.0054539442062378
            ]
        },
        {
            "mesh" : 0,
            "name" : "Icosphere.017",
            "rotation" : [
                0.7071068286895752,
                0,
                0,
                0.7071067094802856
            ],
            "translation" : [
                9.665494918823242,
                0,
                -10.273799896240234
            ]
        },
        {
            "mesh" : 1,
            "name" : "Icosphere.016",
            "rotation" : [
                0.7071068286895752,
                0,
                0,
                0.7071067094802856
            ],
            "translation" : [
                9.512568473815918,
                0,
                -10.273799896240234
            ]
        },
        {
            "mesh" : 2,
            "name" : "Icosphere.015",
            "rotation" : [
                0.7071068286895752,
                0,
                0,
                0.7071067094802856
            ],
            "translation" : [
                9.665494918823242,
                0,
                -10.273799896240234
            ]
        },
        {
            "mesh" : 3,
            "name" : "Icosphere.014",
            "rotation" : [
                0.7071068286895752,
                0,
                0,
                0.7071067094802856
            ],
            "translation" : [
                9.512568473815918,
                0,
                -10.273799896240234
            ]
        },
        {
            "mesh" : 4,
            "name" : "Icosphere.013",
            "rotation" : [
                0.7071068286895752,
                0,
                0,
                0.7071067094802856
            ],
            "translation" : [
                7.599184989929199,
                0,
                -10.273799896240234
            ]
        },
        {
            "mesh" : 5,
            "name" : "Icosphere.012",
            "rotation" : [
                0.7071068286895752,
                0,
                0,
                0.7071067094802856
            ],
            "translation" : [
                9.665494918823242,
                0,
                -10.273799896240234
            ]
        },
        {
            "mesh" : 6,
            "name" : "Icosphere.011",
            "rotation" : [
                0.7071068286895752,
                0,
                0,
                0.7071067094802856
            ],
            "translation" : [
                9.665494918823242,
                0,
                -10.273799896240234
            ]
        }
    ],
    "materials" : [
        {
            "doubleSided" : true,
            "emissiveFactor" : [
                0,
                0,
                0
            ],
            "name" : "Material.045",
            "pbrMetallicRoughness" : {
                "baseColorFactor" : [
                    0.800000011920929,
                    0.800000011920929,
                    0.800000011920929,
                    1
                ],
                "metallicFactor" : 0,
                "roughnessFactor" : 0.6932139992713928
            }
        },
        {
            "doubleSided" : true,
            "emissiveFactor" : [
                0,
                0,
                0
            ],
            "name" : "Material.046",
            "pbrMetallicRoughness" : {
                "baseColorFactor" : [
                    0.800000011920929,
                    0.800000011920929,
                    0.800000011920929,
                    1
                ],
                "metallicFactor" : 0,
                "roughnessFactor" : 0.6932139992713928
            }
        },
        {
            "doubleSided" : true,
            "emissiveFactor" : [
                0,
                0,
                0
            ],
            "name" : "Material.042",
            "pbrMetallicRoughness" : {
                "baseColorFactor" : [
                    0.800000011920929,
                    0.800000011920929,
                    0.800000011920929,
                    1
                ],
                "metallicFactor" : 0,
                "roughnessFactor" : 0.6932139992713928
            }
        },
        {
            "doubleSided" : true,
            "emissiveFactor" : [
                0,
                0,
                0
            ],
            "name" : "Material.043",
            "pbrMetallicRoughness" : {
                "baseColorFactor" : [
                    0.800000011920929,
                    0.800000011920929,
                    0.800000011920929,
                    1
                ],
                "metallicFactor" : 0,
                "roughnessFactor" : 0.6932139992713928
            }
        },
        {
            "doubleSided" : true,
            "emissiveFactor" : [
                0,
                0,
                0
            ],
            "name" : "Material.044",
            "pbrMetallicRoughness" : {
                "baseColorFactor" : [
                    0.800000011920929,
                    0.800000011920929,
                    0.800000011920929,
                    1
                ],
                "metallicFactor" : 0,
                "roughnessFactor" : 0.6932139992713928
            }
        },
        {
            "doubleSided" : true,
            "emissiveFactor" : [
                0,
                0,
                0
            ],
            "name" : "Material.048",
            "pbrMetallicRoughness" : {
                "baseColorFactor" : [
                    0.800000011920929,
                    0.800000011920929,
                    0.800000011920929,
                    1
                ],
                "metallicFactor" : 0,
                "roughnessFactor" : 0.6932139992713928
            }
        },
        {
            "doubleSided" : true,
            "emissiveFactor" : [
                0,
                0,
                0
            ],
            "name" : "Material.047",
            "pbrMetallicRoughness" : {
                "baseColorFactor" : [
                    0.800000011920929,
                    0.800000011920929,
                    0.800000011920929,
                    1
                ],
                "metallicFactor" : 0,
                "roughnessFactor" : 0.6932139992713928
            }
        }
    ],
    "meshes" : [
        {
            "name" : "Icosphere.017",
            "primitives" : [
                {
                    "attributes" : {
                        "POSITION" : 0,
                        "NORMAL" : 1
                    },
                    "indices" : 2,
                    "material" : 0
                }
            ]
        },
        {
            "name" : "Icosphere.016",
            "primitives" : [
                {
                    "attributes" : {
                        "POSITION" : 3,
                        "NORMAL" : 4
                    },
                    "indices" : 2,
                    "material" : 1
                }
            ]
        },
        {
            "name" : "Icosphere.015",
            "primitives" : [
                {
                    "attributes" : {
                        "POSITION" : 5,
                        "NORMAL" : 6
                    },
                    "indices" : 2,
                    "material" : 2
                }
            ]
        },
        {
            "name" : "Icosphere.014",
            "primitives" : [
                {
                    "attributes" : {
                        "POSITION" : 7,
                        "NORMAL" : 8
                    },
                    "indices" : 2,
                    "material" : 3
                }
            ]
        },
        {
            "name" : "Icosphere.013",
            "primitives" : [
                {
                    "attributes" : {
                        "POSITION" : 9,
                        "NORMAL" : 10
                    },
                    "indices" : 2,
                    "material" : 4
                }
            ]
        },
        {
            "name" : "Icosphere.012",
            "primitives" : [
                {
                    "attributes" : {
                        "POSITION" : 11,
                        "NORMAL" : 12
                    },
                    "indices" : 2,
                    "material" : 5
                }
            ]
        },
        {
            "name" : "Icosphere.011",
            "primitives" : [
                {
                    "attributes" : {
                        "POSITION" : 13,
                        "NORMAL" : 14
                    },
                    "indices" : 2,
                    "material" : 6
                }
            ]
        }
    ],
    "accessors" : [
        {
            "bufferView" : 0,
            "componentType" : 5126,
            "count" : 240,
            "max" : [
                1.5708290338516235,
                1.6516649723052979,
                -0.4202589988708496
            ],
            "min" : [
                -1.5708290338516235,
                -1.6516649723052979,
                -3.7235889434814453
            ],
            "type" : "VEC3"
        },
        {
            "bufferView" : 1,
            "componentType" : 5126,
            "count" : 240,
            "type" : "VEC3"
        },
        {
            "bufferView" : 2,
            "componentType" : 5123,
            "count" : 240,
            "type" : "SCALAR"
        },
        {
            "bufferView" : 3,
            "componentType" : 5126,
            "count" : 240,
            "max" : [
                1.3654849529266357,
                3.8388888835906982,
                -0.1752139925956726
            ],
            "min" : [
                -2.6450719833374023,
                -0.3780519962310791,
                -4.392157077789307
            ],
            "type" : "VEC3"
        },
        {
            "bufferView" : 4,
            "componentType" : 5126,
            "count" : 240,
            "type" : "VEC3"
        },
        {
            "bufferView" : 5,
            "componentType" : 5126,
            "count" : 240,
            "max" : [
                2.298635959625244,
                3.612562894821167,
                -0.556318998336792
            ],
            "min" : [
                0.2736409902572632,
                1.483361005783081,
                -2.6855220794677734
            ],
            "type" : "VEC3"
        },
        {
            "bufferView" : 6,
            "componentType" : 5126,
            "count" : 240,
            "type" : "VEC3"
        },
        {
            "bufferView" : 7,
            "componentType" : 5126,
            "count" : 240,
            "max" : [
                -0.042155999690294266,
                -0.1833840012550354,
                -0.5235649943351746
            ],
            "min" : [
                -1.5581589937210083,
                -1.7774020433425903,
                -2.1175830364227295
            ],
            "type" : "VEC3"
        },
        {
            "bufferView" : 8,
            "componentType" : 5126,
            "count" : 240,
            "type" : "VEC3"
        },
        {
            "bufferView" : 9,
            "componentType" : 5126,
            "count" : 240,
            "max" : [
                1.3398489952087402,
                4.556487083435059,
                -0.4322949945926666
            ],
            "min" : [
                -0.921055018901825,
                2.1792359352111816,
                -2.8095459938049316
            ],
            "type" : "VEC3"
        },
        {
            "bufferView" : 10,
            "componentType" : 5126,
            "count" : 240,
            "type" : "VEC3"
        },
        {
            "bufferView" : 11,
            "componentType" : 5126,
            "count" : 240,
            "max" : [
                1.1107319593429565,
                -0.3856950104236603,
                -0.19353200495243073
            ],
            "min" : [
                -1.1107319593429565,
                -2.7214770317077637,
                -2.5293140411376953
            ],
            "type" : "VEC3"
        },
        {
            "bufferView" : 12,
            "componentType" : 5126,
            "count" : 240,
            "type" : "VEC3"
        },
        {
            "bufferView" : 13,
            "componentType" : 5126,
            "count" : 240,
            "max" : [
                1.7554110288619995,
                1.62014901638031,
                -0.7455430030822754
            ],
            "min" : [
                -0.010835000313818455,
                -0.23698900640010834,
                -2.602682113647461
            ],
            "type" : "VEC3"
        },
        {
            "bufferView" : 14,
            "componentType" : 5126,
            "count" : 240,
            "type" : "VEC3"
        }
    ],
    "bufferViews" : [
        {
            "buffer" : 0,
            "byteLength" : 2880,
            "byteOffset" : 0
        },
        {
            "buffer" : 0,
            "byteLength" : 2880,
            "byteOffset" : 2880
        },
        {
            "buffer" : 0,
            "byteLength" : 480,
            "byteOffset" : 5760
        },
        {
            "buffer" : 0,
            "byteLength" : 2880,
            "byteOffset" : 6240
        },
        {
            "buffer" : 0,
            "byteLength" : 2880,
            "byteOffset" : 9120
        },
        {
            "buffer" : 0,
            "byteLength" : 2880,
            "byteOffset" : 12000
        },
        {
            "buffer" : 0,
            "byteLength" : 2880,
            "byteOffset" : 14880
        },
        {
            "buffer" : 0,
            "byteLength" : 2880,
            "byteOffset" : 17760
        },
        {
            "buffer" : 0,
            "byteLength" : 2880,
            "byteOffset" : 20640
        },
        {
            "buffer" : 0,
            "byteLength" : 2880,
            "byteOffset" : 23520
        },
        {
            "buffer" : 0,
            "byteLength" : 2880,
            "byteOffset" : 26400
        },
        {
            "buffer" : 0,
            "byteLength" : 2880,
            "byteOffset" : 29280
        },
        {
            "buffer" : 0,
            "byteLength" : 2880,
            "byteOffset" : 32160
        },
        {
            "buffer" : 0,
            "byteLength" : 2880,
            "byteOffset" : 35040
        },
        {
            "buffer" : 0,
            "byteLength" : 2880,
            "byteOffset" : 37920
        }
    ],
    "buffers" : [
        {
            "byteLength" : 40800,
            "uri" : "data:application/octet-stream;base64,"
        }
    ]
}
