{
    "asset" : {
        "generator" : "Khronos glTF Blender I/O v1.2.75",
        "version" : "2.0"
    },
    "scene" : 0,
    "scenes" : [
        {
            "name" : "Scene",
            "nodes" : [
                0,
                1,
                2,
                3,
                4,
                5,
                6,
                7,
                8,
                9
            ]
        }
    ],
    "nodes" : [
        {
            "name" : "Light",
            "rotation" : [
                0.16907575726509094,
                0.7558803558349609,
                -0.27217137813568115,
                0.570947527885437
            ],
            "translation" : [
                4.076245307922363,
                5.903861999511719,
                -1.0054539442062378
            ]
        },
        {
            "mesh" : 0,
            "name" : "Icosphere.010",
            "rotation" : [
                0.5948004722595215,
                0.38237738609313965,
                -0.3823774755001068,
                0.5948002934455872
            ],
            "translation" : [
                11.515478134155273,
                0,
                -15.309436798095703
            ]
        },
        {
            "mesh" : 1,
            "name" : "Icosphere.009",
            "rotation" : [
                0.5948004722595215,
                0.38237738609313965,
                -0.3823774755001068,
                0.5948002934455872
            ],
            "translation" : [
                11.515478134155273,
                0,
                -15.309436798095703
            ]
        },
        {
            "mesh" : 2,
            "name" : "Icosphere.008",
            "rotation" : [
                0.5948004722595215,
                0.38237738609313965,
                -0.3823774755001068,
                0.5948002934455872
            ],
            "translation" : [
                10.79163932800293,
                0,
                -15.309436798095703
            ]
        },
        {
            "mesh" : 3,
            "name" : "Icosphere.007",
            "rotation" : [
                0.5948004722595215,
                0.38237738609313965,
                -0.3823774755001068,
                0.5948002934455872
            ],
            "translation" : [
                11.515478134155273,
                0,
                -15.309436798095703
            ]
        },
        {
            "mesh" : 4,
            "name" : "Icosphere.006",
            "rotation" : [
                0.5948004722595215,
                0.38237738609313965,
                -0.3823774755001068,
                0.5948002934455872
            ],
            "translation" : [
                11.515478134155273,
                0,
                -15.309436798095703
            ]
        },
        {
            "mesh" : 5,
            "name" : "Icosphere.005",
            "rotation" : [
                0.5948004722595215,
                0.38237738609313965,
                -0.3823774755001068,
                0.5948002934455872
            ],
            "translation" : [
                11.515478134155273,
                0,
                -15.309436798095703
            ]
        },
        {
            "mesh" : 6,
            "name" : "Icosphere.004",
            "rotation" : [
                0.5948004722595215,
                0.38237738609313965,
                -0.3823774755001068,
                0.5948002934455872
            ],
            "translation" : [
                11.515478134155273,
                0,
                -15.309436798095703
            ]
        },
        {
            "mesh" : 7,
            "name" : "Icosphere.003",
            "rotation" : [
                0.5948004722595215,
                0.38237738609313965,
                -0.3823774755001068,
                0.5948002934455872
            ],
            "translation" : [
                11.515478134155273,
                0,
                -15.309436798095703
            ]
        },
        {
            "mesh" : 8,
            "name" : "Icosphere.002",
            "rotation" : [
                0.5948004722595215,
                0.38237738609313965,
                -0.3823774755001068,
                0.5948002934455872
            ],
            "translation" : [
                11.515478134155273,
                0,
                -15.309436798095703
            ]
        }
    ],
    "materials" : [
        {
            "doubleSided" : true,
            "emissiveFactor" : [
                0,
                0,
                0
            ],
            "name" : "Material.033",
            "pbrMetallicRoughness" : {
                "baseColorFactor" : [
                    0.800000011920929,
                    0.800000011920929,
                    0.800000011920929,
                    1
                ],
                "metallicFactor" : 0,
                "roughnessFactor" : 0.6932139992713928
            }
        },
        {
            "doubleSided" : true,
            "emissiveFactor" : [
                0,
                0,
                0
            ],
            "name" : "Material.037",
            "pbrMetallicRoughness" : {
                "baseColorFactor" : [
                    0.800000011920929,
                    0.800000011920929,
                    0.800000011920929,
                    1
                ],
                "metallicFactor" : 0,
                "roughnessFactor" : 0.6932139992713928
            }
        },
        {
            "doubleSided" : true,
            "emissiveFactor" : [
                0,
                0,
                0
            ],
            "name" : "Material.041",
            "pbrMetallicRoughness" : {
                "baseColorFactor" : [
                    0.800000011920929,
                    0.800000011920929,
                    0.800000011920929,
                    1
                ],
                "metallicFactor" : 0,
                "roughnessFactor" : 0.6932139992713928
            }
        },
        {
            "doubleSided" : true,
            "emissiveFactor" : [
                0,
                0,
                0
            ],
            "name" : "Material.038",
            "pbrMetallicRoughness" : {
                "baseColorFactor" : [
                    0.800000011920929,
                    0.800000011920929,
                    0.800000011920929,
                    1
                ],
                "metallicFactor" : 0,
                "roughnessFactor" : 0.6932139992713928
            }
        },
        {
            "doubleSided" : true,
            "emissiveFactor" : [
                0,
                0,
                0
            ],
            "name" : "Material.039",
            "pbrMetallicRoughness" : {
                "baseColorFactor" : [
                    0.800000011920929,
                    0.800000011920929,
                    0.800000011920929,
                    1
                ],
                "metallicFactor" : 0,
                "roughnessFactor" : 0.6932139992713928
            }
        },
        {
            "doubleSided" : true,
            "emissiveFactor" : [
                0,
                0,
                0
            ],
            "name" : "Material.035",
            "pbrMetallicRoughness" : {
                "baseColorFactor" : [
                    0.800000011920929,
                    0.800000011920929,
                    0.800000011920929,
                    1
                ],
                "metallicFactor" : 0,
                "roughnessFactor" : 0.6932139992713928
            }
        },
        {
            "doubleSided" : true,
            "emissiveFactor" : [
                0,
                0,
                0
            ],
            "name" : "Material.036",
            "pbrMetallicRoughness" : {
                "baseColorFactor" : [
                    0.800000011920929,
                    0.800000011920929,
                    0.800000011920929,
                    1
                ],
                "metallicFactor" : 0,
                "roughnessFactor" : 0.6932139992713928
            }
        },
        {
            "doubleSided" : true,
            "emissiveFactor" : [
                0,
                0,
                0
            ],
            "name" : "Material.034",
            "pbrMetallicRoughness" : {
                "baseColorFactor" : [
                    0.800000011920929,
                    0.800000011920929,
                    0.800000011920929,
                    1
                ],
                "metallicFactor" : 0,
                "roughnessFactor" : 0.6932139992713928
            }
        },
        {
            "doubleSided" : true,
            "emissiveFactor" : [
                0,
                0,
                0
            ],
            "name" : "Material.040",
            "pbrMetallicRoughness" : {
                "baseColorFactor" : [
                    0.800000011920929,
                    0.800000011920929,
                    0.800000011920929,
                    1
                ],
                "metallicFactor" : 0,
                "roughnessFactor" : 0.6932139992713928
            }
        }
    ],
    "meshes" : [
        {
            "name" : "Icosphere.010",
            "primitives" : [
                {
                    "attributes" : {
                        "POSITION" : 0,
                        "NORMAL" : 1
                    },
                    "indices" : 2,
                    "material" : 0
                }
            ]
        },
        {
            "name" : "Icosphere.009",
            "primitives" : [
                {
                    "attributes" : {
                        "POSITION" : 3,
                        "NORMAL" : 4
                    },
                    "indices" : 2,
                    "material" : 1
                }
            ]
        },
        {
            "name" : "Icosphere.008",
            "primitives" : [
                {
                    "attributes" : {
                        "POSITION" : 5,
                        "NORMAL" : 6
                    },
                    "indices" : 2,
                    "material" : 2
                }
            ]
        },
        {
            "name" : "Icosphere.007",
            "primitives" : [
                {
                    "attributes" : {
                        "POSITION" : 7,
                        "NORMAL" : 8
                    },
                    "indices" : 2,
                    "material" : 3
                }
            ]
        },
        {
            "name" : "Icosphere.006",
            "primitives" : [
                {
                    "attributes" : {
                        "POSITION" : 9,
                        "NORMAL" : 10
                    },
                    "indices" : 2,
                    "material" : 4
                }
            ]
        },
        {
            "name" : "Icosphere.005",
            "primitives" : [
                {
                    "attributes" : {
                        "POSITION" : 11,
                        "NORMAL" : 12
                    },
                    "indices" : 2,
                    "material" : 5
                }
            ]
        },
        {
            "name" : "Icosphere.004",
            "primitives" : [
                {
                    "attributes" : {
                        "POSITION" : 13,
                        "NORMAL" : 14
                    },
                    "indices" : 2,
                    "material" : 6
                }
            ]
        },
        {
            "name" : "Icosphere.003",
            "primitives" : [
                {
                    "attributes" : {
                        "POSITION" : 15,
                        "NORMAL" : 16
                    },
                    "indices" : 2,
                    "material" : 7
                }
            ]
        },
        {
            "name" : "Icosphere.002",
            "primitives" : [
                {
                    "attributes" : {
                        "POSITION" : 17,
                        "NORMAL" : 18
                    },
                    "indices" : 2,
                    "material" : 8
                }
            ]
        }
    ],
    "accessors" : [
        {
            "bufferView" : 0,
            "componentType" : 5126,
            "count" : 240,
            "max" : [
                1.611672043800354,
                0.7299609780311584,
                -1.4770640134811401
            ],
            "min" : [
                -1.2951300144195557,
                -2.326427936553955,
                -4.533452987670898
            ],
            "type" : "VEC3"
        },
        {
            "bufferView" : 1,
            "componentType" : 5126,
            "count" : 240,
            "type" : "VEC3"
        },
        {
            "bufferView" : 2,
            "componentType" : 5123,
            "count" : 240,
            "type" : "SCALAR"
        },
        {
            "bufferView" : 3,
            "componentType" : 5126,
            "count" : 240,
            "max" : [
                0.591168999671936,
                -1.7333799600601196,
                -1.8058619499206543
            ],
            "min" : [
                -0.12133000046014786,
                -2.4825448989868164,
                -2.5550270080566406
            ],
            "type" : "VEC3"
        },
        {
            "bufferView" : 4,
            "componentType" : 5126,
            "count" : 240,
            "type" : "VEC3"
        },
        {
            "bufferView" : 5,
            "componentType" : 5126,
            "count" : 240,
            "max" : [
                1.3109170198440552,
                0.4954490065574646,
                -3.3036599159240723
            ],
            "min" : [
                0.5984179973602295,
                -0.25371599197387695,
                -4.052824974060059
            ],
            "type" : "VEC3"
        },
        {
            "bufferView" : 6,
            "componentType" : 5126,
            "count" : 240,
            "type" : "VEC3"
        },
        {
            "bufferView" : 7,
            "componentType" : 5126,
            "count" : 240,
            "max" : [
                2.4262430667877197,
                0.48530998826026917,
                -1.721714973449707
            ],
            "min" : [
                -0.015205999836325645,
                -2.0817770957946777,
                -4.288802146911621
            ],
            "type" : "VEC3"
        },
        {
            "bufferView" : 8,
            "componentType" : 5126,
            "count" : 240,
            "type" : "VEC3"
        },
        {
            "bufferView" : 9,
            "componentType" : 5126,
            "count" : 240,
            "max" : [
                1.6267999410629272,
                1.1394100189208984,
                -1.5553630590438843
            ],
            "min" : [
                -0.1290300041437149,
                -0.7067769765853882,
                -3.401550054550171
            ],
            "type" : "VEC3"
        },
        {
            "bufferView" : 10,
            "componentType" : 5126,
            "count" : 240,
            "type" : "VEC3"
        },
        {
            "bufferView" : 11,
            "componentType" : 5126,
            "count" : 240,
            "max" : [
                1.547806978225708,
                -0.8257899880409241,
                -1.6384199857711792
            ],
            "min" : [
                -0.05003799870610237,
                -2.5058610439300537,
                -3.3184919357299805
            ],
            "type" : "VEC3"
        },
        {
            "bufferView" : 12,
            "componentType" : 5126,
            "count" : 240,
            "type" : "VEC3"
        },
        {
            "bufferView" : 13,
            "componentType" : 5126,
            "count" : 240,
            "max" : [
                2.847409963607788,
                -0.147038996219635,
                -1.6510930061340332
            ],
            "min" : [
                1.6087629795074463,
                -1.4494279623031616,
                -2.953481912612915
            ],
            "type" : "VEC3"
        },
        {
            "bufferView" : 14,
            "componentType" : 5126,
            "count" : 240,
            "type" : "VEC3"
        },
        {
            "bufferView" : 15,
            "componentType" : 5126,
            "count" : 240,
            "max" : [
                -0.22445200383663177,
                0.3751620054244995,
                -1.5345200300216675
            ],
            "min" : [
                -2.4563848972320557,
                -1.971629023551941,
                -3.881309986114502
            ],
            "type" : "VEC3"
        },
        {
            "bufferView" : 16,
            "componentType" : 5126,
            "count" : 240,
            "type" : "VEC3"
        },
        {
            "bufferView" : 17,
            "componentType" : 5126,
            "count" : 240,
            "max" : [
                -0.12750700116157532,
                -0.7636420130729675,
                -1.4732500314712524
            ],
            "min" : [
                -1.7417689561843872,
                -2.460974931716919,
                -3.1705830097198486
            ],
            "type" : "VEC3"
        },
        {
            "bufferView" : 18,
            "componentType" : 5126,
            "count" : 240,
            "type" : "VEC3"
        }
    ],
    "bufferViews" : [
        {
            "buffer" : 0,
            "byteLength" : 2880,
            "byteOffset" : 0
        },
        {
            "buffer" : 0,
            "byteLength" : 2880,
            "byteOffset" : 2880
        },
        {
            "buffer" : 0,
            "byteLength" : 480,
            "byteOffset" : 5760
        },
        {
            "buffer" : 0,
            "byteLength" : 2880,
            "byteOffset" : 6240
        },
        {
            "buffer" : 0,
            "byteLength" : 2880,
            "byteOffset" : 9120
        },
        {
            "buffer" : 0,
            "byteLength" : 2880,
            "byteOffset" : 12000
        },
        {
            "buffer" : 0,
            "byteLength" : 2880,
            "byteOffset" : 14880
        },
        {
            "buffer" : 0,
            "byteLength" : 2880,
            "byteOffset" : 17760
        },
        {
            "buffer" : 0,
            "byteLength" : 2880,
            "byteOffset" : 20640
        },
        {
            "buffer" : 0,
            "byteLength" : 2880,
            "byteOffset" : 23520
        },
        {
            "buffer" : 0,
            "byteLength" : 2880,
            "byteOffset" : 26400
        },
        {
            "buffer" : 0,
            "byteLength" : 2880,
            "byteOffset" : 29280
        },
        {
            "buffer" : 0,
            "byteLength" : 2880,
            "byteOffset" : 32160
        },
        {
            "buffer" : 0,
            "byteLength" : 2880,
            "byteOffset" : 35040
        },
        {
            "buffer" : 0,
            "byteLength" : 2880,
            "byteOffset" : 37920
        },
        {
            "buffer" : 0,
            "byteLength" : 2880,
            "byteOffset" : 40800
        },
        {
            "buffer" : 0,
            "byteLength" : 2880,
            "byteOffset" : 43680
        },
        {
            "buffer" : 0,
            "byteLength" : 2880,
            "byteOffset" : 46560
        },
        {
            "buffer" : 0,
            "byteLength" : 2880,
            "byteOffset" : 49440
        }
    ],
    "buffers" : [
        {
            "byteLength" : 52320,
            "uri" : "data:application/octet-stream;base64,"
        }
    ]
}
