{
    "asset" : {
        "generator" : "Khronos glTF Blender I/O v1.2.75",
        "version" : "2.0"
    },
    "scene" : 0,
    "scenes" : [
        {
            "name" : "Scene",
            "nodes" : [
                0,
                1,
                2,
                3
            ]
        }
    ],
    "nodes" : [
        {
            "mesh" : 0,
            "name" : "Cylinder.003_Cylinder.005",
            "rotation" : [
                0.7071068286895752,
                0,
                0,
                0.7071067094802856
            ]
        },
        {
            "mesh" : 1,
            "name" : "Cylinder.002_Cylinder.003",
            "rotation" : [
                0.7071068286895752,
                0,
                0,
                0.7071067094802856
            ]
        },
        {
            "mesh" : 2,
            "name" : "Cylinder.001",
            "rotation" : [
                0.7071068286895752,
                0,
                0,
                0.7071067094802856
            ]
        },
        {
            "mesh" : 3,
            "name" : "Cylinder",
            "rotation" : [
                0.7071068286895752,
                0,
                0,
                0.7071067094802856
            ]
        }
    ],
    "materials" : [
        {
            "doubleSided" : true,
            "emissiveFactor" : [
                0,
                0,
                0
            ],
            "name" : "FlowerStalk",
            "pbrMetallicRoughness" : {
                "baseColorFactor" : [
                    0.4746229946613312,
                    0.800000011920929,
                    0.22091899812221527,
                    1
                ],
                "metallicFactor" : 0,
                "roughnessFactor" : 0.5
            }
        },
        {
            "doubleSided" : true,
            "emissiveFactor" : [
                0,
                0,
                0
            ],
            "name" : "Blossoms.002",
            "pbrMetallicRoughness" : {
                "baseColorFactor" : [
                    0.3248009979724884,
                    0.023385999724268913,
                    0.800000011920929,
                    1
                ],
                "metallicFactor" : 0,
                "roughnessFactor" : 0.5
            }
        },
        {
            "doubleSided" : true,
            "emissiveFactor" : [
                0,
                0,
                0
            ],
            "name" : "Core.002",
            "pbrMetallicRoughness" : {
                "baseColorFactor" : [
                    0.800000011920929,
                    0.7195879817008972,
                    0.25684401392936707,
                    1
                ],
                "metallicFactor" : 0,
                "roughnessFactor" : 0.5
            }
        },
        {
            "doubleSided" : true,
            "emissiveFactor" : [
                0,
                0,
                0
            ],
            "name" : "Blossoms",
            "pbrMetallicRoughness" : {
                "baseColorFactor" : [
                    0.800000011920929,
                    0.7313730120658875,
                    0.16033600270748138,
                    1
                ],
                "metallicFactor" : 0,
                "roughnessFactor" : 0.5
            }
        },
        {
            "doubleSided" : true,
            "emissiveFactor" : [
                0,
                0,
                0
            ],
            "name" : "Core",
            "pbrMetallicRoughness" : {
                "baseColorFactor" : [
                    0.800000011920929,
                    0.5938760042190552,
                    0.04273800179362297,
                    1
                ],
                "metallicFactor" : 0,
                "roughnessFactor" : 0.5
            }
        },
        {
            "doubleSided" : true,
            "emissiveFactor" : [
                0,
                0,
                0
            ],
            "name" : "Material.001",
            "pbrMetallicRoughness" : {
                "baseColorFactor" : [
                    0.47257199883461,
                    0.800000011920929,
                    0.09584400057792664,
                    1
                ],
                "metallicFactor" : 0,
                "roughnessFactor" : 0.5
            }
        },
        {
            "doubleSided" : true,
            "emissiveFactor" : [
                0,
                0,
                0
            ],
            "name" : "FlowerStalk.001",
            "pbrMetallicRoughness" : {
                "baseColorFactor" : [
                    0.3747810125350952,
                    0.800000011920929,
                    0.10802300274372101,
                    1
                ],
                "metallicFactor" : 0,
                "roughnessFactor" : 0.5
            }
        },
        {
            "doubleSided" : true,
            "emissiveFactor" : [
                0,
                0,
                0
            ],
            "name" : "Blossoms.001",
            "pbrMetallicRoughness" : {
                "baseColorFactor" : [
                    1,
                    1,
                    1,
                    1
                ],
                "metallicFactor" : 0,
                "roughnessFactor" : 0.5
            }
        },
        {
            "doubleSided" : true,
            "emissiveFactor" : [
                0,
                0,
                0
            ],
            "name" : "Core.001",
            "pbrMetallicRoughness" : {
                "baseColorFactor" : [
                    0.800000011920929,
                    0.6545249819755554,
                    0.15828199684619904,
                    1
                ],
                "metallicFactor" : 0,
                "roughnessFactor" : 0.5
            }
        }
    ],
    "meshes" : [
        {
            "name" : "Cylinder.003_Cylinder.005",
            "primitives" : [
                {
                    "attributes" : {
                        "POSITION" : 0,
                        "NORMAL" : 1
                    },
                    "indices" : 2,
                    "material" : 0
                },
                {
                    "attributes" : {
                        "POSITION" : 3,
                        "NORMAL" : 4
                    },
                    "indices" : 5,
                    "material" : 1
                },
                {
                    "attributes" : {
                        "POSITION" : 6,
                        "NORMAL" : 7
                    },
                    "indices" : 8,
                    "material" : 2
                }
            ]
        },
        {
            "name" : "Cylinder.002_Cylinder.003",
            "primitives" : [
                {
                    "attributes" : {
                        "POSITION" : 9,
                        "NORMAL" : 10
                    },
                    "indices" : 11,
                    "material" : 0
                },
                {
                    "attributes" : {
                        "POSITION" : 12,
                        "NORMAL" : 13
                    },
                    "indices" : 14,
                    "material" : 3
                },
                {
                    "attributes" : {
                        "POSITION" : 15,
                        "NORMAL" : 16
                    },
                    "indices" : 8,
                    "material" : 4
                }
            ]
        },
        {
            "name" : "Cylinder.001",
            "primitives" : [
                {
                    "attributes" : {
                        "POSITION" : 17,
                        "NORMAL" : 18
                    },
                    "indices" : 19,
                    "material" : 5
                }
            ]
        },
        {
            "name" : "Cylinder",
            "primitives" : [
                {
                    "attributes" : {
                        "POSITION" : 20,
                        "NORMAL" : 21
                    },
                    "indices" : 22,
                    "material" : 6
                },
                {
                    "attributes" : {
                        "POSITION" : 23,
                        "NORMAL" : 24
                    },
                    "indices" : 25,
                    "material" : 7
                },
                {
                    "attributes" : {
                        "POSITION" : 26,
                        "NORMAL" : 27
                    },
                    "indices" : 28,
                    "material" : 8
                }
            ]
        }
    ],
    "accessors" : [
        {
            "bufferView" : 0,
            "componentType" : 5126,
            "count" : 432,
            "max" : [
                0.06332600116729736,
                -1.1286640167236328,
                0.019359000027179718
            ],
            "min" : [
                -0.06527899950742722,
                -1.2391539812088013,
                -0.13706399500370026
            ],
            "type" : "VEC3"
        },
        {
            "bufferView" : 1,
            "componentType" : 5126,
            "count" : 432,
            "type" : "VEC3"
        },
        {
            "bufferView" : 2,
            "componentType" : 5123,
            "count" : 468,
            "type" : "SCALAR"
        },
        {
            "bufferView" : 3,
            "componentType" : 5126,
            "count" : 240,
            "max" : [
                0.0845159962773323,
                -1.1111079454421997,
                -0.11611799895763397
            ],
            "min" : [
                -0.07616399973630905,
                -1.2571200132369995,
                -0.14790500700473785
            ],
            "type" : "VEC3"
        },
        {
            "bufferView" : 4,
            "componentType" : 5126,
            "count" : 240,
            "type" : "VEC3"
        },
        {
            "bufferView" : 5,
            "componentType" : 5123,
            "count" : 360,
            "type" : "SCALAR"
        },
        {
            "bufferView" : 6,
            "componentType" : 5126,
            "count" : 360,
            "max" : [
                0.06335800141096115,
                -1.1310399770736694,
                -0.11887700110673904
            ],
            "min" : [
                -0.05742200091481209,
                -1.237686038017273,
                -0.14307700097560883
            ],
            "type" : "VEC3"
        },
        {
            "bufferView" : 7,
            "componentType" : 5126,
            "count" : 360,
            "type" : "VEC3"
        },
        {
            "bufferView" : 8,
            "componentType" : 5123,
            "count" : 360,
            "type" : "SCALAR"
        },
        {
            "bufferView" : 9,
            "componentType" : 5126,
            "count" : 432,
            "max" : [
                0.061223000288009644,
                -0.8406760096549988,
                0.019359000027179718
            ],
            "min" : [
                -0.054621998220682144,
                -0.9481779932975769,
                -0.1624629944562912
            ],
            "type" : "VEC3"
        },
        {
            "bufferView" : 10,
            "componentType" : 5126,
            "count" : 432,
            "type" : "VEC3"
        },
        {
            "bufferView" : 11,
            "componentType" : 5123,
            "count" : 468,
            "type" : "SCALAR"
        },
        {
            "bufferView" : 12,
            "componentType" : 5126,
            "count" : 288,
            "max" : [
                0.08483199775218964,
                -0.8176069855690002,
                -0.1277790069580078
            ],
            "min" : [
                -0.07275199890136719,
                -0.9681410193443298,
                -0.17174799740314484
            ],
            "type" : "VEC3"
        },
        {
            "bufferView" : 13,
            "componentType" : 5126,
            "count" : 288,
            "type" : "VEC3"
        },
        {
            "bufferView" : 14,
            "componentType" : 5123,
            "count" : 576,
            "type" : "SCALAR"
        },
        {
            "bufferView" : 15,
            "componentType" : 5126,
            "count" : 360,
            "max" : [
                0.05879399925470352,
                -0.8450180292129517,
                -0.1333020031452179
            ],
            "min" : [
                -0.04961000010371208,
                -0.9458420276641846,
                -0.16513599455356598
            ],
            "type" : "VEC3"
        },
        {
            "bufferView" : 16,
            "componentType" : 5126,
            "count" : 360,
            "type" : "VEC3"
        },
        {
            "bufferView" : 17,
            "componentType" : 5126,
            "count" : 99,
            "max" : [
                0.06157299876213074,
                -0.3461749851703644,
                0.014650999568402767
            ],
            "min" : [
                -0.048944998532533646,
                -0.45063498616218567,
                -0.20782999694347382
            ],
            "type" : "VEC3"
        },
        {
            "bufferView" : 18,
            "componentType" : 5126,
            "count" : 99,
            "type" : "VEC3"
        },
        {
            "bufferView" : 19,
            "componentType" : 5123,
            "count" : 135,
            "type" : "SCALAR"
        },
        {
            "bufferView" : 20,
            "componentType" : 5126,
            "count" : 462,
            "max" : [
                0.061041999608278275,
                -0.5937749743461609,
                0.01629599928855896
            ],
            "min" : [
                -0.04831299930810928,
                -0.6903790235519409,
                -0.2664859890937805
            ],
            "type" : "VEC3"
        },
        {
            "bufferView" : 21,
            "componentType" : 5126,
            "count" : 462,
            "type" : "VEC3"
        },
        {
            "bufferView" : 22,
            "componentType" : 5123,
            "count" : 558,
            "type" : "SCALAR"
        },
        {
            "bufferView" : 23,
            "componentType" : 5126,
            "count" : 195,
            "max" : [
                0.08497399836778641,
                -0.5742779970169067,
                -0.20367999374866486
            ],
            "min" : [
                -0.06720399856567383,
                -0.7177810072898865,
                -0.2748830020427704
            ],
            "type" : "VEC3"
        },
        {
            "bufferView" : 24,
            "componentType" : 5126,
            "count" : 195,
            "type" : "VEC3"
        },
        {
            "bufferView" : 25,
            "componentType" : 5123,
            "count" : 351,
            "type" : "SCALAR"
        },
        {
            "bufferView" : 26,
            "componentType" : 5126,
            "count" : 390,
            "max" : [
                0.05915199965238571,
                -0.6024810075759888,
                -0.20347100496292114
            ],
            "min" : [
                -0.03725099936127663,
                -0.6846539974212646,
                -0.2735449969768524
            ],
            "type" : "VEC3"
        },
        {
            "bufferView" : 27,
            "componentType" : 5126,
            "count" : 390,
            "type" : "VEC3"
        },
        {
            "bufferView" : 28,
            "componentType" : 5123,
            "count" : 450,
            "type" : "SCALAR"
        }
    ],
    "bufferViews" : [
        {
            "buffer" : 0,
            "byteLength" : 5184,
            "byteOffset" : 0
        },
        {
            "buffer" : 0,
            "byteLength" : 5184,
            "byteOffset" : 5184
        },
        {
            "buffer" : 0,
            "byteLength" : 936,
            "byteOffset" : 10368
        },
        {
            "buffer" : 0,
            "byteLength" : 2880,
            "byteOffset" : 11304
        },
        {
            "buffer" : 0,
            "byteLength" : 2880,
            "byteOffset" : 14184
        },
        {
            "buffer" : 0,
            "byteLength" : 720,
            "byteOffset" : 17064
        },
        {
            "buffer" : 0,
            "byteLength" : 4320,
            "byteOffset" : 17784
        },
        {
            "buffer" : 0,
            "byteLength" : 4320,
            "byteOffset" : 22104
        },
        {
            "buffer" : 0,
            "byteLength" : 720,
            "byteOffset" : 26424
        },
        {
            "buffer" : 0,
            "byteLength" : 5184,
            "byteOffset" : 27144
        },
        {
            "buffer" : 0,
            "byteLength" : 5184,
            "byteOffset" : 32328
        },
        {
            "buffer" : 0,
            "byteLength" : 936,
            "byteOffset" : 37512
        },
        {
            "buffer" : 0,
            "byteLength" : 3456,
            "byteOffset" : 38448
        },
        {
            "buffer" : 0,
            "byteLength" : 3456,
            "byteOffset" : 41904
        },
        {
            "buffer" : 0,
            "byteLength" : 1152,
            "byteOffset" : 45360
        },
        {
            "buffer" : 0,
            "byteLength" : 4320,
            "byteOffset" : 46512
        },
        {
            "buffer" : 0,
            "byteLength" : 4320,
            "byteOffset" : 50832
        },
        {
            "buffer" : 0,
            "byteLength" : 1188,
            "byteOffset" : 55152
        },
        {
            "buffer" : 0,
            "byteLength" : 1188,
            "byteOffset" : 56340
        },
        {
            "buffer" : 0,
            "byteLength" : 270,
            "byteOffset" : 57528
        },
        {
            "buffer" : 0,
            "byteLength" : 5544,
            "byteOffset" : 57800
        },
        {
            "buffer" : 0,
            "byteLength" : 5544,
            "byteOffset" : 63344
        },
        {
            "buffer" : 0,
            "byteLength" : 1116,
            "byteOffset" : 68888
        },
        {
            "buffer" : 0,
            "byteLength" : 2340,
            "byteOffset" : 70004
        },
        {
            "buffer" : 0,
            "byteLength" : 2340,
            "byteOffset" : 72344
        },
        {
            "buffer" : 0,
            "byteLength" : 702,
            "byteOffset" : 74684
        },
        {
            "buffer" : 0,
            "byteLength" : 4680,
            "byteOffset" : 75388
        },
        {
            "buffer" : 0,
            "byteLength" : 4680,
            "byteOffset" : 80068
        },
        {
            "buffer" : 0,
            "byteLength" : 900,
            "byteOffset" : 84748
        }
    ],
    "buffers" : [
        {
            "byteLength" : 85648,
            "uri" : "data:application/octet-stream;base64,"
        }
    ]
}
