{
    "asset" : {
        "generator" : "Khronos glTF Blender I/O v1.2.75",
        "version" : "2.0"
    },
    "scene" : 0,
    "scenes" : [
        {
            "name" : "Scene",
            "nodes" : [
                0,
                1,
                2,
                3,
                4
            ]
        }
    ],
    "nodes" : [
        {
            "name" : "Camera",
            "rotation" : [
                0.32187774777412415,
                0.5630781650543213,
                -0.252399742603302,
                0.7180752754211426
            ],
            "translation" : [
                0.8564812541007996,
                0.8406363129615784,
                -0.5488630533218384
            ]
        },
        {
            "mesh" : 0,
            "name" : "Cylinder.003",
            "translation" : [
                0,
                0,
                -1.1949752569198608
            ]
        },
        {
            "mesh" : 1,
            "name" : "Cylinder.002",
            "translation" : [
                0,
                0,
                -0.9050999879837036
            ]
        },
        {
            "mesh" : 2,
            "name" : "Cylinder.001",
            "translation" : [
                0,
                0,
                -0.40685519576072693
            ]
        },
        {
            "mesh" : 3,
            "name" : "Cylinder",
            "translation" : [
                0,
                0,
                -0.6441746950149536
            ]
        }
    ],
    "materials" : [
        {
            "doubleSided" : true,
            "name" : "FlowerStalk",
            "pbrMetallicRoughness" : {}
        },
        {
            "doubleSided" : true,
            "name" : "Blossoms.002",
            "pbrMetallicRoughness" : {}
        },
        {
            "doubleSided" : true,
            "name" : "Core.002",
            "pbrMetallicRoughness" : {}
        },
        {
            "doubleSided" : true,
            "name" : "Blossoms",
            "pbrMetallicRoughness" : {}
        },
        {
            "doubleSided" : true,
            "name" : "Core",
            "pbrMetallicRoughness" : {}
        },
        {
            "doubleSided" : true,
            "name" : "Material.001",
            "pbrMetallicRoughness" : {}
        },
        {
            "doubleSided" : true,
            "name" : "FlowerStalk.001",
            "pbrMetallicRoughness" : {}
        },
        {
            "doubleSided" : true,
            "name" : "Blossoms.001",
            "pbrMetallicRoughness" : {}
        },
        {
            "doubleSided" : true,
            "name" : "Core.001",
            "pbrMetallicRoughness" : {}
        }
    ],
    "meshes" : [
        {
            "name" : "Cylinder.005",
            "primitives" : [
                {
                    "attributes" : {
                        "POSITION" : 0,
                        "NORMAL" : 1
                    },
                    "indices" : 2,
                    "material" : 0
                },
                {
                    "attributes" : {
                        "POSITION" : 3,
                        "NORMAL" : 4
                    },
                    "indices" : 5,
                    "material" : 1
                },
                {
                    "attributes" : {
                        "POSITION" : 6,
                        "NORMAL" : 7
                    },
                    "indices" : 8,
                    "material" : 2
                }
            ]
        },
        {
            "name" : "Cylinder.003",
            "primitives" : [
                {
                    "attributes" : {
                        "POSITION" : 9,
                        "NORMAL" : 10
                    },
                    "indices" : 11,
                    "material" : 0
                },
                {
                    "attributes" : {
                        "POSITION" : 12,
                        "NORMAL" : 13
                    },
                    "indices" : 14,
                    "material" : 3
                },
                {
                    "attributes" : {
                        "POSITION" : 15,
                        "NORMAL" : 16
                    },
                    "indices" : 8,
                    "material" : 4
                }
            ]
        },
        {
            "name" : "Cylinder.001",
            "primitives" : [
                {
                    "attributes" : {
                        "POSITION" : 17,
                        "NORMAL" : 18
                    },
                    "indices" : 19,
                    "material" : 5
                }
            ]
        },
        {
            "name" : "Cylinder",
            "primitives" : [
                {
                    "attributes" : {
                        "POSITION" : 20,
                        "NORMAL" : 21
                    },
                    "indices" : 22,
                    "material" : 6
                },
                {
                    "attributes" : {
                        "POSITION" : 23,
                        "NORMAL" : 24
                    },
                    "indices" : 25,
                    "material" : 7
                },
                {
                    "attributes" : {
                        "POSITION" : 26,
                        "NORMAL" : 27
                    },
                    "indices" : 28,
                    "material" : 8
                }
            ]
        }
    ],
    "accessors" : [
        {
            "bufferView" : 0,
            "componentType" : 5126,
            "count" : 432,
            "max" : [
                0.06332609057426453,
                0.13706374168395996,
                0.06631078571081161
            ],
            "min" : [
                -0.06527931243181229,
                -0.019358977675437927,
                -0.04417857527732849
            ],
            "type" : "VEC3"
        },
        {
            "bufferView" : 1,
            "componentType" : 5126,
            "count" : 432,
            "type" : "VEC3"
        },
        {
            "bufferView" : 2,
            "componentType" : 5123,
            "count" : 468,
            "type" : "SCALAR"
        },
        {
            "bufferView" : 3,
            "componentType" : 5126,
            "count" : 240,
            "max" : [
                0.08451569080352783,
                0.14790530502796173,
                0.08386754989624023
            ],
            "min" : [
                -0.07616393268108368,
                0.11611833423376083,
                -0.06214519217610359
            ],
            "type" : "VEC3"
        },
        {
            "bufferView" : 4,
            "componentType" : 5126,
            "count" : 240,
            "type" : "VEC3"
        },
        {
            "bufferView" : 5,
            "componentType" : 5123,
            "count" : 360,
            "type" : "SCALAR"
        },
        {
            "bufferView" : 6,
            "componentType" : 5126,
            "count" : 360,
            "max" : [
                0.0633576512336731,
                0.1430767923593521,
                0.06393569707870483
            ],
            "min" : [
                -0.05742184817790985,
                0.11887704581022263,
                -0.042710524052381516
            ],
            "type" : "VEC3"
        },
        {
            "bufferView" : 7,
            "componentType" : 5126,
            "count" : 360,
            "type" : "VEC3"
        },
        {
            "bufferView" : 8,
            "componentType" : 5123,
            "count" : 360,
            "type" : "SCALAR"
        },
        {
            "bufferView" : 9,
            "componentType" : 5126,
            "count" : 432,
            "max" : [
                0.06122342869639397,
                0.1624627262353897,
                0.06442368030548096
            ],
            "min" : [
                -0.05462170019745827,
                -0.019358981400728226,
                -0.043077729642391205
            ],
            "type" : "VEC3"
        },
        {
            "bufferView" : 10,
            "componentType" : 5126,
            "count" : 432,
            "type" : "VEC3"
        },
        {
            "bufferView" : 11,
            "componentType" : 5123,
            "count" : 468,
            "type" : "SCALAR"
        },
        {
            "bufferView" : 12,
            "componentType" : 5126,
            "count" : 288,
            "max" : [
                0.08483222126960754,
                0.1717478185892105,
                0.08749263733625412
            ],
            "min" : [
                -0.07275227457284927,
                0.12777945399284363,
                -0.0630408525466919
            ],
            "type" : "VEC3"
        },
        {
            "bufferView" : 13,
            "componentType" : 5126,
            "count" : 288,
            "type" : "VEC3"
        },
        {
            "bufferView" : 14,
            "componentType" : 5123,
            "count" : 576,
            "type" : "SCALAR"
        },
        {
            "bufferView" : 15,
            "componentType" : 5126,
            "count" : 360,
            "max" : [
                0.058793891221284866,
                0.16513551771640778,
                0.06008158251643181
            ],
            "min" : [
                -0.04961029440164566,
                0.13330179452896118,
                -0.04074244946241379
            ],
            "type" : "VEC3"
        },
        {
            "bufferView" : 16,
            "componentType" : 5126,
            "count" : 360,
            "type" : "VEC3"
        },
        {
            "bufferView" : 17,
            "componentType" : 5126,
            "count" : 99,
            "max" : [
                0.06157310679554939,
                0.20783019065856934,
                0.060679759830236435
            ],
            "min" : [
                -0.04894452914595604,
                -0.014650855213403702,
                -0.04377949982881546
            ],
            "type" : "VEC3"
        },
        {
            "bufferView" : 18,
            "componentType" : 5126,
            "count" : 99,
            "type" : "VEC3"
        },
        {
            "bufferView" : 19,
            "componentType" : 5123,
            "count" : 135,
            "type" : "SCALAR"
        },
        {
            "bufferView" : 20,
            "componentType" : 5126,
            "count" : 462,
            "max" : [
                0.06104183569550514,
                0.2664862275123596,
                0.05040006339550018
            ],
            "min" : [
                -0.04831250011920929,
                -0.016295552253723145,
                -0.046203967183828354
            ],
            "type" : "VEC3"
        },
        {
            "bufferView" : 21,
            "componentType" : 5126,
            "count" : 462,
            "type" : "VEC3"
        },
        {
            "bufferView" : 22,
            "componentType" : 5123,
            "count" : 558,
            "type" : "SCALAR"
        },
        {
            "bufferView" : 23,
            "componentType" : 5126,
            "count" : 195,
            "max" : [
                0.08497351408004761,
                0.2748830318450928,
                0.06989660859107971
            ],
            "min" : [
                -0.06720411777496338,
                0.2036801278591156,
                -0.07360638678073883
            ],
            "type" : "VEC3"
        },
        {
            "bufferView" : 24,
            "componentType" : 5126,
            "count" : 195,
            "type" : "VEC3"
        },
        {
            "bufferView" : 25,
            "componentType" : 5123,
            "count" : 351,
            "type" : "SCALAR"
        },
        {
            "bufferView" : 26,
            "componentType" : 5126,
            "count" : 390,
            "max" : [
                0.05915209278464317,
                0.27354511618614197,
                0.04169341176748276
            ],
            "min" : [
                -0.03725079447031021,
                0.20347118377685547,
                -0.040479712188243866
            ],
            "type" : "VEC3"
        },
        {
            "bufferView" : 27,
            "componentType" : 5126,
            "count" : 390,
            "type" : "VEC3"
        },
        {
            "bufferView" : 28,
            "componentType" : 5123,
            "count" : 450,
            "type" : "SCALAR"
        }
    ],
    "bufferViews" : [
        {
            "buffer" : 0,
            "byteLength" : 5184,
            "byteOffset" : 0
        },
        {
            "buffer" : 0,
            "byteLength" : 5184,
            "byteOffset" : 5184
        },
        {
            "buffer" : 0,
            "byteLength" : 936,
            "byteOffset" : 10368
        },
        {
            "buffer" : 0,
            "byteLength" : 2880,
            "byteOffset" : 11304
        },
        {
            "buffer" : 0,
            "byteLength" : 2880,
            "byteOffset" : 14184
        },
        {
            "buffer" : 0,
            "byteLength" : 720,
            "byteOffset" : 17064
        },
        {
            "buffer" : 0,
            "byteLength" : 4320,
            "byteOffset" : 17784
        },
        {
            "buffer" : 0,
            "byteLength" : 4320,
            "byteOffset" : 22104
        },
        {
            "buffer" : 0,
            "byteLength" : 720,
            "byteOffset" : 26424
        },
        {
            "buffer" : 0,
            "byteLength" : 5184,
            "byteOffset" : 27144
        },
        {
            "buffer" : 0,
            "byteLength" : 5184,
            "byteOffset" : 32328
        },
        {
            "buffer" : 0,
            "byteLength" : 936,
            "byteOffset" : 37512
        },
        {
            "buffer" : 0,
            "byteLength" : 3456,
            "byteOffset" : 38448
        },
        {
            "buffer" : 0,
            "byteLength" : 3456,
            "byteOffset" : 41904
        },
        {
            "buffer" : 0,
            "byteLength" : 1152,
            "byteOffset" : 45360
        },
        {
            "buffer" : 0,
            "byteLength" : 4320,
            "byteOffset" : 46512
        },
        {
            "buffer" : 0,
            "byteLength" : 4320,
            "byteOffset" : 50832
        },
        {
            "buffer" : 0,
            "byteLength" : 1188,
            "byteOffset" : 55152
        },
        {
            "buffer" : 0,
            "byteLength" : 1188,
            "byteOffset" : 56340
        },
        {
            "buffer" : 0,
            "byteLength" : 270,
            "byteOffset" : 57528
        },
        {
            "buffer" : 0,
            "byteLength" : 5544,
            "byteOffset" : 57800
        },
        {
            "buffer" : 0,
            "byteLength" : 5544,
            "byteOffset" : 63344
        },
        {
            "buffer" : 0,
            "byteLength" : 1116,
            "byteOffset" : 68888
        },
        {
            "buffer" : 0,
            "byteLength" : 2340,
            "byteOffset" : 70004
        },
        {
            "buffer" : 0,
            "byteLength" : 2340,
            "byteOffset" : 72344
        },
        {
            "buffer" : 0,
            "byteLength" : 702,
            "byteOffset" : 74684
        },
        {
            "buffer" : 0,
            "byteLength" : 4680,
            "byteOffset" : 75388
        },
        {
            "buffer" : 0,
            "byteLength" : 4680,
            "byteOffset" : 80068
        },
        {
            "buffer" : 0,
            "byteLength" : 900,
            "byteOffset" : 84748
        }
    ],
    "buffers" : [
        {
            "byteLength" : 85648,
            "uri" : "data:application/octet-stream;base64,"
        }
    ]
}
