{
    "asset" : {
        "generator" : "Khronos glTF Blender I/O v1.2.75",
        "version" : "2.0"
    },
    "scene" : 0,
    "scenes" : [
        {
            "name" : "Scene",
            "nodes" : [
                0,
                1,
                2,
                3
            ]
        }
    ],
    "nodes" : [
        {
            "mesh" : 0,
            "name" : "Cube"
        },
        {
            "name" : "Light",
            "rotation" : [
                0.16907575726509094,
                0.7558803558349609,
                -0.27217137813568115,
                0.570947527885437
            ],
            "translation" : [
                4.076245307922363,
                5.903861999511719,
                -1.0054539442062378
            ]
        },
        {
            "name" : "Camera",
            "rotation" : [
                0.483536034822464,
                0.33687159419059753,
                -0.20870360732078552,
                0.7804827094078064
            ],
            "translation" : [
                7.358891487121582,
                4.958309173583984,
                6.925790786743164
            ]
        },
        {
            "mesh" : 1,
            "name" : "1Newplan",
            "rotation" : [
                0.7071068286895752,
                0,
                0,
                0.7071067094802856
            ]
        }
    ],
    "materials" : [
        {
            "doubleSided" : true,
            "emissiveFactor" : [
                0,
                0,
                0
            ],
            "name" : "Material",
            "pbrMetallicRoughness" : {
                "baseColorFactor" : [
                    0.800000011920929,
                    0.800000011920929,
                    0.800000011920929,
                    1
                ],
                "metallicFactor" : 0,
                "roughnessFactor" : 0.4000000059604645
            }
        },
        {
            "doubleSided" : true,
            "emissiveFactor" : [
                0,
                0,
                0
            ],
            "name" : "1Newplan_Intrnd",
            "pbrMetallicRoughness" : {
                "baseColorFactor" : [
                    0.19599999487400055,
                    0.3921000063419342,
                    0.19599999487400055,
                    1
                ],
                "metallicFactor" : 0,
                "roughnessFactor" : 1
            }
        },
        {
            "doubleSided" : true,
            "emissiveFactor" : [
                0,
                0,
                0
            ],
            "name" : "1Newplan_Stipule",
            "pbrMetallicRoughness" : {
                "baseColorFactor" : [
                    0.17640000581741333,
                    0.4900999963283539,
                    0.17640000581741333,
                    1
                ],
                "metallicFactor" : 0,
                "roughnessFactor" : 1
            }
        },
        {
            "doubleSided" : true,
            "emissiveFactor" : [
                0,
                0,
                0
            ],
            "name" : "1Newplan_Petiole",
            "pbrMetallicRoughness" : {
                "baseColorFactor" : [
                    0.2745000123977661,
                    0.28619998693466187,
                    0.21170000731945038,
                    1
                ],
                "metallicFactor" : 0,
                "roughnessFactor" : 1
            }
        },
        {
            "doubleSided" : true,
            "emissiveFactor" : [
                0,
                0,
                0
            ],
            "name" : "1Newplan_Leaf",
            "pbrMetallicRoughness" : {
                "baseColorFactor" : [
                    0.011760000139474869,
                    0.5293999910354614,
                    0.011760000139474869,
                    1
                ],
                "metallicFactor" : 0,
                "roughnessFactor" : 1
            }
        },
        {
            "doubleSided" : true,
            "emissiveFactor" : [
                0,
                0,
                0
            ],
            "name" : "1Newplan_1Pdncle",
            "pbrMetallicRoughness" : {
                "baseColorFactor" : [
                    0.19599999487400055,
                    0.3921000063419342,
                    0.19599999487400055,
                    1
                ],
                "metallicFactor" : 0,
                "roughnessFactor" : 1
            }
        },
        {
            "doubleSided" : true,
            "emissiveFactor" : [
                0,
                0,
                0
            ],
            "name" : "1Newplan_1InfInt",
            "pbrMetallicRoughness" : {
                "baseColorFactor" : [
                    0.19599999487400055,
                    0.3921000063419342,
                    0.19599999487400055,
                    1
                ],
                "metallicFactor" : 0,
                "roughnessFactor" : 1
            }
        },
        {
            "doubleSided" : true,
            "emissiveFactor" : [
                0,
                0,
                0
            ],
            "name" : "1Newplan_1Pdcel",
            "pbrMetallicRoughness" : {
                "baseColorFactor" : [
                    0.19599999487400055,
                    0.3921000063419342,
                    0.19599999487400055,
                    1
                ],
                "metallicFactor" : 0,
                "roughnessFactor" : 1
            }
        },
        {
            "doubleSided" : true,
            "emissiveFactor" : [
                0,
                0,
                0
            ],
            "name" : "1Newplan_FruitR",
            "pbrMetallicRoughness" : {
                "baseColorFactor" : [
                    0.5019000172615051,
                    0,
                    0.5019000172615051,
                    1
                ],
                "metallicFactor" : 0,
                "roughnessFactor" : 1
            }
        }
    ],
    "meshes" : [
        {
            "name" : "Cube",
            "primitives" : [
                {
                    "attributes" : {
                        "POSITION" : 0,
                        "NORMAL" : 1,
                        "TEXCOORD_0" : 2
                    },
                    "indices" : 3,
                    "material" : 0
                }
            ]
        },
        {
            "name" : "1Newplan",
            "primitives" : [
                {
                    "attributes" : {
                        "POSITION" : 4,
                        "NORMAL" : 5
                    },
                    "indices" : 6,
                    "material" : 1
                },
                {
                    "attributes" : {
                        "POSITION" : 7,
                        "NORMAL" : 8
                    },
                    "indices" : 9,
                    "material" : 2
                },
                {
                    "attributes" : {
                        "POSITION" : 10,
                        "NORMAL" : 11
                    },
                    "indices" : 12,
                    "material" : 3
                },
                {
                    "attributes" : {
                        "POSITION" : 13,
                        "NORMAL" : 14
                    },
                    "indices" : 15,
                    "material" : 4
                },
                {
                    "attributes" : {
                        "POSITION" : 16,
                        "NORMAL" : 17
                    },
                    "indices" : 18,
                    "material" : 5
                },
                {
                    "attributes" : {
                        "POSITION" : 19,
                        "NORMAL" : 20
                    },
                    "indices" : 21,
                    "material" : 6
                },
                {
                    "attributes" : {
                        "POSITION" : 22,
                        "NORMAL" : 23
                    },
                    "indices" : 24,
                    "material" : 7
                },
                {
                    "attributes" : {
                        "POSITION" : 25,
                        "NORMAL" : 26
                    },
                    "indices" : 27,
                    "material" : 8
                }
            ]
        }
    ],
    "accessors" : [
        {
            "bufferView" : 0,
            "componentType" : 5126,
            "count" : 24,
            "max" : [
                1,
                1,
                1
            ],
            "min" : [
                -1,
                -1,
                -1
            ],
            "type" : "VEC3"
        },
        {
            "bufferView" : 1,
            "componentType" : 5126,
            "count" : 24,
            "type" : "VEC3"
        },
        {
            "bufferView" : 2,
            "componentType" : 5126,
            "count" : 24,
            "type" : "VEC2"
        },
        {
            "bufferView" : 3,
            "componentType" : 5123,
            "count" : 36,
            "type" : "SCALAR"
        },
        {
            "bufferView" : 4,
            "componentType" : 5126,
            "count" : 2928,
            "max" : [
                86.79910278320312,
                225.93310546875,
                91.96659851074219
            ],
            "min" : [
                -3.4616000652313232,
                -1.9644999504089355,
                -227.6591033935547
            ],
            "type" : "VEC3"
        },
        {
            "bufferView" : 5,
            "componentType" : 5126,
            "count" : 2928,
            "type" : "VEC3"
        },
        {
            "bufferView" : 6,
            "componentType" : 5123,
            "count" : 2970,
            "type" : "SCALAR"
        },
        {
            "bufferView" : 7,
            "componentType" : 5126,
            "count" : 6144,
            "max" : [
                158.88319396972656,
                284.67840576171875,
                149.65260314941406
            ],
            "min" : [
                -95.25810241699219,
                -23.190900802612305,
                -260.7471923828125
            ],
            "type" : "VEC3"
        },
        {
            "bufferView" : 8,
            "componentType" : 5126,
            "count" : 6144,
            "type" : "VEC3"
        },
        {
            "bufferView" : 9,
            "componentType" : 5123,
            "count" : 6144,
            "type" : "SCALAR"
        },
        {
            "bufferView" : 10,
            "componentType" : 5126,
            "count" : 22962,
            "max" : [
                228.28829956054688,
                362.73040771484375,
                256.4617919921875
            ],
            "min" : [
                -93.29350280761719,
                -147.36839294433594,
                -388.5343017578125
            ],
            "type" : "VEC3"
        },
        {
            "bufferView" : 11,
            "componentType" : 5126,
            "count" : 22962,
            "type" : "VEC3"
        },
        {
            "bufferView" : 12,
            "componentType" : 5123,
            "count" : 23040,
            "type" : "SCALAR"
        },
        {
            "bufferView" : 13,
            "componentType" : 5126,
            "count" : 10752,
            "max" : [
                350.3982849121094,
                485.6473083496094,
                378.57769775390625
            ],
            "min" : [
                -207.37449645996094,
                -264.1966857910156,
                -497.4815979003906
            ],
            "type" : "VEC3"
        },
        {
            "bufferView" : 14,
            "componentType" : 5126,
            "count" : 10752,
            "type" : "VEC3"
        },
        {
            "bufferView" : 15,
            "componentType" : 5123,
            "count" : 10752,
            "type" : "SCALAR"
        },
        {
            "bufferView" : 16,
            "componentType" : 5126,
            "count" : 714,
            "max" : [
                98.96369934082031,
                138.3834991455078,
                162.1855926513672
            ],
            "min" : [
                -3.791599988937378,
                -76.31400299072266,
                -119.71070098876953
            ],
            "type" : "VEC3"
        },
        {
            "bufferView" : 17,
            "componentType" : 5126,
            "count" : 714,
            "type" : "VEC3"
        },
        {
            "bufferView" : 18,
            "componentType" : 5123,
            "count" : 720,
            "type" : "SCALAR"
        },
        {
            "bufferView" : 19,
            "componentType" : 5126,
            "count" : 6462,
            "max" : [
                109.97239685058594,
                149.95309448242188,
                178.55479431152344
            ],
            "min" : [
                -10.303600311279297,
                -91.27059936523438,
                -135.18299865722656
            ],
            "type" : "VEC3"
        },
        {
            "bufferView" : 20,
            "componentType" : 5126,
            "count" : 6462,
            "type" : "VEC3"
        },
        {
            "bufferView" : 21,
            "componentType" : 5123,
            "count" : 6480,
            "type" : "SCALAR"
        },
        {
            "bufferView" : 22,
            "componentType" : 5126,
            "count" : 3596,
            "max" : [
                148.747802734375,
                192.58399963378906,
                218.4897003173828
            ],
            "min" : [
                -44.108001708984375,
                -134.9167022705078,
                -171.21670532226562
            ],
            "type" : "VEC3"
        },
        {
            "bufferView" : 23,
            "componentType" : 5126,
            "count" : 3596,
            "type" : "VEC3"
        },
        {
            "bufferView" : 24,
            "componentType" : 5123,
            "count" : 3600,
            "type" : "SCALAR"
        },
        {
            "bufferView" : 25,
            "componentType" : 5126,
            "count" : 13680,
            "max" : [
                172.6136016845703,
                218.4508056640625,
                250.24459838867188
            ],
            "min" : [
                -65.87429809570312,
                -158.923095703125,
                -196.622802734375
            ],
            "type" : "VEC3"
        },
        {
            "bufferView" : 26,
            "componentType" : 5126,
            "count" : 13680,
            "type" : "VEC3"
        },
        {
            "bufferView" : 27,
            "componentType" : 5123,
            "count" : 13680,
            "type" : "SCALAR"
        }
    ],
    "bufferViews" : [
        {
            "buffer" : 0,
            "byteLength" : 288,
            "byteOffset" : 0
        },
        {
            "buffer" : 0,
            "byteLength" : 288,
            "byteOffset" : 288
        },
        {
            "buffer" : 0,
            "byteLength" : 192,
            "byteOffset" : 576
        },
        {
            "buffer" : 0,
            "byteLength" : 72,
            "byteOffset" : 768
        },
        {
            "buffer" : 0,
            "byteLength" : 35136,
            "byteOffset" : 840
        },
        {
            "buffer" : 0,
            "byteLength" : 35136,
            "byteOffset" : 35976
        },
        {
            "buffer" : 0,
            "byteLength" : 5940,
            "byteOffset" : 71112
        },
        {
            "buffer" : 0,
            "byteLength" : 73728,
            "byteOffset" : 77052
        },
        {
            "buffer" : 0,
            "byteLength" : 73728,
            "byteOffset" : 150780
        },
        {
            "buffer" : 0,
            "byteLength" : 12288,
            "byteOffset" : 224508
        },
        {
            "buffer" : 0,
            "byteLength" : 275544,
            "byteOffset" : 236796
        },
        {
            "buffer" : 0,
            "byteLength" : 275544,
            "byteOffset" : 512340
        },
        {
            "buffer" : 0,
            "byteLength" : 46080,
            "byteOffset" : 787884
        },
        {
            "buffer" : 0,
            "byteLength" : 129024,
            "byteOffset" : 833964
        },
        {
            "buffer" : 0,
            "byteLength" : 129024,
            "byteOffset" : 962988
        },
        {
            "buffer" : 0,
            "byteLength" : 21504,
            "byteOffset" : 1092012
        },
        {
            "buffer" : 0,
            "byteLength" : 8568,
            "byteOffset" : 1113516
        },
        {
            "buffer" : 0,
            "byteLength" : 8568,
            "byteOffset" : 1122084
        },
        {
            "buffer" : 0,
            "byteLength" : 1440,
            "byteOffset" : 1130652
        },
        {
            "buffer" : 0,
            "byteLength" : 77544,
            "byteOffset" : 1132092
        },
        {
            "buffer" : 0,
            "byteLength" : 77544,
            "byteOffset" : 1209636
        },
        {
            "buffer" : 0,
            "byteLength" : 12960,
            "byteOffset" : 1287180
        },
        {
            "buffer" : 0,
            "byteLength" : 43152,
            "byteOffset" : 1300140
        },
        {
            "buffer" : 0,
            "byteLength" : 43152,
            "byteOffset" : 1343292
        },
        {
            "buffer" : 0,
            "byteLength" : 7200,
            "byteOffset" : 1386444
        },
        {
            "buffer" : 0,
            "byteLength" : 164160,
            "byteOffset" : 1393644
        },
        {
            "buffer" : 0,
            "byteLength" : 164160,
            "byteOffset" : 1557804
        },
        {
            "buffer" : 0,
            "byteLength" : 27360,
            "byteOffset" : 1721964
        }
    ],
    "buffers" : [
        {
            "byteLength" : 1749324,
            "uri" : "data:application/octet-stream;base64,"
        }
    ]
}
