{
    "asset" : {
        "generator" : "Khronos glTF Blender I/O v1.2.75",
        "version" : "2.0"
    },
    "scene" : 0,
    "scenes" : [
        {
            "name" : "Scene",
            "nodes" : [
                0,
                1,
                2,
                3,
                4,
                5,
                6,
                7
            ]
        }
    ],
    "nodes" : [
        {
            "name" : "Light",
            "rotation" : [
                0.16907575726509094,
                0.7558803558349609,
                -0.27217137813568115,
                0.570947527885437
            ],
            "translation" : [
                4.076245307922363,
                5.903861999511719,
                -1.0054539442062378
            ]
        },
        {
            "mesh" : 0,
            "name" : "Icosphere.023",
            "rotation" : [
                0.3846362829208374,
                -0.593342125415802,
                0.5933422446250916,
                0.38463619351387024
            ],
            "scale" : [
                0.31959232687950134,
                0.31959232687950134,
                0.31959235668182373
            ],
            "translation" : [
                0.07654464244842529,
                2.2525110244750977,
                -1.128730058670044
            ]
        },
        {
            "mesh" : 1,
            "name" : "Cylinder.011",
            "rotation" : [
                0.3846362829208374,
                -0.593342125415802,
                0.5933422446250916,
                0.38463619351387024
            ],
            "scale" : [
                0.31959232687950134,
                0.31959232687950134,
                0.31959235668182373
            ],
            "translation" : [
                0.07654464244842529,
                2.2525110244750977,
                -0.646129846572876
            ]
        },
        {
            "mesh" : 2,
            "name" : "Icosphere.022",
            "rotation" : [
                0.3846362829208374,
                -0.593342125415802,
                0.5933422446250916,
                0.38463619351387024
            ],
            "scale" : [
                0.31959232687950134,
                0.31959232687950134,
                0.31959235668182373
            ],
            "translation" : [
                0.07654464244842529,
                2.2525110244750977,
                -1.128730058670044
            ]
        },
        {
            "mesh" : 3,
            "name" : "Icosphere.021",
            "rotation" : [
                0.3846362829208374,
                -0.593342125415802,
                0.5933422446250916,
                0.38463619351387024
            ],
            "scale" : [
                0.31959232687950134,
                0.31959232687950134,
                0.31959235668182373
            ],
            "translation" : [
                0.07654464244842529,
                2.2525110244750977,
                -1.128730058670044
            ]
        },
        {
            "mesh" : 4,
            "name" : "Icosphere.020",
            "rotation" : [
                0.3846362829208374,
                -0.593342125415802,
                0.5933422446250916,
                0.38463619351387024
            ],
            "scale" : [
                0.31959232687950134,
                0.31959232687950134,
                0.31959235668182373
            ],
            "translation" : [
                0.07654464244842529,
                2.2525110244750977,
                -1.128730058670044
            ]
        },
        {
            "mesh" : 5,
            "name" : "Icosphere.019",
            "rotation" : [
                0.3846362829208374,
                -0.593342125415802,
                0.5933422446250916,
                0.38463619351387024
            ],
            "scale" : [
                0.31959232687950134,
                0.31959232687950134,
                0.31959235668182373
            ],
            "translation" : [
                0.07654464244842529,
                2.2525110244750977,
                -0.646129846572876
            ]
        },
        {
            "mesh" : 6,
            "name" : "Icosphere.018",
            "rotation" : [
                0.3846362829208374,
                -0.593342125415802,
                0.5933422446250916,
                0.38463619351387024
            ],
            "scale" : [
                0.31959232687950134,
                0.31959232687950134,
                0.31959235668182373
            ],
            "translation" : [
                0.07654464244842529,
                2.2525110244750977,
                -0.646129846572876
            ]
        }
    ],
    "materials" : [
        {
            "doubleSided" : true,
            "emissiveFactor" : [
                0,
                0,
                0
            ],
            "name" : "Material.057",
            "pbrMetallicRoughness" : {
                "baseColorFactor" : [
                    0.20980100333690643,
                    0.20980100333690643,
                    0.23691099882125854,
                    1
                ],
                "metallicFactor" : 0,
                "roughnessFactor" : 0.6932139992713928
            }
        },
        {
            "doubleSided" : true,
            "emissiveFactor" : [
                0,
                0,
                0
            ],
            "name" : "Material.060",
            "pbrMetallicRoughness" : {
                "baseColorFactor" : [
                    0.32570600509643555,
                    0.24036000669002533,
                    0.3815920054912567,
                    1
                ],
                "metallicFactor" : 0,
                "roughnessFactor" : 0.6932139992713928
            }
        },
        {
            "doubleSided" : true,
            "emissiveFactor" : [
                0,
                0,
                0
            ],
            "name" : "Material.062",
            "pbrMetallicRoughness" : {
                "baseColorFactor" : [
                    0.6399999856948853,
                    0.20865699648857117,
                    0.6152669787406921,
                    1
                ],
                "metallicFactor" : 0,
                "roughnessFactor" : 0.6932139992713928
            }
        },
        {
            "doubleSided" : true,
            "emissiveFactor" : [
                0,
                0,
                0
            ],
            "name" : "Material.063",
            "pbrMetallicRoughness" : {
                "baseColorFactor" : [
                    0.4830529987812042,
                    0.0777050033211708,
                    0.14863300323486328,
                    1
                ],
                "metallicFactor" : 0,
                "roughnessFactor" : 0.6932139992713928
            }
        },
        {
            "doubleSided" : true,
            "emissiveFactor" : [
                0,
                0,
                0
            ],
            "name" : "Material.058",
            "pbrMetallicRoughness" : {
                "baseColorFactor" : [
                    0.20980100333690643,
                    0.20980100333690643,
                    0.23691099882125854,
                    1
                ],
                "metallicFactor" : 0,
                "roughnessFactor" : 0.6932139992713928
            }
        },
        {
            "doubleSided" : true,
            "emissiveFactor" : [
                0,
                0,
                0
            ],
            "name" : "Material.059",
            "pbrMetallicRoughness" : {
                "baseColorFactor" : [
                    0.20980100333690643,
                    0.20980100333690643,
                    0.23691099882125854,
                    1
                ],
                "metallicFactor" : 0,
                "roughnessFactor" : 0.6932139992713928
            }
        },
        {
            "doubleSided" : true,
            "emissiveFactor" : [
                0,
                0,
                0
            ],
            "name" : "Material.061",
            "pbrMetallicRoughness" : {
                "baseColorFactor" : [
                    0.20980100333690643,
                    0.20980100333690643,
                    0.23691099882125854,
                    1
                ],
                "metallicFactor" : 0,
                "roughnessFactor" : 0.6932139992713928
            }
        },
        {
            "doubleSided" : true,
            "emissiveFactor" : [
                0,
                0,
                0
            ],
            "name" : "Material.056",
            "pbrMetallicRoughness" : {
                "baseColorFactor" : [
                    0.20980100333690643,
                    0.20980100333690643,
                    0.23691099882125854,
                    1
                ],
                "metallicFactor" : 0,
                "roughnessFactor" : 0.6932139992713928
            }
        },
        {
            "doubleSided" : true,
            "emissiveFactor" : [
                0,
                0,
                0
            ],
            "name" : "Material.064",
            "pbrMetallicRoughness" : {
                "baseColorFactor" : [
                    0.20980100333690643,
                    0.20980100333690643,
                    0.23691099882125854,
                    1
                ],
                "metallicFactor" : 0,
                "roughnessFactor" : 0.6932139992713928
            }
        }
    ],
    "meshes" : [
        {
            "name" : "Icosphere.023",
            "primitives" : [
                {
                    "attributes" : {
                        "POSITION" : 0,
                        "NORMAL" : 1
                    },
                    "indices" : 2,
                    "material" : 0
                }
            ]
        },
        {
            "name" : "Cylinder.011",
            "primitives" : [
                {
                    "attributes" : {
                        "POSITION" : 3,
                        "NORMAL" : 4
                    },
                    "indices" : 5,
                    "material" : 1
                },
                {
                    "attributes" : {
                        "POSITION" : 6,
                        "NORMAL" : 7
                    },
                    "indices" : 8,
                    "material" : 2
                },
                {
                    "attributes" : {
                        "POSITION" : 9,
                        "NORMAL" : 10
                    },
                    "indices" : 11,
                    "material" : 3
                }
            ]
        },
        {
            "name" : "Icosphere.022",
            "primitives" : [
                {
                    "attributes" : {
                        "POSITION" : 12,
                        "NORMAL" : 13
                    },
                    "indices" : 14,
                    "material" : 4
                }
            ]
        },
        {
            "name" : "Icosphere.021",
            "primitives" : [
                {
                    "attributes" : {
                        "POSITION" : 15,
                        "NORMAL" : 16
                    },
                    "indices" : 17,
                    "material" : 5
                }
            ]
        },
        {
            "name" : "Icosphere.020",
            "primitives" : [
                {
                    "attributes" : {
                        "POSITION" : 18,
                        "NORMAL" : 19
                    },
                    "indices" : 17,
                    "material" : 6
                }
            ]
        },
        {
            "name" : "Icosphere.019",
            "primitives" : [
                {
                    "attributes" : {
                        "POSITION" : 20,
                        "NORMAL" : 21
                    },
                    "indices" : 22,
                    "material" : 7
                }
            ]
        },
        {
            "name" : "Icosphere.018",
            "primitives" : [
                {
                    "attributes" : {
                        "POSITION" : 23,
                        "NORMAL" : 24
                    },
                    "indices" : 25,
                    "material" : 8
                }
            ]
        }
    ],
    "accessors" : [
        {
            "bufferView" : 0,
            "componentType" : 5126,
            "count" : 76,
            "max" : [
                1.887948989868164,
                1.0384429693222046,
                -2.786815881729126
            ],
            "min" : [
                -1.8001179695129395,
                -0.9761490225791931,
                -6.848595142364502
            ],
            "type" : "VEC3"
        },
        {
            "bufferView" : 1,
            "componentType" : 5126,
            "count" : 76,
            "type" : "VEC3"
        },
        {
            "bufferView" : 2,
            "componentType" : 5123,
            "count" : 78,
            "type" : "SCALAR"
        },
        {
            "bufferView" : 3,
            "componentType" : 5126,
            "count" : 227,
            "max" : [
                8.077157974243164,
                -0.8615670204162598,
                4.632038116455078
            ],
            "min" : [
                -1.9455219507217407,
                -2.7750051021575928,
                -5.431763172149658
            ],
            "type" : "VEC3"
        },
        {
            "bufferView" : 4,
            "componentType" : 5126,
            "count" : 227,
            "type" : "VEC3"
        },
        {
            "bufferView" : 5,
            "componentType" : 5123,
            "count" : 267,
            "type" : "SCALAR"
        },
        {
            "bufferView" : 6,
            "componentType" : 5126,
            "count" : 58,
            "max" : [
                6.352956771850586,
                -0.8615670204162598,
                2.996483087539673
            ],
            "min" : [
                -0.6566910147666931,
                -1.674386978149414,
                -5.431763172149658
            ],
            "type" : "VEC3"
        },
        {
            "bufferView" : 7,
            "componentType" : 5126,
            "count" : 58,
            "type" : "VEC3"
        },
        {
            "bufferView" : 8,
            "componentType" : 5123,
            "count" : 60,
            "type" : "SCALAR"
        },
        {
            "bufferView" : 9,
            "componentType" : 5126,
            "count" : 43,
            "max" : [
                5.1077189445495605,
                -1.081686019897461,
                1.5208690166473389
            ],
            "min" : [
                1.327944040298462,
                -1.674386978149414,
                -2.349445104598999
            ],
            "type" : "VEC3"
        },
        {
            "bufferView" : 10,
            "componentType" : 5126,
            "count" : 43,
            "type" : "VEC3"
        },
        {
            "bufferView" : 11,
            "componentType" : 5123,
            "count" : 57,
            "type" : "SCALAR"
        },
        {
            "bufferView" : 12,
            "componentType" : 5126,
            "count" : 98,
            "max" : [
                8.519113540649414,
                1.1094189882278442,
                -4.682373046875
            ],
            "min" : [
                2.6728029251098633,
                -1.1579220294952393,
                -6.8053998947143555
            ],
            "type" : "VEC3"
        },
        {
            "bufferView" : 13,
            "componentType" : 5126,
            "count" : 98,
            "type" : "VEC3"
        },
        {
            "bufferView" : 14,
            "componentType" : 5123,
            "count" : 102,
            "type" : "SCALAR"
        },
        {
            "bufferView" : 15,
            "componentType" : 5126,
            "count" : 72,
            "max" : [
                9.819052696228027,
                0.7907519936561584,
                4.798518180847168
            ],
            "min" : [
                6.579484939575195,
                -0.9917740225791931,
                0.7688320279121399
            ],
            "type" : "VEC3"
        },
        {
            "bufferView" : 16,
            "componentType" : 5126,
            "count" : 72,
            "type" : "VEC3"
        },
        {
            "bufferView" : 17,
            "componentType" : 5123,
            "count" : 72,
            "type" : "SCALAR"
        },
        {
            "bufferView" : 18,
            "componentType" : 5126,
            "count" : 72,
            "max" : [
                10.330625534057617,
                0.914355993270874,
                0.3319700062274933
            ],
            "min" : [
                8.196022987365723,
                -0.9113379716873169,
                -4.324841022491455
            ],
            "type" : "VEC3"
        },
        {
            "bufferView" : 19,
            "componentType" : 5126,
            "count" : 72,
            "type" : "VEC3"
        },
        {
            "bufferView" : 20,
            "componentType" : 5126,
            "count" : 92,
            "max" : [
                -1.2938330173492432,
                1.0591659545898438,
                2.3436949253082275
            ],
            "min" : [
                -3.0005099773406982,
                -1.0475800037384033,
                -2.3436949253082275
            ],
            "type" : "VEC3"
        },
        {
            "bufferView" : 21,
            "componentType" : 5126,
            "count" : 92,
            "type" : "VEC3"
        },
        {
            "bufferView" : 22,
            "componentType" : 5123,
            "count" : 96,
            "type" : "SCALAR"
        },
        {
            "bufferView" : 23,
            "componentType" : 5126,
            "count" : 52,
            "max" : [
                1.8176180124282837,
                1.2364189624786377,
                4.795557022094727
            ],
            "min" : [
                -2.4501900672912598,
                -1.317201018333435,
                2.593841075897217
            ],
            "type" : "VEC3"
        },
        {
            "bufferView" : 24,
            "componentType" : 5126,
            "count" : 52,
            "type" : "VEC3"
        },
        {
            "bufferView" : 25,
            "componentType" : 5123,
            "count" : 54,
            "type" : "SCALAR"
        }
    ],
    "bufferViews" : [
        {
            "buffer" : 0,
            "byteLength" : 912,
            "byteOffset" : 0
        },
        {
            "buffer" : 0,
            "byteLength" : 912,
            "byteOffset" : 912
        },
        {
            "buffer" : 0,
            "byteLength" : 156,
            "byteOffset" : 1824
        },
        {
            "buffer" : 0,
            "byteLength" : 2724,
            "byteOffset" : 1980
        },
        {
            "buffer" : 0,
            "byteLength" : 2724,
            "byteOffset" : 4704
        },
        {
            "buffer" : 0,
            "byteLength" : 534,
            "byteOffset" : 7428
        },
        {
            "buffer" : 0,
            "byteLength" : 696,
            "byteOffset" : 7964
        },
        {
            "buffer" : 0,
            "byteLength" : 696,
            "byteOffset" : 8660
        },
        {
            "buffer" : 0,
            "byteLength" : 120,
            "byteOffset" : 9356
        },
        {
            "buffer" : 0,
            "byteLength" : 516,
            "byteOffset" : 9476
        },
        {
            "buffer" : 0,
            "byteLength" : 516,
            "byteOffset" : 9992
        },
        {
            "buffer" : 0,
            "byteLength" : 114,
            "byteOffset" : 10508
        },
        {
            "buffer" : 0,
            "byteLength" : 1176,
            "byteOffset" : 10624
        },
        {
            "buffer" : 0,
            "byteLength" : 1176,
            "byteOffset" : 11800
        },
        {
            "buffer" : 0,
            "byteLength" : 204,
            "byteOffset" : 12976
        },
        {
            "buffer" : 0,
            "byteLength" : 864,
            "byteOffset" : 13180
        },
        {
            "buffer" : 0,
            "byteLength" : 864,
            "byteOffset" : 14044
        },
        {
            "buffer" : 0,
            "byteLength" : 144,
            "byteOffset" : 14908
        },
        {
            "buffer" : 0,
            "byteLength" : 864,
            "byteOffset" : 15052
        },
        {
            "buffer" : 0,
            "byteLength" : 864,
            "byteOffset" : 15916
        },
        {
            "buffer" : 0,
            "byteLength" : 1104,
            "byteOffset" : 16780
        },
        {
            "buffer" : 0,
            "byteLength" : 1104,
            "byteOffset" : 17884
        },
        {
            "buffer" : 0,
            "byteLength" : 192,
            "byteOffset" : 18988
        },
        {
            "buffer" : 0,
            "byteLength" : 624,
            "byteOffset" : 19180
        },
        {
            "buffer" : 0,
            "byteLength" : 624,
            "byteOffset" : 19804
        },
        {
            "buffer" : 0,
            "byteLength" : 108,
            "byteOffset" : 20428
        }
    ],
    "buffers" : [
        {
            "byteLength" : 20536,
            "uri" : "data:application/octet-stream;base64,"
        }
    ]
}
