{
    "asset" : {
        "generator" : "Khronos glTF Blender I/O v1.2.75",
        "version" : "2.0"
    },
    "scene" : 0,
    "scenes" : [
        {
            "name" : "Scene",
            "nodes" : [
                0,
                1
            ]
        }
    ],
    "nodes" : [
        {
            "mesh" : 0,
            "name" : "spikes",
            "scale" : [
                2.386030435562134,
                2.386030435562134,
                2.386030435562134
            ],
            "translation" : [
                0,
                -2.5149824619293213,
                0
            ]
        },
        {
            "mesh" : 1,
            "name" : "spikesTrap",
            "scale" : [
                2.386030435562134,
                2.386030435562134,
                2.386030435562134
            ],
            "translation" : [
                0,
                -0.019569814205169678,
                0
            ]
        }
    ],
    "materials" : [
        {
            "doubleSided" : true,
            "emissiveFactor" : [
                0,
                0,
                0
            ],
            "name" : "spikes",
            "pbrMetallicRoughness" : {
                "baseColorFactor" : [
                    0.017387619242072105,
                    0.017387619242072105,
                    0.017387619242072105,
                    1
                ],
                "metallicFactor" : 0,
                "roughnessFactor" : 0.5
            }
        }
    ],
    "meshes" : [
        {
            "name" : "Plane.002",
            "primitives" : [
                {
                    "attributes" : {
                        "POSITION" : 0,
                        "NORMAL" : 1,
                        "TEXCOORD_0" : 2
                    },
                    "indices" : 3,
                    "material" : 0
                }
            ]
        },
        {
            "name" : "Plane",
            "primitives" : [
                {
                    "attributes" : {
                        "POSITION" : 4,
                        "NORMAL" : 5,
                        "TEXCOORD_0" : 6
                    },
                    "indices" : 7,
                    "material" : 0
                }
            ]
        }
    ],
    "accessors" : [
        {
            "bufferView" : 0,
            "componentType" : 5126,
            "count" : 1296,
            "max" : [
                0.5508594512939453,
                1.0801788568496704,
                0.5508596897125244
            ],
            "min" : [
                -0.5508598685264587,
                0.03151071071624756,
                -0.5508596301078796
            ],
            "type" : "VEC3"
        },
        {
            "bufferView" : 1,
            "componentType" : 5126,
            "count" : 1296,
            "type" : "VEC3"
        },
        {
            "bufferView" : 2,
            "componentType" : 5126,
            "count" : 1296,
            "type" : "VEC2"
        },
        {
            "bufferView" : 3,
            "componentType" : 5123,
            "count" : 1944,
            "type" : "SCALAR"
        },
        {
            "bufferView" : 4,
            "componentType" : 5126,
            "count" : 1448,
            "max" : [
                0.6296722888946533,
                0.030986253172159195,
                0.6296727061271667
            ],
            "min" : [
                -0.6296725869178772,
                -0.00031739845871925354,
                -0.6296721696853638
            ],
            "type" : "VEC3"
        },
        {
            "bufferView" : 5,
            "componentType" : 5126,
            "count" : 1448,
            "type" : "VEC3"
        },
        {
            "bufferView" : 6,
            "componentType" : 5126,
            "count" : 1448,
            "type" : "VEC2"
        },
        {
            "bufferView" : 7,
            "componentType" : 5123,
            "count" : 3240,
            "type" : "SCALAR"
        }
    ],
    "bufferViews" : [
        {
            "buffer" : 0,
            "byteLength" : 15552,
            "byteOffset" : 0
        },
        {
            "buffer" : 0,
            "byteLength" : 15552,
            "byteOffset" : 15552
        },
        {
            "buffer" : 0,
            "byteLength" : 10368,
            "byteOffset" : 31104
        },
        {
            "buffer" : 0,
            "byteLength" : 3888,
            "byteOffset" : 41472
        },
        {
            "buffer" : 0,
            "byteLength" : 17376,
            "byteOffset" : 45360
        },
        {
            "buffer" : 0,
            "byteLength" : 17376,
            "byteOffset" : 62736
        },
        {
            "buffer" : 0,
            "byteLength" : 11584,
            "byteOffset" : 80112
        },
        {
            "buffer" : 0,
            "byteLength" : 6480,
            "byteOffset" : 91696
        }
    ],
    "buffers" : [
        {
            "byteLength" : 98176,
            "uri" : "data:application/octet-stream;base64,"
        }
    ]
}
